<?xml version="1.0" encoding="utf-8"?>
<!-- Generator: Adobe Illustrator 24.3.0, SVG Export Plug-In . SVG Version: 6.00 Build 0)  -->
<svg version="1.1" id="Laag_1" xmlns="http://www.w3.org/2000/svg" xmlns:xlink="http://www.w3.org/1999/xlink" x="0px" y="0px"
	 viewBox="0 0 566.9 566.9" style="enable-background:new 0 0 566.9 566.9;" xml:space="preserve">
<style type="text/css">
	.st0{fill:#FF5429;}
	.st1{fill:#6B6B7F;}
</style>
<polygon class="st0" points="408.9,329.9 408.9,332.9 155.4,332.9 155.4,211.2 158.4,211.2 158.4,294.5 192.6,274.2 215.5,300.5 
	254.8,278.3 295,278.8 321.6,261.9 351.1,291.8 396.2,249.3 382.1,248.4 382.2,245.4 401.4,246.6 400.2,265.9 397.2,265.7 
	398,251.7 351.1,296 321.2,265.8 295.9,281.8 295.4,281.8 255.6,281.3 214.9,304.3 192,278 158.4,298 158.4,329.9 "/>
<path class="st1" d="M439.8,168H129.1c-7.1,0-12.8,5.8-12.8,12.8v172.7c0,7.1,5.8,12.8,12.8,12.8h125.2l-4.1,52.9h-16.2
	c-5.6,0-10.2,4.6-10.2,10.2v3h117.2v-3c0-5.6-4.6-10.2-10.2-10.2H316l-4.1-52.9h127.9c7.1,0,12.8-5.8,12.8-12.8V180.9
	C452.7,173.8,446.9,168,439.8,168z M316.3,422.3h14.6c4,0,7.2,3.2,7.2,7.2l0,0H226.9l0,0c0-4,3.2-7.2,7.2-7.2l0,0H316.3z M313,419.3
	h-59.8l4.1-52.9h51.5L313,419.3z M449.7,353.6c0,5.4-4.4,9.8-9.8,9.8H129.1c-5.4,0-9.8-4.4-9.8-9.8V180.9c0-5.4,4.4-9.8,9.8-9.8
	h310.7c5.4,0,9.8,4.4,9.8,9.8V353.6z"/>
<path class="st1" d="M131.6,352.9h305.7V181.5H131.6V352.9z M134.6,184.5h299.7v165.3H134.6V184.5z"/>
<path class="st1" d="M245.7,393.9h-3v-2h3V393.9z M236.7,393.9h-3v-2h3V393.9z M227.7,393.9h-3v-2h3V393.9z M218.7,393.9h-3v-2h3
	V393.9z M209.7,393.9h-3v-2h3V393.9z M200.7,393.9h-3v-2h3V393.9z M191.7,393.9h-3v-2h3V393.9z M182.7,393.9h-3v-2h3V393.9z
	 M173.7,393.9h-3v-2h3V393.9z M164.7,393.9h-3v-2h3V393.9z M155.7,393.9h-3v-2h3V393.9z M146.7,393.9h-3v-2h3V393.9z"/>
<path class="st1" d="M393.2,169.5h-2v-0.9h2V169.5z M393.2,162.6h-2v-3h2V162.6z M393.2,153.6h-2v-3h2V153.6z M393.2,144.6h-2v-3h2
	V144.6z M393.2,135.6h-2v-3h2V135.6z M393.2,126.6h-2v-3h2V126.6z M393.2,117.6h-2v-3h2V117.6z M393.2,108.6h-2v-3h2V108.6z"/>
<path class="st1" d="M393.2,400.1h-2v-3h2V400.1z M393.2,391.1h-2v-3h2V391.1z M393.2,382.1h-2v-3h2V382.1z M393.2,373.1h-2v-3h2
	V373.1z"/>
<path class="st1" d="M424.2,139.6h-1.8v-2h1.8V139.6z M416.4,139.6h-3v-2h3V139.6z M407.4,139.6h-3v-2h3V139.6z M398.4,139.6h-3v-2
	h3V139.6z M389.4,139.6h-3v-2h3V139.6z M380.4,139.6h-3v-2h3V139.6z M371.4,139.6h-3v-2h3V139.6z M362.4,139.6h-3v-2h3V139.6z
	 M353.4,139.6h-3v-2h3V139.6z M344.4,139.6h-3v-2h3V139.6z M335.4,139.6h-3v-2h3V139.6z M326.4,139.6h-3v-2h3V139.6z M317.4,139.6
	h-3v-2h3V139.6z"/>
<polygon class="st1" points="399.1,250.6 398,251.7 398.2,249.6 "/>
</svg>
