<?xml version="1.0" encoding="utf-8"?>
<!-- Generator: Adobe Illustrator 24.3.0, SVG Export Plug-In . SVG Version: 6.00 Build 0)  -->
<svg version="1.1" id="Laag_1" xmlns="http://www.w3.org/2000/svg" xmlns:xlink="http://www.w3.org/1999/xlink" x="0px" y="0px"
	 viewBox="0 0 566.9 566.9" style="enable-background:new 0 0 566.9 566.9;" xml:space="preserve">
<style type="text/css">
	.st0{fill:#FF5429;}
	.st1{fill:#6B6B7F;}
</style>
<path class="st0" d="M380.8,140.8h-11.6v27.8l-9.8,16.9h-19.1l-9.8-16.9v-27.8H319l-12.4,37.7l21.5,37.5h6.1v57c1,0.9,2,1.7,3,2.6
	V213h-7.4l-20-34.8l11.3-34.4h6.4v25.6l11,19.1h22.6l11-19.1v-25.7h6.4l11.3,34.4l-20,34.8h-7.4v95.2c1.1,2,2.1,4.1,3,6.2V216h6.1
	l21.6-37.4L380.8,140.8z"/>
<path class="st1" d="M375.3,368.7l-0.1-1.5c0-1.2,0.1-2.5,0.1-3.8h1.2v-2h-1.2c0-16.2-3.4-32.2-9.9-47.1c-0.9-2.1-1.9-4.2-3-6.2
	c-5.5-10.7-12.7-20.5-21.4-29c-1.2-1.2-2.5-2.4-3.8-3.6c-1-0.9-2-1.8-3-2.6c-20-16.9-45.6-27.4-73.6-30.1v-10.4H232v10.5
	c-61.4,7.1-109,56.9-113.3,118.6H117v2h1.7c0,0.7-0.1,1.3-0.1,2l-0.3,3.2c-8.3,0.7-16.8,7.4-16.8,17.2c0,8.6,6.9,15.6,15.6,15.7
	c1.2,0.2,12.2,1.8,32.5,3.5v1.6h2v-1.5c21.8,1.7,53.7,3.4,95.2,3.4c82.4,0,126-6.6,128.6-7.1c8.6-0.1,15.6-7.1,15.6-15.7
	C391,377.7,383.4,369.6,375.3,368.7z M375.3,398.6h-0.2c-0.4,0.1-43.9,7-128.2,7s-128.9-7-129.4-7h-0.2c-7,0-12.7-5.7-12.7-12.7
	c0-6.9,6.1-14.3,15.1-14.3h1.4l0.5-6c2.4-61.7,49.3-112.4,110.5-119.7v6.1c-25.1,7.3-55,32.1-55,108.4h3c0-40.9,9-92.1,52-105.3
	v32.5h3v-52.2h22.6v52.2h3v-32.4c42.8,13.2,51.8,64.4,51.8,105.2h3c0-76.1-29.7-101-54.8-108.3v-6.3c28.2,2.8,53.9,13.6,73.6,31.1
	c1,0.9,2,1.8,3,2.8l1.7,1.6c9.9,9.7,17.8,21.2,23.5,33.8c1.1,2.4,2.1,4.9,3,7.4c5.2,14.3,7.5,29.5,6.8,44.7v0.1l0.2,4.4h1.4
	c7,0,14.1,7.2,14.1,14.3C388,392.9,382.3,398.6,375.3,398.6L375.3,398.6z"/>
<rect x="245.3" y="313.8" class="st1" width="3" height="46.7"/>
<path class="st1" d="M315.3,380.9c-0.2,0-23.5,4-68.4,4s-68.2-3.9-68.4-4l0.5-3c0.2,0,23.3,3.9,67.9,3.9s67.7-3.9,67.9-3.9
	L315.3,380.9z"/>
<path class="st1" d="M425.8,278.2V169.6l1.3-7.4c1.2-6.7,1-13.6-0.6-20.2l-0.2-0.8l-2.5-0.8h-7.4l-2.8,0.6l-0.2,0.9
	c-1.4,6.8-1.6,13.7-0.4,20.5l1.2,7.1v108.6c-5.9,1.3-10.1,6.5-10.1,12.5v84.7c0,7.1,5.8,12.8,12.8,12.8h5.8
	c7.1,0,12.8-5.8,12.8-12.8v-84.7C435.8,284.7,431.7,279.5,425.8,278.2z M417.4,170.9h5.4v107h-5.4V170.9z M416.3,143.4l0.4-0.1h6.7
	l0.4,0.1c1.3,6,1.5,12.1,0.4,18.2l-1.1,6.3h-5.9l-1-6C415.1,155.8,415.1,149.5,416.3,143.4z M432.8,375.4c0,5.4-4.4,9.8-9.8,9.8
	h-5.8c-5.4,0-9.8-4.4-9.8-9.8v-84.7c0-4.8,3.5-9,8.3-9.7l0.5-0.1c0.4,0,0.7-0.1,1.1-0.1h5.8c0.4,0,0.8,0,1.1,0.1
	c5,0.6,8.7,4.8,8.7,9.8L432.8,375.4z"/>
<path class="st1" d="M479.4,363.5h-3v-2h3V363.5z M470.4,363.5h-3v-2h3V363.5z M461.4,363.5h-3v-2h3V363.5z M452.4,363.5h-3v-2h3
	V363.5z M443.4,363.5h-3v-2h3V363.5z M434.4,363.5L434.4,363.5v-2V363.5z"/>
<path class="st1" d="M90,361.5v2h3v-2H90z M99,361.5v2h3v-2H99z M108,361.5v2h3v-2H108z"/>
<path class="st1" d="M465.4,413h-2v-3h2V413z M465.4,404h-2v-3h2V404z M465.4,395h-2v-3h2V395z M465.4,386h-2v-3h2V386z M465.4,377
	h-2v-3h2V377z M465.4,368h-2v-3h2V368z M465.4,359h-2v-3h2V359z M465.4,350h-2v-3h2V350z M465.4,341h-2v-3h2V341z M465.4,332h-2v-3
	h2V332z M465.4,323h-2v-3h2V323z M465.4,314h-2v-3h2V314z M465.4,305h-2v-3h2V305z M465.4,296h-2v-3h2V296z M465.4,287h-2v-3h2V287z
	 M465.4,278h-2v-3h2V278z M465.4,269h-2v-3h2V269z M465.4,260h-2v-3h2V260z M465.4,251h-2v-3h2V251z M465.4,242h-2v-3h2V242z"/>
<path class="st1" d="M151.6,281.7h-2v-3h2V281.7z M151.6,272.7h-2v-3h2V272.7z M151.6,263.7h-2v-3h2V263.7z M151.6,254.7h-2v-3h2
	V254.7z M151.6,245.7h-2v-3h2V245.7z M151.6,236.7h-2v-3h2V236.7z M151.6,227.7h-2v-3h2V227.7z M151.6,218.7h-2v-3h2V218.7z
	 M151.6,209.7h-2v-3h2V209.7z M151.6,200.7h-2v-3h2V200.7z M151.6,191.7h-2v-3h2V191.7z M151.6,182.7h-2v-3h2V182.7z M151.6,173.7
	h-2v-3h2V173.7z M151.6,164.7h-2v-3h2V164.7z M151.6,155.7h-2v-3h2V155.7z"/>
<path class="st1" d="M149.6,412.7v3h2v-3H149.6z M149.6,421.7v3h2v-3H149.6z M149.6,430.7v3h2v-3H149.6z M149.6,439.7v3h2v-3H149.6z
	"/>
<path class="st1" d="M400.5,361.5v2h3v-2H400.5z M391.5,361.5v2h3v-2H391.5z M382.5,361.5v2h3v-2H382.5z"/>
</svg>
