<?xml version="1.0" encoding="utf-8"?>
<!-- Generator: Adobe Illustrator 24.3.0, SVG Export Plug-In . SVG Version: 6.00 Build 0)  -->
<svg version="1.1" id="Laag_1" xmlns="http://www.w3.org/2000/svg" xmlns:xlink="http://www.w3.org/1999/xlink" x="0px" y="0px"
	 viewBox="0 0 566.9 566.9" style="enable-background:new 0 0 566.9 566.9;" xml:space="preserve">
<style type="text/css">
	.st0{fill:#6B6B7F;}
	.st1{fill:#FF5429;}
</style>
<path class="st0" d="M98.9,402.5c-6.5,0-11.7-5.2-11.7-11.7s5.2-11.7,11.7-11.7s11.7,5.2,11.7,11.7l0,0
	C110.6,397.2,105.3,402.5,98.9,402.5z M98.9,382.1c-4.8,0-8.7,3.9-8.7,8.7c0,4.8,3.9,8.7,8.7,8.7c4.8,0,8.7-3.9,8.7-8.7l0,0
	C107.6,386,103.7,382.1,98.9,382.1L98.9,382.1z"/>
<path class="st0" d="M167.5,402.5c-6.5,0-11.7-5.2-11.7-11.7s5.2-11.7,11.7-11.7s11.7,5.2,11.7,11.7l0,0
	C179.2,397.2,174,402.5,167.5,402.5z M167.5,382.1c-4.8,0-8.7,3.9-8.7,8.7s3.9,8.7,8.7,8.7s8.7-3.9,8.7-8.7l0,0
	C176.2,386,172.3,382.1,167.5,382.1L167.5,382.1z"/>
<path class="st0" d="M471.7,128.1h-47c-0.9-7.6-7.3-13.4-15-13.5c-0.2,0-19.1-0.2-25.2-0.2c-3.1,0-4.5-2.2-6.6-6.1
	c-2.8-5.1-6.3-11.5-17.2-11.5s-15.4,6.3-19,11.4c-2.7,3.8-4.5,6.2-7.7,6.2c-3.9,0-23.3,0.2-23.3,0.2c-7.7,0-14.2,5.8-15.1,13.5
	h-45.4c-7.1,0-12.9,5.7-12.9,12.8c0,0,0,0,0,0.1v183.7h-97.8c-0.7,0-1.6,0-2.4,0c-8.4-0.2-23.9-0.5-33.1,14.1l-27,37.7l0,0
	c-7.9,10.7-5.7,25.8,5,33.7c4.2,3.1,9.2,4.8,14.4,4.8h141v19c0,7.1,5.8,12.8,12.8,12.8h221.5c7.1,0,12.8-5.7,12.8-12.8V141
	C484.6,133.9,478.8,128.1,471.7,128.1L471.7,128.1z M227,327.7l-22.6,39.1h-67.8l27.1-39.1H227z M106.5,340.5
	c8.3-13.3,22.2-13,30.5-12.8c0.9,0,1.8,0,2.5,0H160l-27.1,39.1H96.3c-3.6,0-7.2,0.8-10.4,2.4L106.5,340.5z M237.3,399.4
	c-0.4,0.1-0.8,0.1-1.2,0.1c-4.8-0.2-8.6-4.2-8.4-9c0.2-4.6,3.8-8.3,8.4-8.4c0.4,0,0.8,0,1.2,0.1V399.4z M237.3,379.1
	c-6.4-0.7-12.2,4-12.9,10.4s4,12.2,10.4,12.9c0.8,0.1,1.6,0.1,2.5,0v9.7h-141c-11.7,0-21.1-9.5-21.1-21.1s9.5-21.1,21.1-21.1h141
	V379.1z M237.3,366.9h-29.6l22.6-39.1h6.9v39.1H237.3z M298.5,129.9c0-0.1,0-0.1,0-0.2c0-0.5,0-1,0.1-1.5c0.8-6,6-10.5,12-10.5
	c0,0,19.4-0.1,23.3-0.2c4.9-0.1,7.5-3.7,10.1-7.5c3.5-5,7.1-10.1,16.5-10.1c9.1,0,11.9,5.1,14.6,10c2.1,3.8,4.2,7.7,9.2,7.7
	c6.1,0,25,0.2,25.2,0.2c6,0,11.2,4.5,12,10.5c0.1,0.5,0.1,1,0.1,1.5c0,0.1,0,0.1,0,0.2v26.3H298.5V129.9z M424.8,159.2v-5.5h33.7
	v267.7H263.4V153.6h32.1v5.5L424.8,159.2z M481.6,434c0,5.4-4.4,9.8-9.8,9.8H250.2c-5.4,0-9.8-4.4-9.8-9.8V141
	c0-5.4,4.4-9.8,9.8-9.8h45.3v19.5h-35.1v273.7h201.1V150.6h-36.7v-19.5h46.9c5.4,0,9.8,4.4,9.8,9.8V434H481.6z"/>
<path class="st0" d="M139.5,184.7v2h3v-2H139.5z M130.5,184.7v2h3v-2H130.5z M121.5,184.7v2h3v-2H121.5z M112.5,184.7v2h3v-2H112.5z
	 M103.5,184.7v2h3v-2H103.5z M94.5,184.7v2h3v-2H94.5z"/>
<path class="st0" d="M170.1,171.4l53.6-9.1v-1.5l-0.2-1.5l-53.9,9.1c-8.9,1.5-16.4,7.7-19.4,16.3h-1.8v2h1.1
	c-1.7,6.6-0.7,13.7,2.9,19.5h-0.2v17.6h-6l-7.8,34.2h6.8l-3.5,12.6l0.5,25.3l12.3-0.3l0.7-20.6l9-17.1h17.4l9,17.1l0.7,20.6
	l12.3,0.3l0.5-25.3l-3.5-12.6h6.2l-5.4-34.2H196v-7l27.7-1.7l-0.1-1.5l-0.1-1.5l-48.4,3c-12.2,0.7-22.6-8.6-23.2-20.8
	C151.3,183.2,159.1,173.3,170.1,171.4L170.1,171.4z M152.2,274.4l-0.6,18.4l-6.4,0.1l-0.4-21.9l3.4-12.4l12.2,0.3L152.2,274.4z
	 M201.2,271.1l-0.4,21.9l-6.4-0.1l-0.6-18.4l-8.1-15.4l12.2-0.3L201.2,271.1z M199,226.9l4.5,28.2h-61.2l6.4-28.2H199z M173.8,218.2
	c0.5,0,1,0,1.6-0.1l17.7-1.1v6.8h-37.8V210C160,215.2,166.7,218.2,173.8,218.2L173.8,218.2z"/>
<path class="st0" d="M186.4,186.7c-3.4-5-10.1-6.3-15.1-2.9c-0.6,0.4-1.2,0.9-1.8,1.5c-0.4,0.4-0.8,0.9-1.2,1.4
	c-3.4,5-2.1,11.8,2.9,15.1s11.8,2.1,15.1-2.9C188.8,195.3,188.8,190.4,186.4,186.7z M177.4,200.7c-4.4,0-7.9-3.5-7.9-7.9
	c0-3.7,2.5-6.8,6-7.7c0.6-0.1,1.2-0.2,1.9-0.2c0.4,0,0.8,0,1.1,0.1c4.3,0.6,7.3,4.6,6.7,8.9C184.6,197.8,181.3,200.7,177.4,200.7z"
	/>
<path class="st0" d="M360.1,109.9c-4.8,0-8.7,3.9-8.7,8.7s3.9,8.7,8.7,8.7s8.7-3.9,8.7-8.7C368.8,113.8,364.9,109.9,360.1,109.9z
	 M360.1,124.2c-3.1,0-5.7-2.5-5.7-5.7c0-3.1,2.5-5.7,5.7-5.7c3.1,0,5.7,2.5,5.7,5.7l0,0C365.8,121.7,363.3,124.2,360.1,124.2z"/>
<path class="st1" d="M310.3,192.7l2.4-3.8l-2.5-1.6l-2.1,3.2c-5.3-3.9-12.7-2.8-16.6,2.5s-2.8,12.7,2.5,16.6s12.7,2.8,16.6-2.5
	C313.8,202.8,313.7,196.9,310.3,192.7z M301.1,208.9c-4.9,0-8.8-3.9-8.8-8.8c0-4.9,3.9-8.8,8.8-8.8c1.9,0,3.8,0.6,5.4,1.8l-5.6,8.7
	l-5.4-5.9l-2.2,2l8.1,8.8l7.2-11.3c2.6,4.1,1.4,9.5-2.7,12.1C304.4,208.4,302.8,208.9,301.1,208.9L301.1,208.9z"/>
<path class="st1" d="M310.3,232.4l2.4-3.7l-2.5-1.7l-2.1,3.2c-5.3-3.9-12.7-2.8-16.6,2.5s-2.8,12.7,2.5,16.6
	c5.3,3.9,12.7,2.8,16.6-2.5C313.8,242.5,313.7,236.5,310.3,232.4L310.3,232.4z M301.1,248.6c-4.9,0-8.8-3.9-8.8-8.8s3.9-8.8,8.8-8.8
	c1.9,0,3.8,0.6,5.4,1.8l-5.6,8.7l-5.4-6l-2.2,2l8.1,8.8l7.2-11.3c0.9,1.4,1.4,3,1.4,4.7C309.9,244.6,306,248.5,301.1,248.6
	L301.1,248.6z"/>
<path class="st0" d="M301.1,267.6c-6.5,0-11.8,5.3-11.8,11.8s5.3,11.8,11.8,11.8s11.8-5.3,11.8-11.8l0,0
	C312.9,272.9,307.6,267.7,301.1,267.6z M301.1,288.2c-4.9,0-8.8-3.9-8.8-8.8s3.9-8.8,8.8-8.8s8.8,3.9,8.8,8.8l0,0
	C309.9,284.3,306,288.2,301.1,288.2z"/>
<rect x="323.5" y="193.9" class="st0" width="100.6" height="3"/>
<rect x="323.5" y="201.6" class="st0" width="73.3" height="3"/>
<rect x="323.5" y="274.1" class="st0" width="100.6" height="3"/>
<rect x="323.5" y="281.8" class="st0" width="54.7" height="3"/>
<path class="st0" d="M301.1,307.2c-6.5,0-11.8,5.3-11.8,11.8s5.3,11.8,11.8,11.8s11.8-5.3,11.8-11.8l0,0
	C312.9,312.5,307.6,307.2,301.1,307.2z M301.1,327.8c-4.9,0-8.8-3.9-8.8-8.8s3.9-8.8,8.8-8.8s8.8,3.9,8.8,8.8l0,0
	C309.9,323.8,306,327.8,301.1,327.8L301.1,327.8z"/>
<rect x="323.5" y="313.6" class="st0" width="100.6" height="3"/>
<rect x="323.5" y="321.3" class="st0" width="54.7" height="3"/>
<rect x="323.5" y="234.4" class="st0" width="100.6" height="3"/>
<rect x="323.5" y="242.1" class="st0" width="100.7" height="3"/>
<polygon class="st0" points="303.2,279.5 308,284.3 305.9,286.4 301.1,281.6 296.3,286.4 294.2,284.3 299,279.5 294.2,274.6 
	296.3,272.5 301.1,277.3 305.9,272.5 308,274.6 "/>
<path class="st0" d="M110.5,327h-2v-3h2V327z M110.5,318h-2v-3h2V318z M110.5,309h-2v-3h2V309z M110.5,300h-2v-3h2V300z M110.5,291
	h-2v-3h2V291z M110.5,282h-2v-3h2V282z M110.5,273h-2v-3h2V273z M110.5,264h-2v-3h2V264z M110.5,255h-2v-3h2V255z M110.5,246h-2v-3
	h2V246z M110.5,237h-2v-3h2V237z M110.5,228h-2v-3h2V228z M110.5,219h-2v-3h2V219z M110.5,210h-2v-3h2V210z M110.5,201h-2v-3h2V201z
	 M110.5,192h-2v-3h2V192z M110.5,183h-2v-3h2V183z M110.5,174h-2v-3h2V174z M110.5,165h-2v-3h2V165z M110.5,156h-2v-3h2V156z"/>
<path class="st0" d="M110.5,453.7h-2v-3h2V453.7z M110.5,444.7h-2v-3h2V444.7z M110.5,435.7h-2v-3h2V435.7z M110.5,426.7h-2v-3h2
	V426.7z"/>
<path class="st0" d="M229.7,431.3h-3v-2h3V431.3z M220.7,431.3h-3v-2h3V431.3z M211.7,431.3h-3v-2h3V431.3z M202.7,431.3h-3v-2h3
	V431.3z M193.7,431.3h-3v-2h3V431.3z M184.7,431.3h-3v-2h3V431.3z M175.7,431.3h-3v-2h3V431.3z M166.7,431.3h-3v-2h3V431.3z
	 M157.7,431.3h-3v-2h3V431.3z M148.7,431.3h-3v-2h3V431.3z M139.7,431.3h-3v-2h3V431.3z"/>
</svg>
