<?xml version="1.0" encoding="utf-8"?>
<!-- Generator: Adobe Illustrator 24.3.0, SVG Export Plug-In . SVG Version: 6.00 Build 0)  -->
<svg version="1.1" id="Laag_1" xmlns="http://www.w3.org/2000/svg" xmlns:xlink="http://www.w3.org/1999/xlink" x="0px" y="0px"
	 viewBox="0 0 566.9 566.9" style="enable-background:new 0 0 566.9 566.9;" xml:space="preserve">
<style type="text/css">
	.st0{fill:#6B6B7F;}
	.st1{fill:#EB5A2D;}
</style>
<path class="st0" d="M283.9,196.3c-91.9,0-166.7,74.8-166.7,166.7v1.5h333.3v-1.5C450.5,271,375.8,196.3,283.9,196.3z M441.7,319.5
	l-26.5,7.1c-2.6-10.6-6.5-20.9-11.7-30.6l22.9-13.2C433.1,294.3,438.2,306.7,441.7,319.5z M425,280.1l-22.9,13.2
	c-5.4-9.7-11.9-18.6-19.4-26.7l18.1-18.1C410.1,258,418.2,268.6,425,280.1z M398.7,246.4l-18.1,18c-7.8-8-16.5-14.9-25.9-20.8
	l12.5-21.6C378.6,228.8,389.2,237,398.7,246.4z M364.6,220.6l-12.4,21.6c-9.6-5.7-19.9-10.1-30.7-13.2l6.3-23.7
	C340.6,208.8,353,214,364.6,220.6L364.6,220.6z M285.4,199.3c13.3,0.1,26.6,1.9,39.5,5.2l-6.3,23.6c-10.8-2.9-22-4.4-33.2-4.5V199.3
	z M282.4,199.3v24.3c-11.2,0.1-22.4,1.6-33.2,4.5l-6.3-23.6C255.8,201.1,269,199.4,282.4,199.3L282.4,199.3z M240,205.3l6.3,23.7
	c-10.7,3.1-21,7.5-30.7,13.2l-12.4-21.6C214.8,214,227.1,208.8,240,205.3L240,205.3z M200.6,222.1l12.5,21.6
	c-9.5,5.8-18.2,12.8-25.9,20.8l-18.1-18C178.5,237.1,189.1,228.9,200.6,222.1L200.6,222.1z M166.9,248.5l18.1,18.1
	c-7.5,8.1-14.1,17-19.4,26.7l-22.9-13.2C149.5,268.7,157.6,258,166.9,248.5L166.9,248.5z M141.2,282.8l22.9,13.2
	c-5.1,9.7-9,20-11.6,30.6l-26.5-7.1C129.6,306.7,134.7,294.3,141.2,282.8L141.2,282.8z M148.6,361.5h-28.4c0.1-13.2,1.8-26.3,5.1-39
	l26.5,7.1c-2.1,9.6-3.2,19.5-3.2,29.3L148.6,361.5z M264.7,361.5c0.8-10.6,10.1-18.5,20.7-17.6c9.4,0.7,16.9,8.2,17.6,17.6H264.7z
	 M416.1,361.5H306c-0.3-4-1.7-7.9-4-11.2l0,0c-0.3-0.4-0.6-0.8-0.9-1.2s-0.6-0.8-1-1.1c-8.3-9-22.4-9.5-31.4-1.2
	c-4.2,3.9-6.7,9.2-7.1,14.8h-110v-2.6c0-72.9,59.3-132.2,132.2-132.2S416.1,286,416.1,358.9V361.5z M419.1,361.5v-2.6
	c0-9.9-1.1-19.7-3.2-29.3l26.5-7.1c3.3,12.7,5,25.8,5.1,39L419.1,361.5z"/>
<path class="st1" d="M386.4,282.7l-18.4-0.2l6.1,7.9l-74,57.4c0.3,0.4,0.7,0.7,1,1.1s0.6,0.8,0.9,1.2l73.9-57.4l0,0l6.3,8.1
	L386.4,282.7z"/>
<path class="st0" d="M130.1,413.9h-2v-3h2V413.9z M130.1,404.9h-2v-3h2V404.9z M130.1,395.9h-2v-3h2V395.9z M130.1,386.9h-2v-3h2
	V386.9z M130.1,377.9h-2v-3h2V377.9z M130.1,368.9h-2v-3h2V368.9z M130.1,296.9h-2v-3h2V296.9z M130.1,287.9h-2v-3h2V287.9z
	 M130.1,278.9h-2v-3h2V278.9z M130.1,269.9h-2v-3h2V269.9z M130.1,260.9h-2v-3h2V260.9z M130.1,251.9h-2v-3h2V251.9z M130.1,242.9
	h-2v-3h2V242.9z M130.1,233.9h-2v-3h2V233.9z M130.1,224.9h-2v-3h2V224.9z M130.1,215.9h-2v-3h2V215.9z M130.1,206.9h-2v-3h2V206.9z
	 M130.1,197.9h-2v-3h2V197.9z M130.1,188.9h-2v-3h2V188.9z M130.1,179.9h-2v-3h2V179.9z M130.1,170.9h-2v-3h2V170.9z M130.1,161.9
	h-2v-3h2V161.9z"/>
<path class="st0" d="M468.1,237.7h-3v-2h3V237.7z M459.1,237.7h-3v-2h3V237.7z M450.1,237.7h-3v-2h3V237.7z M441.1,237.7h-3v-2h3
	V237.7z M432.1,237.7h-3v-2h3V237.7z M423.1,237.7h-3v-2h3V237.7z M414.1,237.7h-3v-2h3V237.7z M405.1,237.7h-3v-2h3V237.7z
	 M396.1,237.7h-3v-2h3V237.7z M171.1,237.7h-3v-2h3V237.7z M162.1,237.7h-3v-2h3V237.7z M153.1,237.7h-3v-2h3V237.7z M144.1,237.7
	h-3v-2h3V237.7z M135.1,237.7h-3v-2h3V237.7z M126.1,237.7h-3v-2h3V237.7z M117.1,237.7h-3v-2h3V237.7z M108.1,237.7h-3v-2h3V237.7z
	 M99.1,237.7h-3v-2h3V237.7z M90.1,237.7h-3v-2h3V237.7z M81.1,237.7h-3v-2h3V237.7z M72.1,237.7h-3v-2h3V237.7z"/>
</svg>
