<?xml version="1.0" encoding="utf-8"?>
<!-- Generator: Adobe Illustrator 24.3.0, SVG Export Plug-In . SVG Version: 6.00 Build 0)  -->
<svg version="1.1" id="Laag_1" xmlns="http://www.w3.org/2000/svg" xmlns:xlink="http://www.w3.org/1999/xlink" x="0px" y="0px"
	 viewBox="0 0 566.9 566.9" style="enable-background:new 0 0 566.9 566.9;" xml:space="preserve">
<style type="text/css">
	.st0{fill:#6B6B7F;}
	.st1{fill:#4A4A49;}
	.st2{fill:#FF5429;}
</style>
<path class="st0" d="M113.8,392.5h340.8V202.1H113.8V392.5z M116.8,389.5V219.2h334.8v170.3H116.8z M451.7,205.1v11.1H116.8v-11.1
	H451.7z"/>
<rect x="411.5" y="133.2" class="st0" width="2" height="3"/>
<rect x="411.5" y="142.2" class="st0" width="2" height="3"/>
<rect x="411.5" y="124.2" class="st0" width="2" height="3"/>
<rect x="411.5" y="151.2" class="st0" width="2" height="3"/>
<rect x="411.5" y="160.2" class="st0" width="2" height="3"/>
<rect x="411.5" y="115.2" class="st1" width="2" height="3"/>
<rect x="411.5" y="415.9" class="st0" width="2" height="3"/>
<rect x="411.5" y="424.9" class="st0" width="2" height="3"/>
<rect x="411.5" y="433.9" class="st0" width="2" height="3"/>
<rect x="411.5" y="406.9" class="st0" width="2" height="3"/>
<rect x="227.8" y="237.6" class="st0" width="25.4" height="3"/>
<rect x="270.8" y="237.6" class="st0" width="25.4" height="3"/>
<rect x="313.8" y="237.6" class="st0" width="25.4" height="3"/>
<rect x="356.8" y="237.6" class="st2" width="25.4" height="3"/>
<rect x="399.8" y="237.6" class="st2" width="25.4" height="3"/>
<rect x="141.7" y="268.9" class="st0" width="25.4" height="3"/>
<rect x="184.7" y="268.9" class="st0" width="25.4" height="3"/>
<rect x="227.8" y="268.9" class="st0" width="25.4" height="3"/>
<rect x="270.8" y="268.9" class="st0" width="25.4" height="3"/>
<rect x="313.8" y="268.9" class="st0" width="25.4" height="3"/>
<rect x="356.8" y="268.9" class="st2" width="25.4" height="3"/>
<rect x="399.8" y="268.9" class="st2" width="25.4" height="3"/>
<rect x="141.7" y="300.1" class="st0" width="25.4" height="3"/>
<rect x="184.7" y="300.1" class="st0" width="25.4" height="3"/>
<rect x="227.8" y="300.1" class="st0" width="25.4" height="3"/>
<rect x="270.8" y="300.1" class="st0" width="25.4" height="3"/>
<rect x="313.8" y="300.1" class="st0" width="25.4" height="3"/>
<rect x="356.8" y="300.1" class="st2" width="25.4" height="3"/>
<rect x="399.8" y="300.1" class="st2" width="25.4" height="3"/>
<rect x="141.7" y="331.4" class="st0" width="25.4" height="3"/>
<rect x="184.7" y="331.4" class="st0" width="25.4" height="3"/>
<rect x="227.8" y="331.4" class="st0" width="25.4" height="3"/>
<rect x="270.8" y="331.4" class="st0" width="25.4" height="3"/>
<rect x="313.8" y="331.4" class="st0" width="25.4" height="3"/>
<rect x="356.8" y="331.3" class="st2" width="25.4" height="3"/>
<rect x="399.8" y="331.3" class="st2" width="25.4" height="3"/>
<rect x="141.7" y="362.4" class="st0" width="25.4" height="3"/>
<rect x="184.7" y="362.4" class="st0" width="25.4" height="3"/>
<rect x="227.8" y="362.9" class="st0" width="25.4" height="3"/>
<rect x="270.8" y="362.9" class="st0" width="25.4" height="3"/>
<rect x="88.8" y="349.5" class="st0" width="2" height="3"/>
<rect x="88.8" y="367.5" class="st0" width="2" height="3"/>
<rect x="88.8" y="358.5" class="st0" width="2" height="3"/>
<rect x="88.8" y="313.5" class="st0" width="2" height="3"/>
<rect x="88.8" y="304.5" class="st0" width="2" height="3"/>
<rect x="88.8" y="376.5" class="st0" width="2" height="3"/>
<rect x="88.8" y="331.5" class="st0" width="2" height="3"/>
<rect x="88.8" y="295.5" class="st0" width="2" height="3"/>
<rect x="88.8" y="340.5" class="st0" width="2" height="3"/>
<rect x="88.8" y="430.5" class="st0" width="2" height="3"/>
<rect x="88.8" y="385.5" class="st0" width="2" height="3"/>
<rect x="88.8" y="421.5" class="st0" width="2" height="3"/>
<rect x="88.8" y="412.5" class="st0" width="2" height="3"/>
<rect x="88.8" y="322.5" class="st0" width="2" height="3"/>
<rect x="88.8" y="394.5" class="st0" width="2" height="3"/>
<rect x="88.8" y="403.5" class="st0" width="2" height="3"/>
<rect x="83.5" y="417.5" class="st0" width="3" height="2"/>
<rect x="74.5" y="417.5" class="st0" width="3" height="2"/>
<rect x="209.5" y="417.5" class="st0" width="3" height="2"/>
<rect x="218.5" y="417.5" class="st0" width="3" height="2"/>
<rect x="200.5" y="417.5" class="st0" width="3" height="2"/>
<rect x="191.5" y="417.5" class="st0" width="3" height="2"/>
<rect x="236.5" y="417.5" class="st0" width="3" height="2"/>
<rect x="227.5" y="417.5" class="st0" width="3" height="2"/>
<rect x="254.5" y="417.5" class="st0" width="3" height="2"/>
<rect x="245.5" y="417.5" class="st0" width="3" height="2"/>
<rect x="182.5" y="417.5" class="st0" width="3" height="2"/>
<rect x="155.5" y="417.5" class="st0" width="3" height="2"/>
<rect x="110.5" y="417.5" class="st0" width="3" height="2"/>
<rect x="119.5" y="417.5" class="st0" width="3" height="2"/>
<rect x="128.5" y="417.5" class="st0" width="3" height="2"/>
<rect x="101.5" y="417.5" class="st0" width="3" height="2"/>
<rect x="173.5" y="417.5" class="st0" width="3" height="2"/>
<rect x="137.5" y="417.5" class="st0" width="3" height="2"/>
<rect x="164.5" y="417.5" class="st0" width="3" height="2"/>
<rect x="92.5" y="417.5" class="st0" width="3" height="2"/>
<rect x="146.5" y="417.5" class="st0" width="3" height="2"/>
<path class="st0" d="M452,164.7h-74.5c-2.2-5-6.5-8.2-11.3-8.2s-9.2,3.3-11.3,8.2H209.2c-2.2-5-6.5-8.2-11.3-8.2s-9.2,3.3-11.3,8.2
	H117c-7.1,0-12.8,5.7-12.8,12.8V391c0,7.1,5.7,12.8,12.8,12.9h335c7.1,0,12.8-5.8,12.8-12.9V177.5
	C464.8,170.4,459.1,164.7,452,164.7z M366.2,159.4c3.2,0,6.2,2,8,5.2h-16C360,161.5,362.9,159.4,366.2,159.4L366.2,159.4z
	 M197.9,159.4c3.2,0,6.2,2,8,5.2h-16C191.7,161.5,194.6,159.4,197.9,159.4L197.9,159.4z M461.8,391c0,5.4-4.4,9.8-9.8,9.8H117
	c-5.4,0-9.8-4.4-9.8-9.8V177.5c0-5.4,4.4-9.8,9.8-9.8h68.6c-0.3,1.4-0.5,2.8-0.5,4.1c-0.1,4,1.3,8,3.9,11.1
	c-1.6,4.4,0.7,9.2,5.1,10.7c4.4,1.6,9.2-0.7,10.7-5.1c1.6-4.4-0.7-9.2-5.1-10.7c-3.2-1.2-6.8-0.2-9.1,2.3c-1.7-2.4-2.6-5.3-2.6-8.3
	c0-1.4,0.2-2.8,0.6-4.1h165.2c-0.3,1.4-0.5,2.8-0.5,4.1c-0.1,4,1.3,8,3.9,11.1c-1.6,4.4,0.7,9.2,5.1,10.8s9.2-0.7,10.8-5.1
	s-0.7-9.2-5.1-10.8c-3.2-1.2-6.9-0.3-9.2,2.3c-1.7-2.4-2.6-5.3-2.5-8.3c0-1.4,0.2-2.8,0.6-4.1h95c5.4,0,9.8,4.4,9.8,9.8L461.8,391z
	 M197.9,187.2c1.5,0,3-0.3,4.4-0.9c-0.2,3-2.8,5.2-5.8,4.9c-2.8-0.2-5-2.6-4.9-5.5c0-0.2,0-0.4,0.1-0.5
	C193.4,186.5,195.6,187.2,197.9,187.2z M192.7,182.3c1.8-2.3,5.2-2.7,7.5-0.9c0.6,0.5,1.1,1.1,1.4,1.8c-1.2,0.6-2.5,1-3.8,1
	C196,184.2,194.2,183.5,192.7,182.3L192.7,182.3z M366.2,187.2c1.5,0,3-0.3,4.4-0.9c-0.2,3-2.8,5.2-5.8,4.9c-2.8-0.2-5-2.6-4.9-5.5
	c0-0.2,0-0.4,0-0.5C361.7,186.5,363.9,187.2,366.2,187.2L366.2,187.2z M361.1,182.3c1.8-2.3,5.2-2.7,7.5-0.9
	c0.6,0.5,1.1,1.1,1.4,1.8c-1.2,0.6-2.5,1-3.8,1C364.3,184.2,362.5,183.5,361.1,182.3L361.1,182.3z"/>
</svg>
