<?xml version="1.0" encoding="utf-8"?>
<!-- Generator: Adobe Illustrator 24.3.0, SVG Export Plug-In . SVG Version: 6.00 Build 0)  -->
<svg version="1.1" id="Laag_1" xmlns="http://www.w3.org/2000/svg" xmlns:xlink="http://www.w3.org/1999/xlink" x="0px" y="0px"
	 viewBox="0 0 566.9 566.9" style="enable-background:new 0 0 566.9 566.9;" xml:space="preserve">
<style type="text/css">
	.st0{fill:#6B6B7F;}
	.st1{fill:#FF5429;}
	.st2{fill:#6B6B7F;stroke:#6B6B7F;stroke-width:2;stroke-miterlimit:10;stroke-dasharray:3,6;}
</style>
<path class="st0" d="M304.7,221c-3.6,0-6.5,2.4-6.5,5.3c0,0,0,0.1,0,0.1l0,0v133.7c0,23.8-19.3,43-43,43s-43-19.3-43-43v-86.4h2.5
	c0.4,0,0.8-0.2,1.1-0.4c0.2-0.1,0.3-0.2,0.4-0.3l15.5-15.5v-64.2c-0.1-1.1-1-1.9-2.1-2.1h-33.8l-15.5,15.5c-0.1,0.1-0.2,0.2-0.2,0.3
	c-0.3,0.3-0.5,0.7-0.4,1.1v65.5h19.5v86.4c0,30.9,25.1,56,56,56s56-25.1,56-56V226.5 M311.2,226.4c0,0,0-0.1,0-0.1
	c0-2.9-2.9-5.3-6.5-5.3L311.2,226.4z M228.7,256.2l-12.4,12.3v-59.9l12.4-12.3V256.2z M197,194.2h29.5l-12.4,12.4h-29.4L197,194.2z
	 M182.5,270.7v-61.1h30.7v61.1H182.5z M308.1,360.1c0,29.3-23.7,53-53,53s-53-23.7-53-53v-86.4h7v86.4c0,25.4,20.6,46,46,46
	s46-20.6,46-46l0,0V230.7c2.2,1.1,4.8,1.1,7,0V360.1z M308.1,226.4c-0.1,1.1-1.5,2.1-3.5,2.1s-3.4-1.1-3.5-2.1c0,0,0-0.1,0-0.1
	c0-1.1,1.4-2.3,3.5-2.3s3.5,1.2,3.5,2.3C308.2,226.3,308.2,226.4,308.1,226.4L308.1,226.4z"/>
<path class="st1" d="M209.2,204.4h-15.4l8.1-8.1h15.4L209.2,204.4z M201.1,201.4h6.9l2.1-2.1h-6.9L201.1,201.4z"/>
<path class="st0" d="M382,329.4c-0.3-0.4-0.8-0.7-1.4-0.7h-17.4v-86.5c0-30.9-25.1-56-56-56s-56,25.1-56,56V376
	c0,0.6,0.1,1.2,0.4,1.7c2,3.4,6.3,4.5,9.7,2.6c1.1-0.6,2-1.5,2.6-2.6c0.2-0.5,0.4-1.1,0.4-1.7V242.1c0-23.8,19.3-43,43-43
	s43,19.3,43,43v86.5h-3.3l-15.5,15.5c-0.1,0.1-0.2,0.2-0.3,0.4c-0.3,0.3-0.4,0.7-0.4,1.1v65.5h35c0.4,0,0.8-0.2,1.1-0.5
	c0.1-0.1,0.3-0.2,0.4-0.3l15.5-15.5v-64.2C382.7,330.2,382.4,329.7,382,329.4z M307.2,196.1c-25.4,0-46,20.6-46,46V376l0,0
	c0,0.2,0,0.4-0.1,0.5c-1.3,1.9-3.9,2.3-5.8,1c-0.4-0.3-0.7-0.6-1-1c-0.1-0.2-0.1-0.3-0.1-0.5V242.1c0-29.3,23.7-53,53-53
	c29.3,0,53,23.7,53,53v93.7c0,0.1,0,0.1,0,0.2c-0.2,1-1.5,2.1-3.5,2.1s-3.3-1-3.5-2.1c0-0.1,0-0.1,0-0.2v-93.7
	C353.2,216.7,332.6,196.1,307.2,196.1z M348.1,331.7h2.1v4.1c0,0.2,0,0.5,0.1,0.7c0.4,2.6,3.2,4.6,6.4,4.6s6-2,6.4-4.6
	c0-0.2,0.1-0.5,0.1-0.7v-4.1h14.4l-4.6,4.6l-7.8,7.7h-29.5L348.1,331.7z M333.6,347h30.7v61.1h-30.7V347z M379.7,393.7L367.4,406
	v-59.9l12.4-12.3L379.7,393.7z"/>
<line class="st2" x1="324.3" y1="186.1" x2="428.6" y2="186.1"/>
<line class="st2" x1="393" y1="161.9" x2="393" y2="254.2"/>
<line class="st2" x1="138.3" y1="360.2" x2="199.9" y2="360.2"/>
</svg>
