<?xml version="1.0" encoding="utf-8"?>
<!-- Generator: Adobe Illustrator 24.3.0, SVG Export Plug-In . SVG Version: 6.00 Build 0)  -->
<svg version="1.1" id="Laag_1" xmlns="http://www.w3.org/2000/svg" xmlns:xlink="http://www.w3.org/1999/xlink" x="0px" y="0px"
	 viewBox="0 0 566.9 566.9" style="enable-background:new 0 0 566.9 566.9;" xml:space="preserve">
<style type="text/css">
	.st0{fill:#6B6B7F;}
	.st1{fill:#FF5429;}
	.st2{fill:#4A4A49;}
</style>
<path class="st0" d="M488.9,217.5v-0.2c1.3-36-25.2-64.7-62.5-68.6V143h-17v5.8c-29.8,3.7-54,25.8-60.4,55.1H114.6
	c-7.1,0-12.8,5.8-12.8,12.8v159.4H75.1v3.7c0,7.1,5.8,12.8,12.8,12.8h326.3c7.1,0,12.8-5.7,12.8-12.8v-3.7h-28.4V240.4l-3-0.1v135.8
	H104.8V216.7c0-5.4,4.4-9.8,9.8-9.8h233.8c-0.5,2.9-0.9,5.9-1,8.9H115.3v151.4h269.9V236.9l-3-0.1c-22.6-1.1-34.4-3-34.5-3h-0.2
	c-3.4,0-6.2-2.8-6.2-6.2c0.2-4,3.5-7.2,7.6-7.1h1.4l0.1-1.6l0.2-2.4c0-0.2,0-0.4,0-0.7c0.1-3,0.5-6,1-8.9c0.2-1,0.4-2,0.6-3
	c6.4-27.6,29.2-48.4,57.4-52.1v2.1c-12.7,3.9-27.4,15.9-29.7,50h3c1.8-25.5,10.9-41.6,26.7-46.9v16.8h3V146h11v27.9h3v-17
	c18,5.8,27.5,25.3,27.5,56.7h3c0-42-16.5-55.7-30.5-59.8v-2c35.6,3.9,60.9,31.2,59.5,65.5v0.1l0.1,3.1h1.4c3.4,0,7,3.7,7,7.1
	c0,3.4-2.8,6.2-6.2,6.2h-0.2c-0.2,0-23.9,3.8-69.9,3.8c-7,0-13.5-0.1-19.4-0.2v3c6,0.1,12.5,0.2,19.4,0.2c44.6,0,68.4-3.6,70.3-3.9
	c5.1-0.1,9.1-4.2,9.1-9.2C497.5,222.9,493.4,218.3,488.9,217.5z M276.9,379.1c-0.2,2.1-2,3.8-4.1,3.8h-43.4c-2.1,0-3.9-1.6-4.1-3.8
	H276.9z M222.3,379.1c0.2,3.8,3.3,6.8,7.1,6.8h43.3c3.8,0,6.9-3,7.1-6.8H424v0.7c0,5.4-4.4,9.8-9.8,9.8H87.9c-5.4,0-9.8-4.4-9.8-9.8
	v-0.7H222.3z M338.1,227.5c0,5.1,4.1,9.2,9.1,9.2c1.3,0.2,13.2,1.9,34.9,3v124.5H118.3V218.8h224.9
	C340.1,220.6,338.2,223.9,338.1,227.5z"/>
<polygon class="st1" points="330.9,345.9 330.9,348.9 161.3,348.9 161.3,248.3 164.3,248.3 164.3,343.7 198.2,309.8 216.2,309.8 
	241.7,284.3 274.8,284.3 313.6,245.5 299.7,245.5 299.7,242.5 318.8,242.5 318.8,261.8 315.8,261.8 315.8,247.5 276,287.3 
	243,287.3 217.5,312.8 199.4,312.8 166.4,345.9 "/>
<path class="st0" d="M395.7,237.3c-3.7-0.1-7.2-0.2-10.5-0.4v3c3.3,0.1,6.8,0.3,10.5,0.4l3,0.1v-3L395.7,237.3z M379.7,203.9
	c-0.1,1-0.1,2-0.2,3c-0.1,2.1-0.1,4.4-0.1,6.7h3c0-2.3,0.1-4.5,0.2-6.7c0-1,0.1-2,0.2-3H379.7z"/>
<rect x="416.6" y="188.1" class="st0" width="3" height="25.5"/>
<path class="st0" d="M418.1,227.6c-24.6,0-37-2.1-37.5-2.2l0.5-3c0.1,0,12.7,2.1,37,2.1s36.9-2.1,37-2.1l0.5,3
	C455.1,225.5,442.7,227.6,418.1,227.6z"/>
<path class="st0" d="M417.9,362.7h-2v-3h2V362.7z M417.9,353.7h-2v-3h2V353.7z M417.9,344.7h-2v-3h2V344.7z M417.9,335.7h-2v-3h2
	V335.7z M417.9,326.7h-2v-3h2V326.7z M417.9,317.7h-2v-3h2V317.7z M417.9,308.7h-2v-3h2V308.7z M417.9,299.7h-2v-3h2V299.7z
	 M417.9,290.7h-2v-3h2V290.7z M417.9,281.7h-2v-3h2V281.7z M417.9,272.7h-2v-3h2V272.7z M417.9,263.7h-2v-3h2V263.7z M417.9,254.7
	h-2v-3h2V254.7z"/>
<path class="st0" d="M143.9,435.5h-2v-3h2V435.5z M143.9,426.5h-2v-3h2V426.5z M143.9,417.5h-2v-3h2V417.5z M143.9,408.5h-2v-3h2
	V408.5z M143.9,399.5h-2v-3h2V399.5z M143.9,201.5h-2v-3h2V201.5z M143.9,192.5h-2v-3h2V192.5z M143.9,183.5h-2v-3h2V183.5z
	 M143.9,174.5h-2v-3h2V174.5z"/>
<path class="st2" d="M432,348.4h-3v-2h3V348.4z M423,348.4h-3v-2h3V348.4z M414,348.4h-3v-2h3V348.4z M405,348.4h-3v-2h3V348.4z
	 M99,348.4h-3v-2h3V348.4z M90,348.4h-3v-2h3V348.4z M81,348.4h-3v-2h3V348.4z M72,348.4h-3v-2h3V348.4z M63,348.4h-3v-2h3V348.4z
	 M54,348.4h-3v-2h3V348.4z"/>
</svg>
