<?xml version="1.0" encoding="utf-8"?>
<!-- Generator: Adobe Illustrator 24.3.0, SVG Export Plug-In . SVG Version: 6.00 Build 0)  -->
<svg version="1.1" id="Laag_1" xmlns="http://www.w3.org/2000/svg" xmlns:xlink="http://www.w3.org/1999/xlink" x="0px" y="0px"
	 viewBox="0 0 566.9 566.9" style="enable-background:new 0 0 566.9 566.9;" xml:space="preserve">
<style type="text/css">
	.st0{fill:#EB5A2D;}
	.st1{fill:#6B6B7F;}
</style>
<path class="st0" d="M293.3,199.4H265v-15.5h28.3L293.3,199.4z M268,196.4h22.3v-9.5H268L268,196.4z"/>
<rect x="199.1" y="183.9" class="st1" width="3" height="2"/>
<rect x="208.1" y="183.9" class="st1" width="3" height="2"/>
<rect x="163.1" y="183.9" class="st1" width="3" height="2"/>
<rect x="172.1" y="183.9" class="st1" width="3" height="2"/>
<rect x="217.1" y="183.9" class="st1" width="3" height="2"/>
<rect x="181.1" y="183.9" class="st1" width="3" height="2"/>
<rect x="226.1" y="183.9" class="st1" width="3" height="2"/>
<rect x="253.1" y="183.9" class="st1" width="2.4" height="2"/>
<rect x="190.1" y="183.9" class="st1" width="3" height="2"/>
<rect x="244.1" y="183.9" class="st1" width="3" height="2"/>
<rect x="235.1" y="183.9" class="st1" width="3" height="2"/>
<rect x="149" y="370.9" class="st1" width="2" height="3"/>
<rect x="149" y="379.9" class="st1" width="2" height="3"/>
<rect x="149" y="406.9" class="st1" width="2" height="3"/>
<rect x="149" y="397.9" class="st1" width="2" height="3"/>
<rect x="149" y="352.9" class="st1" width="2" height="3"/>
<rect x="149" y="361.9" class="st1" width="2" height="3"/>
<rect x="149" y="415.9" class="st1" width="2" height="3"/>
<rect x="149" y="388.9" class="st1" width="2" height="3"/>
<rect x="492.1" y="294.3" class="st1" width="3" height="2"/>
<rect x="474.1" y="294.3" class="st1" width="3" height="2"/>
<rect x="483.1" y="294.3" class="st1" width="3" height="2"/>
<rect x="465.1" y="294.3" class="st1" width="3" height="2"/>
<rect x="456.1" y="294.3" class="st1" width="3" height="2"/>
<rect x="447.1" y="294.3" class="st1" width="3" height="2"/>
<rect x="438.1" y="294.3" class="st1" width="3" height="2"/>
<rect x="479.1" y="217.3" class="st1" width="2" height="3"/>
<rect x="479.1" y="253.3" class="st1" width="2" height="3"/>
<rect x="479.1" y="235.3" class="st1" width="2" height="3"/>
<rect x="479.1" y="244.3" class="st1" width="2" height="3"/>
<rect x="479.1" y="226.3" class="st1" width="2" height="3"/>
<rect x="479.1" y="181.3" class="st1" width="2" height="3"/>
<rect x="479.1" y="190.3" class="st1" width="2" height="3"/>
<rect x="479.1" y="199.3" class="st1" width="2" height="3"/>
<rect x="479.1" y="208.3" class="st1" width="2" height="3"/>
<rect x="479.1" y="271.3" class="st1" width="2" height="3"/>
<rect x="479.1" y="262.3" class="st1" width="2" height="3"/>
<rect x="479.1" y="325.3" class="st1" width="2" height="3"/>
<rect x="479.1" y="316.3" class="st1" width="2" height="3"/>
<rect x="479.1" y="343.3" class="st1" width="2" height="2.3"/>
<rect x="479.1" y="334.3" class="st1" width="2" height="3"/>
<rect x="479.1" y="307.3" class="st1" width="2" height="3"/>
<rect x="479.1" y="280.3" class="st1" width="2" height="3"/>
<rect x="479.1" y="289.3" class="st1" width="2" height="3"/>
<rect x="479.1" y="298.3" class="st1" width="2" height="3"/>
<path class="st1" d="M403.7,218.2c0-7.1-5.8-12.8-12.8-12.8h-73.6V191l-25.9-15.8h-33.5v30.2h-86.8c-7.1,0-12.8,5.8-12.8,12.8v23
	h-21.2v47.4h-13.5V305h13.5v44.3h21.2v23.8c0,7.1,5.7,12.9,12.8,12.9c0,0,0,0,0,0h68.1v9.8h-10v15.4h133.3v-15.5h-10V386h38.3
	c7.1,0,12.8-5.7,12.8-12.8v-5.8l31.8-20v-101l-31.8-20L403.7,218.2z M400.7,343.1H191v-29.6h209.7V343.1z M400.7,310.5H191v-29.6
	h209.7V310.5z M400.7,277.9H191v-29.6h209.7V277.9z M260.9,178.2h29.6l23.7,14.4v12.8h-53.3V178.2z M317.3,208.4h73.6
	c5.4,0,9.8,4.4,9.8,9.8v27H191v-36.8H317.3z M126.7,302v-10.4h10.5V302H126.7z M140.1,346.3V244.2h18.2v102.1L140.1,346.3z
	 M161.3,373.1V218.2c0-5.4,4.4-9.8,9.8-9.8H188V383h-16.9C165.7,383,161.3,378.6,161.3,373.1L161.3,373.1z M359.5,398.7v9.4H232.2
	v-9.4H359.5z M349.5,395.7H242.2V386h107.4L349.5,395.7z M400.7,373.1c0,5.4-4.4,9.8-9.8,9.8H191v-36.8h209.7L400.7,373.1
	L400.7,373.1z M432.4,247.9v97.7l-28.8,18.1V229.8L432.4,247.9z"/>
</svg>
