<?xml version="1.0" encoding="utf-8"?>
<!-- Generator: Adobe Illustrator 24.3.0, SVG Export Plug-In . SVG Version: 6.00 Build 0)  -->
<svg version="1.1" id="Laag_1" xmlns="http://www.w3.org/2000/svg" xmlns:xlink="http://www.w3.org/1999/xlink" x="0px" y="0px"
	 viewBox="0 0 566.9 566.9" style="enable-background:new 0 0 566.9 566.9;" xml:space="preserve">
<style type="text/css">
	.st0{fill:#FF5429;}
	.st1{fill:#6B6B7F;}
</style>
<path class="st0" d="M186.8,208h-15.4l8.1-8.1h15.4L186.8,208z M178.6,205h6.9l2.1-2.1h-6.9L178.6,205z"/>
<path class="st1" d="M403.8,190.7h-3v-2h3V190.7z M394.8,190.7h-3v-2h3V190.7z M385.8,190.7h-3v-2h3V190.7z M376.8,190.7h-3v-2h3
	V190.7z M367.8,190.7h-3v-2h3V190.7z M358.8,190.7h-3v-2h3V190.7z M349.8,190.7h-3v-2h3V190.7z M340.8,190.7h-3v-2h3V190.7z
	 M331.8,190.7h-3v-2h3V190.7z M322.8,190.7h-3v-2h3V190.7z M313.8,190.7h-3v-2h3V190.7z M304.8,190.7h-3v-2h3V190.7z"/>
<path class="st1" d="M371.5,257.8h-2v-2.3h2V257.8z M371.5,249.4h-2v-3h2V249.4z M371.5,240.4h-2v-3h2V240.4z M371.5,231.4h-2v-3h2
	V231.4z M371.5,222.4h-2v-3h2V222.4z M371.5,213.4h-2v-3h2V213.4z M371.5,204.4h-2v-3h2V204.4z M371.5,195.4h-2v-3h2V195.4z
	 M371.5,186.4h-2v-3h2V186.4z M371.5,177.4h-2v-3h2V177.4z M371.5,168.4h-2v-3h2V168.4z"/>
<path class="st1" d="M172.8,364.7h-3v-2h3V364.7z M163.8,364.7h-3v-2h3V364.7z M154.8,364.7h-3v-2h3V364.7z M145.8,364.7h-3v-2h3
	V364.7z M136.8,364.7h-3v-2h3V364.7z M127.8,364.7h-3v-2h3V364.7z M118.8,364.7h-3v-2h3V364.7z"/>
<path class="st1" d="M398.9,322.2c-14.1-15.8-34.3-24.8-55.5-24.8c-0.9,0-1.8,0-2.7,0v-51.7c0-30.9-25.1-56-56-56s-56,25.1-56,56
	v133.9c0,0.6,0.1,1.2,0.4,1.7c2,3.4,6.3,4.5,9.7,2.6c1.1-0.6,2-1.5,2.6-2.6c0.2-0.5,0.4-1.1,0.4-1.7V245.7c0-23.8,19.3-43,43-43
	c23.8,0,43,19.3,43,43V299c-4.6,1-9.1,2.4-13.5,4.2c-9.7,4.1-18.4,10.2-25.6,18V230l0,0c0,0,0-0.1,0-0.1c0-2.9-2.9-5.3-6.5-5.3
	s-6.5,2.4-6.5,5.3c0,0,0,0.1,0,0.1l0,0v110.7c-6.3,13.8-8.3,29.2-5.6,44.2c-11.7,20.7-37.9,28-58.6,16.3
	c-13.5-7.6-21.9-22-21.9-37.5v-86.4h2.5c0.4,0,0.9-0.2,1.2-0.5l0,0c0.1-0.1,0.3-0.2,0.4-0.3l15.4-15.5v-64.2c-0.1-1.1-1-1.9-2.1-2.1
	h-33.8l-15.5,15.5c-0.1,0.1-0.2,0.2-0.3,0.4c-0.3,0.3-0.4,0.7-0.4,1.1v65.5h19.5v86.4c0,30.9,25,56,55.9,56.1
	c16.2,0,31.5-6.9,42.2-19.1c15.9,37.9,59.6,55.7,97.5,39.8c37.9-15.9,55.7-59.6,39.8-97.5C408.9,335.4,404.4,328.4,398.9,322.2
	L398.9,322.2z M284.7,199.7c-25.4,0-46,20.6-46,46v133.9l0,0c0,0.2,0,0.4-0.1,0.5c-1.3,1.9-3.9,2.3-5.8,1c-0.4-0.3-0.7-0.6-1-1
	c-0.1-0.2-0.1-0.3-0.1-0.5V245.7c0-29.3,23.7-53,53-53c29.3,0,53,23.7,53,53v51.9h-0.3c-2.3,0.2-4.5,0.5-6.7,0.8v-52.7
	C330.7,220.3,310.1,199.7,284.7,199.7z M282.2,227.6c2.1,0,3.5,1.2,3.5,2.3c0,0,0,0.1,0,0.1c-0.1,1-1.5,2.1-3.5,2.1
	s-3.4-1.1-3.5-2.1c0,0,0-0.1,0-0.1C278.7,228.8,280.1,227.6,282.2,227.6z M282.2,235.1c1.2,0,2.4-0.3,3.5-0.8v90.4
	c-1,1.3-2,2.6-3,3.9c-1.4,2-2.8,4.1-4,6.3V234.3C279.8,234.8,281,235.1,282.2,235.1z M206.2,259.8l-12.3,12.3v-59.9l12.3-12.4V259.8
	z M174.6,197.8H204l-12.3,12.3h-29.5L174.6,197.8z M160.1,274.3v-61.2h30.7v61.1L160.1,274.3z M232.7,416.7c-29.3,0-53-23.7-53-53
	v-86.5h7v86.4c0,25.4,20.6,46,46,46c15.4,0,29.8-7.7,38.3-20.5c0.7,2.8,1.5,5.6,2.5,8.3C263.5,409.7,248.5,416.7,232.7,416.7
	L232.7,416.7z M343.4,443.3c-29.4,0-55.7-18-66.5-45.3c-0.4-1.1-0.9-2.2-1.2-3.4c-1-3-1.8-6.1-2.5-9.2c-0.3-1.7-0.6-3.5-0.8-5.3
	c-0.3-2.8-0.5-5.6-0.5-8.3c0-14.9,4.6-29.4,13.2-41.5c0.2-0.2,0.3-0.5,0.5-0.7c0.9-1.3,1.9-2.6,3-3.8c10-12,23.8-20.3,39-23.8
	c1-0.2,2-0.4,3-0.6c2.3-0.4,4.6-0.7,7-0.9h0c1-0.1,2-0.1,3-0.2c0.9,0,1.8,0,2.7,0c39.5,0,71.5,32,71.5,71.5S382.8,443.2,343.4,443.3
	L343.4,443.3z"/>
<path class="st1" d="M335.8,411.9v14.7c0,2.2-1.8,4-4,4c0,0-0.1,0-0.1,0H329c-2.2,0.1-4.1-1.7-4.1-3.9c0,0,0-0.1,0-0.1v-0.1v0
	l-3-3.1v3.1c0.1,3.9,3.2,7,7.1,7h2.7c3.9,0,7.1-3.1,7.1-7v-18.8L335.8,411.9z M346.2,313.8h-7v13.9l-4.5,7.6H326l-4.5-7.6v-13.9h-7
	l-6.4,19l11.1,18.7h2.7v46l1.3,1.3l1.7-2.3v-48h-4l-9.5-16l5.3-15.7h1.9v11.7l5.8,9.8h12l5.8-9.8v-11.7h1.8l5.3,15.7l-9.5,16h-4
	v33.4l3-4v-26.4h2.7l11.1-18.7L346.2,313.8z"/>
<path class="st1" d="M369.1,314.9l-0.2-0.8l-1.7-0.5h-3.8l-2,0.4l-0.2,0.9c-0.7,3.3-0.8,6.8-0.2,10.2l0.6,3.4v18.9l3-4v-13.5h1.2
	v11.9l3-4v-9.3l0.6-3.5C370,321.6,369.9,318.2,369.1,314.9z M366.4,324.4l-0.4,2.4h-1.7l-0.4-2.2c-0.5-2.6-0.5-5.4,0-8h2.5
	C366.9,319.1,366.9,321.8,366.4,324.4z M368.8,380v-12.2l-3,4v7.9h-1.2v-6.3l-3,4v2.6c-2.9,0.9-5,3.6-5,6.6v40.7
	c0.1,3.9,3.2,7,7.1,7h2.9c3.9,0,7.1-3.1,7.1-7v-40.8C373.7,383.6,371.7,380.9,368.8,380z M370.8,427.3c0,2.2-1.8,4-4,4
	c0,0-0.1,0-0.1,0h-2.9c-2.2,0.1-4.1-1.7-4.1-3.9c0,0,0-0.1,0-0.1v-40.7c0-2.1,1.6-3.8,3.7-3.9c0.2,0,0.3,0,0.5,0h2.9
	c0.2,0,0.3,0,0.5,0c2,0.2,3.6,1.9,3.6,3.9V427.3z"/>
<path class="st0" d="M376.1,327.9l-7.3,9.8l-3,4l-1.2,1.6l-3,4l-22.8,30.5l-3,4l-11,14.7l-1.7,2.3l-1.3-1.3l-19-19.9l-13,12.5
	l32,33.5l3,3.1v0l11-14.7l3-4l22.8-30.5l3-4l1.2-1.6l3-4l21.7-29.1L376.1,327.9z M365.8,366.8l-1.2,1.6l-3,4l-22.8,30.5l-3,4
	l-11,14.7l-0.3,0.4l-2.7-2.8l-27.8-29l8.7-8.3l19.1,20l1.5,1.6l1.5-1.9l11-14.7l3-4l22.8-30.5l3-4l1.2-1.6l3-4l7.9-10.6l9.6,7.2
	l-17.5,23.5L365.8,366.8z"/>
</svg>
