<?xml version="1.0" encoding="utf-8"?>
<!-- Generator: Adobe Illustrator 24.3.0, SVG Export Plug-In . SVG Version: 6.00 Build 0)  -->
<svg version="1.1" id="Laag_1" xmlns="http://www.w3.org/2000/svg" xmlns:xlink="http://www.w3.org/1999/xlink" x="0px" y="0px"
	 viewBox="0 0 566.9 566.9" style="enable-background:new 0 0 566.9 566.9;" xml:space="preserve">
<style type="text/css">
	.st0{fill:#6B6B7F;}
	.st1{fill:#FF5429;}
</style>
<path class="st0" d="M161.1,167.5v246.2h246.2V167.5H161.1z M404.3,410.7H164.1V170.5h240.2V410.7z"/>
<path class="st0" d="M284.2,193.6c-53.6,0-97,43.4-97,97s43.4,97,97,97s97-43.4,97-97l0,0C381.2,237,337.8,193.6,284.2,193.6z
	 M284.2,384.6c-51.9,0-94-42.1-94-94s42.1-94,94-94s94,42.1,94,94C378.1,342.5,336.1,384.5,284.2,384.6L284.2,384.6z"/>
<path class="st0" d="M284.2,184.1c-58.8,0-106.5,47.7-106.5,106.5s47.7,106.5,106.5,106.5c58.8,0,106.5-47.7,106.5-106.5
	c0,0,0,0,0,0C390.7,231.8,343,184.1,284.2,184.1z M284.2,394.1c-57.2,0-103.5-46.3-103.5-103.5S227,187,284.2,187
	s103.5,46.3,103.5,103.5c0,0,0,0,0,0C387.7,347.7,341.3,394,284.2,394.1z"/>
<path class="st1" d="M339.2,261.8l-0.2,3c-20.3-1.2-37.7,11.4-46.8,19.7c-0.6-0.8-1.4-1.5-2.2-2.1
	C299.4,273.7,317.5,260.5,339.2,261.8z"/>
<path class="st1" d="M313,345.6l-3-0.2c1.2-20.3-11.4-37.7-19.7-46.8c0.8-0.6,1.5-1.4,2.1-2.2C301,305.8,314.3,323.8,313,345.6z"/>
<path class="st1" d="M278.4,298.8c-9,8.3-25.8,20.7-46.2,20.7c-1,0-2,0-3-0.1l0.2-3c20.3,1.2,37.7-11.4,46.8-19.7
	C276.8,297.4,277.5,298.2,278.4,298.8z"/>
<path class="st1" d="M278.2,282.6c-0.8,0.6-1.5,1.4-2.1,2.2c-8.7-9.4-21.9-27.4-20.6-49.2l3,0.2
	C257.2,256.1,269.8,273.5,278.2,282.6z"/>
<path class="st0" d="M362.1,290.6c0-22.9-10-44.6-27.5-59.4l-0.6-0.5l-0.8,0.2c-30.4,8.2-42.7,31.8-47.5,46.7v-64.9h-1.5
	c-22.9,0-44.6,10.1-59.4,27.5l-0.5,0.6l0.2,0.8c8.2,30.3,31.8,42.7,46.7,47.5h-64.9v1.5c0,22.9,10,44.6,27.5,59.4l0.6,0.5l0.8-0.2
	c30.3-8.2,42.7-31.8,47.5-46.8v64.9h1.5c22.9,0,44.6-10,59.4-27.5l0.5-0.6l-0.2-0.8c-8.1-30.3-31.8-42.7-46.7-47.5h64.9L362.1,290.6
	z M227.6,241.6c13.9-16,33.9-25.4,55.1-25.8v64.9c-1.6,0.2-3.2,0.9-4.5,1.9c-1.5,1.2-2.7,2.7-3.4,4.5
	C261,283.1,236.1,271.9,227.6,241.6L227.6,241.6z M235.2,347.2c-16-13.9-25.4-33.9-25.8-55.1h64.9c0.4,2.7,1.9,5.1,4.1,6.7
	c0.7,0.5,1.5,0.9,2.3,1.2C276.7,313.8,265.5,338.6,235.2,347.2L235.2,347.2z M284.2,297.7c-0.5,0-1-0.1-1.5-0.2
	c-0.4-0.1-0.9-0.2-1.3-0.4c-0.3-0.1-0.6-0.3-0.8-0.4c-0.9-0.5-1.7-1.2-2.2-2.1c-0.5-0.7-0.9-1.6-1.1-2.5c-0.1-0.4-0.1-0.9-0.1-1.3
	c0-0.1,0-0.1,0-0.2c0-0.9,0.2-1.9,0.6-2.8c0.1-0.3,0.3-0.6,0.4-0.9c0.5-0.9,1.2-1.6,2.1-2.2c0.7-0.5,1.6-0.9,2.5-1.1
	c0.4-0.1,0.9-0.1,1.3-0.1h0.2c0.5,0,1,0.1,1.5,0.2c0.4,0.1,0.8,0.2,1.2,0.4c0.3,0.1,0.6,0.3,0.9,0.4c1.7,1,2.9,2.6,3.3,4.5
	c0.1,0.4,0.1,0.9,0.1,1.3c0,0.1,0,0.1,0,0.2c0,0.5-0.1,1-0.2,1.5c-0.1,0.4-0.2,0.8-0.4,1.2c-0.1,0.3-0.3,0.6-0.4,0.8
	c-0.5,0.9-1.2,1.6-2.1,2.2c-0.7,0.5-1.6,0.9-2.5,1.1c-0.4,0.1-0.9,0.1-1.3,0.1H284.2z M340.7,339.7c-13.9,16-33.9,25.4-55.1,25.8
	v-65c1.6-0.2,3.2-0.9,4.5-1.9c0.8-0.6,1.5-1.4,2.1-2.2c0.5-0.7,0.9-1.5,1.2-2.3C307.4,298.1,332.3,309.3,340.7,339.7L340.7,339.7z
	 M294.1,289.1c-0.2-1.7-0.9-3.2-1.9-4.5c-0.6-0.8-1.3-1.6-2.2-2.2c-0.7-0.5-1.5-0.9-2.3-1.2c4-13.8,15.2-38.6,45.5-47.2
	c16,13.9,25.4,33.9,25.8,55.1L294.1,289.1z"/>
<path class="st0" d="M157.2,211.2h-3v-2h3V211.2z M148.2,211.2h-3v-2h3V211.2z M139.2,211.2h-3v-2h3V211.2z M130.2,211.2h-3v-2h3
	V211.2z M121.2,211.2h-3v-2h3V211.2z M112.2,211.2h-3v-2h3V211.2z M103.2,211.2h-3v-2h3V211.2z M94.2,211.2h-3v-2h3V211.2z
	 M85.2,211.2h-3v-2h3V211.2z M76.2,211.2h-3v-2h3V211.2z"/>
<path class="st0" d="M107.2,270.5h-2v-3h2V270.5z M107.2,261.5h-2v-3h2V261.5z M107.2,252.5h-2v-3h2V252.5z M107.2,243.5h-2v-3h2
	V243.5z M107.2,234.5h-2v-3h2V234.5z M107.2,225.5h-2v-3h2V225.5z M107.2,216.5h-2v-3h2V216.5z M107.2,207.5h-2v-3h2V207.5z
	 M107.2,198.5h-2v-3h2V198.5z M107.2,189.5h-2v-3h2V189.5z M107.2,180.5h-2v-3h2V180.5z M107.2,171.5h-2v-3h2V171.5z M107.2,162.5
	h-2v-3h2V162.5z M107.2,153.5h-2v-3h2V153.5z M107.2,144.5h-2v-3h2V144.5z"/>
<path class="st0" d="M448.8,378.9h-3v-2h3V378.9z M439.8,378.9h-3v-2h3V378.9z M430.8,378.9h-3v-2h3V378.9z M421.8,378.9h-3v-2h3
	V378.9z M412.8,378.9h-3v-2h3V378.9z"/>
<path class="st0" d="M380.7,464.2h-2v-3h2V464.2z M380.7,455.2h-2v-3h2V455.2z M380.7,446.2h-2v-3h2V446.2z M380.7,437.2h-2v-3h2
	V437.2z M380.7,428.2h-2v-3h2V428.2z M380.7,419.2h-2v-3h2V419.2z"/>
</svg>
