<?xml version="1.0" encoding="utf-8"?>
<!-- Generator: Adobe Illustrator 24.3.0, SVG Export Plug-In . SVG Version: 6.00 Build 0)  -->
<svg version="1.1" id="Laag_1" xmlns="http://www.w3.org/2000/svg" xmlns:xlink="http://www.w3.org/1999/xlink" x="0px" y="0px"
	 viewBox="0 0 566.9 566.9" style="enable-background:new 0 0 566.9 566.9;" xml:space="preserve">
<style type="text/css">
	.st0{fill:#6B6B7F;}
	.st1{fill:#FF5429;}
</style>
<path class="st0" d="M202.5,325.5c-23.2,0-30.9-13.4-38.2-26.3c-7.6-13.3-14.8-25.9-38.3-25.9v-3c25.3,0,33.2,13.9,40.9,27.4
	c7.2,12.7,14.1,24.8,35.6,24.8V325.5z"/>
<path class="st0" d="M202.5,325.5v-3c23.5,0,30.7-12.6,38.3-25.9c7.4-12.9,15-26.3,38.2-26.3v3c-21.5,0-28.4,12-35.6,24.8
	C235.7,311.5,227.8,325.5,202.5,325.5z"/>
<path class="st0" d="M355.5,325.5c-23.2,0-30.9-13.4-38.2-26.3c-7.6-13.3-14.8-25.9-38.3-25.9v-3c25.3,0,33.2,13.9,40.9,27.4
	c7.2,12.7,14.1,24.8,35.6,24.8L355.5,325.5z"/>
<path class="st0" d="M355.5,325.5v-3c23.5,0,30.7-12.6,38.3-25.9c7.4-12.9,15-26.3,38.2-26.3v3c-21.5,0-28.4,12-35.6,24.8
	C388.8,311.5,380.8,325.5,355.5,325.5z"/>
<path class="st0" d="M457.3,281.4c-6.5-5.5-14.5-8.1-25.2-8.1v-3c11.4,0,20.2,2.9,27.2,8.8L457.3,281.4z"/>
<polygon class="st0" points="387.1,386.4 339.1,386.4 313.1,210.2 270.3,210.2 244.2,386.4 196.2,386.4 170.1,210.2 126,210.2 
	126,207.2 172.7,207.2 198.8,383.4 241.6,383.4 267.7,207.2 315.7,207.2 341.7,383.4 384.5,383.4 410.6,207.2 457.3,207.2 
	457.3,210.2 413.2,210.2 "/>
<path class="st1" d="M126,325.5v-3c23.5,0,30.7-12.6,38.3-25.9c7.4-12.9,15-26.3,38.2-26.3v3c-21.5,0-28.4,12-35.6,24.8
	C159.2,311.5,151.3,325.5,126,325.5z"/>
<path class="st1" d="M279,325.5c-23.2,0-30.9-13.4-38.2-26.3c-7.6-13.3-14.8-25.9-38.3-25.9v-3c25.3,0,33.2,13.9,40.9,27.4
	c7.2,12.7,14.1,24.8,35.6,24.8V325.5z"/>
<path class="st1" d="M279,325.5v-3c23.5,0,30.7-12.6,38.3-25.9c7.4-12.9,15-26.3,38.2-26.3v3c-21.5,0-28.4,12-35.6,24.8
	C312.2,311.5,304.3,325.5,279,325.5z"/>
<path class="st1" d="M432,325.5c-23.2,0-30.9-13.4-38.2-26.3c-7.6-13.3-14.8-25.9-38.3-25.9v-3c25.3,0,33.2,13.9,40.9,27.4
	c7.3,12.7,14.1,24.8,35.6,24.8V325.5z"/>
<path class="st1" d="M432,325.5v-3c10.8,0,18.8-2.6,25.2-8.1l1.9,2.3C452.3,322.6,443.4,325.5,432,325.5z"/>
<polygon class="st0" points="457.8,388.5 124,388.5 124,185.6 127,185.6 127,385.5 457.8,385.5 "/>
<path class="st0" d="M222.2,171.9h-2.1v-2h2.1V171.9z M214.1,171.9h-3v-2h3V171.9z M205.1,171.9h-3v-2h3V171.9z M196.1,171.9h-3v-2
	h3V171.9z M187.1,171.9h-3v-2h3V171.9z M178.1,171.9h-3v-2h3V171.9z M169.1,171.9h-3v-2h3V171.9z M160.1,171.9h-3v-2h3V171.9z
	 M151.1,171.9h-3v-2h3V171.9z M142.1,171.9h-3v-2h3V171.9z M133.1,171.9h-3v-2h3V171.9z M124.1,171.9h-3v-2h3V171.9z M115.1,171.9
	h-3v-2h3V171.9z M106.1,171.9h-3v-2h3V171.9z M97.1,171.9h-3v-2h3V171.9z M88.1,171.9h-3v-2h3V171.9z"/>
<path class="st0" d="M101,292.1h-2v-1.3h2V292.1z M101,284.8h-2v-3h2V284.8z M101,275.8h-2v-3h2V275.8z M101,266.8h-2v-3h2V266.8z
	 M101,257.8h-2v-3h2V257.8z M101,248.8h-2v-3h2V248.8z M101,239.8h-2v-3h2V239.8z M101,230.8h-2v-3h2V230.8z M101,221.8h-2v-3h2
	V221.8z M101,212.8h-2v-3h2V212.8z M101,203.8h-2v-3h2V203.8z M101,194.8h-2v-3h2V194.8z M101,185.8h-2v-3h2V185.8z M101,176.8h-2
	v-3h2V176.8z M101,167.8h-2v-3h2V167.8z M101,158.8h-2v-3h2V158.8z M101,149.8h-2v-3h2V149.8z"/>
<path class="st0" d="M427.7,420.2h-2v-2.1h2V420.2z M427.7,412.1h-2v-3h2V412.1z M427.7,403.1h-2v-3h2V403.1z M427.7,394.1h-2v-3h2
	V394.1z"/>
<path class="st0" d="M427.7,203.8h-2v-3h2V203.8z M427.7,194.8h-2v-3h2V194.8z M427.7,185.8h-2v-3h2V185.8z M427.7,176.8h-2v-3h2
	V176.8z M427.7,167.8h-2v-3h2V167.8z M427.7,158.8h-2v-3h2V158.8z M427.7,149.8h-2v-3h2V149.8z"/>
</svg>
