<?xml version="1.0" encoding="utf-8"?>
<!-- Generator: Adobe Illustrator 24.3.0, SVG Export Plug-In . SVG Version: 6.00 Build 0)  -->
<svg version="1.1" id="Laag_1" xmlns="http://www.w3.org/2000/svg" xmlns:xlink="http://www.w3.org/1999/xlink" x="0px" y="0px"
	 viewBox="0 0 566.9 566.9" style="enable-background:new 0 0 566.9 566.9;" xml:space="preserve">
<style type="text/css">
	.st0{fill:#FF5429;}
	.st1{fill:#6B6B7F;}
</style>
<rect x="155.6" y="255.5" class="st0" width="159.7" height="3"/>
<rect x="155.6" y="288.1" class="st0" width="159.7" height="3"/>
<rect x="155.6" y="320.7" class="st0" width="159.7" height="3"/>
<path class="st1" d="M432.1,304.7V185.6h-15.6v-15c4.3-0.7,7.2-4.8,6.5-9.2c-0.6-3.8-4-6.6-7.8-6.6h-29.4c-4.4,0.3-7.8,4.1-7.5,8.5
	c0.2,3.6,2.9,6.7,6.5,7.3v14.9h-12.9v-12.8h-25.7v15h-11.5v18.1h11.5v17h-27.9v-14.7c0-7.1-5.8-12.8-12.8-12.8H135.7
	c-7.1,0-12.8,5.8-12.8,12.8v130.3c0,7.1,5.8,12.8,12.8,12.8h169.7c7.1,0,12.8-5.8,12.8-12.8v-14.7h16.4v104.9h123.9V304.7H432.1z
	 M152.6,348.3h-16.9c-5.4,0-9.8-4.4-9.8-9.8V208.2c0-5.4,4.4-9.8,9.8-9.8h16.9V348.3z M315.3,323.7v14.7c0,5.4-4.4,9.8-9.8,9.8
	H155.6V225.9h159.7V323.7z M315.3,222.9H155.6v-24.6h149.8c5.4,0,9.8,4.4,9.8,9.8V222.9z M387.8,170.8h25.7v14.8h-25.7V170.8z
	 M380.9,162.8c0-2.8,2.2-5,5-5h29.4c2.7,0.4,4.7,2.9,4.3,5.6c-0.3,2.2-2.1,4-4.3,4.3h-29.4C383.1,167.7,380.9,165.5,380.9,162.8
	L380.9,162.8z M371.9,188.6h57.2v116.1h-57.2L371.9,188.6z M349.2,222.9v-17l0,0v-18.1l0,0v-12h19.7v129h-19.7V222.9z M337.7,202.9
	v-12.1h8.5v12.1L337.7,202.9z M334.6,320.7h-16.3v-94.8h27.9v78.8h-11.5L334.6,320.7z M455.6,425.6H337.6V307.7h117.9V425.6z"/>
<rect x="395.1" y="307.1" transform="matrix(0.7071 -0.7071 0.7071 0.7071 -143.0968 387.8379)" class="st0" width="3" height="119.2"/>
<rect x="337" y="365.2" transform="matrix(0.7071 -0.7071 0.7071 0.7071 -143.1039 387.8409)" class="st0" width="119.2" height="3"/>
<path class="st1" d="M331.5,403.2h-2.7v-2h2.7V403.2z M322.7,403.2h-3v-2h3V403.2z M313.7,403.2h-3v-2h3V403.2z M304.7,403.2h-3v-2
	h3V403.2z M295.7,403.2h-3v-2h3V403.2z M286.7,403.2h-3v-2h3V403.2z M277.7,403.2h-3v-2h3V403.2z M268.7,403.2h-3v-2h3V403.2z
	 M259.7,403.2h-3v-2h3V403.2z M250.7,403.2h-3v-2h3V403.2z M241.7,403.2h-3v-2h3V403.2z M232.7,403.2h-3v-2h3V403.2z M223.7,403.2
	h-3v-2h3V403.2z M214.7,403.2h-3v-2h3V403.2z"/>
<path class="st1" d="M118.2,228h-3v-2h3V228z M109.2,228h-3v-2h3V228z M100.2,228h-3v-2h3V228z M91.2,228h-3v-2h3V228z M82.2,228h-3
	v-2h3V228z"/>
<path class="st1" d="M474.4,228h-3v-2h3V228z M465.4,228h-3v-2h3V228z M456.4,228h-3v-2h3V228z M447.4,228h-3v-2h3V228z M438.4,228
	h-3v-2h3V228z"/>
<path class="st1" d="M95.2,287.2h-2v-3h2V287.2z M95.2,278.2h-2v-3h2V278.2z M95.2,269.2h-2v-3h2V269.2z M95.2,260.2h-2v-3h2V260.2z
	 M95.2,251.2h-2v-3h2V251.2z M95.2,242.2h-2v-3h2V242.2z M95.2,233.2h-2v-3h2V233.2z M95.2,224.2h-2v-3h2V224.2z M95.2,215.2h-2v-3
	h2V215.2z M95.2,206.2h-2v-3h2V206.2z M95.2,197.2h-2v-3h2V197.2z M95.2,188.2h-2v-3h2V188.2z M95.2,179.2h-2v-3h2V179.2z
	 M95.2,170.2h-2v-3h2V170.2z M95.2,161.2h-2v-3h2V161.2z"/>
</svg>
