<?xml version="1.0" encoding="utf-8"?>
<!-- Generator: Adobe Illustrator 24.3.0, SVG Export Plug-In . SVG Version: 6.00 Build 0)  -->
<svg version="1.1" id="Laag_1" xmlns="http://www.w3.org/2000/svg" xmlns:xlink="http://www.w3.org/1999/xlink" x="0px" y="0px"
	 viewBox="0 0 566.9 566.9" style="enable-background:new 0 0 566.9 566.9;" xml:space="preserve">
<style type="text/css">
	.st0{fill:#FF5429;}
	.st1{fill:#6B6B7F;}
</style>
<path class="st0" d="M210.5,391.9c-0.5,0-1.1,0-1.6,0c-6.8-0.5-12.9-4.1-16.6-9.8c-3.9-6-4.8-13.5-2.4-20.2l12.8-35.8h15.5
	l12.8,35.8c2.4,6.7,1.5,14.2-2.4,20.2c-3.7,5.7-9.8,9.4-16.6,9.8l0,0C211.5,391.8,211,391.9,210.5,391.9z M204.8,329l-12.1,33.8
	c-2.1,5.9-1.3,12.3,2.1,17.5c3.2,4.9,8.4,8.1,14.3,8.5c0.9,0,1.8,0,2.8,0c5.8-0.4,11.1-3.6,14.3-8.5c3.4-5.2,4.2-11.7,2.1-17.5
	L216.1,329H204.8z"/>
<path class="st0" d="M210.1,384.4c-8.1,0-14.6-6.5-14.6-14.6h3c0,6.4,5.2,11.6,11.6,11.6V384.4z"/>
<path class="st1" d="M375.4,219.4c-7.8,0-14.1,6.3-14.1,14.1v1.5h-62.6v-3.8c0-4-3-7.3-6.9-7.7v-11c0-0.3,0-0.6-0.1-0.9h0.2l0,0
	l15.1,1.2c0.3,0,0.5,0,0.8,0c5.4-0.1,9.7-4.5,9.6-9.8s-4.5-9.7-9.8-9.6c-0.2,0-0.3,0-0.5,0l-17.6,1.4c-4.6-7.6-14.4-10-22-5.4
	c-2.2,1.3-4.1,3.2-5.4,5.4l-17.6-1.4c-5.4-0.3-10,3.7-10.3,9.1c-0.3,5.4,3.7,10,9.1,10.3c0.2,0,0.3,0,0.5,0c0.2,0,0.5,0,0.7,0
	l15.1-1.2l0,0h0.2c0,0.3,0,0.6,0,0.9v11.1c-4,0.4-7,3.7-7,7.7v3.7h-9.4c-31.8,0-57.6,25.8-57.6,57.7v13.9h-8.3V329h66v-22.4h-8.1
	v-13.9c0-4.5,3.6-8.1,8.1-8.1h9.4v11.5h46v-11.5h62.6v2.5c0,7.8,6.3,14.1,14.1,14.1c7.8,0,14.1-6.3,14.1-14.1v-53.6
	C389.5,225.7,383.2,219.4,375.4,219.4C375.4,219.4,375.4,219.4,375.4,219.4z M262.7,223.4v-11c0.2,0.3,0.4,0.6,0.6,0.8l0.2,0.2
	c0.2,0.2,0.3,0.4,0.5,0.6l0.2,0.2c0.2,0.2,0.3,0.3,0.5,0.5l0.3,0.3l0.5,0.4l0.3,0.2l0.5,0.4l0.3,0.2c0.2,0.1,0.4,0.3,0.6,0.4
	l0.2,0.2c0.6,0.4,1.2,0.7,1.8,0.9l0.3,0.1l0.6,0.2l0.4,0.1l0.6,0.2l0.4,0.1l0.6,0.1l0.4,0.1c0.2,0,0.4,0.1,0.6,0.1s0.3,0.1,0.4,0.1
	l0.7,0.1h0.3h1c0.4,0,0.7,0,1.1,0h0.3l0.7-0.1c0.1,0,0.3,0,0.4-0.1l0.6-0.1l0.4-0.1l0.6-0.1l0.4-0.1l0.5-0.2c0.2,0,0.3-0.1,0.4-0.1
	l0.5-0.2l0.5-0.2l0.4-0.2c0.4-0.2,0.8-0.4,1.3-0.7h0l0.6-0.4l0.2-0.1l0.6-0.4l0.2-0.2c0.2-0.1,0.4-0.3,0.6-0.5l0.2-0.2
	c0.2-0.2,0.4-0.3,0.6-0.5l0.1-0.1l0.5-0.6l0.1-0.1c0.4-0.4,0.8-0.9,1.1-1.4v16.9c0,4.3-3.5,7.9-7.9,7.9h-10.4
	c-4.3,0-7.9-3.5-7.9-7.9V223.4z M307.3,196.4c3.7-0.3,6.9,2.5,7.2,6.2c0,0.2,0,0.3,0,0.5c0,3.7-3,6.7-6.7,6.7c-0.2,0-0.3,0-0.5,0
	l-16.3-1.3c0-0.1-0.1-0.2-0.1-0.3l0.1-0.4c0-0.2,0.1-0.4,0.2-0.6s0.1-0.6,0.2-0.9l0.1-0.6c0-0.3,0.1-0.6,0.1-0.9
	c0-0.2,0-0.3,0.1-0.5c0-0.5,0.1-1,0.1-1.4s0-0.8-0.1-1.2v-0.3c0-0.4-0.1-0.7-0.1-1c0-0.1,0-0.1,0-0.2c-0.1-0.4-0.2-0.8-0.3-1.2
	c0-0.1,0-0.2-0.1-0.2c-0.1-0.3-0.2-0.7-0.3-1c0-0.1,0-0.1,0-0.1L307.3,196.4z M275.7,190c4.9,0,9.3,2.7,11.5,7
	c1,1.9,1.5,3.9,1.5,6.1c0,1.6-0.3,3.2-0.9,4.7c-0.2,0.5-0.4,0.9-0.6,1.3l-0.5,0.9c-2.4,3.8-6.5,6.1-11,6.1h-0.9
	c-4.2-0.3-8-2.6-10.2-6.1l-0.5-0.8v-0.1c-0.2-0.4-0.4-0.8-0.6-1.3l0,0c-0.6-1.5-0.9-3.1-0.9-4.7c0-7.2,5.8-13,13-13L275.7,190z
	 M244.2,209.8c-0.2,0-0.3,0-0.5,0c-3.7,0-6.7-3-6.7-6.7l0,0c0-3.7,3-6.7,6.7-6.7c0.2,0,0.4,0,0.5,0l16.5,1.3c0,0.1,0,0.1-0.1,0.2
	c-0.1,0.3-0.2,0.6-0.3,0.9l-0.1,0.3c-0.1,0.4-0.2,0.8-0.3,1.2c0,0.1,0,0.2,0,0.2c0,0.3-0.1,0.7-0.1,1v0.4c0,0.4,0,0.8,0,1.2
	s0,1,0.1,1.4l0.1,0.5c0,0.3,0.1,0.6,0.1,0.9s0.1,0.4,0.1,0.6s0.1,0.6,0.2,0.8s0.1,0.4,0.2,0.6l0.1,0.3c0,0.1-0.1,0.2-0.1,0.3
	L244.2,209.8z M240.5,309.5V326h-60v-16.4L240.5,309.5L240.5,309.5z M243.4,281.5c-6.1,0-11.1,5-11.1,11.1v13.9h-43.6v-13.8
	c0-30.2,24.5-54.7,54.6-54.7h9.4v43.6L243.4,281.5z M295.7,293h-40v-61.8c0-2.3,1.7-4.3,4-4.7v2.8c0,6,4.9,10.8,10.9,10.9h10.4
	c6,0,10.9-4.9,10.9-10.9v-2.8c2.3,0.4,3.9,2.4,3.9,4.7L295.7,293L295.7,293z M361.3,281.5h-62.6V238h62.6L361.3,281.5z M386.4,287
	c0,6.1-5,11.1-11.1,11.1c-6.1,0-11.1-5-11.1-11.1l0,0v-53.5c0-6.1,5-11.1,11.1-11.1c6.1,0,11.1,5,11.1,11.1V287z"/>
<path class="st1" d="M460.2,276.8c0,94.5-74.6,171.9-167.9,176.5l-0.1,13.3l-16.3-13.7l16.5-13.9l-0.1,11.2
	c91.7-4.6,164.9-80.6,164.9-173.5c-0.1-89.4-67.9-164.1-156.9-172.8l0.3-3C391.1,109.8,460.2,185.9,460.2,276.8z"/>
<path class="st1" d="M272.5,116.2l0.1-12.7c-90.7,5.7-162.8,81.2-162.8,173.3c0,89,67.3,163.7,155.9,172.8l-0.3,3
	c-90.1-9.3-158.6-85.2-158.6-175.8c0-93.8,73.4-170.7,165.8-176.3l0.1-11.8l16.3,13.7L272.5,116.2z"/>
<path class="st1" d="M424.1,163.3h-2v-3h2V163.3z M424.1,154.3h-2v-3h2V154.3z M424.1,145.3h-2v-3h2V145.3z M424.1,136.3h-2v-3h2
	V136.3z M424.1,127.3h-2v-3h2V127.3z M424.1,118.3h-2v-3h2V118.3z M424.1,109.3h-2v-3h2V109.3z M424.1,100.3h-2v-3h2V100.3z
	 M424.1,91.3h-2v-3h2V91.3z M424.1,82.3h-2v-3h2V82.3z M424.1,73.3h-2v-3h2V73.3z M424.1,64.3h-2v-3h2V64.3z"/>
<path class="st1" d="M483.4,86.2h-3v-2h3V86.2z M474.4,86.2h-3v-2h3V86.2z M465.4,86.2h-3v-2h3V86.2z M456.4,86.2h-3v-2h3V86.2z
	 M447.4,86.2h-3v-2h3V86.2z M438.4,86.2h-3v-2h3V86.2z M429.4,86.2h-3v-2h3V86.2z M420.4,86.2h-3v-2h3V86.2z M411.4,86.2h-3v-2h3
	V86.2z M402.4,86.2h-3v-2h3V86.2z M393.4,86.2h-3v-2h3V86.2z M384.4,86.2h-3v-2h3V86.2z M375.4,86.2h-3v-2h3V86.2z"/>
<path class="st1" d="M170.1,417.5h-3v-2h3V417.5z M161.1,417.5h-3v-2h3V417.5z M152.1,417.5h-3v-2h3V417.5z M143.1,417.5h-3v-2h3
	V417.5z M134.1,417.5h-3v-2h3V417.5z M125.1,417.5h-3v-2h3V417.5z M116.1,417.5h-3v-2h3V417.5z M107.1,417.5h-3v-2h3V417.5z
	 M98.1,417.5h-3v-2h3V417.5z"/>
</svg>
