<?xml version="1.0" encoding="utf-8"?>
<!-- Generator: Adobe Illustrator 24.3.0, SVG Export Plug-In . SVG Version: 6.00 Build 0)  -->
<svg version="1.1" id="Laag_1" xmlns="http://www.w3.org/2000/svg" xmlns:xlink="http://www.w3.org/1999/xlink" x="0px" y="0px"
	 viewBox="0 0 566.9 566.9" style="enable-background:new 0 0 566.9 566.9;" xml:space="preserve">
<style type="text/css">
	.st0{fill:#6B6B7F;}
	.st1{fill:none;}
	.st2{fill:#FF5429;}
</style>
<path class="st0" d="M362.6,389.4c-2.9-7.7-11.5-11.7-19.2-8.8c-7.7,2.9-11.7,11.5-8.8,19.2c2.9,7.7,11.5,11.7,19.2,8.8
	c5.9-2.2,9.7-7.7,9.8-14C363.5,392.8,363.2,391,362.6,389.4z M348.6,406.5c-6.6,0-11.9-5.3-11.9-11.9c0-3.1,1.2-6,3.3-8.2
	c4.5-4.8,12-5,16.8-0.4c0.1,0.1,0.3,0.3,0.4,0.4c2.1,2.2,3.3,5.2,3.3,8.2C360.5,401.1,355.2,406.5,348.6,406.5L348.6,406.5z"/>
<path class="st1" d="M360.5,394.6c0.2,6.6-5,12.1-11.6,12.3s-12.1-5-12.3-11.6c0-0.2,0-0.5,0-0.7c0-3.1,1.2-6,3.3-8.2
	c4.5-4.8,12-5,16.8-0.4c0.1,0.1,0.3,0.3,0.4,0.4C359.3,388.6,360.5,391.5,360.5,394.6z"/>
<path class="st0" d="M249.3,287.7l-4.4-8.4c-8.6-6.7-20.6-6.9-29.5-0.5l0,0l-4.7,8.9v0.7c5.9-10.5,19.2-14.3,29.8-8.4
	c3.8,2.1,6.9,5.4,8.9,9.3L249.3,287.7z"/>
<path class="st0" d="M358.1,417.6c7.5-3.1,13-9.5,14.8-17.4H428c3.5,0,6.4-2.9,6.4-6.4l0,0v-1.1c0-2.9-2-5.5-4.9-6.2V361
	c0-3.8-2.3-7.2-5.8-8.7h-0.1l-71.7-17.8c-3.5-1.1-6.7-2.8-9.6-4.9l-33.6-24.4c-5.6-4.1-12.3-6.2-19.1-6.2h-26.1l0.3-15.9l-3.8-13.8
	h6.7l-5.8-36.7h-6v-7.9l153.8-9.8l-0.2-3l-176,11.2c-13.2,0.8-24.6-9.2-25.4-22.4c-0.8-12.2,7.8-23,19.9-25.1l181.8-32.4l-0.5-3
	l-181.8,32.5c-14.7,2.5-24.6,16.4-22.1,31.1c0.6,3.3,1.7,6.4,3.4,9.2v19.6h-6.6l-8.3,36.7h7.3l-3.8,13.8l0.5,26.3l-25.7,16.7
	c-1.7,1.1-3.6,2-5.6,2.6L123.9,341c-6.5,2-10.9,7.9-10.9,14.6v30.9c-2.8,0.7-4.8,3.3-4.8,6.2v1.1c0,3.5,2.8,6.4,6.4,6.4h19.8v5.5
	h2.2l4.5,2.6l-4.5,2.5h-2.2v6.8h-41v11.7h357.6v-11.7H358.1z M370.1,398.4v0.2c0,0.1,0,0.2,0,0.2c-2.3,11.9-13.8,19.6-25.6,17.4
	c-11.9-2.3-19.6-13.8-17.4-25.6c0.1-0.4,0.2-0.8,0.3-1.2c0.3-1,0.6-2,1-3c4.5-11.2,17.3-16.6,28.5-12.1c5.5,2.2,9.8,6.6,12.1,12.1
	c0.2,0.6,0.5,1.3,0.7,1.9c0.1,0.3,0.2,0.7,0.3,1.1l0.1,0.6c0,0.2,0.1,0.4,0.1,0.6c0.2,0.9,0.3,1.8,0.3,2.8c0,0.2,0,0.3,0,0.5
	s0,0.4,0,0.7C370.5,395.9,370.4,397.2,370.1,398.4L370.1,398.4z M225.1,410.8l-5.1-4.3l5.5-4.5v0h2.5v-5.5h95.8
	c0.8,9.3,6.7,17.4,15.4,21H228v-6.8L225.1,410.8z M151.3,410.8l-4.3-2.5l4.6-2.6l-0.1-0.1h2.8v-5.5h3.1l-0.3-1.8
	c-0.2-1.3-0.3-2.6-0.4-3.9c0-2.1,0.3-4.2,0.9-6.3l0.6-1.9l0,0c4.5-11.2,17.3-16.6,28.5-12.1c6.1,2.5,10.8,7.6,12.7,13.9l0,0l0.6,8.4
	h8v5.5h2l5.3,4.5l-5.3,4.3h-2v6.8h-53.7v-6.8L151.3,410.8z M214.7,402.1h6.1l-3.1,2.5L214.7,402.1z M220.4,410.8h-5.6l2.9-2.3
	L220.4,410.8z M211,399.1v-2.5h14v2.5H211z M202.9,393.6l-0.3-4.2h121.7c-0.3,1.4-0.5,2.8-0.5,4.2H202.9z M211,413.8h14v3.2h-14
	V413.8z M428,389.4c1.9,0,3.4,1.5,3.4,3.4c0,0,0,0,0,0v1.1c0,1.9-1.5,3.4-3.4,3.4c0,0,0,0,0,0h-54.6c0.1-0.9,0.1-1.8,0.1-2.6
	c0-0.3,0-0.6,0-0.9l0,0c0-0.3,0-0.5,0-0.8c0-0.1,0-0.1,0-0.2c0-0.2,0-0.5-0.1-0.7c-0.1-0.3,0-0.1,0-0.1c0-0.4-0.1-0.8-0.1-1.1
	c0,0,0,0,0-0.1l0,0v-0.2c0-0.3-0.1-0.5-0.1-0.8c0,0,0-0.1,0-0.1v-0.2L428,389.4z M426.5,373.6c-0.7,0.2-1.5,0-2.1-0.4
	c-1.5-1-2.2-3.7-2.2-7.7c-0.1-1,0-2,0.2-3c0.3-0.3,2.1-0.3,4.1-0.2V373.6z M260.6,283.3l-0.3,15.6l-0.1,3l-0.1,5.2l-6.8-0.1H253
	l-0.2-5.1l-0.1-3l-0.4-10.2l-0.1-1.7l-8.9-16.8l13.5-0.3L260.6,283.3z M210.8,217c5.1,5.8,12.4,9.1,20.1,9.1c0.6,0,1.1,0,1.7-0.1
	l19.2-1.2v7.7h-41.1V217z M196.7,266.2l7-30.7h54.6l4.9,30.7H196.7z M203.1,269.8l13.5,0.3l-8.9,16.8v0.7l0,0l-0.5,14.9l-0.1,3.7
	v0.7h-0.9h-0.3l-5.6,0.1h-0.4l-0.4-23.8L203.1,269.8z M116,355.6c0-0.1,0-0.2,0-0.4c1.8-0.2,4.6-0.3,6,0.9c0.7,0.6,1,1.4,0.9,2.3
	c0,6.1-1.1,9.2-7,9.9L116,355.6z M116,371.2c9.2-0.9,10-7,10-12.9c0.1-1.8-0.7-3.5-2-4.6c-2.1-1.7-5.3-1.8-7.4-1.6
	c0.6-2,1.6-3.8,3.1-5.2c1.5-1.5,3.3-2.6,5.2-3.2l41.7-12.5c2.2-0.7,4.4-1.7,6.4-2.9l28.3-18.4l6.2-0.1l2.6-0.1v-1.3l0,0l0.1-4.3
	l0.1-3.7l0.4-12.1l0,0v-0.7l4.7-8.9l0,0l5.1-9.7h19l5.4,10.2l4.4,8.4l0.1,1.6l0.3,9.5l0.1,3l0.2,5.4v0.3l0.1,2.3l2.1,0l-0.2,0.4h6
	v24.4h-53.4l12-14.5c-0.9-0.5-1.7-1.1-2.5-1.7l-13.5,16.2h-15.3l25.3-19.6c-0.6-0.8-1.2-1.6-1.8-2.4l-27.2,21.1
	c-1,0.7-1.1,2.1-0.4,3.1c0.4,0.5,1.1,0.8,1.7,0.8H200v28.9h3v-29h58v-27.6l2.1,0v-1.3v-0.2l0.1-6.7h26.2c6.2,0,12.3,2,17.4,5.6
	l33.6,24.4c3.2,2.3,6.8,4.1,10.6,5.4l71.7,17.8c1.8,0.8,3.1,2.4,3.6,4.3h-1.4c-2.4,0-3.7,0.2-4.6,1.1c-1.1,1.1-1.1,2.6-1.1,5.1
	c0,5.2,1.2,8.6,3.6,10.2c0.9,0.6,2,0.9,3.1,0.9c0.2,0,0.4,0,0.6,0v9.7h-54.4c-4.5-13-18.7-19.9-31.6-15.4
	c-7.2,2.5-12.9,8.2-15.4,15.4H202c-4.5-13-18.7-19.8-31.7-15.3c-7.2,2.5-12.8,8.1-15.3,15.3h-39V371.2z M114.6,397.2
	c-1.9,0-3.4-1.5-3.4-3.4v-1.1c0-1.9,1.5-3.4,3.4-3.4h39.7c-0.4,1.7-0.5,3.5-0.6,5.2c0,0.9,0,1.8,0.1,2.6H114.6z M137.3,402.7v-2.5
	h14v2.5H137.3z M144,406.6l-1.6-0.9h3.2L144,406.6z M145.3,410.8h-2.7l1.4-0.8L145.3,410.8z M137.3,413.8h14v3.2h-14V413.8z
	 M447.9,426.3H96.3v-5.7h351.6L447.9,426.3z"/>
<path class="st0" d="M252.2,309.9l-0.2,0.4c-6.1,12.3-21.1,17.3-33.4,11.1c-0.7-0.3-1.3-0.7-2-1.1c-0.9-0.5-1.7-1.1-2.5-1.7
	c-1.3-1-2.5-2.2-3.5-3.4c-1.3-1.6-2.5-3.3-3.3-5.2l2.6-0.1v-1.3c0.4,0.8,0.8,1.6,1.3,2.3c0.5,0.8,1.1,1.7,1.8,2.4
	c7.8,9.2,21.6,10.4,30.8,2.6c1.9-1.6,3.4-3.5,4.7-5.6c0.5-0.9,1-1.8,1.4-2.7l0.1,2.3L252.2,309.9z"/>
<path class="st2" d="M244.7,298.9c0-8.2-6.7-14.9-14.9-14.9s-14.9,6.7-14.9,14.9c0,0.1,0,0.2,0,0.3c0,0.9,0.1,1.8,0.2,2.7
	c1.5,8.1,9.3,13.4,17.4,11.9c6-1.1,10.8-5.9,11.9-11.9c0.2-0.9,0.2-1.8,0.2-2.7C244.7,299,244.7,298.9,244.7,298.9z M238.5,307.3
	c-1.3,1.3-2.8,2.4-4.5,3c-2.7,1-5.6,1-8.3,0c-4.7-1.7-7.8-6.2-7.8-11.2c0-0.1,0-0.2,0-0.3c0-6.6,5.3-11.9,11.9-11.9
	c6.6,0,11.9,5.3,11.9,11.9c0,0.1,0,0.2,0,0.3c0,0.2,0,0.4,0,0.6c0,0.2,0,0.4,0,0.5c0,0.1,0,0.1,0,0.2c0,0.3-0.1,0.6-0.1,0.9
	c0,0.1-0.1,0.3-0.1,0.5C241,303.9,239.9,305.8,238.5,307.3z"/>
<polygon class="st1" points="260.6,283.3 260.4,298.9 260.3,301.9 260.2,307.1 253.4,306.9 253,306.9 252.8,301.9 252.7,298.9 
	252.4,288.6 252.3,286.9 243.4,270.1 256.9,269.8 "/>
<polygon class="st1" points="216.6,270.1 207.8,286.9 207.8,287.6 207.8,287.6 207.2,302.5 207.1,306.2 207.1,306.9 206.2,306.9 
	205.9,306.9 200.2,307.1 199.9,307.1 199.4,283.3 203.1,269.8 "/>
<path class="st0" d="M373.4,397.2c0.1-0.9,0.1-1.8,0.1-2.6C373.5,395.4,373.4,396.3,373.4,397.2z"/>
<path class="st0" d="M234.7,210.5c-6.4,0-11.7-5.2-11.7-11.7c0-6.4,5.2-11.7,11.7-11.7c6.4,0,11.7,5.2,11.7,11.7
	C246.4,205.2,241.2,210.5,234.7,210.5z M234.7,190.1c-4.8,0-8.7,3.9-8.7,8.7c0,4.8,3.9,8.7,8.7,8.7c4.8,0,8.7-3.9,8.7-8.7
	C243.4,194,239.5,190.1,234.7,190.1L234.7,190.1z"/>
<path class="st0" d="M177.8,399.8c-3.6,0-6.5-2.9-6.5-6.5c0-3.6,2.9-6.5,6.5-6.5c3.6,0,6.5,2.9,6.5,6.5l0,0
	C184.2,396.9,181.3,399.8,177.8,399.8z M177.8,389.8c-1.9,0-3.5,1.6-3.5,3.5c0,1.9,1.6,3.5,3.5,3.5s3.5-1.6,3.5-3.5l0,0
	C181.2,391.3,179.7,389.8,177.8,389.8L177.8,389.8z"/>
<circle class="st0" cx="177.8" cy="383" r="1.3"/>
<circle class="st0" cx="177.8" cy="404.4" r="1.3"/>
<circle class="st0" cx="188.5" cy="393.7" r="1.3"/>
<circle class="st0" cx="167.1" cy="393.7" r="1.3"/>
<circle class="st0" cx="185.3" cy="386.1" r="1.3"/>
<circle class="st0" cx="170.2" cy="401.3" r="1.3"/>
<circle class="st0" cx="185.3" cy="401.3" r="1.3"/>
<circle class="st0" cx="170.2" cy="386.1" r="1.3"/>
<path class="st0" d="M174.7,193.6h-3v-2h3V193.6z M165.7,193.6h-3v-2h3V193.6z M156.7,193.6h-3v-2h3V193.6z M147.7,193.6h-3v-2h3
	V193.6z M138.7,193.6h-3v-2h3V193.6z M129.7,193.6h-3v-2h3V193.6z M120.7,193.6h-3v-2h3V193.6z M111.7,193.6h-3v-2h3V193.6z"/>
<rect x="131.9" y="231.5" class="st0" width="2" height="3"/>
<rect x="131.9" y="222.5" class="st0" width="2" height="3"/>
<rect x="131.9" y="258.5" class="st0" width="2" height="3"/>
<rect x="131.9" y="213.5" class="st0" width="2" height="3"/>
<rect x="131.9" y="168.5" class="st0" width="2" height="3"/>
<rect x="131.9" y="240.5" class="st0" width="2" height="3"/>
<rect x="131.9" y="249.5" class="st0" width="2" height="3"/>
<rect x="131.9" y="195.5" class="st0" width="2" height="3"/>
<rect x="131.9" y="267.5" class="st0" width="2" height="3"/>
<rect x="131.9" y="177.5" class="st0" width="2" height="3"/>
<rect x="131.9" y="186.5" class="st0" width="2" height="3"/>
<rect x="131.9" y="204.5" class="st0" width="2" height="3"/>
<rect x="131.9" y="159.5" class="st0" width="2" height="3"/>
<rect x="131.9" y="330.5" class="st0" width="2" height="3"/>
<rect x="131.9" y="312.5" class="st0" width="2" height="3"/>
<rect x="131.9" y="321.5" class="st0" width="2" height="3"/>
<rect x="131.9" y="303.5" class="st0" width="2" height="3"/>
<rect x="131.9" y="294.5" class="st0" width="2" height="3"/>
<rect x="131.9" y="276.5" class="st0" width="2" height="3"/>
<rect x="131.9" y="285.5" class="st0" width="2" height="3"/>
<path class="st0" d="M331.9,333.2L299,309.1c-1.6-1.2-3.5-1.8-5.5-1.8h-28.6v73h3v-42.6h62.5c1.4,0,2.5-1.1,2.5-2.5
	C332.9,334.4,332.6,333.7,331.9,333.2L331.9,333.2z M267.9,334.7v-24.4h25.6c1.3,0,2.6,0.4,3.7,1.2l31.7,23.2H267.9z"/>
<path class="st0" d="M357.2,386.4c0.8,0.9,1.5,1.9,2.1,3h3.3c-0.4-1.1-0.9-2.1-1.5-3H357.2z"/>
<path class="st0" d="M334.6,389.4h3.3c0.5-1.1,1.2-2.1,2.1-3h-3.8C335.5,387.3,335,388.3,334.6,389.4z"/>
<rect x="276" y="345.5" class="st0" width="9.9" height="3"/>
<rect x="211.4" y="345.5" class="st0" width="9.9" height="3"/>
<rect x="397.1" y="287" class="st0" width="2" height="3"/>
<rect x="397.1" y="278" class="st0" width="2" height="3"/>
<rect x="397.1" y="269" class="st0" width="2" height="3"/>
<rect x="397.1" y="296" class="st0" width="2" height="3"/>
<rect x="397.1" y="314" class="st0" width="2" height="3"/>
<rect x="397.1" y="305" class="st0" width="2" height="3"/>
<rect x="397.1" y="341" class="st0" width="2" height="3"/>
<rect x="397.1" y="332" class="st0" width="2" height="3"/>
<rect x="397.1" y="323" class="st0" width="2" height="3"/>
</svg>
