<?xml version="1.0" encoding="utf-8"?>
<!-- Generator: Adobe Illustrator 24.3.0, SVG Export Plug-In . SVG Version: 6.00 Build 0)  -->
<svg version="1.1" id="Laag_1" xmlns="http://www.w3.org/2000/svg" xmlns:xlink="http://www.w3.org/1999/xlink" x="0px" y="0px"
	 viewBox="0 0 566.9 566.9" style="enable-background:new 0 0 566.9 566.9;" xml:space="preserve">
<style type="text/css">
	.st0{fill:#6B6B7F;}
	.st1{fill:#FF5429;}
</style>
<path class="st0" d="M262.2,157.7L262.2,157.7l21.2-2.1L262.2,157.7z"/>
<path class="st1" d="M283.4,155.6l-21.2,2.1v1.3c0,0.6,0,1.1,0.1,1.6c0.2,3.6,1.6,7,4,9.6c0.8,0.9,1.6,1.8,2.5,2.6
	c0.1,0.1,0.3,0.3,0.5,0.4c1.6,1.4,3.4,2.6,5.4,3.5l1,0.4c5.1,2,10.7,2,15.7,0l1-0.4c2-0.9,3.8-2.1,5.4-3.5c0.2-0.1,0.3-0.3,0.5-0.4
	c0.9-0.8,1.7-1.7,2.5-2.6c2.4-2.6,3.9-6,4.2-9.6c0-0.5,0.1-1.1,0.1-1.6v-1.4L283.4,155.6z M296.4,170.3l-0.4,0.4
	c-1.1,1-2.3,1.9-3.6,2.6c-0.1,0-0.2,0.1-0.2,0.1c-0.7,0.4-1.3,0.7-2,1c-0.3,0.1-0.6,0.2-1,0.3c-3.8,1.2-7.9,1.2-11.6,0
	c-0.3-0.1-0.6-0.2-1-0.3c-0.7-0.3-1.4-0.6-2-1c-0.1,0-0.2-0.1-0.2-0.1c-1.3-0.7-2.5-1.6-3.6-2.6l-0.4-0.4c-3-2.9-4.8-5.6-5.1-9.9
	l18.2-1.8l18.4,1.8C301.5,164.6,299.6,167.2,296.4,170.3L296.4,170.3z"/>
<path class="st0" d="M374.7,384H300v-11.2c0-5.3-3-10.1-7.8-12.4V176.8l-1,0.4c-0.7,0.3-1.3,0.5-2,0.7v181.4l-0.4-0.1
	c-0.5-0.1-0.9-0.1-1.4-0.2h0h-0.5h-0.6h-5.3c-0.2,0-0.3,0-0.5,0h-0.4H280l-0.8,0.1l-0.6,0.1l-0.7,0.1l-0.3,0.1V177.8
	c-0.7-0.2-1.4-0.4-2-0.7l-1-0.4v183.7c-4.6,2.4-7.4,7.1-7.4,12.3V384h-75.1c-7.6,0-13.7,6.1-13.7,13.7c0,0,0,0,0,0v1.5h210v-1.5
	C388.4,390.2,382.3,384,374.7,384z M270.2,372.8c0-4.3,2.6-8.2,6.5-10l0,0c1.4-0.6,2.8-0.9,4.3-0.9h5.1c1,0,2,0.1,2.9,0.4h0.1l0,0
	c0.3,0.1,0.7,0.2,1,0.3c4.2,1.6,6.9,5.6,6.9,10.1V384h-26.8V372.8z M181.5,396.3c0.7-5.3,5.3-9.3,10.6-9.3h182.6
	c5.3,0,9.9,3.9,10.6,9.2L181.5,396.3z"/>
<path class="st0" d="M269.2,173.3c-0.2-0.1-0.3-0.3-0.5-0.4c-0.9-0.8-1.7-1.7-2.5-2.6h-84.6v-1.8l80.7-7.8c0-0.5-0.1-1.1-0.1-1.6
	v-1.4l-83.6,8.1v6.1c-0.1,0.1-0.1,0.3-0.2,0.4l-32.7,136.1h-0.3v1.5c0,8,15.2,14.3,34.7,14.3s34.7-6.3,34.7-14.3v-1.5h-0.3
	L182,173.3H269.2z M180.1,321.2c-13.9,0-29.2-3.9-31.4-9.8h62.9C209.2,317.2,193.9,321.2,180.1,321.2z M148.7,308.4l31.3-130.2
	l31.3,130.2H148.7z"/>
<path class="st0" d="M421.1,308.4l-32.7-136.1c0-0.1-0.1-0.3-0.2-0.4v-6.1l-83.4-8.1v1.4c0,0.6,0,1.1-0.1,1.6l80.4,7.8v1.8h-84.6
	c-0.8,0.9-1.6,1.8-2.5,2.6c-0.1,0.1-0.3,0.3-0.5,0.4h87.2l-32.5,135.1H352v1.5c0,8,15.2,14.3,34.7,14.3s34.7-6.3,34.7-14.3v-1.5
	H421.1z M386.7,178.2L418,308.4h-62.6L386.7,178.2z M386.7,321.2c-13.8,0-29.1-3.9-31.4-9.8h62.9
	C415.9,317.2,400.6,321.2,386.7,321.2L386.7,321.2z"/>
<path class="st0" d="M230.4,133.6h-3v-2h3V133.6z M221.4,133.6h-3v-2h3V133.6z M212.4,133.6h-3v-2h3V133.6z M203.4,133.6h-3v-2h3
	V133.6z M194.4,133.6h-3v-2h3V133.6z M185.4,133.6h-3v-2h3V133.6z M176.4,133.6h-3v-2h3V133.6z M167.4,133.6h-3v-2h3V133.6z
	 M158.4,133.6h-3v-2h3V133.6z M149.4,133.6h-3v-2h3V133.6z M140.4,133.6h-3v-2h3V133.6z"/>
<path class="st0" d="M153.8,264.7h-2v-3h2V264.7z M153.8,255.7h-2v-3h2V255.7z M153.8,246.7h-2v-3h2V246.7z M153.8,237.7h-2v-3h2
	V237.7z M153.8,228.7h-2v-3h2V228.7z M153.8,219.7h-2v-3h2V219.7z M153.8,210.7h-2v-3h2V210.7z M153.8,201.7h-2v-3h2V201.7z
	 M153.8,192.7h-2v-3h2V192.7z M153.8,183.7h-2v-3h2V183.7z M153.8,174.7h-2v-3h2V174.7z M153.8,165.7h-2v-3h2V165.7z M153.8,156.7
	h-2v-3h2V156.7z M153.8,147.7h-2v-3h2V147.7z M153.8,138.7h-2v-3h2V138.7z M153.8,129.7h-2v-3h2V129.7z M153.8,120.7h-2v-3h2V120.7z
	 M153.8,111.7h-2v-3h2V111.7z"/>
<path class="st0" d="M153.8,423.7h-2v-3h2V423.7z M153.8,414.7h-2v-3h2V414.7z M153.8,405.7h-2v-3h2V405.7z M153.8,396.7h-2v-3h2
	V396.7z M153.8,387.7h-2v-3h2V387.7z M153.8,378.7h-2v-3h2V378.7z M153.8,369.7h-2v-3h2V369.7z M153.8,360.7h-2v-3h2V360.7z
	 M153.8,351.7h-2v-3h2V351.7z M153.8,342.7h-2v-3h2V342.7z M153.8,333.7h-2v-3h2V333.7z M153.8,324.7h-2v-1.5h2V324.7z"/>
<path class="st0" d="M423.4,355.1h-3v-2h3V355.1z M414.4,355.1h-3v-2h3V355.1z M405.4,355.1h-3v-2h3V355.1z M396.4,355.1h-3v-2h3
	V355.1z M387.4,355.1h-3v-2h3V355.1z M378.4,355.1h-3v-2h3V355.1z M369.4,355.1h-3v-2h3V355.1z M360.4,355.1h-3v-2h3V355.1z
	 M351.4,355.1h-3v-2h3V355.1z M342.4,355.1h-3v-2h3V355.1z M333.4,355.1h-3v-2h3V355.1z M324.4,355.1h-3v-2h3V355.1z M315.4,355.1
	h-3v-2h3V355.1z M306.4,355.1h-3v-2h3V355.1z"/>
</svg>
