<?xml version="1.0" encoding="utf-8"?>
<!-- Generator: Adobe Illustrator 24.3.0, SVG Export Plug-In . SVG Version: 6.00 Build 0)  -->
<svg version="1.1" id="Laag_1" xmlns="http://www.w3.org/2000/svg" xmlns:xlink="http://www.w3.org/1999/xlink" x="0px" y="0px"
	 viewBox="0 0 566.9 566.9" style="enable-background:new 0 0 566.9 566.9;" xml:space="preserve">
<style type="text/css">
	.st0{fill:#6B6B7F;}
	.st1{fill:#FF5429;}
</style>
<path class="st0" d="M154.9,392c-0.3,0.3-0.5,0.6-0.5,1c0.4-0.4,0.9-0.6,1.4-0.7l62.2-9.7l-58.6,9.1l58.6-58.6v49.5l0,0V329
	L154.9,392z"/>
<path class="st1" d="M155.4,256c-0.3,0-0.6,0.1-0.9,0.2c-0.5,0.3-0.9,0.9-0.9,1.5V283l64.4,10v89.7l0,0l-62.1,9.7
	c-1.3,0.2-2.2,1.3-2.2,2.6v24.8H329c0.7,0,1.3-0.3,1.7-0.9l0,0c0.2-0.3,0.4-0.8,0.4-1.2v-3l0,0v-20l0,0v-1.9l-2-0.3l-60.7-9.4
	l-0.6-0.1l-1-0.2V293l62.3-9.7c0.1,0,0.2,0,0.4-0.1h0.1c0.1,0,0.2-0.1,0.3-0.1c0.1-0.1,0.2-0.1,0.3-0.2l0.1-0.1c0,0,0.1-0.1,0.1-0.1
	l0,0c0.5-0.5,0.8-1.1,0.8-1.8v-25H155.4z M328.1,280.9v-0.4l-64.4,10v94.8l2,0.3l0.3-0.3l0.2,0.2l0.2,0.1l0.2,0.1
	c0.2,0.1,0.4,0.2,0.6,0.2l60.8,9.5l0,0v21.5H156.6v-21.5l64.4-10l0,0v-94.8l-64.4-10V259h171.5v21.5l0.4-0.1
	C328.3,280.5,328.1,280.7,328.1,280.9z"/>
<path class="st0" d="M416.6,196.9v-23.2c-0.5-1.5-1.7-2.7-3.1-3.1H247l-92,85c-0.2,0.2-0.3,0.4-0.4,0.7c0.3-0.2,0.6-0.3,0.9-0.2h3.5
	l89.3-82.5h163.2L329,256h2.1v2.1l82.5-82.5v20L352.2,257l-21.1,21.1v2.8c0,0.7-0.3,1.3-0.8,1.8h0.1c0.1,0,0.2,0,0.2-0.1l0,0
	l0.2-0.1h0.1c0.1,0,0.1-0.1,0.1-0.1c0.1-0.1,0.2-0.1,0.2-0.2l17.9-17.9v33.5l-82.5,82.5v2.3l1,0.2l0.6,0.1l82.8-82.8l60.7,9.4
	L329,392.4l2,0.3v1.9l82.5-82.5v20l-82.4,82.5v3c0,0.4-0.1,0.8-0.4,1.2c0.3-0.1,0.7-0.3,0.9-0.5l84.9-84.9v-23.5
	c0-0.6-0.2-1.1-0.7-1.5c0,0,0-0.1,0-0.1c-0.2-0.7-0.9-1.3-1.6-1.4l-62-9.6v-35.9L416.6,196.9z"/>
<path class="st0" d="M328.1,280.5v0.4c0-0.2,0.2-0.4,0.4-0.5L328.1,280.5z"/>
<path class="st0" d="M328.1,280.5v0.4c0-0.2,0.2-0.4,0.4-0.5L328.1,280.5z"/>
<path class="st0" d="M468.4,282.3h-3v-2h3V282.3z M459.4,282.3h-3v-2h3V282.3z M450.4,282.3h-3v-2h3V282.3z M441.4,282.3h-3v-2h3
	V282.3z M432.4,282.3h-3v-2h3V282.3z M423.4,282.3h-3v-2h3V282.3z M414.4,282.3h-3v-2h3V282.3z M405.4,282.3h-3v-2h3V282.3z
	 M396.4,282.3h-3v-2h3V282.3z M387.4,282.3h-3v-2h3V282.3z M378.4,282.3h-3v-2h3V282.3z M369.4,282.3h-3v-2h3V282.3z M360.4,282.3
	h-3v-2h3V282.3z"/>
<path class="st0" d="M177.6,228.7h-2v-3h2V228.7z M177.6,219.7h-2v-3h2V219.7z M177.6,210.7h-2v-3h2V210.7z M177.6,201.7h-2v-3h2
	V201.7z M177.6,192.7h-2v-3h2V192.7z M177.6,183.7h-2v-3h2V183.7z M177.6,174.7h-2v-3h2V174.7z M177.6,165.7h-2v-3h2V165.7z
	 M177.6,156.7h-2v-3h2V156.7z M177.6,147.7h-2v-3h2V147.7z M177.6,138.7h-2v-3h2V138.7z M177.6,129.7h-2v-3h2V129.7z"/>
<path class="st0" d="M227.3,151.8h-3v-2h3V151.8z M218.3,151.8h-3v-2h3V151.8z M209.3,151.8h-3v-2h3V151.8z M200.3,151.8h-3v-2h3
	V151.8z M191.3,151.8h-3v-2h3V151.8z M182.3,151.8h-3v-2h3V151.8z M173.3,151.8h-3v-2h3V151.8z M164.3,151.8h-3v-2h3V151.8z
	 M155.3,151.8h-3v-2h3V151.8z M146.3,151.8h-3v-2h3V151.8z"/>
</svg>
