<?xml version="1.0" encoding="utf-8"?>
<!-- Generator: Adobe Illustrator 24.3.0, SVG Export Plug-In . SVG Version: 6.00 Build 0)  -->
<svg version="1.1" id="Laag_1" xmlns="http://www.w3.org/2000/svg" xmlns:xlink="http://www.w3.org/1999/xlink" x="0px" y="0px"
	 viewBox="0 0 566.9 566.9" style="enable-background:new 0 0 566.9 566.9;" xml:space="preserve">
<style type="text/css">
	.st0{fill:#6B6B7F;}
	.st1{fill:#FF5429;}
</style>
<path class="st0" d="M442.1,359.5c-4.5-4.5-10.7-7.1-17.1-7.1H307.5v3H323l-22.4,38.8h-68.5l4-6.9h-3.5l-4,6.9h-67.7l26.8-38.8h5.5
	v-3h-29.4h-1.4c-9.2,0.3-24.5,0.8-35.2,15.2l-25.8,36.1c-0.1,0.1-0.1,0.2-0.2,0.3c-0.2,0.3-0.4,0.6-0.6,0.9s-0.3,0.5-0.5,0.7
	s-0.3,0.5-0.4,0.7c-0.2,0.4-0.4,0.8-0.7,1.2l-0.2,0.5c-0.2,0.5-0.4,1-0.7,1.5l-0.2,0.5c-0.1,0.3-0.2,0.6-0.3,0.9s-0.2,0.5-0.2,0.8
	s-0.2,0.8-0.3,1.2s-0.1,0.6-0.2,0.9s-0.1,0.4-0.1,0.7c-0.1,0.5-0.1,1-0.2,1.5c0,0.2,0,0.4,0,0.5c0,0.5-0.1,1-0.1,1.5v0.1
	c0,13.3,10.8,24.1,24.1,24.1c0,0,0,0,0,0H401c9.9,0,18.8-6,22.4-15.2l21-36.3v-0.1c2.1-3.4,4.3-7.4,4.7-12.2
	c0.1-0.7,0.1-1.4,0.1-2.2C449.2,370.1,446.6,363.9,442.1,359.5z M326.5,355.4H395l-22.5,38.8H304L326.5,355.4z M117,387.1l6.3-8.8
	l6.3-8.8c9.8-13.3,24.2-13.8,32.9-14h1.4H184l-26.8,38.8h-36.6c-0.4,0-0.9,0-1.4,0h-0.1l-1.2,0.1h-0.2h-0.3l-0.8,0.1h-0.3l-0.4,0.1
	l-0.5,0.1l-0.5,0.1l-0.4,0.1l-0.2,0.1l-0.7,0.2l-0.5,0.2l-0.8,0.2l-0.5,0.2l-0.7,0.3l-0.5,0.2l-0.5,0.2L117,387.1z M422,420.2
	c0,0.6-0.1,1.1-0.2,1.7c-0.2,0.9-0.4,1.9-0.7,2.8c-0.1,0.5-0.3,0.9-0.5,1.4c-3.1,8.1-11,13.5-19.7,13.4H120.6
	c-11.7,0-21.1-9.5-21.1-21.1c0-0.7,0-1.4,0.1-2c0-0.1,0-0.3,0-0.4c0.1-0.5,0.2-1.1,0.2-1.6c0-0.1,0.1-0.2,0.1-0.4
	c0.1-0.6,0.3-1.2,0.4-1.7c0,0,0-0.1,0-0.1c0.6-1.9,1.5-3.7,2.6-5.4l0.2-0.2c0.3-0.5,0.7-1,1.1-1.5l0,0c3-3.7,7.2-6.2,11.9-7.2
	l0.3-0.1c0.6-0.1,1.2-0.2,1.8-0.3h0.4c0.6,0,1.1-0.1,1.7-0.1h280.6c3.7,0,7.3,0.9,10.5,2.7c1.6,0.9,3.1,2.1,4.4,3.4
	c4,4,6.2,9.3,6.2,14.9C422.1,418.9,422.1,419.6,422,420.2z M446,378.4c-0.4,4.2-2.3,7.8-4.2,10.8l-16.8,29c0-0.2,0-0.4,0-0.6
	s0-0.4,0-0.6s0-0.4,0-0.6s0-0.4,0-0.6s0-0.4-0.1-0.6l0,0c0-6.7-2.6-9.8-6.9-14c-4.5-4.5-10.7-7.1-17.1-7.1h-25l22.5-38.8H425
	c11.7,0,21.1,9.5,21.1,21.1c0,0,0,0,0,0C446.1,377.1,446.1,377.8,446,378.4z"/>
<path class="st0" d="M123.2,406.4c-6.5,0-11.7,5.2-11.7,11.7s5.2,11.7,11.7,11.7c6.5,0,11.7-5.2,11.7-11.7l0,0
	C134.9,411.6,129.6,406.4,123.2,406.4z M123.2,426.8c-4.8,0-8.7-3.9-8.7-8.7c0-4.8,3.9-8.7,8.7-8.7c4.8,0,8.7,3.9,8.7,8.7
	c0,0,0,0,0,0C131.9,422.9,128,426.8,123.2,426.8z"/>
<path class="st0" d="M191.8,406.4c-6.5,0-11.7,5.2-11.7,11.7c0,6.5,5.2,11.7,11.7,11.7c6.5,0,11.7-5.2,11.7-11.7l0,0
	C203.5,411.6,198.2,406.4,191.8,406.4z M191.8,426.8c-4.8,0-8.7-3.9-8.7-8.7c0-4.8,3.9-8.7,8.7-8.7c4.8,0,8.7,3.9,8.7,8.7
	c0,0,0,0,0,0C200.5,422.9,196.6,426.8,191.8,426.8z"/>
<path class="st0" d="M260.4,406.4c-6.5,0-11.7,5.2-11.7,11.7s5.2,11.7,11.7,11.7c6.5,0,11.7-5.2,11.7-11.7c0,0,0,0,0,0
	C272.1,411.6,266.9,406.4,260.4,406.4z M260.4,426.8c-4.8,0-8.7-3.9-8.7-8.7s3.9-8.7,8.7-8.7c4.8,0,8.7,3.9,8.7,8.7c0,0,0,0,0,0
	C269.1,422.9,265.2,426.8,260.4,426.8z"/>
<path class="st0" d="M329,406.4c-6.5,0-11.7,5.2-11.7,11.7c0,6.5,5.2,11.7,11.7,11.7c6.5,0,11.7-5.2,11.7-11.7c0,0,0,0,0,0
	C340.7,411.6,335.5,406.4,329,406.4z M329,426.8c-4.8,0-8.7-3.9-8.7-8.7s3.9-8.7,8.7-8.7s8.7,3.9,8.7,8.7c0,0,0,0,0,0
	C337.7,422.9,333.8,426.8,329,426.8z"/>
<path class="st0" d="M397.7,406.4c-6.5,0-11.7,5.2-11.7,11.7c0,6.5,5.2,11.7,11.7,11.7c6.5,0,11.7-5.2,11.7-11.7c0,0,0,0,0,0
	C409.4,411.6,404.1,406.4,397.7,406.4z M397.7,426.8c-4.8,0-8.7-3.9-8.7-8.7s3.9-8.7,8.7-8.7s8.7,3.9,8.7,8.7c0,0,0,0,0,0
	C406.4,422.9,402.5,426.8,397.7,426.8z"/>
<path class="st0" d="M276.7,184.6h-5.5v-7.5l100.7-8.6l-0.2-3l-121.3,10.4c-11.7,0.7-21.9-7.8-23.3-19.5c-0.1-0.9-0.2-1.7-0.1-2.6
	c0-10.8,7.8-20,18.4-21.7l126.3-23.9l-0.6-3l-126.3,23.9c-12.1,2-20.9,12.4-20.9,24.7c0,1,0.1,2,0.2,2.9c0.4,3.6,1.6,7.1,3.5,10.2
	h-0.2v17.6h-6l-7.8,34.2h6.8l-3.5,12.6l0.5,25.3l12.3-0.3l0.7-20.6l9-17.1h17.4l9,17.1l0.7,20.6l12.3,0.3l0.5-25.3l-3.5-12.6h6.2
	L276.7,184.6z M227.4,235.1l-0.6,18.4l-6.4,0.1l-0.4-21.9l3.4-12.4l12.2,0.3L227.4,235.1z M275.9,253.7l-6.4-0.1l-0.6-18.4
	l-8.1-15.4l12.2-0.3l3.4,12.4L275.9,253.7z M230.4,170.7c4.8,5.3,11.5,8.2,18.6,8.2c0.5,0,1,0,1.6,0l17.6-1.5v7.2h-37.8V170.7z
	 M223.7,187.6h50.4l4.5,28.2h-61.2L223.7,187.6z"/>
<path class="st0" d="M241.5,153.5c0,6,4.9,10.9,10.9,10.9c6,0,10.9-4.9,10.9-10.9c0-6-4.9-10.9-10.9-10.9
	C246.4,142.6,241.5,147.5,241.5,153.5L241.5,153.5z M260.4,153.5c0,4.4-3.5,7.9-7.9,7.9c-4.4,0-7.9-3.5-7.9-7.9
	c0-4.4,3.5-7.9,7.9-7.9c0,0,0,0,0,0C256.8,145.6,260.3,149.2,260.4,153.5z"/>
<path class="st0" d="M142,352.1h-2v-3h2V352.1z M142,343.1h-2v-3h2V343.1z M142,334.1h-2v-3h2V334.1z M142,325.1h-2v-3h2V325.1z
	 M142,316.1h-2v-3h2V316.1z M142,307.1h-2v-3h2V307.1z M142,298.1h-2v-3h2V298.1z M142,289.1h-2v-3h2V289.1z M142,280.1h-2v-3h2
	V280.1z M142,271.1h-2v-3h2V271.1z M142,262.1h-2v-3h2V262.1z M142,253.1h-2v-3h2V253.1z M142,244.1h-2v-3h2V244.1z M142,235.1h-2
	v-3h2V235.1z M142,226.1h-2v-3h2V226.1z M142,217.1h-2v-3h2V217.1z M142,208.1h-2v-3h2V208.1z M142,199.1h-2v-3h2V199.1z M142,190.1
	h-2v-3h2V190.1z M142,181.1h-2v-3h2V181.1z M142,172.1h-2v-3h2V172.1z"/>
<path class="st0" d="M183.4,203.2h-3v-2h3V203.2z M174.4,203.2h-3v-2h3V203.2z M165.4,203.2h-3v-2h3V203.2z M156.4,203.2h-3v-2h3
	V203.2z M147.4,203.2h-3v-2h3V203.2z M138.4,203.2h-3v-2h3V203.2z M129.4,203.2h-3v-2h3V203.2z M120.4,203.2h-3v-2h3V203.2z"/>
<path class="st0" d="M426.4,348.7h-2v-3h2V348.7z M426.4,339.7h-2v-3h2V339.7z M426.4,330.7h-2v-3h2V330.7z M426.4,321.7h-2v-3h2
	V321.7z M426.4,312.7h-2v-3h2V312.7z M426.4,303.7h-2v-3h2V303.7z M426.4,294.7h-2v-3h2V294.7z M426.4,285.7h-2v-3h2V285.7z
	 M426.4,276.7h-2v-3h2V276.7z M426.4,267.7h-2v-3h2V267.7z M426.4,258.7h-2v-3h2V258.7z"/>
<path class="st0" d="M467.6,262.8h-3v-2h3V262.8z M458.6,262.8h-3v-2h3V262.8z M449.6,262.8h-3v-2h3V262.8z M440.6,262.8h-3v-2h3
	V262.8z M431.6,262.8h-3v-2h3V262.8z M422.6,262.8h-3v-2h3V262.8z M413.6,262.8h-3v-2h3V262.8z M404.6,262.8h-3v-2h3V262.8z"/>
<path class="st1" d="M216,273.1l-22.8,22.8v91.4h91.4l22.8-22.8v-91.4H216z M283.1,384.3h-86.9v-86.9h86.9L283.1,384.3z M284,294.4
	h-85l18.3-18.3h85.1L284,294.4z M304.4,363.3l-18.3,18.3v-85.1l18.3-18.3V363.3z"/>
<path class="st1" d="M256.6,306.7h-30.5c-2.6,0-4.7,2.1-4.7,4.7v3.7c0,2.6,2.1,4.7,4.7,4.7h30.5c2.6,0,4.7-2.1,4.7-4.7c0,0,0,0,0,0
	v-3.7C261.3,308.8,259.2,306.7,256.6,306.7C256.6,306.7,256.6,306.7,256.6,306.7z M258.3,315.2c0,1-0.8,1.7-1.7,1.7h-30.5
	c-1,0-1.7-0.8-1.7-1.7v-3.7c0-1,0.8-1.7,1.7-1.7h30.5c1,0,1.7,0.8,1.7,1.7V315.2z"/>
</svg>
