<?xml version="1.0" encoding="utf-8"?>
<!-- Generator: Adobe Illustrator 24.3.0, SVG Export Plug-In . SVG Version: 6.00 Build 0)  -->
<svg version="1.1" id="Laag_1" xmlns="http://www.w3.org/2000/svg" xmlns:xlink="http://www.w3.org/1999/xlink" x="0px" y="0px"
	 viewBox="0 0 566.9 566.9" style="enable-background:new 0 0 566.9 566.9;" xml:space="preserve">
<style type="text/css">
	.st0{fill:#6B6B7F;}
	.st1{fill:#FF5429;}
</style>
<path class="st0" d="M232.5,380.7c-9.9,0-17.9-8-17.8-17.9s8-17.9,17.9-17.8s17.9,8,17.8,17.9c0,4.7-1.9,9.3-5.2,12.6
	C241.8,378.8,237.2,380.7,232.5,380.7z M232.5,347.9c-8.2,0-14.8,6.7-14.8,14.9c0,8.2,6.7,14.8,14.9,14.8s14.8-6.7,14.8-14.9
	c0-3.9-1.6-7.7-4.4-10.5C240.2,349.5,236.4,347.9,232.5,347.9z"/>
<path class="st0" d="M286.6,403.1c-9.9,0-17.9-8-17.9-17.9s8-17.9,17.9-17.9s17.9,8,17.9,17.9l0,0
	C304.5,395.1,296.5,403.1,286.6,403.1z M286.6,370.4c-8.2,0-14.9,6.7-14.9,14.9s6.7,14.9,14.9,14.9c8.2,0,14.9-6.7,14.9-14.9l0,0
	C301.5,377,294.8,370.4,286.6,370.4z"/>
<path class="st0" d="M340.8,380.7c-9.9,0-17.9-8-17.9-17.9s8-17.9,17.9-17.9c4.7,0,9.3,1.9,12.6,5.2l0,0c7,7,7,18.3,0,25.3
	C350.1,378.8,345.5,380.7,340.8,380.7L340.8,380.7z M340.8,347.9c-8.2,0-14.8,6.7-14.8,14.9c0,8.2,6.7,14.8,14.9,14.8
	c8.2,0,14.8-6.7,14.8-14.9c0-3.9-1.6-7.7-4.4-10.5C348.5,349.5,344.7,347.9,340.8,347.9z"/>
<path class="st0" d="M363.2,325.2c-9.9,0-17.9-8-17.9-17.9h3c0,8.2,6.7,14.9,14.9,14.9c8.2,0,14.9-6.7,14.9-14.9h3
	C381,317.2,373,325.1,363.2,325.2z"/>
<path class="st0" d="M210.1,325.2c-9.9,0-17.9-8-17.9-17.9h3c0,8.2,6.7,14.9,14.9,14.9s14.9-6.7,14.9-14.9h3
	C227.9,317.2,219.9,325.1,210.1,325.2z"/>
<path class="st0" d="M338.9,233.4c-9.9,0-17.9-8-17.9-17.9s8-17.9,17.9-17.9s17.9,8,17.9,17.9c0,4.7-1.9,9.3-5.2,12.6
	C348.2,231.5,343.6,233.4,338.9,233.4z M338.9,200.6c-8.2,0-14.9,6.6-14.9,14.8s6.6,14.9,14.8,14.9c8.2,0,14.9-6.6,14.9-14.8
	c0-3.9-1.6-7.7-4.3-10.5C346.6,202.2,342.8,200.6,338.9,200.6z"/>
<path class="st0" d="M284.7,210.9c-9.9,0-17.9-8-17.9-17.9s8-17.9,17.9-17.9s17.9,8,17.9,17.9l0,0
	C302.6,202.9,294.6,210.9,284.7,210.9z M284.7,178.2c-8.2,0-14.9,6.7-14.9,14.9s6.7,14.9,14.9,14.9c8.2,0,14.9-6.7,14.9-14.9l0,0
	C299.6,184.9,292.9,178.2,284.7,178.2z"/>
<path class="st0" d="M230.6,233.4c-4.7,0-9.3-1.9-12.6-5.2l0,0c-7-7-7-18.3-0.1-25.3c7-7,18.3-7,25.3-0.1c7,7,7,18.3,0.1,25.3
	C240,231.5,235.4,233.3,230.6,233.4L230.6,233.4z M220.1,226c5.8,5.8,15.2,5.8,21,0s5.8-15.2,0-21s-15.2-5.8-21,0l0,0
	C214.3,210.8,214.3,220.2,220.1,226z"/>
<path class="st0" d="M226.1,271h-3c0-8.2-6.7-14.9-14.9-14.9s-14.9,6.7-14.9,14.9h-3c0-9.9,8-17.9,17.9-17.9
	C218,253.1,226.1,261.1,226.1,271z"/>
<path class="st0" d="M379.2,271h-3c-0.2-8.2-7-14.7-15.3-14.5c-7.9,0.2-14.3,6.6-14.5,14.5h-3c0.2-9.9,8.4-17.7,18.3-17.5
	C371.3,253.8,379,261.5,379.2,271z"/>
<path class="st1" d="M402.2,289.3h-10v-3h10V289.3z M377.2,289.3h-10v-3h10V289.3z M352.2,289.3h-10v-3h10V289.3z M327.2,289.3h-10
	v-3h10V289.3z M302.2,289.3h-10v-3h10V289.3z M277.2,289.3h-10v-3h10V289.3z M252.2,289.3h-10v-3h10V289.3z M227.2,289.3h-10v-3h10
	V289.3z M202.2,289.3h-10v-3h10V289.3z M177.2,289.3h-10v-3h10V289.3z"/>
<path class="st0" d="M165.6,348.1h-3v-2h3V348.1z M156.6,348.1h-3v-2h3V348.1z M147.6,348.1h-3v-2h3V348.1z M138.6,348.1h-3v-2h3
	V348.1z M129.6,348.1h-3v-2h3V348.1z M120.6,348.1h-3v-2h3V348.1z M111.6,348.1h-3v-2h3V348.1z M102.6,348.1h-3v-2h3V348.1z"/>
<path class="st0" d="M124.5,380.2h-2v-3h2V380.2z M124.5,371.2h-2v-3h2V371.2z M124.5,362.2h-2v-3h2V362.2z M124.5,353.2h-2v-3h2
	V353.2z M124.5,344.2h-2v-3h2V344.2z M124.5,335.2h-2v-3h2V335.2z M124.5,326.2h-2v-3h2V326.2z M124.5,317.2h-2v-3h2V317.2z
	 M124.5,308.2h-2v-3h2V308.2z M124.5,299.2h-2v-3h2V299.2z M124.5,290.2h-2v-3h2V290.2z"/>
<path class="st0" d="M379.5,190.8h-2v-3h2V190.8z M379.5,181.8h-2v-3h2V181.8z M379.5,172.8h-2v-3h2V172.8z M379.5,163.8h-2v-3h2
	V163.8z M379.5,154.8h-2v-3h2V154.8z M379.5,145.8h-2v-3h2V145.8z M379.5,136.8h-2v-3h2V136.8z M379.5,127.8h-2v-3h2V127.8z
	 M379.5,118.8h-2v-3h2V118.8z"/>
<path class="st0" d="M379.5,433.6h-2v-1.2h2V433.6z M379.5,426.4h-2v-3h2V426.4z M379.5,417.4h-2v-3h2V417.4z M379.5,408.4h-2v-3h2
	V408.4z M379.5,399.4h-2v-3h2V399.4z M379.5,390.4h-2v-3h2V390.4z"/>
<path class="st0" d="M402.7,269.6c-0.4-30.9-12.8-59.9-34.8-81.6s-51.2-33.7-82.2-33.7s-60.2,12-82.2,33.7s-34.4,50.7-34.8,81.6h-3
	c0.4-31.7,13.1-61.4,35.7-83.7s52.5-34.6,84.3-34.6s61.7,12.3,84.3,34.6c22.6,22.3,35.2,52,35.7,83.7L402.7,269.6z"/>
<path class="st0" d="M285.7,427c-31.8,0-61.7-12.3-84.3-34.6c-22.6-22.3-35.2-52-35.7-83.7h3c0.4,30.9,12.8,59.9,34.8,81.6
	s51.2,33.7,82.2,33.7s60.2-12,82.2-33.7s34.4-50.7,34.8-81.6h3c-0.4,31.7-13.1,61.4-35.7,83.7C347.4,414.7,317.4,427,285.7,427z"/>
</svg>
