<?xml version="1.0" encoding="utf-8"?>
<!-- Generator: Adobe Illustrator 24.3.0, SVG Export Plug-In . SVG Version: 6.00 Build 0)  -->
<svg version="1.1" id="Laag_1" xmlns="http://www.w3.org/2000/svg" xmlns:xlink="http://www.w3.org/1999/xlink" x="0px" y="0px"
	 viewBox="0 0 566.9 566.9" style="enable-background:new 0 0 566.9 566.9;" xml:space="preserve">
<style type="text/css">
	.st0{fill:#FF5429;}
	.st1{fill:#6B6B7F;}
</style>
<path class="st0" d="M274.4,180.2h-28.3v-15.5h28.3V180.2z M249.1,177.2h22.3v-9.5h-22.3L249.1,177.2z"/>
<polygon class="st0" points="426.5,306.2 424.4,304.1 383.3,345.1 342.2,304.1 340.1,306.2 381.2,347.3 340.1,388.3 342.2,390.5 
	383.3,349.4 424.4,390.5 426.5,388.3 385.4,347.3 "/>
<path class="st1" d="M416.6,227.1l-31.8-20v-8c0-7.1-5.7-12.9-12.8-12.9h-73.6v-14.4L272.5,156h-33.5v30.2h-86.8
	c-7.1,0-12.8,5.7-12.8,12.8v23h-21.2v47.4h-13.5v16.5h13.5v44.3h21.2v23.8c0,7.1,5.8,12.8,12.8,12.8h68.1v9.8h-10V392h111v17.2h124
	V285.3h-28.7V227.1z M242.1,159h29.7l23.7,14.4v12.8h-53.4V159z M413.6,228.7v56.6h-28.8v-74.7L413.6,228.7z M381.8,258.7H172.2
	v-29.6h209.7V258.7z M381.8,199v27H172.2v-36.8H372C377.4,189.2,381.8,193.6,381.8,199L381.8,199z M107.8,282.8v-10.5h10.5v10.5
	H107.8z M121.3,327.1V225h18.2v102.1H121.3z M142.4,353.9v-23.8l0,0V222l0,0v-23c0-5.4,4.4-9.8,9.8-9.8h16.9v174.6h-16.9
	C146.8,363.8,142.4,359.4,142.4,353.9L142.4,353.9z M321.4,389h-108v-9.4h108V389z M321.4,376.5h-98.1v-9.8h98L321.4,376.5z
	 M321.4,363.8H172.2v-36.9h149.2L321.4,363.8z M321.4,323.9H172.2v-29.6h149.2L321.4,323.9z M321.4,291.3H172.2v-29.6h209.7v23.6
	h-60.5L321.4,291.3z M442.3,288.3v117.9h-118V288.3L442.3,288.3z"/>
<rect x="185.9" y="171.5" class="st1" width="3" height="2"/>
<rect x="176.9" y="171.5" class="st1" width="3" height="2"/>
<rect x="149.9" y="171.5" class="st1" width="3" height="2"/>
<rect x="167.9" y="171.5" class="st1" width="3" height="2"/>
<rect x="158.9" y="171.5" class="st1" width="3" height="2"/>
<rect x="221.9" y="171.5" class="st1" width="3" height="2"/>
<rect x="140.9" y="171.5" class="st1" width="3" height="2"/>
<rect x="230.9" y="171.5" class="st1" width="3" height="2"/>
<rect x="212.9" y="171.5" class="st1" width="3" height="2"/>
<rect x="194.9" y="171.5" class="st1" width="3" height="2"/>
<rect x="203.9" y="171.5" class="st1" width="3" height="2"/>
<rect x="90.9" y="363.2" class="st1" width="2" height="3"/>
<rect x="90.9" y="345.2" class="st1" width="2" height="3"/>
<rect x="90.9" y="354.2" class="st1" width="2" height="3"/>
<rect x="90.9" y="327.2" class="st1" width="2" height="3"/>
<rect x="90.9" y="336.2" class="st1" width="2" height="3"/>
<rect x="90.9" y="390.2" class="st1" width="2" height="3"/>
<rect x="90.9" y="381.2" class="st1" width="2" height="3"/>
<rect x="90.9" y="372.2" class="st1" width="2" height="3"/>
<rect x="90.9" y="399.2" class="st1" width="2" height="3"/>
<rect x="90.9" y="318.2" class="st1" width="2" height="3"/>
<rect x="90.9" y="408.2" class="st1" width="2" height="3"/>
<rect x="90.9" y="417.2" class="st1" width="2" height="3"/>
<rect x="90.9" y="309.2" class="st1" width="2" height="3"/>
<rect x="90.9" y="300.2" class="st1" width="2" height="3"/>
<rect x="131" y="404" class="st1" width="3" height="2"/>
<rect x="158" y="404" class="st1" width="3" height="2"/>
<rect x="176" y="404" class="st1" width="3" height="2"/>
<rect x="149" y="404" class="st1" width="3" height="2"/>
<rect x="203" y="404" class="st1" width="3" height="2"/>
<rect x="194" y="404" class="st1" width="3" height="2"/>
<rect x="185" y="404" class="st1" width="3" height="2"/>
<rect x="167" y="404" class="st1" width="3" height="2"/>
<rect x="104" y="404" class="st1" width="3" height="2"/>
<rect x="113" y="404" class="st1" width="3" height="2"/>
<rect x="122" y="404" class="st1" width="3" height="2"/>
<rect x="95" y="404" class="st1" width="3" height="2"/>
<rect x="140" y="404" class="st1" width="3" height="2"/>
<rect x="77" y="404" class="st1" width="3" height="2"/>
<rect x="86" y="404" class="st1" width="3" height="2"/>
<rect x="428.1" y="256.4" class="st1" width="3" height="2"/>
<rect x="419.1" y="256.4" class="st1" width="3" height="2"/>
<rect x="437.1" y="256.4" class="st1" width="3" height="2"/>
<rect x="455.1" y="256.4" class="st1" width="3" height="2"/>
<rect x="446.1" y="256.4" class="st1" width="3" height="2"/>
<rect x="464.1" y="256.4" class="st1" width="3" height="2"/>
</svg>
