<?xml version="1.0" encoding="utf-8"?>
<!-- Generator: Adobe Illustrator 24.3.0, SVG Export Plug-In . SVG Version: 6.00 Build 0)  -->
<svg version="1.1" id="Laag_1" xmlns="http://www.w3.org/2000/svg" xmlns:xlink="http://www.w3.org/1999/xlink" x="0px" y="0px"
	 viewBox="0 0 566.9 566.9" style="enable-background:new 0 0 566.9 566.9;" xml:space="preserve">
<style type="text/css">
	.st0{fill:#6B6B7F;}
	.st1{fill:#FF5429;}
</style>
<path class="st0" d="M174,371.5h-14.7V204H174V371.5z M162.3,368.5h8.7V207h-8.7V368.5z"/>
<path class="st0" d="M197.3,295.2h-14.7V204h14.7L197.3,295.2z M185.5,292.2h8.7V207h-8.7V292.2z"/>
<path class="st1" d="M197.3,371.5h-14.7v-72.6h14.7L197.3,371.5z M185.5,368.5h8.7v-66.6h-8.7V368.5z"/>
<path class="st0" d="M220.5,371.5h-14.7V204h14.7V371.5z M208.8,368.5h8.7V207h-8.7V368.5z"/>
<path class="st0" d="M243.7,371.5H229V204h14.7L243.7,371.5z M232,368.5h8.7V207H232L232,368.5z"/>
<path class="st0" d="M267,333.9h-14.8V204H267V333.9z M255.3,330.9h8.7V207h-8.7V330.9z"/>
<path class="st1" d="M267,371.5h-14.8v-34H267V371.5z M255.3,368.5h8.7v-28h-8.7V368.5z"/>
<path class="st0" d="M290.2,264.5h-14.7V204h14.7L290.2,264.5z M278.5,261.5h8.7V207h-8.7V261.5z"/>
<path class="st0" d="M290.2,371.5h-14.7V268.1h14.7L290.2,371.5z M278.5,368.5h8.7v-97.4h-8.7V368.5z"/>
<path class="st0" d="M313.5,371.5h-14.7V204h14.7V371.5z M301.7,368.5h8.7V207h-8.7V368.5z"/>
<path class="st0" d="M336.7,282.4H322V204h14.7L336.7,282.4z M325,279.4h8.7V207H325L325,279.4z"/>
<path class="st0" d="M336.7,371.5H322v-85.5h14.7L336.7,371.5z M325,368.5h8.7v-79.5H325L325,368.5z"/>
<path class="st0" d="M360,371.5h-14.8V204H360V371.5z M348.3,368.5h8.7V207h-8.7V368.5z"/>
<path class="st0" d="M383.2,310.7h-14.7V204h14.7V310.7z M371.5,307.7h8.7V207h-8.7V307.7z"/>
<path class="st1" d="M383.2,371.5h-14.7v-57.2h14.7V371.5z M371.5,368.5h8.7v-51.2h-8.7V368.5z"/>
<path class="st0" d="M406.5,371.5h-14.7V204h14.7L406.5,371.5z M394.7,368.5h8.7V207h-8.7V368.5z"/>
<polygon class="st0" points="436.5,252.9 433.5,252.9 433.5,176.9 357.5,176.9 357.5,173.9 436.5,173.9 "/>
<polygon class="st0" points="132.3,252.9 129.3,252.9 129.3,173.9 208.2,173.9 208.2,176.9 132.3,176.9 "/>
<polygon class="st0" points="436.5,401.5 357.5,401.5 357.5,398.5 433.5,398.5 433.5,322.6 436.5,322.6 "/>
<polygon class="st0" points="208.2,401.5 129.3,401.5 129.3,322.6 132.3,322.6 132.3,398.5 208.2,398.5 "/>
<path class="st0" d="M126.7,388.7h-3v-2h3V388.7z M117.7,388.7h-3v-2h3V388.7z M108.7,388.7h-3v-2h3V388.7z M99.7,388.7h-3v-2h3
	V388.7z M90.7,388.7h-3v-2h3V388.7z M81.7,388.7h-3v-2h3V388.7z M72.7,388.7h-3v-2h3V388.7z"/>
<path class="st0" d="M454.6,148.4h-3v-2h3V148.4z M445.6,148.4h-3v-2h3V148.4z M436.6,148.4h-3v-2h3V148.4z M427.6,148.4h-3v-2h3
	V148.4z M418.6,148.4h-3v-2h3V148.4z M409.6,148.4h-3v-2h3V148.4z M400.6,148.4h-3v-2h3V148.4z M391.6,148.4h-3v-2h3V148.4z"/>
<path class="st0" d="M413.3,444h-2v-3h2V444z M413.3,435h-2v-3h2V435z M413.3,426h-2v-3h2V426z M413.3,417h-2v-3h2V417z M413.3,408
	h-2v-3h2V408z"/>
<path class="st0" d="M413.3,172.2h-2v-3h2V172.2z M413.3,163.2h-2v-3h2V163.2z M413.3,154.2h-2v-3h2V154.2z M413.3,145.2h-2v-3h2
	V145.2z M413.3,136.2h-2v-3h2V136.2z"/>
</svg>
