<?xml version="1.0" encoding="utf-8"?>
<!-- Generator: Adobe Illustrator 24.3.0, SVG Export Plug-In . SVG Version: 6.00 Build 0)  -->
<svg version="1.1" id="Laag_1" xmlns="http://www.w3.org/2000/svg" xmlns:xlink="http://www.w3.org/1999/xlink" x="0px" y="0px"
	 viewBox="0 0 566.9 566.9" style="enable-background:new 0 0 566.9 566.9;" xml:space="preserve">
<style type="text/css">
	.st0{fill:#6B6B7F;}
	.st1{fill:#FF5429;}
</style>
<g>
	<path class="st0" d="M332.5,431.7H211.2c-7.1,0-12.8-5.8-12.8-12.8V165.6c0-7.1,5.8-12.8,12.8-12.8h121.2c7.1,0,12.8,5.8,12.8,12.8
		v253.3C345.3,426,339.5,431.7,332.5,431.7z M211.2,155.7c-5.4,0-9.8,4.4-9.8,9.8v253.3c0,5.4,4.4,9.8,9.8,9.8h121.2
		c5.4,0,9.8-4.4,9.8-9.8V165.6c0-5.4-4.4-9.8-9.8-9.8H211.2V155.7z"/>
</g>
<g>
	<path class="st0" d="M331.9,424.9H211.8c-3.4,0-6.2-2.8-6.2-6.2v-253c0-3.4,2.8-6.2,6.2-6.2h24.1l5.7,8.7c0.8,1.3,2.3,2.1,3.8,2.1
		h52.9c1.5,0,3-0.8,3.8-2.1l5.7-8.7h24.1c3.4,0,6.2,2.8,6.2,6.2v253C338.1,422.1,335.3,424.9,331.9,424.9z M211.8,162.5
		c-1.8,0-3.2,1.4-3.2,3.2v253c0,1.8,1.4,3.2,3.2,3.2h120.1c1.8,0,3.2-1.4,3.2-3.2v-253c0-1.8-1.4-3.2-3.2-3.2h-22.5l-4.8,7.4
		c-1.4,2.2-3.8,3.4-6.3,3.4h-52.9c-2.6,0-4.9-1.3-6.3-3.4l-4.8-7.4L211.8,162.5L211.8,162.5z"/>
</g>
<g>
	<path class="st1" d="M390.9,342l-2.1-2.1c13.8-14,21.4-32.6,21.4-52.3c0-18.2-6.6-35.7-18.7-49.3l2.2-2
		c12.5,14.2,19.4,32.4,19.4,51.3C413.2,308.1,405.3,327.4,390.9,342z"/>
</g>
<g>
	<path class="st1" d="M358.4,310l-2.1-2.1c5.4-5.4,8.3-12.7,8.3-20.3c0-7.1-2.6-13.9-7.2-19.1l2.2-2c5.2,5.8,8,13.3,8,21.1
		C367.6,296,364.3,304,358.4,310z"/>
</g>
<g>
	<path class="st1" d="M374.7,326l-2.1-2.1c9.6-9.7,14.9-22.6,14.9-36.3c0-12.6-4.6-24.8-12.9-34.2l2.2-2c8.8,10,13.7,22.9,13.7,36.2
		C390.4,302.1,384.8,315.7,374.7,326z"/>
</g>
<g>
	<path class="st1" d="M152.8,342c-14.4-14.6-22.3-33.9-22.3-54.4c0-18.9,6.9-37.1,19.4-51.3l2.2,2c-12,13.6-18.7,31.1-18.7,49.3
		c0,19.7,7.6,38.3,21.4,52.3L152.8,342z"/>
</g>
<g>
	<path class="st1" d="M185.3,310c-5.9-6-9.2-14-9.2-22.4c0-7.8,2.8-15.3,8-21.1l2.2,2c-4.7,5.3-7.2,12.1-7.2,19.1
		c0,7.6,3,14.8,8.3,20.3L185.3,310z"/>
</g>
<g>
	<path class="st1" d="M169,326c-10.1-10.3-15.7-23.9-15.7-38.4c0-13.4,4.9-26.2,13.7-36.2l2.2,2c-8.3,9.4-12.9,21.6-12.9,34.2
		c0,13.7,5.3,26.6,14.9,36.3L169,326z"/>
</g>
<g>
	<path class="st0" d="M440.4,170.2h-2.3v-2h2.3V170.2z M432.1,170.2h-3v-2h3V170.2z M423.1,170.2h-3v-2h3V170.2z M414.1,170.2h-3v-2
		h3V170.2z M405.1,170.2h-3v-2h3V170.2z M396.1,170.2h-3v-2h3V170.2z M387.1,170.2h-3v-2h3V170.2z M378.1,170.2h-3v-2h3V170.2z
		 M369.1,170.2h-3v-2h3V170.2z M360.1,170.2h-3v-2h3V170.2z M351.1,170.2h-3v-2h3V170.2z"/>
</g>
<g>
	<path class="st0" d="M418.5,220.1h-2v-3h2V220.1z M418.5,211.1h-2v-3h2V211.1z M418.5,202.1h-2v-3h2V202.1z M418.5,193.1h-2v-3h2
		V193.1z M418.5,184.1h-2v-3h2V184.1z M418.5,175.1h-2v-3h2V175.1z M418.5,166.1h-2v-3h2V166.1z M418.5,157.1h-2v-3h2V157.1z
		 M418.5,148.1h-2v-3h2V148.1z M418.5,139.1h-2v-3h2V139.1z"/>
</g>
<g>
	<path class="st0" d="M192.1,410.8h-3v-2h3V410.8z M183.1,410.8h-3v-2h3V410.8z M174.1,410.8h-3v-2h3V410.8z M165.1,410.8h-3v-2h3
		V410.8z M156.1,410.8h-3v-2h3V410.8z M147.1,410.8h-3v-2h3V410.8z M138.1,410.8h-3v-2h3V410.8z M129.1,410.8h-2.5v-2h2.5V410.8z"/>
</g>
<g>
	<rect x="232.9" y="409.2" class="st0" width="78" height="3"/>
</g>
<g>
	<rect x="248.3" y="162.7" class="st0" width="31.6" height="3"/>
</g>
<g>
	<circle class="st0" cx="294" cy="164.3" r="1.5"/>
</g>
<g>
	<circle class="st0" cx="287" cy="164.3" r="1.5"/>
</g>
</svg>
