<?xml version="1.0" encoding="utf-8"?>
<!-- Generator: Adobe Illustrator 24.3.0, SVG Export Plug-In . SVG Version: 6.00 Build 0)  -->
<svg version="1.1" id="Laag_1" xmlns="http://www.w3.org/2000/svg" xmlns:xlink="http://www.w3.org/1999/xlink" x="0px" y="0px"
	 viewBox="0 0 566.9 566.9" style="enable-background:new 0 0 566.9 566.9;" xml:space="preserve">
<style type="text/css">
	.st0{fill:#6B6B7F;}
	.st1{fill:#FF5429;}
</style>
<rect x="340" y="153.6" class="st0" width="3" height="2"/>
<rect x="313" y="153.6" class="st0" width="3" height="2"/>
<rect x="322" y="153.6" class="st0" width="3" height="2"/>
<rect x="331" y="153.6" class="st0" width="3" height="2"/>
<rect x="349" y="153.6" class="st0" width="3" height="2"/>
<rect x="385" y="153.6" class="st0" width="3" height="2"/>
<rect x="367" y="153.6" class="st0" width="3" height="2"/>
<rect x="358" y="153.6" class="st0" width="3" height="2"/>
<rect x="376" y="153.6" class="st0" width="3" height="2"/>
<rect x="412" y="153.6" class="st0" width="2.6" height="2"/>
<rect x="394" y="153.6" class="st0" width="3" height="2"/>
<rect x="403" y="153.6" class="st0" width="3" height="2"/>
<rect x="139.7" y="368.1" class="st0" width="3" height="2"/>
<rect x="130.7" y="368.1" class="st0" width="3" height="2"/>
<rect x="112.7" y="368.1" class="st0" width="3" height="2"/>
<rect x="103.7" y="368.1" class="st0" width="3" height="2"/>
<rect x="121.7" y="368.1" class="st0" width="3" height="2"/>
<rect x="166.7" y="368.1" class="st0" width="3" height="2"/>
<rect x="220.8" y="368.1" class="st0" width="3" height="2"/>
<rect x="238.8" y="368.1" class="st0" width="3" height="2"/>
<rect x="229.8" y="368.1" class="st0" width="3" height="2"/>
<rect x="247.8" y="368.1" class="st0" width="3" height="2"/>
<rect x="274.8" y="368.1" class="st0" width="3" height="2"/>
<rect x="256.8" y="368.1" class="st0" width="3" height="2"/>
<rect x="265.8" y="368.1" class="st0" width="3" height="2"/>
<rect x="175.7" y="368.1" class="st0" width="3" height="2"/>
<rect x="94.6" y="368.1" class="st0" width="3" height="2"/>
<rect x="148.7" y="368.1" class="st0" width="3" height="2"/>
<rect x="211.8" y="368.1" class="st0" width="3" height="2"/>
<rect x="157.7" y="368.1" class="st0" width="3" height="2"/>
<rect x="202.8" y="368.1" class="st0" width="3" height="2"/>
<rect x="184.8" y="368.1" class="st0" width="3" height="2"/>
<rect x="193.8" y="368.1" class="st0" width="3" height="2"/>
<rect x="145.2" y="309.2" class="st0" width="2" height="3"/>
<rect x="145.2" y="354.2" class="st0" width="2" height="3"/>
<rect x="145.2" y="336.2" class="st0" width="2" height="3"/>
<rect x="145.2" y="345.2" class="st0" width="2" height="3"/>
<rect x="145.2" y="300.2" class="st0" width="2" height="3"/>
<rect x="145.2" y="318.2" class="st0" width="2" height="3"/>
<rect x="145.2" y="327.2" class="st0" width="2" height="3"/>
<rect x="145.2" y="363.2" class="st0" width="2" height="3"/>
<rect x="145.2" y="381.2" class="st0" width="2" height="3"/>
<rect x="145.2" y="372.2" class="st0" width="2" height="3"/>
<rect x="145.2" y="390.2" class="st0" width="2" height="3"/>
<path class="st0" d="M376.7,347.1c21-31.4,12.6-73.9-18.8-94.9c-4-2.7-8.2-4.9-12.7-6.7c0.1-1.7,0.1-3.5,0.1-5.4
	c0-51.2-36.3-95.2-86.6-105l-1.8-0.3v13.5l1.2,0.2c20.9,4,39.7,15.3,53,31.9c13.5,17,20.8,38.1,20.7,59.8c0,0.5,0,1,0,1.4
	c-37.2-6.7-72.7,18.1-79.4,55.2c-2.1,11.8-1.1,23.9,2.9,35.1c-50.7,9.3-99.3-24.2-108.7-74.9c-1-5.6-1.5-11.2-1.5-16.9
	c0-45.6,30.2-83.3,73.6-91.7l1.2-0.2l0.1-13.5l-1.8,0.3c-58,10.9-96.3,66.7-85.4,124.7s66.7,96.3,124.7,85.4
	c1.3-0.2,2.5-0.5,3.8-0.8c19.6,32.3,61.7,42.6,94,23c0.9-0.5,1.8-1.1,2.7-1.7l70.9,70.9l18.7-18.8L376.7,347.1z M313.5,178.5
	c-13.5-16.8-32.4-28.3-53.5-32.7v-7.4c48,10.2,82.3,52.6,82.4,101.6c0,1.5,0,2.9-0.1,4.3l-0.3-0.1c-1.1-0.4-2.2-0.7-3.3-1l-0.6-0.2
	c-0.9-0.3-1.9-0.5-2.8-0.7l-0.5-0.1c0-0.7,0-1.3,0-2C334.9,217.8,327.4,196.1,313.5,178.5z M238.5,344
	c-57.4,0.1-104-46.3-104.1-103.7c-0.1-49.2,34.4-91.8,82.6-101.9v7.4c-21.1,4.3-40,15.9-53.5,32.7c-13.9,17.5-21.4,39.3-21.3,61.7
	c0,53.2,43.2,96.3,96.4,96.3c6,0,12-0.6,17.9-1.7c0.1,0.2,0.1,0.3,0.2,0.5c0.4,0.9,0.8,1.8,1.1,2.6l0.3,0.6c0.5,1,1,2,1.5,3
	c0,0.1,0.1,0.2,0.1,0.2C252.8,343.2,245.7,344,238.5,344z M358.3,362l-1,0.7c-29.7,20.7-70.5,13.3-91.1-16.3c-1-1.4-1.9-2.9-2.8-4.4
	c-1.8-3-3.3-6.2-4.6-9.5c-13-33.7,3.8-71.6,37.5-84.6c11.7-4.5,24.4-5.6,36.7-3c0.9,0.2,1.7,0.4,2.6,0.6
	c11.6,2.9,22.1,8.8,30.5,17.2c22.5,22.4,25.6,57.7,7.4,83.7l-0.7,1l70.5,70.6l-14.5,14.5L358.3,362z"/>
<path class="st0" d="M341.6,263.2c-25.3-12.1-55.6-1.4-67.6,23.9c-6.2,13-6.6,28.1-1,41.4c1.4,3.4,3.1,6.5,5.2,9.5
	c1.7,2.4,3.6,4.7,5.7,6.8c1.2,1.2,2.4,2.3,3.7,3.4c18.7,15.3,45.5,15.3,64.2,0c1.3-1.1,2.5-2.2,3.7-3.4l0,0
	c19.8-19.8,19.8-52,0-71.8C351.5,269,346.8,265.7,341.6,263.2z M353.6,342.7L353.6,342.7c-1.1,1.1-2.3,2.2-3.5,3.2
	c-17.6,14.4-42.9,14.4-60.4,0c-1.2-1-2.4-2.1-3.5-3.2c-2-2-3.8-4.1-5.4-6.4c-2-2.8-3.6-5.8-4.9-8.9c-10.1-24.3,1.4-52.3,25.7-62.4
	c5.8-2.4,12-3.7,18.2-3.7c3.7,0,7.4,0.4,11,1.3c8.7,2,16.6,6.4,22.9,12.7C372.2,293.9,372.2,324.1,353.6,342.7z"/>
<polygon class="st1" points="322.8,312.5 307.7,302.8 279.1,318.4 280.5,321.1 307.5,306.2 322.9,316.1 349.5,296.5 358,302.2 
	359.7,299.7 349.4,292.9 "/>
<path class="st0" d="M246.8,117.7h-14.1v95.6h14.1V117.7z M243.8,210.3h-8.1v-89.6h8.1V210.3z"/>
</svg>
