<?xml version="1.0" encoding="utf-8"?>
<!-- Generator: Adobe Illustrator 24.3.0, SVG Export Plug-In . SVG Version: 6.00 Build 0)  -->
<svg version="1.1" id="Laag_1" xmlns="http://www.w3.org/2000/svg" xmlns:xlink="http://www.w3.org/1999/xlink" x="0px" y="0px"
	 viewBox="0 0 566.9 566.9" style="enable-background:new 0 0 566.9 566.9;" xml:space="preserve">
<style type="text/css">
	.st0{fill:#6B6B7F;}
	.st1{fill:#FF5429;}
	.st2{fill:#EB5A2D;}
</style>
<path class="st0" d="M409.7,186.3h-247c-7.1,0-12.8,5.8-12.8,12.8v135.4c0,7.1,5.8,12.8,12.8,12.8h96.9l-3.4,44.2h-12.2
	c-5.6,0-10.2,4.6-10.2,10.2v1.5h99.5v-1.5c0-5.6-4.6-10.2-10.2-10.2h-11l-3.4-44.2h101c7.1,0,12.8-5.8,12.8-12.8V199.1
	C422.5,192.1,416.7,186.3,409.7,186.3z M312.3,394.6h10.8c3.4,0,6.3,2.4,7,5.7h-93.2c0.7-3.3,3.6-5.7,7-5.7H312.3L312.3,394.6z
	 M309.1,391.6h-50l3.4-44.2h43.1L309.1,391.6z M419.5,334.5c0,5.4-4.4,9.8-9.8,9.8h-247c-5.4,0-9.8-4.4-9.8-9.8V199.1
	c0-5.4,4.4-9.8,9.8-9.8h247c5.4,0,9.8,4.4,9.8,9.8V334.5z"/>
<path class="st0" d="M410.1,336.4H162.2V197.2h247.8V336.4z M165.2,333.4h241.9V200.2H165.2L165.2,333.4z"/>
<polygon class="st0" points="320.7,317.3 320.7,320.3 250.1,320.3 250.1,285.9 253.1,285.9 253.1,317.3 "/>
<polygon class="st1" points="319.8,294.5 319.4,302.4 316.4,302.3 316.5,299.6 304.8,310.6 296.7,302.4 290.4,308.3 278.8,306.2 
	267.3,312.8 261,305.6 253.1,310.3 253.1,306.8 261.6,301.7 267.9,308.9 278.3,303.1 289.5,305 296.8,298.2 304.9,306.4 
	314.6,297.3 310.8,297.1 310.9,294.2 "/>
<rect x="283.6" y="247.8" class="st2" width="3" height="22.1"/>
<rect x="274" y="257.3" class="st1" width="22.1" height="3"/>
<path class="st0" d="M491.9,117h-3v-2h3V117z M482.9,117h-3v-2h3V117z M473.9,117h-3v-2h3V117z M464.9,117h-3v-2h3V117z M455.9,117
	h-3v-2h3V117z M446.9,117h-3v-2h3V117z M437.9,117h-3v-2h3V117z M428.9,117h-3v-2h3V117z M419.9,117h-3v-2h3V117z M410.9,117h-3v-2
	h3V117z M401.9,117h-3v-2h3V117z M392.9,117h-3v-2h3V117z M383.9,117h-3v-2h3V117z M374.9,117h-3v-2h3V117z M365.9,117h-3v-2h3V117z
	"/>
<path class="st0" d="M451,211.1h-2v-2.5h2V211.1z M451,202.6h-2v-3h2V202.6z M451,193.6h-2v-3h2V193.6z M451,184.6h-2v-3h2V184.6z
	 M451,175.6h-2v-3h2V175.6z M451,166.6h-2v-3h2V166.6z M451,157.6h-2v-3h2V157.6z M451,148.6h-2v-3h2V148.6z M451,139.6h-2v-3h2
	V139.6z M451,130.6h-2v-3h2V130.6z M451,121.6h-2v-3h2V121.6z M451,112.6h-2v-3h2V112.6z M451,103.6h-2v-3h2V103.6z M451,94.6h-2v-3
	h2V94.6z"/>
<path class="st0" d="M157.7,460.9h-2v-3h2V460.9z M157.7,451.9h-2v-3h2V451.9z M157.7,442.9h-2v-3h2V442.9z M157.7,433.9h-2v-3h2
	V433.9z M157.7,424.9h-2v-3h2V424.9z M157.7,415.9h-2v-3h2V415.9z M157.7,406.9h-2v-3h2V406.9z"/>
<path class="st0" d="M462.6,429.7h-3v-2h3V429.7z M453.6,429.7h-3v-2h3V429.7z M444.6,429.7h-3v-2h3V429.7z M435.6,429.7h-3v-2h3
	V429.7z M426.6,429.7h-3v-2h3V429.7z M417.6,429.7h-3v-2h3V429.7z M408.6,429.7h-3v-2h3V429.7z M399.6,429.7h-3v-2h3V429.7z
	 M390.6,429.7h-3v-2h3V429.7z M381.6,429.7h-3v-2h3V429.7z"/>
<path class="st0" d="M460.2,276.8c0-91-69.1-167.1-159.6-175.8l-0.3,3c89,8.6,156.9,83.4,156.9,172.8c0,92.8-73.2,168.9-164.9,173.4
	l0.1-11.2l-16.5,13.9l16.3,13.7l0.1-13.2C385.6,448.7,460.2,371.3,460.2,276.8z"/>
<path class="st0" d="M289,102.4l-16.3-13.7l-0.1,11.8c-92.4,5.7-165.8,82.6-165.8,176.3c0,90.6,68.5,166.5,158.6,175.8l0.3-3
	c-88.6-9.1-155.9-83.7-155.9-172.8c0-92.1,72.1-167.7,162.8-173.3l-0.1,12.7L289,102.4z"/>
<path class="st0" d="M216.6,227.6c-0.9,0-1.6,0.5-1.6,1.2v33.3c0,6.1-4.9,11-11,11s-11-4.9-11-11v-20.9h0.5c0.3,0,0.5-0.1,0.7-0.2
	l0.7-0.7l0,0l4.1-3.9v-16.9c0-0.3-0.1-0.5-0.2-0.8v0.1l-0.1-0.3c0,0.1,0.1,0.1,0.1,0.2l-0.1-0.9h-10.4l-4.1,4.2l0,0l-0.4,0.4l0,0
	l0,0c-0.2,0.3-0.3,0.6-0.3,0.9v17.7h6.1v20.9c0,7.9,6.4,14.3,14.3,14.3s14.3-6.4,14.3-14.3c0,0,0,0,0,0v-33.3
	C218.3,228.2,217.6,227.6,216.6,227.6z M195.2,224.1l0.9-0.9v12.1l-0.9,0.9V224.1z M189.7,221.1h4.3l-0.9,0.9h-4.4L189.7,221.1z
	 M192.2,238.3h-5.6v-13.4h5.6V238.3z"/>
<path class="st0" d="M183.9,222.7l0.4-0.4C184.2,222.4,184,222.5,183.9,222.7z M194.3,241.1c0.3-0.1,0.6-0.4,0.7-0.7L194.3,241.1z"
	/>
<path class="st0" d="M198.9,218.9c0-0.1-0.1-0.1-0.1-0.2l0.1,0.3L198.9,218.9z"/>
<path class="st0" d="M198.9,218.9c0-0.1-0.1-0.1-0.1-0.2l0.1,0.3L198.9,218.9z"/>
<path class="st0" d="M236.7,253.3l-5.1-0.1v-21c-0.2-7.9-6.8-14.1-14.7-13.9c-7.6,0.2-13.7,6.3-13.9,13.9v34.1c0,0.2,0,0.3,0.1,0.5
	c0.5,0.9,1.6,1.1,2.4,0.6c0.3-0.2,0.5-0.4,0.6-0.6c0.1-0.1,0.1-0.3,0.1-0.4v-34.2c0-6.1,4.9-11,11-11s11,4.9,11,11v21H227l-4.3,4.3
	l-0.1,0.2l0,0c-0.1,0.1-0.1,0.1-0.1,0.2l0,0l-0.1,0.2h0.1c-0.1,0.2-0.2,0.5-0.2,0.7v17.7h9.9c0.5,0,0.9-0.2,1.2-0.6l0,0l4.3-4.2
	v-16.9C237.7,254.1,237.3,253.5,236.7,253.3z M228.2,256.1h0.1c0,0,0,0.1,0,0.1c0.1,0.3,0.2,0.6,0.5,0.8h-1.5L228.2,256.1z
	 M230.8,273.3h-5.6V260h5.6V273.3z M231.6,257H231c0.3-0.2,0.5-0.5,0.5-0.8c0,0,0-0.1,0-0.1h1L231.6,257z M234.6,270.3l-0.9,0.9
	v-12.1l0.9-0.9V270.3z"/>
<path class="st0" d="M392.2,241.6l-3.5-11.6c0.9-0.7,1.4-1.8,1.5-3c0-2.1-1.7-3.9-3.9-3.9c-0.7,0-1.4,0.2-2,0.5l-11.9-9
	c0.1-0.3,0.1-0.7,0.1-1c0-2.2-1.8-3.9-3.9-3.9c-1.7,0-3.2,1.1-3.7,2.8l-15.7,1.6c-1-1.9-3.4-2.6-5.3-1.6c-1.3,0.7-2.1,2-2.1,3.5
	c0,0.2,0,0.4,0.1,0.6l-11.4,7.1c-0.7-0.5-1.4-0.7-2.2-0.7c-2.2,0-3.9,1.7-3.9,3.9c0,1.3,0.7,2.6,1.8,3.3l-2.1,12.2
	c-1.8,0.4-3,2-3,3.8c0,0.8,0.2,1.5,0.6,2.1l-0.2,0.2l0.3-0.1c1.2,1.7,3.6,2.1,5.4,0.9c0.3-0.2,0.6-0.5,0.8-0.8l39.8,10.6
	c0.3,2.1,2.3,3.6,4.4,3.3c1.9-0.3,3.3-1.9,3.3-3.8c0-0.2,0-0.5-0.1-0.7l14-9.2c1.8,1.2,4.2,0.8,5.4-1s0.8-4.2-1-5.4
	C393.4,241.8,392.8,241.6,392.2,241.6L392.2,241.6z M370.1,217.2c0.2-0.1,0.3-0.2,0.5-0.3l8.6,6.5L370,221L370.1,217.2z
	 M367.1,218.7v1.4l-0.8-0.2L367.1,218.7z M365.2,215.5c0.1,0.1,0.1,0.2,0.2,0.3l-2.2,3.3l-9.2-2.5L365.2,215.5z M348.8,218.3
	l12.6,3.4l-9.5,14.4h-0.1l-3.9-17C348.3,218.9,348.6,218.6,348.8,218.3L348.8,218.3z M344.9,219.8h0.1l3.9,17l-0.1,0.1l-11.3-6.4
	L344.9,219.8z M340.4,221.1L335,229l-2.8-1.6c0-0.2,0-0.3,0-0.5c0-0.2,0-0.4-0.1-0.6L340.4,221.1z M327.6,239.7l1.5-9
	c0.6-0.1,1.1-0.4,1.5-0.7l2.6,1.5L327.6,239.7z M335.9,232.9l11.3,6.4l-18.8,4.4L335.9,232.9z M331.1,246.2l17-4
	c1.1,1.5,3.1,2,4.8,1.2l13.3,12.1L331.1,246.2z M372.3,253.7l-1.9-10.4c-0.9,0.6-2,0.8-3,0.5l2,10.8l-14.3-13.1h9.6
	c-0.2-0.5-0.3-1-0.3-1.5c0-0.5,0.1-1,0.3-1.5h-9.9c-0.1-0.2-0.2-0.5-0.4-0.7l10-15.2l2.5,0.7l-0.1,13.1c0.5-0.2,1-0.3,1.5-0.3
	c0.5,0,1.1,0.1,1.5,0.3l0.1-12.3l12.4,3.4c0,0.1,0,0.3,0.1,0.4l-12.1,8.8c0.9,0.5,1.5,1.4,1.8,2.4l10.4-7.6l-4.2,9.2l-6.1-1.4
	c0,0.2,0.1,0.4,0.1,0.6c0,0.8-0.3,1.6-0.7,2.3l5.5,1.3L372.3,253.7z M375.3,254.5l4.7-10.3l8,1.9c0,0,0,0.1,0,0.1L375.3,254.5z
	 M388.6,243.2l-7.4-1.7l4.7-10.3l3.3,11.3C389.1,242.6,388.8,242.9,388.6,243.2L388.6,243.2z"/>
<path class="st1" d="M372.2,239.9c0,0.8-0.3,1.6-0.7,2.3c-0.3,0.4-0.6,0.7-1,1c-1.8,1.2-4.2,0.7-5.4-1.1c-0.1-0.2-0.2-0.4-0.3-0.6
	c-0.2-0.5-0.3-1-0.3-1.5c0-0.5,0.1-1,0.3-1.5c0.4-1,1.2-1.7,2.1-2.1c0.5-0.2,1-0.3,1.5-0.3c0.5,0,1.1,0.1,1.5,0.3
	c0.2,0.1,0.3,0.2,0.5,0.3c0.9,0.5,1.5,1.4,1.8,2.4c0,0.1,0,0.2,0,0.3C372.2,239.5,372.2,239.7,372.2,239.9z"/>
</svg>
