<?xml version="1.0" encoding="utf-8"?>
<!-- Generator: Adobe Illustrator 24.3.0, SVG Export Plug-In . SVG Version: 6.00 Build 0)  -->
<svg version="1.1" id="Laag_1" xmlns="http://www.w3.org/2000/svg" xmlns:xlink="http://www.w3.org/1999/xlink" x="0px" y="0px"
	 viewBox="0 0 566.9 566.9" style="enable-background:new 0 0 566.9 566.9;" xml:space="preserve">
<style type="text/css">
	.st0{fill:#6B6B7F;}
	.st1{fill:#FF5429;}
</style>
<path class="st0" d="M349.5,359.5l0.2-1.3c0.2-1,4.2-25.7,31.9-25.7h27v-50.6l-42.4-91.3h-45v168.9H349.5z M324.3,193.6h40.1
	l41.3,89v46.9h-24c-26.5,0-33.3,21.5-34.6,27h-22.8V193.6z"/>
<path class="st0" d="M480.9,364.4c0.5-1.5,0.8-3,0.8-4.6v-61.6c0-6-3.8-11.3-9.5-13.3l-37.9-13.3c-2.9-1-5.2-3.1-6.4-5.9l-40.9-77.5
	l-0.2-0.4c-2.3-5-7.3-8.2-12.8-8.2H117.6c-7.8,0-14.1,6.3-14.1,14.1v125.3l0,0v24.3l0,0v16.4c0,1.4,0.2,2.8,0.7,4.1
	c-3.3,0.4-5.8,3.2-5.8,6.5v1.1c0,3.6,2.9,6.6,6.6,6.6h41.9c3.2,14,17.1,22.7,31,19.5c11.3-2.6,19.5-12.3,20.1-23.8h165.6
	c0.8,14.3,13.1,25.2,27.3,24.4c11.5-0.7,21.2-8.8,23.8-20.1h63.6c3.6,0,6.6-3,6.6-6.6v-1.1C484.9,367.9,483.3,365.5,480.9,364.4z
	 M425.2,267c0.3,0.7,0.7,1.4,1.1,2l-4.4,2.8c-1.3,0.8-2.9,0.4-3.7-0.9c-0.1-0.1-0.1-0.2-0.1-0.3L383.2,199c-0.8-1.7-0.9-3.6-0.2-5.3
	c0.4-1.1,1.1-2,2-2.7L425.2,267z M383.6,188.3c-1.6,1.1-2.8,2.5-3.5,4.3c-1,2.5-0.8,5.3,0.3,7.7l34.9,71.6c0.7,1.5,2,2.6,3.5,3
	c0.5,0.1,1,0.2,1.6,0.2c1.1,0,2.1-0.3,3-0.9l4.7-3c1.5,1.4,3.2,2.5,5.1,3.1l37.9,13.3c4.5,1.6,7.4,5.8,7.4,10.5v8.7h-9.1v20.9h9.1
	v32.1c0,1.4-0.3,2.8-0.8,4.1h-63.9c0-0.2-0.1-0.3-0.2-0.5s-0.2-0.6-0.4-0.9s-0.3-0.7-0.4-1s-0.3-0.6-0.4-0.9s-0.3-0.6-0.5-0.9
	s-0.3-0.6-0.5-0.8s-0.4-0.6-0.6-0.9s-0.4-0.5-0.6-0.8s-0.4-0.6-0.6-0.9l-0.6-0.7l-0.7-0.8c-0.2-0.2-0.4-0.5-0.7-0.7
	s-0.5-0.5-0.8-0.7s-0.5-0.4-0.7-0.6s-0.5-0.5-0.8-0.7s-0.5-0.4-0.8-0.6s-0.6-0.4-0.9-0.6l-0.8-0.5c-0.3-0.2-0.6-0.4-0.9-0.5
	s-0.5-0.3-0.8-0.5s-0.7-0.3-1-0.5s-0.5-0.3-0.8-0.4s-0.7-0.3-1-0.4s-0.6-0.2-0.8-0.3s-0.7-0.2-1.1-0.3s-0.5-0.2-0.8-0.2
	s-0.8-0.2-1.2-0.2s-0.5-0.1-0.8-0.2c-0.5-0.1-0.9-0.1-1.4-0.2c-0.2,0-0.5-0.1-0.7-0.1c-0.7,0-1.4-0.1-2.1-0.1c-0.4,0-0.9,0-1.3,0
	h-0.4l-0.9,0.1c-0.2,0-0.4,0-0.5,0.1l-0.8,0.1l-0.5,0.1l-0.7,0.1l-0.6,0.1l-0.7,0.2l-0.6,0.1l-0.6,0.2c-0.2,0-0.4,0.1-0.6,0.2
	l-0.6,0.2l-0.5,0.2l-0.6,0.2l-0.5,0.2c-0.2,0.1-0.4,0.2-0.6,0.3l-0.5,0.2l-0.6,0.3l-0.5,0.3l-0.6,0.3l-0.5,0.3l-0.5,0.3l-0.5,0.3
	l-0.5,0.4l-0.5,0.4c-0.2,0.1-0.3,0.3-0.5,0.4l-0.5,0.4l-0.5,0.4l-0.4,0.4l-0.5,0.4l-0.4,0.4l-0.4,0.5l-0.4,0.4l-0.4,0.5l-0.4,0.5
	l-0.4,0.5l-0.4,0.5c-0.1,0.2-0.2,0.4-0.4,0.5l-0.3,0.5l-0.4,0.5l-0.3,0.5l-0.3,0.6c-0.1,0.2-0.2,0.3-0.3,0.5s-0.2,0.4-0.3,0.6
	s-0.2,0.3-0.2,0.5s-0.2,0.4-0.3,0.6s-0.1,0.3-0.2,0.5s-0.2,0.5-0.3,0.7l-0.2,0.5c-0.1,0.2-0.2,0.5-0.2,0.7l-0.1,0.4
	c-0.1,0.3-0.2,0.6-0.3,0.9c0,0.1-0.1,0.2-0.1,0.3c-0.1,0.4-0.2,0.8-0.3,1.2c0,0.1,0,0.2-0.1,0.4c0,0.3-0.1,0.6-0.1,0.9
	s0,0.3-0.1,0.5s-0.1,0.5-0.1,0.8s0,0.4,0,0.6l-0.1,0.6h-69.5V182.6H374C378,182.7,381.7,184.8,383.6,188.3L383.6,188.3z
	 M478.6,309.9v14.9h-6.1v-14.9L478.6,309.9z M106.4,322.1h8.1v18.3h-8.1V322.1z M117.5,343.4v-24.4h-11.1V193.8
	c0-6.1,5-11.1,11.1-11.1H291v188.3h-93.1c0-0.2,0-0.4-0.1-0.6s0-0.4,0-0.6s-0.1-0.5-0.1-0.8s0-0.3-0.1-0.5s-0.1-0.6-0.1-0.9
	c0-0.1-0.1-0.2-0.1-0.4c-0.1-0.4-0.2-0.8-0.3-1.2l-0.1-0.3c-0.1-0.3-0.2-0.6-0.3-0.9c0-0.1-0.1-0.3-0.1-0.4s-0.2-0.5-0.2-0.7
	s-0.1-0.3-0.2-0.5s-0.2-0.5-0.3-0.7s-0.1-0.3-0.2-0.5s-0.2-0.4-0.3-0.6s-0.2-0.3-0.2-0.5s-0.2-0.4-0.3-0.6s-0.2-0.3-0.3-0.5
	s-0.2-0.4-0.3-0.6l-0.3-0.5l-0.4-0.5c-0.1-0.2-0.2-0.3-0.3-0.5s-0.2-0.4-0.4-0.5l-0.4-0.5l-0.4-0.5l-0.4-0.5
	c-0.1-0.2-0.3-0.3-0.4-0.5l-0.4-0.4l-0.4-0.5l-0.4-0.4l-0.5-0.4l-0.4-0.4l-0.5-0.4l-0.4-0.4c-0.2-0.1-0.3-0.3-0.5-0.4l-0.5-0.4
	l-0.5-0.4l-0.5-0.3l-0.5-0.3c-0.2-0.1-0.3-0.2-0.5-0.3l-0.6-0.3l-0.5-0.3l-0.6-0.3l-0.5-0.2c-0.2-0.1-0.4-0.2-0.6-0.3l-0.5-0.2
	l-0.6-0.2l-0.6-0.2l-0.6-0.2l-0.6-0.2l-0.7-0.2l-0.6-0.1l-0.7-0.2l-0.6-0.1l-0.7-0.1l-0.6-0.1l-0.8-0.1c-0.2,0-0.4,0-0.5-0.1
	l-0.9-0.1h-0.4c-0.4,0-0.9,0-1.3,0c-0.7,0-1.4,0-2.1,0.1l-0.7,0.1c-0.5,0-0.9,0.1-1.4,0.2c-0.3,0-0.5,0.1-0.8,0.2s-0.8,0.1-1.2,0.2
	s-0.6,0.2-0.9,0.2s-0.8,0.2-1.1,0.3s-0.6,0.2-0.9,0.3l-1,0.4l-0.8,0.4c-0.3,0.1-0.7,0.3-1,0.5s-0.6,0.3-0.8,0.5s-0.6,0.3-0.9,0.5
	l-0.8,0.5c-0.3,0.2-0.6,0.4-0.9,0.6s-0.5,0.4-0.8,0.6s-0.6,0.4-0.8,0.6s-0.5,0.4-0.7,0.7s-0.5,0.5-0.8,0.7l-0.7,0.7
	c-0.2,0.2-0.5,0.5-0.7,0.8s-0.4,0.5-0.6,0.8l-0.6,0.8c-0.2,0.3-0.4,0.5-0.6,0.8s-0.4,0.6-0.6,0.9l-0.5,0.9c-0.2,0.3-0.3,0.6-0.5,0.9
	s-0.3,0.6-0.4,0.9s-0.3,0.6-0.4,1s-0.2,0.6-0.4,0.9s-0.1,0.3-0.2,0.5h-40.3c-0.5-1.3-0.8-2.7-0.8-4.1v-16.5L117.5,343.4z
	 M104.9,375.3c-2,0-3.6-1.6-3.6-3.6v-1.1c0-2,1.6-3.6,3.6-3.6h41.8c-0.1,0.5-0.2,1-0.3,1.6l-0.1,0.5c-0.1,0.4-0.1,0.8-0.1,1.3
	c0,0.2,0,0.3,0,0.5c0,0.6-0.1,1.1-0.1,1.7s0,1.4,0.1,2.1c0,0.1,0,0.3,0,0.4s0,0.2,0,0.3H104.9z M172,395.4c-11.1,0-20.6-8-22.6-18.9
	c-0.2-1.3-0.4-2.7-0.4-4c0-0.6,0-1.2,0.1-1.7c0.1-1.6,0.4-3.3,0.9-4.9c3.6-12.1,16.4-19,28.6-15.4c12.1,3.6,19,16.4,15.4,28.6
	C191,388.8,182.1,395.4,172,395.4L172,395.4z M389.4,395.4c-12.7,0-22.9-10.3-22.9-23c0-12.7,10.3-22.9,23-22.9
	c10.1,0,19,6.7,21.9,16.3l0,0c0.7,2.1,1,4.3,1,6.6c0,1.4-0.1,2.7-0.4,4l0,0C410.1,387.4,400.6,395.4,389.4,395.4L389.4,395.4z
	 M481.9,371.7c0,2-1.6,3.6-3.6,3.6h-63.1c0-0.1,0-0.2,0-0.3s0-0.3,0-0.4c0-0.7,0.1-1.4,0.1-2.1s0-1.1-0.1-1.7c0-0.2,0-0.3,0-0.5
	c0-0.4-0.1-0.8-0.1-1.3l-0.1-0.5c-0.1-0.5-0.2-1.1-0.3-1.6h63.5c0.1,0,0.2,0,0.4,0l0,0c1.8,0.2,3.2,1.7,3.2,3.6L481.9,371.7z"/>
<path class="st0" d="M389.5,356.9c-8.6,0-15.5,7-15.5,15.5c0,8.6,7,15.5,15.5,15.5c8.6,0,15.5-7,15.5-15.5
	C405,363.9,398,356.9,389.5,356.9L389.5,356.9z M389.5,384.9c-6.9,0-12.5-5.6-12.5-12.5c0-6.9,5.6-12.5,12.5-12.5
	c6.9,0,12.5,5.6,12.5,12.5C402,379.4,396.4,385,389.5,384.9C389.5,385,389.5,385,389.5,384.9L389.5,384.9z"/>
<path class="st0" d="M360.3,199l-0.4-0.9h-31.1v86.3h70.3L360.3,199z M331.9,201.1H358l36.5,80.3h-62.6V201.1z"/>
<rect x="330.4" y="293" class="st0" width="14.8" height="3"/>
<path class="st0" d="M172,356.9c-8.6,0-15.5,6.9-15.5,15.5c0,8.6,6.9,15.5,15.5,15.5s15.5-6.9,15.5-15.5c0,0,0,0,0,0
	C187.5,363.9,180.6,356.9,172,356.9z M172,384.9c-6.9,0-12.5-5.6-12.5-12.5c0-6.9,5.6-12.5,12.5-12.5c6.9,0,12.5,5.6,12.5,12.5l0,0
	C184.5,379.3,179,385,172,384.9C172,385,172,385,172,384.9L172,384.9z"/>
<path class="st0" d="M147.8,297.4l-5.2,3L150,313l5.2-3c1,1.2,2.1,2.2,3.3,3.3l-3,5.2l12.6,7.3l3-5.2c1.5,0.5,2.9,0.9,4.4,1.2v6
	h14.6v-6c1.5-0.3,3-0.7,4.4-1.2l3,5.2l12.6-7.3l-3-5.2c1.2-1,2.2-2.1,3.3-3.3l5.2,3l7.3-12.7l-5.2-3c0.5-1.5,0.9-3,1.2-4.5h6v-14.6
	h-6c-0.3-1.5-0.7-3-1.2-4.5l5.2-3l-7.3-12.7l-5.2,3c-1-1.2-2.1-2.2-3.3-3.3l3-5.2l-12.6-7.3l-3,5.2c-1.5-0.5-2.9-0.9-4.4-1.2v-6
	h-14.7v6c-1.5,0.3-3,0.7-4.4,1.2l-3-5.2l-12.6,7.3l3,5.2c-1.2,1-2.2,2.1-3.3,3.3l-5.2-3l-7.3,12.7l5.2,3c-0.5,1.5-0.9,3-1.2,4.5h-6
	v14.6h6C146.9,294.4,147.3,295.9,147.8,297.4z M143.7,281.3h5.5l0.2-1.3c0.4-2.2,0.9-4.3,1.7-6.3l0.4-1.2l-4.8-2.7l4.3-7.5l4.8,2.8
	l0.8-1c1.4-1.7,3-3.2,4.6-4.6l1-0.8l-2.8-4.8l7.5-4.3l2.8,4.8l1.2-0.4c2.1-0.8,4.2-1.3,6.4-1.7l1.2-0.2v-5.5h8.6v5.5l1.2,0.2
	c2.2,0.4,4.3,0.9,6.4,1.7l1.2,0.4l2.7-4.8l7.5,4.3l-2.8,4.8l1,0.8c1.7,1.4,3.3,3,4.6,4.6l0.8,1l4.8-2.7l4.3,7.5l-4.8,2.7l0.4,1.2
	c0.8,2.1,1.3,4.2,1.7,6.3l0.2,1.3h5.5v8.6h-5.5l-0.2,1.3c-0.4,2.2-0.9,4.3-1.7,6.4l-0.4,1.2l4.8,2.7l-4.3,7.5l-4.8-2.8l-0.8,1
	c-1.4,1.7-3,3.2-4.6,4.6l-1,0.8l2.8,4.8l-7.5,4.3l-2.7-4.8l-1.2,0.5c-2.1,0.8-4.2,1.3-6.4,1.7l-1.2,0.2v5.5h-8.6v-5.5l-1.2-0.2
	c-2.2-0.3-4.3-0.9-6.4-1.7l-1.2-0.5l-2.7,4.7l-7.5-4.3l2.8-4.8l-1-0.8c-1.7-1.4-3.3-2.9-4.6-4.6l-0.8-1l-4.8,2.8l-4.3-7.5l4.8-2.7
	l-0.4-1.2c-0.8-2.1-1.3-4.2-1.7-6.4l-0.2-1.3h-5.5L143.7,281.3z"/>
<path class="st0" d="M182.8,311.9c14.5,0,26.3-11.8,26.3-26.3c0-14.5-11.8-26.3-26.3-26.3s-26.3,11.8-26.3,26.3c0,0,0,0,0,0
	C156.5,300.1,168.3,311.9,182.8,311.9z M182.8,262.3c12.9,0,23.3,10.4,23.3,23.3c0,12.9-10.4,23.3-23.3,23.3
	c-12.9,0-23.3-10.4-23.3-23.3l0,0C159.5,272.7,169.9,262.3,182.8,262.3z"/>
<path class="st1" d="M219.8,237.1c0,0.8,0,1.5,0,2.3l-1.9,0.5l-2.9,0.8l0.8,2.9l1.1,4l0.8,2.9l2.9-0.8l1.8-0.5
	c0.4,0.7,0.8,1.4,1.2,2l-1.3,1.4l-2.1,2.1l2.1,2.1l3,2.9l2.1,2.1l2.1-2.1l1.4-1.4c0.6,0.4,1.3,0.8,2,1.1l-0.5,1.9l-0.8,2.9l2.9,0.8
	l4,1.1l2.9,0.8l0.8-2.9l0.5-1.9c0.4,0,0.7,0,1.1,0s0.8,0,1.2,0l0.5,1.9l0.8,2.9l2.9-0.8l4-1.1l2.9-0.8l-0.8-2.9l-0.5-1.8
	c0.7-0.4,1.3-0.8,2-1.2l1.4,1.3l2.1,2.1l2.1-2.1l2.9-3l2.1-2.1l-2.1-2.1l-1.3-1.3c0.4-0.6,0.8-1.3,1.1-2l1.9,0.5l2.9,0.8l0.8-2.9
	l1.1-4l0.8-2.9l-2.9-0.8l-1.9-0.5c0-0.8,0-1.6,0-2.3l1.9-0.5l2.9-0.8l-0.8-2.9l-1.1-4l-0.8-2.9l-2.9,0.8l-1.9,0.5
	c-0.4-0.7-0.7-1.4-1.2-2l1.3-1.4l2.1-2.1l-2.1-2.1l-3-2.9l-2.1-2.1l-2.1,2.1l-1.4,1.4c-0.6-0.4-1.3-0.8-2-1.1l0.5-1.9l0.8-2.9
	l-2.9-0.8l-4-1.1l-2.9-0.8l-0.8,2.9l-0.5,1.9c-0.4,0-0.7,0-1.1,0h-1.2l-0.5-1.9l-0.8-2.9l-2.9,0.8l-4,1.1l-2.9,0.8l0.8,2.9l0.5,1.9
	c-0.7,0.4-1.4,0.7-2,1.2l-1.4-1.3l-2.1-2.1l-2.1,2.1l-2.9,3l-2.2,2.1l2.1,2.1l1.4,1.4c-0.4,0.6-0.8,1.3-1.1,2l-1.9-0.5l-2.9-0.8
	l-0.8,2.9l-1.1,4l-0.8,2.9l2.9,0.8L219.8,237.1z M219.8,229.7l4.3,1.1c0.8-2.1,1.9-4.1,3.4-5.9l-3.2-3.1l2.9-3l3.2,3.1
	c1.8-1.5,3.7-2.6,5.9-3.4l-1.2-4.3l4-1.1l1.2,4.3c0.8-0.1,1.5-0.2,2.3-0.3h1.1c1.1,0,2.2,0.1,3.3,0.3l1.1-4.3l4,1.1l-1.1,4.3
	c2.1,0.8,4.1,1.9,5.9,3.4l3.1-3.2l3,2.9l-3.1,3.2c1.5,1.8,2.6,3.7,3.4,5.9l4.3-1.2l1.1,4l-4.3,1.2c0.1,0.8,0.2,1.5,0.3,2.3
	c0.1,1.5,0,3-0.2,4.5l4.3,1.1l-1.1,4l-4.3-1.1c-0.8,2.1-1.9,4.1-3.4,5.9l3.2,3.1l-2.9,3l-3.2-3.1c-1.8,1.5-3.7,2.6-5.9,3.4l1.2,4.3
	l-4,1.1l-1.2-4.3c-0.8,0.1-1.5,0.2-2.3,0.3c-0.4,0-0.8,0-1.1,0c-1.1,0-2.2-0.1-3.3-0.3l-1.1,4.3l-4-1.1l1.1-4.3
	c-2.1-0.8-4.1-1.9-5.9-3.4l-3.1,3.2l-3-2.9l3.1-3.2c-1.5-1.8-2.6-3.7-3.4-5.9l-4.3,1.2l-1.1-4l4.3-1.2c-0.1-0.8-0.2-1.5-0.3-2.3
	c-0.1-1.5,0-3,0.2-4.5l-4.3-1.1L219.8,229.7z"/>
<path class="st1" d="M243.7,253.3c8.3,0,15.1-6.8,15.1-15.1s-6.8-15.1-15.1-15.1c-8.3,0-15.1,6.8-15.1,15.1c0,0,0,0,0,0
	C228.7,246.6,235.4,253.3,243.7,253.3z M243.7,226.1c6.7,0,12.1,5.4,12.1,12.1c0,6.7-5.4,12.1-12.1,12.1c-6.7,0-12.1-5.4-12.1-12.1
	c0,0,0,0,0,0C231.6,231.5,237.1,226.1,243.7,226.1L243.7,226.1z"/>
<rect x="265.7" y="389.4" transform="matrix(1 -3.839715e-03 3.839715e-03 1 -1.4969 1.029)" class="st0" width="3" height="2"/>
<rect x="319.8" y="389.2" transform="matrix(1 -1.919857e-03 1.919857e-03 1 -0.7485 0.6176)" class="st0" width="3" height="2"/>
<rect x="310.8" y="389.2" transform="matrix(1 -1.919857e-03 1.919857e-03 1 -0.7485 0.6003)" class="st0" width="3" height="2"/>
<rect x="301.8" y="389.2" transform="matrix(1 -2.967042e-03 2.967042e-03 1 -1.1564 0.9017)" class="st0" width="3" height="2"/>
<rect x="274.8" y="389.3" transform="matrix(1 -4.886902e-03 4.886902e-03 1 -1.904 1.3548)" class="st0" width="3" height="2"/>
<rect x="283.8" y="389.3" transform="matrix(1 -3.839715e-03 3.839715e-03 1 -1.4965 1.0982)" class="st0" width="3" height="2"/>
<rect x="292.8" y="389.2" transform="matrix(1 -2.967042e-03 2.967042e-03 1 -1.1565 0.8749)" class="st0" width="3" height="2"/>
<rect x="356.4" y="388.7" transform="matrix(5.585019e-03 -1 1 5.585019e-03 -34.7948 745.3797)" class="st0" width="2" height="3"/>
<path class="st0" d="M364.8,391.2c2.3,0,2.7,0.1,2.8,0.1l0.2-1l0.7-0.7c-0.3-0.3-0.4-0.3-3.7-0.4L364.8,391.2z"/>
<rect x="337.9" y="389.1" class="st0" width="3" height="2"/>
<polygon class="st0" points="328.8,389.1 328.8,391.1 331.9,391.1 331.8,389.1 "/>
<rect x="347.3" y="388.6" transform="matrix(1.919872e-03 -1 1 1.919872e-03 -42.4596 737.7181)" class="st0" width="2" height="3"/>
<rect x="448.5" y="234.6" class="st0" width="2" height="3"/>
<rect x="448.5" y="243.6" class="st0" width="2" height="3"/>
<rect x="448.5" y="252.6" class="st0" width="2" height="3"/>
<rect x="448.5" y="225.6" class="st0" width="2" height="3"/>
<rect x="448.5" y="261.6" class="st0" width="2" height="3"/>
<rect x="448.5" y="270.6" class="st0" width="2" height="3"/>
<rect x="448.5" y="180.6" class="st0" width="2" height="3"/>
<rect x="448.5" y="216.6" class="st0" width="2" height="3"/>
<rect x="448.5" y="189.6" class="st0" width="2" height="3"/>
<rect x="448.5" y="198.6" class="st0" width="2" height="3"/>
<rect x="448.5" y="207.6" class="st0" width="2" height="3"/>
<rect x="448.5" y="171.6" class="st0" width="2" height="3"/>
<rect x="83.8" y="218.8" class="st0" width="2" height="3"/>
<rect x="83.8" y="155.8" class="st0" width="2" height="3"/>
<rect x="83.8" y="146.8" class="st0" width="2" height="3"/>
<rect x="83.8" y="164.8" class="st0" width="2" height="3"/>
<rect x="83.8" y="173.8" class="st0" width="2" height="3"/>
<rect x="83.8" y="200.8" class="st0" width="2" height="3"/>
<rect x="83.8" y="209.8" class="st0" width="2" height="3"/>
<rect x="83.8" y="137.8" class="st0" width="2" height="3"/>
<rect x="83.8" y="182.8" class="st0" width="2" height="3"/>
<rect x="83.8" y="254.8" class="st0" width="2" height="3"/>
<rect x="83.8" y="245.8" class="st0" width="2" height="3"/>
<rect x="83.8" y="236.8" class="st0" width="2" height="3"/>
<rect x="83.8" y="227.8" class="st0" width="2" height="3"/>
<rect x="83.8" y="191.8" class="st0" width="2" height="3"/>
<rect x="83.8" y="263.8" class="st0" width="2" height="3"/>
<rect x="83.8" y="272.8" class="st0" width="2" height="3"/>
<rect x="83.8" y="281.8" class="st0" width="2" height="3"/>
<rect x="96.8" y="160.4" class="st0" width="3" height="2"/>
<rect x="87.8" y="160.4" class="st0" width="3" height="2"/>
<rect x="123.8" y="160.4" class="st0" width="3" height="2"/>
<rect x="69.8" y="160.4" class="st0" width="3" height="2"/>
<rect x="105.8" y="160.4" class="st0" width="3" height="2"/>
<rect x="60.8" y="160.4" class="st0" width="3" height="2"/>
<rect x="78.8" y="160.4" class="st0" width="3" height="2"/>
<rect x="132.8" y="160.4" class="st0" width="3" height="2"/>
<rect x="141.8" y="160.4" class="st0" width="3" height="2"/>
<rect x="114.8" y="160.4" class="st0" width="3" height="2"/>
<rect x="150.8" y="160.4" class="st0" width="3" height="2"/>
<path class="st1" d="M243.8,246.9c1.6,0,3.2-0.4,4.6-1.2l-1.5-2.6c-3,1.6-6.7,0.5-8.4-2.5c-1.5-2.9-0.6-6.4,2.2-8.2l-1.5-2.6
	c-4.4,2.5-5.9,8.1-3.4,12.5C237.4,245.2,240.5,247,243.8,246.9L243.8,246.9z"/>
</svg>
