<?xml version="1.0" encoding="utf-8"?>
<!-- Generator: Adobe Illustrator 24.3.0, SVG Export Plug-In . SVG Version: 6.00 Build 0)  -->
<svg version="1.1" id="Laag_1" xmlns="http://www.w3.org/2000/svg" xmlns:xlink="http://www.w3.org/1999/xlink" x="0px" y="0px"
	 viewBox="0 0 566.9 566.9" style="enable-background:new 0 0 566.9 566.9;" xml:space="preserve">
<style type="text/css">
	.st0{fill:#6B6B7F;}
	.st1{fill:none;stroke:#6B6B7F;stroke-width:2;stroke-miterlimit:10;stroke-dasharray:3,6;}
	.st2{fill:#FFFFFF;}
	.st3{fill:#FF5429;}
</style>
<g>
	<path class="st0" d="M353.3,446.2h-2v-3h2V446.2z M353.3,437.2h-2v-3h2V437.2z M353.3,428.2h-2v-3h2V428.2z M353.3,419.2h-2v-3h2
		V419.2z M353.3,410.2h-2v-3h2V410.2z M353.3,401.2h-2v-3h2V401.2z M353.3,392.2h-2v-3h2V392.2z M353.3,383.2h-2v-3h2V383.2z
		 M353.3,374.2h-2v-3h2V374.2z M353.3,365.2h-2v-3h2V365.2z M353.3,356.2h-2v-3h2V356.2z M353.3,347.2h-2v-3h2V347.2z"/>
</g>
<g>
	<path class="st0" d="M439.2,378.1h-3v-2h3V378.1z M430.2,378.1h-3v-2h3V378.1z M421.2,378.1h-3v-2h3V378.1z M412.2,378.1h-3v-2h3
		V378.1z M403.2,378.1h-3v-2h3V378.1z M394.2,378.1h-3v-2h3V378.1z M385.2,378.1h-3v-2h3V378.1z M376.2,378.1h-3v-2h3V378.1z
		 M367.2,378.1h-3v-2h3V378.1z M358.2,378.1h-3v-2h3V378.1z M349.2,378.1h-3v-2h3V378.1z M340.2,378.1h-3v-2h3V378.1z M331.2,378.1
		h-3v-2h3V378.1z M322.2,378.1h-3v-2h3V378.1z"/>
</g>
<g>
	<path class="st0" d="M198.6,203.4h-2v-0.8h2V203.4z M198.6,196.6h-2v-3h2V196.6z M198.6,187.6h-2v-3h2V187.6z M198.6,178.6h-2v-3h2
		V178.6z M198.6,169.6h-2v-3h2V169.6z M198.6,160.6h-2v-3h2V160.6z M198.6,151.6h-2v-3h2V151.6z M198.6,142.6h-2v-3h2V142.6z
		 M198.6,133.6h-2v-3h2V133.6z M198.6,124.6h-2v-3h2V124.6z"/>
</g>
<line class="st1" x1="193.1" y1="154.5" x2="95.4" y2="154.5"/>
<g>
	<path class="st2" d="M122.8,350.3c-0.6-4.7-2.1-8-4.3-9.3c-1-0.6-2-0.8-3-0.8l5.5,21.9C122.5,358.3,123.4,354.5,122.8,350.3z"/>
	<path class="st2" d="M132.8,328.6l-16.3-64.9l1.3-0.3c7.3-1.8,13.5-6.3,17.4-12.5c3.9-6.2,5.1-13.5,3.3-20.4l-0.3-1.3l1.3-0.3
		l254.6-64.1l0.1,1.6c0.1,1.8,0.3,3.6,0.8,5.4c3.6,14.4,18.8,23,33.9,19.2l1.3-0.3l21.4,85.1l-1.3,0.3
		c-15.1,3.8-24.4,18.6-20.7,32.9l0.3,1.3l-1.3,0.3l-211.2,53.1c1.1,2.8,2.1,5.7,2.9,8.7l258.8-65.1l-41.4-164.6L88,230.7l25.9,102.9
		C118.1,330.4,124.8,326.9,132.8,328.6z"/>
	<path class="st0" d="M482.4,309.3l-42.8-169.9L86,228.4l-1.3,0.3l26.9,106.8c0.7-0.6,1.4-1.3,2.3-1.9l-26-102.9l349.7-88L479,307.3
		l-258.8,65.1c0.2,0.9,0.5,1.7,0.7,2.6L481,309.6L482.4,309.3z"/>
	<path class="st0" d="M115.5,340.1c-1,0-2,0.2-2.7,0.4l6.4,25.5c0.7-1.3,1.3-2.7,1.8-4L115.5,340.1z"/>
	<path class="st2" d="M448.3,273.8l-20.2-80.1c-2.2,0.5-4.4,0.7-6.5,0.7c-13.6,0-25.9-8.8-29.3-22.1c-0.4-1.4-0.6-2.9-0.7-4.3
		l-250.3,63c1.5,7.3,0.1,14.7-4,21.2c-4.1,6.4-10.3,11.1-17.7,13.3l10.7,42.5c0.5-8.3,3.2-16.5,8-22.5c10.6-13.5,26.5-12.2,36.8-9.5
		l26.6-6.7l0.4,1.5l0.4,1.5l-22.6,5.7c0.5,0.5,0.7,1.2,0.8,2c0,1.3-0.8,2.5-2,3c-9.6,3.6-9.9,8.8-9.6,12.4l36.9-9.3l0.7,2.9
		l-37.3,9.4c0.5,2.7,2.9,7.4,7.5,12.8l33.3-8.4l0.7,2.9l-31.8,8c0.9,0.9,2.3,2.2,4,3.8c8.1,7.6,24.2,22.7,33.3,43.8l210.3-52.9
		C423.6,293.4,433,278.3,448.3,273.8z M295,328.8c-5,1.3-10.1,1.9-15.1,1.9c-27.6,0-52.8-18.7-59.9-46.7c-4-16-1.6-32.6,6.9-46.7
		c8.5-14.2,21.9-24.2,37.9-28.2c33-8.3,66.6,11.8,74.9,44.8l0,0C348.1,286.9,328,320.5,295,328.8z M349.5,233.7l-0.4-1.5l50.9-12.8
		l0.4,1.5l0.4,1.5l-50.9,12.8L349.5,233.7z M353.7,250.4l-0.4-1.5l50.9-12.8l0.7,2.9L354,251.8L353.7,250.4z M358.2,268.5l-0.7-2.9
		l50.9-12.8l0.7,2.9L358.2,268.5z"/>
	<path class="st0" d="M429.8,310.3l-0.3-1.3c-3.6-14.4,5.7-29.2,20.7-32.9l1.3-0.3L430,190.6l-1.3,0.3c-15.1,3.8-30.3-4.8-33.9-19.2
		c-0.4-1.8-0.7-3.6-0.8-5.4l-0.1-1.6l-254.6,64.1l-1.3,0.3l0.3,1.3c1.8,7,0.6,14.2-3.3,20.4c-3.9,6.2-10.1,10.7-17.4,12.5l-1.3,0.3
		l16.3,64.9c0.3,0.1,0.7,0.2,1.1,0.3c-2.8-6.3-4-13.6-3.5-20.8l-10.7-42.5c7.4-2.2,13.7-6.9,17.7-13.3c4.1-6.5,5.4-13.9,4-21.2
		l250.3-63c0.1,1.4,0.4,2.9,0.7,4.3c3.3,13.3,15.6,22.1,29.3,22.1c2.2,0,4.3-0.2,6.5-0.7l20.2,80.1c-15.3,4.5-24.7,19.6-21.7,34.5
		l-210.3,52.9c0.3,0.8,0.7,1.6,1,2.5l211.2-53.1L429.8,310.3z"/>
	<path class="st0" d="M202.1,270.8l-0.4-1.5l-26.6,6.7c1.2,0.3,2.3,0.7,3.3,1c0.5,0.2,1,0.5,1.4,0.9l22.6-5.7L202.1,270.8z"/>
	<path class="st0" d="M205.9,286l-36.9,9.3c0,0.4,0.1,0.8,0.1,1.1c0.1,0.5,0.1,0.9,0.1,1.3c0,0.2,0,0.4,0.1,0.6l37.3-9.4L205.9,286z
		"/>
	<path class="st0" d="M210.1,302.7l-33.3,8.4c0.7,0.8,1.4,1.6,2.2,2.5c0,0,0,0,0.1,0.1l31.8-8L210.1,302.7z"/>
	<polygon class="st0" points="400.4,220.9 400,219.4 349.1,232.2 349.5,233.7 349.8,235.2 400.8,222.3 	"/>
	<polygon class="st0" points="404.2,236.1 353.3,248.9 353.7,250.4 354,251.8 405,239 	"/>
	
		<rect x="357.1" y="259.1" transform="matrix(0.9697 -0.2441 0.2441 0.9697 -52.0153 101.4594)" class="st0" width="52.5" height="3"/>
	<path class="st2" d="M293.5,281.2c-0.3-1.2-1-2.3-2-3.3c-0.5-0.5-1.6-1.1-3.6-1.4l3.1,12.1c1-0.8,1.8-1.8,2.2-2.8
		C293.8,284.4,293.9,282.8,293.5,281.2L293.5,281.2z"/>
	<path class="st2" d="M265.4,251.8c-0.7,1.3-0.8,2.8-0.4,4.4s1.1,2.6,2.2,3.2c0.9,0.5,2.2,0.8,3.7,1l-2.9-11.3
		C266.8,249.9,265.9,250.8,265.4,251.8z"/>
	<path class="st2" d="M279.9,209.8c-4.8,0-9.6,0.6-14.4,1.8c-15.3,3.9-28.2,13.4-36.3,27s-10.4,29.4-6.6,44.7s13.4,28.2,27,36.3
		c13.5,8.1,29.4,10.4,44.8,6.6c31.6-8,50.8-40.1,42.9-71.7C330.5,227.7,306.3,209.8,279.9,209.8z M308.7,291.4
		c-2.3,4.7-6.6,8.6-12.9,11.5l2.5,10.1l-14.7,3.7l-2.4-9.6c-5,0.6-9.5,0.5-13.3-0.5c-4.2-1.1-8.1-2.8-11.6-5.1l-1.2-0.8l8.8-13.2
		l1.2,0.8c2.4,1.5,4.9,2.6,7.5,3.3c2,0.5,4.1,0.8,6.3,0.7l-3.9-15.6c-7.8,0.2-13.9-0.9-18.2-3.5c-4.5-2.7-7.5-6.8-8.9-12.2
		c-1.5-5.8-0.8-11.1,2-15.7c2.6-4.3,7-7.7,13.1-10.2l-2.5-9.9l14.7-3.7l2.5,9.9c3.9-0.4,7.5-0.2,10.8,0.5c3.7,0.8,7.1,2.3,10.1,4.4
		l1.2,0.8l-8.9,13.3l-1.2-0.8c-1.5-1-3.1-1.8-5-2.4c-1.3-0.4-2.8-0.7-4.5-0.8l3.5,14.1c7.3,0,13.2,1,17.4,3.2
		c4.6,2.4,7.7,6.5,9.1,12.2C311.7,281.1,311.2,286.4,308.7,291.4z"/>
	<path class="st0" d="M339.8,253.9c-8.3-33-41.9-53.1-74.9-44.8c-16,4-29.5,14-37.9,28.2c-8.5,14.1-11,30.7-7,46.7
		c7,28,32.3,46.7,59.9,46.7c5,0,10-0.6,15.1-1.9C328,320.5,348.1,286.9,339.8,253.9L339.8,253.9z M294.3,326.2
		c-15.3,3.9-31.2,1.5-44.8-6.6c-13.5-8.1-23.1-21-27-36.3s-1.5-31.2,6.6-44.7s21-23.1,36.3-27c4.8-1.2,9.7-1.8,14.4-1.8
		c26.4,0,50.6,17.9,57.3,44.7C345.2,286.1,325.9,318.3,294.3,326.2z"/>
	<path class="st2" d="M299.9,266.2c-4-2.1-9.8-3.1-17.2-2.9h-1.2l-5.1-20.1l1.9-0.1c2.8-0.1,5.3,0.2,7.4,1c1.6,0.5,3.1,1.2,4.5,2
		l5.6-8.3c-2.4-1.5-5-2.6-7.8-3.2c-3.3-0.7-7-0.8-11.1-0.3l-1.3,0.2l-2.4-9.5l-8.8,2.2l2.4,9.5l-1.3,0.5c-6.1,2.3-10.4,5.5-12.9,9.5
		c-2.4,4-3,8.4-1.7,13.5c1.2,4.7,3.6,8.1,7.5,10.4c3.9,2.4,9.9,3.4,17.7,3l1.2-0.1l5.4,21.4l-1.7,0.2c-3.2,0.3-6.2,0.1-9.1-0.7
		c-2.4-0.6-4.8-1.6-7-2.9l-5.5,8.3c2.9,1.7,6,3,9.4,3.9c3.8,1,8.4,1.1,13.5,0.3l1.4-0.2l2.4,9.4l8.8-2.2l-2.4-9.7l1.2-0.5
		c6.2-2.7,10.4-6.3,12.6-10.6c2.2-4.4,2.6-8.8,1.4-13.6C306.2,271.6,303.7,268.2,299.9,266.2z M272.9,263.5
		c-3.1-0.1-5.4-0.6-7.1-1.5c-1.9-1-3.1-2.7-3.7-5.1s-0.4-4.5,0.7-6.5c1-1.9,2.9-3.6,5.7-4.9l1.7-0.8l4.8,19L272.9,263.5z
		 M295.9,287.1c-0.9,2.1-2.7,3.8-5.2,5.3l-1.7,1l-5.1-20.2l2,0.1c3.6,0.2,6.1,1,7.6,2.4s2.4,3,2.9,4.8
		C297,282.8,296.8,285,295.9,287.1z"/>
	<path class="st0" d="M301.2,263.5c-4.2-2.2-10.1-3.3-17.4-3.2l-3.5-14.1c1.7,0.1,3.2,0.3,4.5,0.8c1.9,0.6,3.5,1.4,5,2.4l1.2,0.8
		l8.9-13.3l-1.2-0.8c-3.1-2.1-6.5-3.6-10.1-4.4c-3.3-0.7-6.9-0.9-10.8-0.5l-2.5-9.9l-14.7,3.7l2.5,9.9c-6.1,2.5-10.5,6-13.1,10.2
		c-2.8,4.6-3.5,9.9-2,15.7c1.4,5.4,4.4,9.5,8.9,12.2c4.2,2.5,10.3,3.7,18.2,3.5l3.9,15.6c-2.2,0.1-4.3-0.2-6.3-0.7
		c-2.6-0.7-5.1-1.8-7.5-3.3l-1.2-0.8l-8.8,13.2l1.2,0.8c3.5,2.3,7.4,4,11.6,5.1c3.9,1,8.4,1.2,13.3,0.5l2.4,9.6l14.7-3.7l-2.5-10.1
		c6.2-3,10.6-6.8,12.9-11.5c2.4-5,3-10.2,1.6-15.7C308.9,270,305.9,265.9,301.2,263.5z M306,290.1c-2.1,4.3-6.4,7.9-12.6,10.6
		l-1.2,0.5l2.4,9.7l-8.8,2.2l-2.4-9.4l-1.4,0.2c-5.1,0.8-9.7,0.7-13.5-0.3c-3.4-0.8-6.5-2.1-9.4-3.9l5.5-8.3c2.3,1.3,4.6,2.2,7,2.9
		c2.9,0.8,6,1,9.1,0.7l1.7-0.2l-5.4-21.4l-1.2,0.1c-7.8,0.4-13.8-0.7-17.7-3c-3.9-2.3-6.4-5.7-7.5-10.4c-1.3-5.1-0.7-9.5,1.7-13.5
		s6.7-7.2,12.9-9.5l1.3-0.5l-2.4-9.5l8.8-2.2l2.4,9.5l1.3-0.2c4.1-0.5,7.8-0.4,11.1,0.3c2.8,0.6,5.4,1.7,7.8,3.2l-5.6,8.3
		c-1.4-0.8-2.8-1.4-4.5-2c-2.2-0.7-4.7-1-7.4-1l-1.9,0.1l5.1,20.1h1.2c7.4-0.2,13.2,0.8,17.2,2.9c3.9,2,6.4,5.4,7.6,10.3
		C308.7,281.2,308.2,285.7,306,290.1z"/>
	<path class="st0" d="M293.6,275.7c-1.5-1.5-4-2.2-7.6-2.4l-2-0.1l5.1,20.2l1.7-1c2.5-1.4,4.2-3.2,5.2-5.3c0.9-2.1,1.1-4.3,0.5-6.6
		C296,278.7,295,277.1,293.6,275.7z M293.2,285.8c-0.4,1-1.2,1.9-2.2,2.8l-3.1-12.1c2.1,0.3,3.1,0.9,3.6,1.4c1,1,1.7,2.1,2,3.3l0,0
		C293.9,282.8,293.8,284.4,293.2,285.8z"/>
	<path class="st0" d="M268.4,245.4c-2.8,1.3-4.7,3-5.7,4.9c-1,2-1.3,4.2-0.7,6.5c0.6,2.4,1.9,4.1,3.7,5.1c1.7,0.9,4,1.4,7.1,1.5
		l2,0.1l-4.8-19L268.4,245.4z M267.2,259.4c-1.1-0.6-1.8-1.6-2.2-3.2c-0.4-1.6-0.3-3.1,0.4-4.4c0.5-1,1.4-1.9,2.7-2.7l2.9,11.3
		C269.4,260.2,268.2,259.9,267.2,259.4z"/>
	<path class="st2" d="M180.3,320.3c-1.8-1.7-3.2-3-4.2-4.1c-6.4-6.8-10.5-13.8-10.8-18.3c0-0.3-0.1-0.6-0.1-1
		c-0.5-3.6-1.5-11.7,9.7-16.8c-18.2-5.3-28.2,1.3-33.4,7.9c-8.7,11.1-9.7,30.6-2.1,42.7c0.6,0.9,0.5,2-0.2,2.8s-1.8,1-2.8,0.5
		c-8-4-15-0.9-19.4,2.2c1.2,0.2,2.4,0.6,3.7,1.3c3.3,2.1,5.4,6.2,6.2,12.2c1.1,8.3-2.3,14.9-6,21.9c-4.2,8-8.9,17.1-7.9,31.1
		c0.8,11.7,7.5,22,19,29c3.8,2.3,8,4.2,12.5,5.7c-0.3-0.3-0.7-0.6-1-0.9c-9.1-8.9-9.2-22.2-9-26.1c0.3-7.3,6.1-18.4,13.5-25.9
		c14.7-14.8,11.1-29,9.6-33c-0.3-0.9-0.1-2,0.6-2.6c0.7-0.7,1.7-0.9,2.6-0.5c8.1,3.5,14.2,10.7,17.4,20.2c2.9,8.8,2.9,18.6-0.2,23.9
		c-2.1,3.7-3.6,6-4.6,7.5c3,0.3,7.1-0.8,10.5-2.9c3.7-2.2,5.9-5.1,6.1-7.8c0.1-0.9,0.6-1.6,1.3-2c0.8-0.4,1.6-0.3,2.4,0.1
		c5.4,3.3,7.5,19.4,4.3,32.4c-1.3,5.2-3.3,9.6-5.9,13.2c2.5-1.4,4.9-2.9,7.4-4.7c9.6-7.1,20.8-19.9,19.4-40.3
		C216.7,354.4,191.2,330.5,180.3,320.3z"/>
	<path class="st3" d="M217.3,363.7c-0.3-0.8-0.7-1.6-1-2.5c-9.1-21.2-25.2-36.2-33.3-43.8c-1.7-1.6-3.1-2.9-4-3.8c0,0,0,0-0.1-0.1
		c-0.8-0.8-1.5-1.7-2.2-2.5c-4.6-5.4-7-10-7.5-12.8c0-0.2-0.1-0.4-0.1-0.6c0-0.4-0.1-0.8-0.1-1.3c0-0.3-0.1-0.7-0.1-1.1
		c-0.4-3.6-0.1-8.9,9.6-12.4c1.2-0.5,2-1.6,2-3c0-0.7-0.3-1.4-0.8-2c-0.4-0.4-0.8-0.7-1.4-0.9c-1-0.3-2.2-0.7-3.3-1
		c-10.3-2.8-26.2-4-36.8,9.5c-4.8,6.1-7.5,14.2-8,22.5c-0.5,7.2,0.7,14.5,3.5,20.8c-0.4-0.1-0.7-0.2-1.1-0.3c-8-1.7-14.8,1.8-19,5
		c-0.9,0.7-1.7,1.3-2.3,1.9c-0.6,0.6-1.1,1.1-1.5,1.5c-0.7,0.8-0.8,1.9-0.3,2.8c0.6,0.9,1.6,1.2,2.6,0.9c0.1,0,0.3-0.1,0.4-0.1
		c0.7-0.2,1.7-0.4,2.7-0.4s2,0.2,3,0.8c2.2,1.4,3.7,4.6,4.3,9.3c0.5,4.2-0.3,8-1.8,11.8c-0.5,1.3-1.1,2.7-1.8,4
		c-0.6,1.2-1.3,2.5-1.9,3.8c-4.4,8.5-9.4,18.1-8.4,33.2c0.9,13,8.3,24.4,20.9,32.2c10.2,6.2,23.1,9.6,36.1,9.6c0.9,0,1.9,0,2.8-0.1
		c0.7,0,1.3-0.1,2-0.1c0.4,0,0.9-0.1,1.4-0.1c2.6-0.3,5-0.8,7.3-1.7c6.5-2,14.9-5.6,22.5-11.2c10.4-7.7,22.5-21.6,21-43.8
		c-0.3-4.4-1-8.7-1.9-12.8c-0.2-0.9-0.4-1.8-0.7-2.6C219.4,369.4,218.4,366.5,217.3,363.7z M170.4,440.7c-10.6,0.7-18.8-1.6-24.2-7
		c-7.9-7.7-8-19.6-7.8-23.1c0.2-5.6,4.9-15.8,12.3-23.2c3.9-3.9,15.4-17.2,11.6-33.6c5.5,3.4,9.7,9,12.1,16.2
		c2.9,8.7,2.3,17,0.1,20.7c-3.5,6.2-5.1,8.2-5.6,8.8c-0.5,0.6-0.7,1.4-0.6,2.2c0.2,0.8,0.7,1.4,1.4,1.7c4.7,2.1,11.6,0.2,16.2-2.6
		c3.5-2.1,6-4.8,7.2-7.7c2.1,4.6,3.6,15.3,1,25.9C191.9,428.4,185.9,439.7,170.4,440.7z M199.5,428.5c-2.4,1.8-4.9,3.3-7.4,4.7
		c2.6-3.6,4.6-8,5.9-13.2c3.2-13,1.1-29-4.3-32.4c-0.7-0.4-1.6-0.5-2.4-0.1c-0.8,0.4-1.3,1.1-1.3,2c-0.2,2.8-2.5,5.6-6.1,7.8
		c-3.4,2.1-7.6,3.1-10.5,2.9c1-1.5,2.5-3.8,4.6-7.5c3-5.3,3.1-15.2,0.2-23.9c-3.2-9.6-9.4-16.7-17.4-20.2c-0.9-0.4-1.9-0.2-2.6,0.5
		c-0.7,0.7-1,1.7-0.6,2.6c1.5,4,5.1,18.2-9.6,33c-7.4,7.4-13.2,18.5-13.5,25.9c-0.2,3.9,0,17.3,9,26.1c0.3,0.3,0.7,0.6,1,0.9
		c-4.5-1.5-8.7-3.4-12.5-5.7c-11.5-7-18.3-17.3-19-29c-0.9-14,3.8-23.1,7.9-31.1c3.6-7,7-13.6,6-21.9c-0.8-6.1-2.9-10.2-6.2-12.2
		c-1.2-0.7-2.5-1.1-3.7-1.3c4.4-3.1,11.4-6.2,19.4-2.2c1,0.5,2.1,0.3,2.8-0.5s0.8-1.9,0.2-2.8c-7.5-12.1-6.6-31.7,2.1-42.7
		c5.2-6.6,15.2-13.2,33.4-7.9c-11.2,5.2-10.1,13.2-9.7,16.8c0,0.4,0.1,0.7,0.1,1c0.3,4.5,4.4,11.5,10.8,18.3c1,1,2.4,2.4,4.2,4.1
		c10.9,10.2,36.4,34,38.6,67.8C220.2,408.6,209.1,421.4,199.5,428.5z"/>
	<path class="st2" d="M193.2,393.1c-1.2,2.9-3.7,5.6-7.2,7.7c-4.6,2.8-11.4,4.7-16.2,2.6c-0.7-0.3-1.2-0.9-1.4-1.7
		c-0.2-0.8,0-1.6,0.6-2.2c0.5-0.6,2.1-2.6,5.6-8.8c2.1-3.7,2.8-12-0.1-20.7c-2.4-7.2-6.6-12.8-12.1-16.2
		c3.8,16.4-7.7,29.7-11.6,33.6c-7.4,7.5-12.1,17.7-12.3,23.2c-0.2,3.5,0,15.4,7.8,23.1c5.4,5.3,13.6,7.7,24.2,7
		c15.4-1,21.4-12.4,23.8-21.7C196.8,408.5,195.3,397.7,193.2,393.1z"/>
</g>
</svg>
