<?xml version="1.0" encoding="utf-8"?>
<!-- Generator: Adobe Illustrator 24.3.0, SVG Export Plug-In . SVG Version: 6.00 Build 0)  -->
<svg version="1.1" id="Laag_1" xmlns="http://www.w3.org/2000/svg" xmlns:xlink="http://www.w3.org/1999/xlink" x="0px" y="0px"
	 viewBox="0 0 566.9 566.9" style="enable-background:new 0 0 566.9 566.9;" xml:space="preserve">
<style type="text/css">
	.st0{fill:#FF5429;}
	.st1{fill:#6B6B7F;}
</style>
<rect x="155.4" y="221.7" class="st0" width="159.7" height="3"/>
<rect x="155.4" y="254.3" class="st0" width="159.7" height="3"/>
<rect x="155.4" y="286.9" class="st0" width="159.7" height="3"/>
<path class="st0" d="M155.4,319.5h158.7c-0.7,1-1.3,2-1.9,3H155.4V319.5z"/>
<path class="st1" d="M316.6,320.2v1c-0.3,0.4-0.6,0.9-0.9,1.3h-0.6L316.6,320.2z"/>
<path class="st1" d="M431.9,311.7V184.4h-15.6v-14.9c4.3-0.7,7.2-4.8,6.5-9.2c-0.6-3.8-4-6.6-7.8-6.6h-29.3c-4.4,0-7.9,3.6-7.9,8
	c0,4,3,7.3,6.9,7.8v14.9h-12.9v-12.9H346v15h-11.5v18.2H346v17h-27.9V207c0-7.1-5.8-12.8-12.8-12.8H135.6c-7.1,0-12.8,5.8-12.8,12.8
	v130.2c0,7.1,5.8,12.8,12.8,12.8h166.8c-6,40.7,22.2,78.5,62.9,84.5c40.7,6,78.5-22.2,84.5-62.9C452.9,350,446.4,328.1,431.9,311.7z
	 M380.7,161.6c0-2.8,2.2-5,5-5H415c2.7-0.4,5.3,1.5,5.6,4.3s-1.5,5.3-4.3,5.6c-0.4,0.1-0.9,0.1-1.3,0h-29.3
	C382.9,166.5,380.7,164.3,380.7,161.6z M387.6,169.6h25.7v14.8h-25.7V169.6z M384.6,187.4h44.3v121c-14-14.1-33.1-22-52.9-22
	c-1.4,0-2.9,0-4.3,0.1v-99.2L384.6,187.4z M337.5,201.7v-12.1h8.5v12.1H337.5z M349,204.7L349,204.7v-18.1l0,0v-12h19.7v112.2
	c-6.8,0.7-13.4,2.2-19.7,4.7V204.7z M318.1,224.7H346v68.1c-10.9,4.8-20.5,12.1-27.9,21.4L318.1,224.7z M125.7,337.2V207
	c0-5.4,4.4-9.8,9.8-9.8h16.9v150h-16.9C130.1,347.2,125.7,342.7,125.7,337.2C125.7,337.3,125.7,337.3,125.7,337.2z M155.4,347.1
	v-150h149.8c5.4,0,9.8,4.4,9.8,9.8V318c-0.3,0.5-0.7,1-1,1.5c-0.7,1-1.3,2-1.9,3c-4.6,7.6-7.7,15.9-9.4,24.6L155.4,347.1z
	 M376,432.4c-39.5,0-71.5-32.1-71.5-71.6c0-3.6,0.3-7.1,0.8-10.7c0.1-1,0.3-2,0.5-3c1.6-8.3,4.8-16.3,9.2-23.5
	c0.2-0.3,0.4-0.7,0.6-1s0.6-0.9,0.9-1.3c0.4-0.6,0.8-1.2,1.2-1.8c0.1-0.1,0.2-0.3,0.3-0.4c7.2-10,16.8-17.9,27.9-23.1
	c0.7-0.3,1.4-0.6,2.1-0.9l0.9-0.4c6.3-2.6,12.9-4.2,19.7-4.9c0.5-0.1,1.1-0.1,1.6-0.1l1.4-0.1c1.5-0.1,2.9-0.1,4.3-0.1
	c20.1,0,39.4,8.5,52.9,23.4c0.1,0.1,0.3,0.3,0.4,0.4c0.9,1,1.8,2,2.6,3.1c24.6,30.9,19.5,75.9-11.4,100.4
	C407.9,426.8,392.2,432.3,376,432.4L376,432.4z"/>
<rect x="225.8" y="399.9" class="st1" width="3" height="2"/>
<rect x="234.8" y="399.9" class="st1" width="3" height="2"/>
<rect x="198.8" y="399.9" class="st1" width="3" height="2"/>
<rect x="243.8" y="399.9" class="st1" width="3" height="2"/>
<rect x="252.8" y="399.9" class="st1" width="3" height="2"/>
<rect x="207.8" y="399.9" class="st1" width="3" height="2"/>
<rect x="216.8" y="399.9" class="st1" width="3" height="2"/>
<rect x="306.8" y="399.9" class="st1" width="3" height="2"/>
<rect x="297.8" y="399.9" class="st1" width="3" height="2"/>
<rect x="261.8" y="399.9" class="st1" width="3" height="2"/>
<rect x="279.8" y="399.9" class="st1" width="3" height="2"/>
<rect x="288.8" y="399.9" class="st1" width="3" height="2"/>
<rect x="270.8" y="399.9" class="st1" width="3" height="2"/>
<rect x="174.3" y="170.4" class="st1" width="2" height="3"/>
<rect x="174.3" y="188.4" class="st1" width="2" height="3"/>
<rect x="174.3" y="179.4" class="st1" width="2" height="3"/>
<rect x="174.3" y="152.4" class="st1" width="2" height="3"/>
<rect x="174.3" y="161.4" class="st1" width="2" height="3"/>
<rect x="250.5" y="166.1" class="st1" width="3" height="2"/>
<rect x="259.5" y="166.1" class="st1" width="3" height="2"/>
<rect x="241.5" y="166.1" class="st1" width="3" height="2"/>
<rect x="313.5" y="166.1" class="st1" width="3" height="2"/>
<rect x="232.5" y="166.1" class="st1" width="3" height="2"/>
<rect x="223.5" y="166.1" class="st1" width="3" height="2"/>
<rect x="304.5" y="166.1" class="st1" width="3" height="2"/>
<rect x="277.5" y="166.1" class="st1" width="3" height="2"/>
<rect x="286.5" y="166.1" class="st1" width="3" height="2"/>
<rect x="268.5" y="166.1" class="st1" width="3" height="2"/>
<rect x="295.5" y="166.1" class="st1" width="3" height="2"/>
<rect x="178.5" y="166.1" class="st1" width="3" height="2"/>
<rect x="142.5" y="166.1" class="st1" width="3" height="2"/>
<rect x="151.5" y="166.1" class="st1" width="3" height="2"/>
<rect x="160.5" y="166.1" class="st1" width="3" height="2"/>
<rect x="133.5" y="166.1" class="st1" width="3" height="2"/>
<rect x="124.5" y="166.1" class="st1" width="3" height="2"/>
<rect x="205.5" y="166.1" class="st1" width="3" height="2"/>
<rect x="214.5" y="166.1" class="st1" width="3" height="2"/>
<rect x="169.5" y="166.1" class="st1" width="3" height="2"/>
<rect x="196.5" y="166.1" class="st1" width="3" height="2"/>
<rect x="187.5" y="166.1" class="st1" width="3" height="2"/>
<path class="st0" d="M366.8,422.7h-2.7c-3.9,0-7.1-3.1-7.1-7c0,0,0,0,0,0v-75.1h-2.7l-11.1-18.7l6.4-19h7v13.9l4.5,7.6h8.6l4.5-7.6
	v-13.9h7l6.4,19l-11.1,18.7h-2.6v75.2C373.9,419.6,370.7,422.7,366.8,422.7C366.8,422.7,366.8,422.7,366.8,422.7z M355.9,337.5h4
	v78.2c0,2.2,1.8,4,4,4c0,0,0.1,0,0.1,0h2.7c2.2,0.1,4.1-1.7,4.1-3.9c0,0,0-0.1,0-0.1v-78.2h4l9.5-16l-5.3-15.7h-1.9v11.8l-5.8,9.8
	h-12l-5.8-9.8v-11.8h-1.9l-5.3,15.7L355.9,337.5z"/>
<path class="st1" d="M403.9,369.1v-51.5l0.6-3.5c0.6-3.3,0.5-6.7-0.3-10l-0.2-0.8l-1.7-0.5h-3.8l-2,0.4l-0.2,0.9
	c-0.7,3.3-0.8,6.8-0.2,10.2l0.6,3.4v51.5c-2.9,0.9-5,3.6-5,6.6v40.7c0,3.9,3.2,7,7,7c0,0,0.1,0,0.1,0h2.9c3.9,0.1,7.1-3,7.1-6.9
	c0,0,0,0,0-0.1v-40.7C408.8,372.6,406.8,369.9,403.9,369.1z M399.7,318.9h1.2v49.9h-1.2V318.9z M399,305.6h2.5
	c0.5,2.6,0.5,5.3,0,7.9l-0.4,2.4h-1.7l-0.4-2.2C398.5,311,398.5,308.3,399,305.6z M405.8,416.4c0,2.2-1.8,4-4,4c0,0,0,0-0.1,0h-2.9
	c-2.2,0.1-4.1-1.7-4.1-3.9c0,0,0-0.1,0-0.1v-40.7c0-2.1,1.6-3.8,3.7-3.9h0.5h2.9c2.2,0,4,1.7,4.1,4V416.4z"/>
</svg>
