<?xml version="1.0" encoding="utf-8"?>
<!-- Generator: Adobe Illustrator 24.3.0, SVG Export Plug-In . SVG Version: 6.00 Build 0)  -->
<svg version="1.1" id="Laag_1" xmlns="http://www.w3.org/2000/svg" xmlns:xlink="http://www.w3.org/1999/xlink" x="0px" y="0px"
	 viewBox="0 0 566.9 566.9" style="enable-background:new 0 0 566.9 566.9;" xml:space="preserve">
<style type="text/css">
	.st0{fill:#FF5429;}
	.st1{fill:#6B6B7F;}
</style>
<path class="st0" d="M263.1,286.7v-79.9l61.5,39.2L263.1,286.7z M266.1,212.3v68.8l53-35.1L266.1,212.3z"/>
<path class="st1" d="M438.8,146.8H128.1c-7.1,0-12.8,5.8-12.8,12.8v172.7c0,7.1,5.8,12.8,12.8,12.8h127.2l-4.1,52.9h-16.2
	c-5.6,0-10.2,4.6-10.2,10.2v3h117.2v-3c0-5.6-4.6-10.2-10.2-10.2H317l-4.1-52.9h125.9c7.1,0,12.8-5.8,12.8-12.8V159.6
	C451.7,152.5,445.9,146.8,438.8,146.8z M317.3,401.1h14.6c4,0,7.2,3.2,7.2,7.2l0,0H227.9l0,0c0-4,3.2-7.2,7.2-7.2H317.3z M314,398.1
	h-59.8l4.1-52.9h51.5L314,398.1z M448.7,332.3c0,5.4-4.4,9.8-9.8,9.8H128.1c-5.4,0-9.8-4.4-9.8-9.8V159.6c0-5.4,4.4-9.8,9.8-9.8
	h310.7c5.4,0,9.8,4.4,9.8,9.8V332.3z"/>
<path class="st1" d="M130.6,331.6h305.7V160.3H130.6V331.6z M133.6,163.3h299.7v165.3H133.6V163.3z"/>
<rect x="155.7" y="120.7" class="st1" width="2" height="3"/>
<rect x="155.7" y="111.7" class="st1" width="2" height="3"/>
<rect x="155.7" y="93.7" class="st1" width="2" height="3"/>
<rect x="155.7" y="84.7" class="st1" width="2" height="3"/>
<rect x="155.7" y="138.7" class="st1" width="2" height="3"/>
<rect x="155.7" y="102.7" class="st1" width="2" height="3"/>
<rect x="155.7" y="129.7" class="st1" width="2" height="3"/>
<rect x="361.8" y="370.1" class="st1" width="3" height="2"/>
<rect x="388.8" y="370.1" class="st1" width="3" height="2"/>
<rect x="370.8" y="370.1" class="st1" width="3" height="2"/>
<rect x="343.8" y="370.1" class="st1" width="3" height="2"/>
<rect x="352.8" y="370.1" class="st1" width="3" height="2"/>
<rect x="325.8" y="370.1" class="st1" width="3" height="2"/>
<rect x="397.8" y="370.1" class="st1" width="3" height="2"/>
<rect x="316.8" y="370.1" class="st1" width="3" height="2"/>
<rect x="379.8" y="370.1" class="st1" width="3" height="2"/>
<rect x="334.8" y="370.1" class="st1" width="3" height="2"/>
<rect x="375.4" y="383" class="st1" width="2" height="3"/>
<rect x="375.4" y="374" class="st1" width="2" height="3"/>
<rect x="375.4" y="356" class="st1" width="2" height="3"/>
<rect x="375.4" y="365" class="st1" width="2" height="3"/>
<rect x="375.4" y="401" class="st1" width="2" height="3"/>
<rect x="375.4" y="392" class="st1" width="2" height="3"/>
<rect x="375.4" y="347" class="st1" width="2" height="3"/>
<rect x="375.4" y="114.3" class="st1" width="2" height="3"/>
<rect x="375.4" y="123.3" class="st1" width="2" height="3"/>
<rect x="375.4" y="141.3" class="st1" width="2" height="3"/>
<rect x="375.4" y="132.3" class="st1" width="2" height="3"/>
</svg>
