<?xml version="1.0" encoding="utf-8"?>
<!-- Generator: Adobe Illustrator 24.3.0, SVG Export Plug-In . SVG Version: 6.00 Build 0)  -->
<svg version="1.1" id="Laag_1" xmlns="http://www.w3.org/2000/svg" xmlns:xlink="http://www.w3.org/1999/xlink" x="0px" y="0px"
	 viewBox="0 0 566.9 566.9" style="enable-background:new 0 0 566.9 566.9;" xml:space="preserve">
<style type="text/css">
	.st0{fill:#6B6B7F;}
	.st1{fill:#FF5429;}
</style>
<path class="st0" d="M384.6,163.6L384.6,163.6H225.4c-28.9,0-52.4,40.6-52.4,90.4c0,47.9,21.7,87.2,49,90.2l-61.1,61.1h175.3
	l71.3-71.3c16.6-15.2,28-45.3,28-80C435.6,204.9,412.9,164.9,384.6,163.6z M383.1,166.6c0.5,0,1,0,1.5,0
	c26.6,1.4,47.9,40.1,47.9,87.4c0,34.3-11.2,64.1-27.6,78.4c-0.6,0.6-1.3,1.1-1.9,1.6c-0.7,0.6-1.5,1.1-2.2,1.6
	c-4.8,3.4-10.4,5.4-16.2,5.8c-0.5,0-1,0-1.5,0s-1,0-1.5,0c-4.8-0.3-9.4-1.7-13.6-4.1c-0.8-0.4-1.5-0.9-2.3-1.4s-1.3-0.9-2-1.4
	c-17.7-13.3-30.1-44.4-30.1-80.4c0-47.3,21.4-86,47.9-87.4C382.1,166.5,382.6,166.5,383.1,166.6L383.1,166.6z M176,253.9
	c0-48.2,22.2-87.4,49.4-87.4h144.3c-22.4,10.2-39,45.6-39,87.4c0,35.2,11.7,65.8,28.8,80.7c0.6,0.5,1.1,1,1.7,1.4s1.2,1,1.9,1.4
	c2.1,1.5,4.4,2.8,6.7,3.9H225.4C198.1,341.3,176,302.1,176,253.9z M335,402.2H168.2l57.8-57.9h158.6v0c3.7-0.2,7.3-1,10.8-2.5
	L335,402.2z"/>
<path class="st0" d="M381.6,317c0.5,0,1,0.1,1.5,0.1s1,0,1.5-0.1c19.6-1.4,35.3-29.1,35.3-63.1s-15.7-61.7-35.3-63.1
	c-0.5,0-1-0.1-1.5-0.1s-1,0-1.5,0.1c-19.6,1.4-35.3,29.1-35.3,63.1S362,315.6,381.6,317z M381.6,193.9c0.5,0,1-0.1,1.5-0.1
	s1,0,1.5,0.1c17.9,1.4,32.3,27.8,32.3,60.1s-14.4,58.7-32.3,60.1c-0.5,0-1,0.1-1.5,0.1s-1,0-1.5-0.1c-18-1.4-32.3-27.8-32.3-60.1
	S363.7,195.3,381.6,193.9L381.6,193.9z"/>
<path class="st1" d="M381.6,287.7c1,0.1,2,0.1,3,0c10.5-1.3,18.5-15.6,18.5-33.8s-8-32.5-18.5-33.8c-1-0.1-2-0.1-3,0
	c-10.5,1.3-18.5,15.6-18.5,33.8S371.1,286.4,381.6,287.7z M381.6,223.2c0.5-0.1,1-0.1,1.5-0.1c0.5,0,1,0,1.5,0.1
	c8.7,1.4,15.5,14.6,15.5,30.8s-6.9,29.4-15.5,30.7c-0.5,0.1-1,0.1-1.5,0.1c-0.5,0-1,0-1.5-0.1c-8.7-1.4-15.5-14.6-15.5-30.7
	S373,224.6,381.6,223.2L381.6,223.2z"/>
<path class="st0" d="M183.6,316.5h-3v-2h3V316.5z M174.6,316.5h-3v-2h3V316.5z M165.6,316.5h-3v-2h3V316.5z M156.6,316.5h-3v-2h3
	V316.5z M147.6,316.5h-3v-2h3V316.5z M138.6,316.5h-3v-2h3V316.5z M129.6,316.5h-3v-2h3V316.5z M120.6,316.5h-3v-2h3V316.5z
	 M111.6,316.5h-3v-2h3V316.5z M102.6,316.5h-3v-2h3V316.5z"/>
<path class="st0" d="M115.6,348.8h-2v-3h2V348.8z M115.6,339.8h-2v-3h2V339.8z M115.6,330.8h-2v-3h2V330.8z M115.6,321.8h-2v-3h2
	V321.8z M115.6,312.8h-2v-3h2V312.8z M115.6,303.8h-2v-3h2V303.8z M115.6,294.8h-2v-3h2V294.8z M115.6,285.8h-2v-3h2V285.8z
	 M115.6,276.8h-2v-3h2V276.8z M115.6,267.8h-2v-3h2V267.8z M115.6,258.8h-2v-3h2V258.8z M115.6,249.8h-2v-3h2V249.8z"/>
<path class="st0" d="M365.6,158.2h-2v-3h2V158.2z M365.6,149.2h-2v-3h2V149.2z M365.6,140.2h-2v-3h2V140.2z M365.6,131.2h-2v-3h2
	V131.2z M365.6,122.2h-2v-3h2V122.2z M365.6,113.2h-2v-3h2V113.2z M365.6,104.2h-2v-3h2V104.2z M365.6,95.2h-2v-3h2V95.2z"/>
</svg>
