<?xml version="1.0" encoding="utf-8"?>
<!-- Generator: Adobe Illustrator 24.3.0, SVG Export Plug-In . SVG Version: 6.00 Build 0)  -->
<svg version="1.1" id="Laag_1" xmlns="http://www.w3.org/2000/svg" xmlns:xlink="http://www.w3.org/1999/xlink" x="0px" y="0px"
	 viewBox="0 0 566.9 566.9" style="enable-background:new 0 0 566.9 566.9;" xml:space="preserve">
<style type="text/css">
	.st0{fill:#FF5429;}
	.st1{fill:#6B6B7F;}
</style>
<path class="st0" d="M429.2,348.1v3h10v-3H429.2z M404.2,348.1v3h10v-3H404.2z M379.2,348.1v3h10v-3H379.2z M354.2,348.1v3h10v-3
	H354.2z M329.2,348.1v3h10v-3H329.2z M314,351.1h0.1l0,0H314z M229.2,348.1v3h10v-3H229.2z M204.2,348.1v3h10v-3H204.2z
	 M179.2,348.1v3h10v-3H179.2z M154.2,348.1v3h10v-3H154.2z M129.2,348.1v3h10v-3H129.2z M117.7,338.3v-5.6h-3v5.6
	c0,1.7,0.3,3.3,1,4.9l2.8-1.1C118,340.8,117.7,339.6,117.7,338.3z M449,331.8v6.5c0,1-0.2,2-0.5,3l2.9,0.9c0.4-1.3,0.6-2.6,0.6-3.9
	v-6.5H449z M114.7,307.7v10h3v-10H114.7z M449,306.8v10h3v-10H449z M114.7,282.7v10h3v-10H114.7z M449,281.8v10h3v-10H449z
	 M114.7,257.7v10h3v-10H114.7z M449,256.8v10h3v-10H449z M114.7,232.7v10h3v-10H114.7z M449,231.8v10h3v-10H449z M125.2,210.7
	c-3.8,0.7-7,3.1-8.9,6.5l2.6,1.4c1.4-2.6,3.9-4.4,6.8-4.9L125.2,210.7z M440.6,210.6l-0.3,3c2.9,0.3,5.6,1.9,7.1,4.4l2.5-1.6
	C447.8,213.1,444.4,211,440.6,210.6L440.6,210.6z M415.4,210.5v3h10v-3H415.4z M390.4,210.5v3h10v-3H390.4z M365.4,210.5v3h10v-3
	H365.4z M340.4,210.5v3h10v-3H340.4z M315.4,210.5v3h10v-3H315.4z M290.4,210.5v3h10v-3H290.4z M265.4,210.5v3h10v-3H265.4z
	 M240.4,210.5v3h10v-3H240.4z M215.4,210.5v3h10v-3H215.4z M190.4,210.5v3h10v-3H190.4z M165.4,210.5v3h10v-3H165.4z M140.4,210.5v3
	h10v-3H140.4z"/>
<path class="st1" d="M214.1,340.2h-18.8v-8c-2.3-0.4-4.6-1.1-6.8-1.8l-4,6.9l-16.3-9.4l4-6.9c-1.8-1.5-3.5-3.2-5-5l-6.9,4l-9.4-16.3
	l6.9-4c-0.8-2.2-1.4-4.5-1.8-6.8h-8v-18.8h8c0.4-2.3,1.1-4.6,1.8-6.8l-6.9-4l9.4-16.2l6.9,4c1.5-1.8,3.2-3.5,5-5l-4-7l16.3-9.4
	l4,6.9c2.2-0.8,4.5-1.4,6.8-1.8v-8h18.8v8c2.3,0.4,4.6,1.1,6.8,1.8l4-6.9l16.3,9.4l-4,7c1.8,1.5,3.5,3.2,5,5l6.9-4l9.4,16.3l-6.9,4
	c0.8,2.2,1.4,4.5,1.8,6.8h8v18.8h-8c-0.4,2.3-1.1,4.6-1.8,6.8l6.9,4l-9.4,16.3l-6.9-4c-1.5,1.8-3.2,3.5-5,5l4,7l-16.3,9.4l-4-6.9
	c-2.2,0.8-4.5,1.4-6.8,1.8L214.1,340.2z M198.3,337.2h12.8v-7.5l1.3-0.2c3-0.5,5.9-1.3,8.7-2.3l1.2-0.5l3.8,6.5l11.1-6.4l-3.8-6.5
	l1-0.8c2.3-1.9,4.5-4.1,6.4-6.4l0.8-1l6.5,3.8l6.4-11.1l-6.5-3.8l0.4-1.2c1.1-2.8,1.8-5.8,2.3-8.7l0.2-1.2h7.6v-12.8h-7.6l-0.2-1.3
	c-0.5-3-1.3-5.9-2.3-8.7l-0.4-1.2l6.5-3.8l-6.4-11.1l-6.5,3.8l-0.8-1c-1.9-2.3-4.1-4.5-6.4-6.4l-1-0.8l3.8-6.5l-11-6.4l-3.8,6.5
	l-1.2-0.4c-2.8-1.1-5.8-1.8-8.7-2.3l-1.3-0.2v-7.6h-12.8v7.6l-1.2,0.2c-3,0.5-5.9,1.3-8.7,2.3l-1.2,0.4l-3.8-6.5l-11.1,6.4l3.8,6.5
	l-1,0.8c-2.3,1.9-4.5,4.1-6.4,6.4l-0.8,1l-6.5-3.8l-6.4,11.1l6.5,3.8l-0.4,1.2c-1.1,2.8-1.8,5.7-2.3,8.7l-0.2,1.3h-7.6v12.8h7.6
	l0.2,1.2c0.5,3,1.3,5.9,2.3,8.7l0.4,1.2l-6.5,3.8l6.4,11.1l6.5-3.8l0.8,1c1.9,2.3,4.1,4.5,6.4,6.4l1,0.8l-3.8,6.5l11.1,6.4l3.8-6.5
	l1.2,0.5c2.8,1.1,5.8,1.8,8.7,2.3l1.2,0.2V337.2z"/>
<path class="st1" d="M204.7,318.6c-19.4,0-35.2-15.8-35.2-35.2c0-19.4,15.8-35.2,35.2-35.2c19.4,0,35.2,15.8,35.2,35.2
	C239.8,302.9,224.1,318.6,204.7,318.6z M204.7,251.3c-17.8,0-32.2,14.4-32.2,32.2c0,17.8,14.4,32.2,32.2,32.2
	c17.8,0,32.2-14.4,32.2-32.2C236.8,265.7,222.4,251.3,204.7,251.3L204.7,251.3z"/>
<path class="st1" d="M371.6,340.2h-18.8v-8c-2.3-0.4-4.6-1.1-6.8-1.8l-4,6.9l-16.3-9.4l4-6.9c-1.8-1.5-3.5-3.2-5-5l-6.9,4l-9.4-16.3
	l6.9-4c-0.8-2.2-1.4-4.5-1.8-6.8h-8v-18.8h8c0.4-2.3,1.1-4.6,1.8-6.8l-6.9-4l9.4-16.2l6.9,4c1.5-1.8,3.2-3.5,5-5l-4-7l16.2-9.4
	l4,6.9c2.2-0.8,4.5-1.4,6.8-1.8v-8h18.8v8c2.3,0.4,4.6,1.1,6.8,1.8l4-6.9l16.3,9.4l-4,7c1.8,1.5,3.5,3.2,5,5l6.9-4l9.4,16.3l-6.9,4
	c0.8,2.2,1.4,4.5,1.8,6.8h8v18.8h-8c-0.4,2.3-1.1,4.6-1.8,6.8l6.9,4l-9.4,16.3l-6.9-4c-1.5,1.8-3.2,3.5-5,5l4,6.9l-16.3,9.4l-4-6.9
	c-2.2,0.8-4.5,1.4-6.8,1.8L371.6,340.2z M355.9,337.2h12.8v-7.5l1.2-0.2c3-0.5,5.9-1.3,8.7-2.3l1.2-0.5l3.8,6.5l11.1-6.4l-3.8-6.5
	l1-0.8c2.3-1.9,4.5-4.1,6.4-6.4l0.8-1l6.5,3.8l6.4-11.1l-6.5-3.8l0.4-1.2c1.1-2.8,1.8-5.8,2.3-8.7l0.2-1.2h7.6v-12.8h-7.5l-0.2-1.3
	c-0.5-3-1.3-5.9-2.3-8.7l-0.4-1.2l6.5-3.8l-6.4-11.1l-6.5,3.8l-0.8-1c-1.9-2.3-4.1-4.5-6.4-6.4l-1-0.8l3.8-6.5l-11.1-6.4l-3.8,6.5
	l-1.2-0.4c-2.8-1.1-5.8-1.8-8.7-2.3l-1.2-0.2v-7.6h-12.8v7.6l-1.2,0.2c-3,0.5-5.9,1.3-8.7,2.3l-1.2,0.4l-3.8-6.5l-11.1,6.4l3.8,6.5
	l-1,0.8c-2.3,1.9-4.5,4.1-6.4,6.4l-0.8,1l-6.5-3.8l-6.4,11.1l6.5,3.8l-0.4,1.2c-1.1,2.8-1.8,5.7-2.3,8.7l-0.2,1.3h-7.5v12.8h7.5
	l0.2,1.2c0.5,3,1.3,5.9,2.3,8.7l0.4,1.2l-6.5,3.8l6.4,11.1l6.5-3.8l0.8,1c1.9,2.3,4.1,4.5,6.4,6.4l1,0.8l-3.8,6.5l11.1,6.4l3.8-6.5
	l1.2,0.5c2.8,1.1,5.8,1.8,8.7,2.3l1.2,0.2V337.2z"/>
<path class="st1" d="M362.2,318.6c-19.4,0-35.2-15.8-35.2-35.2s15.8-35.2,35.2-35.2c19.4,0,35.2,15.8,35.2,35.2
	C397.4,302.9,381.7,318.6,362.2,318.6z M362.2,251.3c-17.8,0-32.2,14.4-32.2,32.2s14.4,32.2,32.2,32.2c17.8,0,32.2-14.4,32.2-32.2
	C394.4,265.7,380,251.3,362.2,251.3L362.2,251.3z"/>
<path class="st1" d="M452.1,199.9H116.6c-7.1,0-12.8,5.8-12.8,12.8V349c0,7.1,5.7,12.8,12.8,12.8h129.5l0.5,1.7l1.5,5.5l0.8,2.9
	l2.9-0.8l3.4-0.9c0.7,1.4,1.5,2.8,2.4,4.1l-2.4,2.5L253,379l2.1,2.1l4,4l2.1,2.1l2.1-2.1l2.5-2.5c1.3,0.9,2.7,1.7,4.1,2.4l-0.9,3.4
	l-0.8,2.9l2.9,0.8l5.5,1.5l2.9,0.8l0.8-2.9l0.9-3.4c0.8,0,1.5,0.1,2.3,0.1c0.6,0,1.1,0,1.7,0h0.8l0.9,3.4l0.8,2.9l2.9-0.8l5.5-1.5
	l2.9-0.8l-0.8-2.9l-0.9-3.4c1.4-0.7,2.8-1.5,4.1-2.4l2.5,2.5l2.1,2l2.1-2.1l4-4l2.1-2.1l-2.2-2.1l-2.5-2.5c0.9-1.3,1.7-2.7,2.4-4.1
	l3.4,0.9l2.9,0.8l0.8-2.9l1.5-5.5l0.4-1.4h131.4c7.1,0,12.8-5.8,12.8-12.9l0,0V212.7C464.9,205.6,459.2,199.9,452.1,199.9z
	 M317.5,362.5l-1.4,5.5l-5.9-1.5c-1.1,2.9-2.6,5.6-4.6,8l4.3,4.3l-4,4l-4.3-4.3c-2.4,2-5.1,3.5-8,4.6l1.6,5.9l-5.5,1.5l-1.6-5.9
	c-1,0.2-2.1,0.3-3.2,0.4c-0.5,0-1,0-1.6,0c-1.5,0-3-0.1-4.5-0.4l-1.5,5.9l-5.5-1.5l1.5-5.9c-2.9-1.1-5.6-2.6-8-4.6l-4.3,4.3l-4-4
	l4.3-4.3c-2-2.4-3.5-5.1-4.6-8l-5.9,1.6l-1.5-5.5l3.4-0.9l2.4-0.7c-0.1-0.8-0.2-1.5-0.3-2.3c0-0.3,0-0.5-0.1-0.8
	c-0.1-2,0-4.1,0.3-6.1l-5.9-1.5l1.4-5.5l5.9,1.5c1.1-2.9,2.6-5.6,4.6-8l-4.3-4.2l4-4l4.3,4.3c2.4-2,5.1-3.5,8-4.6l-1.6-5.9l5.5-1.5
	l1.6,5.9c1-0.2,2.1-0.3,3.2-0.4c0.5,0,1,0,1.5,0c1.5,0,3,0.1,4.5,0.4l1.5-5.9l5.5,1.4l-1.5,5.9c2.9,1.1,5.6,2.6,8,4.6l4.3-4.3l4,4
	l-4.3,4.3c2,2.4,3.5,5.1,4.6,8l5.9-1.6l1.5,5.5l-3.3,0.9H314l-2.4,0.7c0.2,1,0.3,2.1,0.4,3.2c0.1,1.3,0.1,2.6,0,3.9
	c-0.1,0.7-0.1,1.4-0.3,2.1l3.3,0.9L317.5,362.5z M461.9,349c0,5.4-4.4,9.8-9.8,9.8H315.4l-0.5-0.1c0.1-1.3,0.1-2.7,0-4
	c0-0.3,0-0.5,0-0.8l3.4-0.9l2.9-0.8l-0.8-2.9l-1.5-5.5L318,341l-2.9,0.8l-3.4,0.9c-0.7-1.4-1.5-2.8-2.4-4.1l2.5-2.5l2.2-2.1
	l-2.1-2.1l-4-4l-2.1-2.1l-2.1,2.1l-2.5,2.5c-1.3-0.9-2.7-1.7-4.2-2.4l0.9-3.4l0.8-2.9l-2.9-0.8l-5.5-1.4l-2.9-0.8l-0.8,2.9l-0.9,3.4
	c-0.8,0-1.5-0.1-2.3-0.1c-0.6,0-1.1,0-1.7,0l-0.8,0l-0.9-3.4l-0.8-2.9l-2.9,0.8l-5.5,1.5l-2.9,0.8l0.8,2.9l0.9,3.4
	c-1.4,0.7-2.8,1.5-4.1,2.4l-2.5-2.5l-2.1-2l-2.1,2.1l-4,4l-2.1,2.1l2.1,2.1l2.5,2.5c-0.9,1.3-1.7,2.7-2.4,4.2l-3.4-0.9l-2.9-0.8
	l-0.8,2.9l-1.4,5.5l-0.8,2.9l2.9,0.8l3.4,0.9c-0.1,1.3-0.1,2.7,0,4c0,0.2,0,0.4,0,0.7H116.6c-5.4,0-9.8-4.4-9.8-9.8V212.7
	c0-5.4,4.4-9.8,9.8-9.8h335.5c5.4,0,9.8,4.4,9.8,9.8V349z"/>
<path class="st1" d="M297.6,342.4c-7.8-7.8-20.5-7.7-28.3,0.1c-3.7,3.7-5.8,8.8-5.8,14c0,0.8,0,1.6,0.1,2.4c0.1,1,0.3,2,0.6,3
	c2.4,8.6,10.3,14.6,19.2,14.6c5.3,0,10.4-2.1,14.1-5.8c2.4-2.4,4.2-5.4,5.1-8.8c0.3-1,0.5-2,0.6-3
	C304,352.8,301.9,346.7,297.6,342.4z M299.6,361.9c-0.8,2.5-2.2,4.8-4.1,6.6c-6.6,6.6-17.4,6.6-24,0c-2.6-2.6-4.3-6-4.8-9.6
	c-0.1-0.8-0.2-1.6-0.2-2.4c-0.2-9.4,7.3-17.1,16.7-17.3c9.4-0.2,17.1,7.3,17.3,16.7c0,1-0.1,2-0.2,3
	C300.1,359.9,299.9,360.9,299.6,361.9L299.6,361.9z"/>
<path class="st1" d="M406.7,196.6h-2v-3h2V196.6z M406.7,187.6h-2v-3h2V187.6z M406.7,178.6h-2v-3h2V178.6z M406.7,169.6h-2v-3h2
	V169.6z M406.7,160.6h-2v-3h2V160.6z M406.7,151.6h-2v-3h2V151.6z M406.7,142.6h-2v-3h2V142.6z M406.7,133.6h-2v-3h2V133.6z
	 M406.7,124.6h-2v-3h2V124.6z M406.7,115.6h-2v-3h2V115.6z M406.7,106.6h-2v-3h2V106.6z M406.7,97.6h-2v-3h2V97.6z"/>
<path class="st1" d="M438.8,164.7h-3v-2h3V164.7z M429.8,164.7h-3v-2h3V164.7z M420.8,164.7h-3v-2h3V164.7z M411.8,164.7h-3v-2h3
	V164.7z M402.8,164.7h-3v-2h3V164.7z M393.8,164.7h-3v-2h3V164.7z M384.8,164.7h-3v-2h3V164.7z M375.8,164.7h-3v-2h3V164.7z
	 M366.8,164.7h-3v-2h3V164.7z M357.8,164.7h-3v-2h3V164.7z M348.8,164.7h-3v-2h3V164.7z M339.8,164.7h-3v-2h3V164.7z M330.8,164.7
	h-3v-2h3V164.7z M321.8,164.7h-3v-2h3V164.7z"/>
<path class="st1" d="M154.7,195.7h-2v-3h2V195.7z M154.7,186.7h-2v-3h2V186.7z M154.7,177.7h-2v-3h2V177.7z M154.7,168.7h-2v-3h2
	V168.7z"/>
<path class="st1" d="M154.7,412.9h-2v-3h2V412.9z M154.7,403.9h-2v-3h2V403.9z M154.7,394.9h-2v-3h2V394.9z M154.7,385.9h-2v-3h2
	V385.9z M154.7,376.9h-2v-3h2V376.9z M154.7,367.9h-2v-3h2V367.9z"/>
</svg>
