<?xml version="1.0" encoding="utf-8"?>
<!-- Generator: Adobe Illustrator 24.3.0, SVG Export Plug-In . SVG Version: 6.00 Build 0)  -->
<svg version="1.1" id="Laag_1" xmlns="http://www.w3.org/2000/svg" xmlns:xlink="http://www.w3.org/1999/xlink" x="0px" y="0px"
	 viewBox="0 0 566.9 566.9" style="enable-background:new 0 0 566.9 566.9;" xml:space="preserve">
<style type="text/css">
	.st0{fill:#6B6B7F;}
	.st1{fill:#FF5429;}
</style>
<path class="st0" d="M345,423.9H223.8c-7.1,0-12.8-5.8-12.8-12.9c0,0,0,0,0,0V157.7c0-7.1,5.8-12.8,12.8-12.8H345
	c7.1,0,12.8,5.7,12.8,12.8V411C357.9,418.1,352.1,423.9,345,423.9C345,423.9,345,423.9,345,423.9z M223.8,147.9
	c-5.4,0-9.8,4.4-9.8,9.8V411c0,5.4,4.4,9.8,9.8,9.8H345c5.4,0,9.8-4.4,9.8-9.8V157.7c0-5.4-4.4-9.8-9.8-9.8L223.8,147.9z"/>
<path class="st0" d="M344.4,417.1H224.3c-3.4,0-6.2-2.8-6.2-6.2v-253c0-3.4,2.8-6.2,6.2-6.2h24.1l5.7,8.7c0.8,1.3,2.3,2.1,3.8,2.1
	h52.9c1.5,0,3-0.8,3.8-2.1l5.7-8.7h24.1c3.4,0,6.2,2.8,6.2,6.2v253C350.6,414.3,347.8,417.1,344.4,417.1z M224.3,154.7
	c-1.8,0-3.2,1.4-3.2,3.2v253c0,1.8,1.4,3.2,3.2,3.2c0,0,0,0,0,0h120.1c1.8,0,3.2-1.4,3.2-3.2v-253c0-1.8-1.4-3.2-3.2-3.2h-22.5
	l-4.8,7.4c-1.4,2.1-3.8,3.4-6.3,3.4h-52.9c-2.6,0-4.9-1.3-6.3-3.4l-4.8-7.4H224.3z"/>
<path class="st1" d="M403.4,334.2l-2.1-2.1c27.5-27.9,28.7-72.3,2.8-101.6l2.2-2C433.2,259,432,305.2,403.4,334.2L403.4,334.2z"/>
<path class="st1" d="M370.9,302.2l-2.1-2.1c10.7-10.8,11.1-28,1.1-39.4l2.2-2C383.2,271.2,382.7,290.2,370.9,302.2L370.9,302.2z"/>
<path class="st1" d="M387.2,318.2l-2.2-2.1c19.1-19.3,20-50.1,2-70.5l2.2-2C408.3,265.1,407.4,297.7,387.2,318.2L387.2,318.2z"/>
<path class="st1" d="M165.3,334.2c-28.6-29-29.8-75.2-2.9-105.7l2.2,2c-25.9,29.3-24.7,73.7,2.8,101.6L165.3,334.2z"/>
<path class="st1" d="M197.8,302.2c-11.8-11.9-12.3-30.9-1.2-43.5l2.2,2c-10,11.4-9.6,28.6,1.1,39.4L197.8,302.2z"/>
<path class="st1" d="M181.6,318.2c-20.2-20.5-21-53.1-2-74.6l2.2,2c-18,20.4-17.1,51.2,1.9,70.5L181.6,318.2z"/>
<path class="st0" d="M452.9,162.4h-2.3v-2h2.3V162.4z M444.6,162.4h-3v-2h3V162.4z M435.6,162.4h-3v-2h3V162.4z M426.6,162.4h-3v-2
	h3V162.4z M417.6,162.4h-3v-2h3V162.4z M408.6,162.4h-3v-2h3V162.4z M399.6,162.4h-3v-2h3V162.4z M390.6,162.4h-3v-2h3V162.4z
	 M381.6,162.4h-3v-2h3V162.4z M372.6,162.4h-3v-2h3V162.4z M363.6,162.4h-3v-2h3V162.4z"/>
<path class="st0" d="M431,212.2h-2v-3h2V212.2z M431,203.2h-2v-3h2V203.2z M431,194.2h-2v-3h2V194.2z M431,185.2h-2v-3h2V185.2z
	 M431,176.2h-2v-3h2V176.2z M431,167.2h-2v-3h2V167.2z M431,158.2h-2v-3h2V158.2z M431,149.2h-2v-3h2V149.2z M431,140.2h-2v-3h2
	V140.2z M431,131.2h-2v-3h2V131.2z"/>
<path class="st0" d="M204.6,403h-3v-2h3V403z M195.6,403h-3v-2h3V403z M186.6,403h-3v-2h3V403z M177.6,403h-3v-2h3V403z M168.6,403
	h-3v-2h3V403z M159.6,403h-3v-2h3V403z M150.6,403h-3v-2h3V403z M141.6,403h-2.5v-2h2.5V403z"/>
<rect x="245.4" y="401.4" class="st0" width="78" height="3"/>
<rect x="260.8" y="154.9" class="st0" width="31.6" height="3"/>
<circle class="st0" cx="306.5" cy="156.5" r="1.5"/>
<circle class="st0" cx="299.5" cy="156.5" r="1.5"/>
</svg>
