<?xml version="1.0" encoding="utf-8"?>
<!-- Generator: Adobe Illustrator 24.3.0, SVG Export Plug-In . SVG Version: 6.00 Build 0)  -->
<svg version="1.1" id="Laag_1" xmlns="http://www.w3.org/2000/svg" xmlns:xlink="http://www.w3.org/1999/xlink" x="0px" y="0px"
	 viewBox="0 0 566.9 566.9" style="enable-background:new 0 0 566.9 566.9;" xml:space="preserve">
<style type="text/css">
	.st0{fill:#6B6B7F;}
	.st1{fill:#FF5429;}
</style>
<path class="st0" d="M396.2,328.2l-2.8-1.2c5.7-13.6,5.7-38.1,5.6-38.4c0-43.5-23.9-83.6-62.2-104.2l1.4-2.6
	C377.5,203,402,244.1,402,288.7C402,289.7,402.1,314,396.2,328.2z"/>
<path class="st0" d="M178.4,229.6l-2.6-1.5c28.8-49.7,88.4-72.5,143-54.5l-0.9,2.9C264.6,158.9,206.4,181.1,178.4,229.6L178.4,229.6
	z"/>
<path class="st0" d="M161.7,307.4c-1.6-12-2.1-18.6-2.1-18.6v-0.1c0-16.7,3.4-33.2,10.1-48.5l2.8,1.2c-6.5,14.9-9.9,31-9.8,47.2
	c0.1,0.6,0.6,7,2.1,18.4L161.7,307.4z"/>
<path class="st0" d="M273.2,408.8l-2.5-1.6c10.9-16.9,17.6-35.4,20.3-56.7l3,0.4C291.2,372.6,284.4,391.6,273.2,408.8z"/>
<path class="st0" d="M295.3,334.1l-3-0.1c0.4-11.1-0.1-21.4-0.5-30.4c-0.3-5.4-0.5-10.5-0.5-14.9c0.2-5.8-4.4-10.6-10.2-10.8
	s-10.6,4.4-10.8,10.2c0,0.2,0,0.4,0,0.6c0,3.8,0.2,7.8,0.3,11.2l-3,0.1c-0.2-3.4-0.4-7.5-0.4-11.3c-0.2-7.4,5.7-13.6,13.1-13.8
	c7.4-0.2,13.6,5.7,13.8,13.1c0,0.2,0,0.5,0,0.7c0,4.3,0.2,9.4,0.5,14.7C295.2,312.5,295.8,322.8,295.3,334.1z"/>
<path class="st0" d="M239.4,401.3l-2.2-2.1c28.6-30,31.8-57.7,31.1-83.2l3-0.1C272.1,342,268.7,370.5,239.4,401.3z"/>
<path class="st0" d="M295.3,408l-2.6-1.4c18-33.2,17.2-77.1,16.7-106.2c-0.1-4.2-0.1-8.2-0.1-11.7c0.1-11.7-7.1-22.3-18.1-26.5
	l1.1-2.8c12.1,4.7,20.1,16.3,20,29.3c0,3.5,0.1,7.4,0.1,11.6C312.9,329.7,313.7,374.1,295.3,408z"/>
<path class="st1" d="M216.4,389.8l-1.6-2.5c36.4-23.9,35.2-72.4,34.8-93.1c-0.1-2.1-0.1-4-0.1-5.5c0.1-13.9,9.2-26.2,22.5-30.1
	l0.9,2.9c-12.1,3.6-20.3,14.7-20.4,27.3c0,1.5,0,3.4,0.1,5.5C253,315.4,254.1,365.1,216.4,389.8z"/>
<path class="st0" d="M317.1,403.5l-2.6-1.4c7.3-13.7,12.1-30.7,14.2-50.5l3,0.3C329.5,372.1,324.6,389.4,317.1,403.5z"/>
<path class="st0" d="M332.9,335.1l-3-0.1c0.5-15.4-0.4-30.8-2.6-46v-0.3c0-25.6-20.7-46.4-46.4-46.4c-20.7,0-38.9,13.7-44.6,33.6
	l-2.9-0.8c7.5-26.2,34.9-41.4,61.1-33.8c21.1,6.1,35.7,25.4,35.8,47.4C332.5,304,333.4,319.5,332.9,335.1z"/>
<path class="st0" d="M200.8,377.4l-2-2.2c33.3-30.8,34.4-67.1,33.3-81.2l3-0.2C236.1,308.3,235.1,345.7,200.8,377.4z"/>
<path class="st1" d="M341.6,392.8l-2.7-1.3c12.2-26.2,9.4-72.7,7.6-91.5l3-0.3C354.7,354.8,346.8,381.7,341.6,392.8z"/>
<path class="st0" d="M344.8,282.1c-3.7-35.4-35.3-61.1-70.7-57.4c-5,0.5-9.9,1.6-14.7,3.3l-1-2.8c35.1-12.3,73.6,6.2,85.9,41.3
	c1.7,5,2.9,10.1,3.4,15.4L344.8,282.1z"/>
<path class="st0" d="M213.2,319.5l-2.9-0.8c2.6-9.4,3.1-18.8,3.1-30.1c0.1-24,12.8-46.2,33.5-58.2l1.5,2.6
	c-19.8,11.6-32,32.7-32,55.7C216.4,298.6,216.1,309.2,213.2,319.5z"/>
<path class="st0" d="M187.7,362.8l-2.3-1.9c9.2-11.1,15.5-20.1,19.7-28.5l2.7,1.3C203.4,342.3,197.1,351.6,187.7,362.8z"/>
<path class="st0" d="M364.4,375.7l-2.9-1c6.8-20.4,1.6-85.3,1.6-85.9v-0.1c-0.1-32.2-18.8-61.5-48.1-74.9l1.2-2.7
	c30.3,13.9,49.8,44.2,49.9,77.6C366.4,292.1,371.3,354.9,364.4,375.7z"/>
<path class="st1" d="M205.3,255.8l-2.8-1.2c17.4-39.8,61.8-60.2,103.4-47.5L305,210C264.9,197.7,222,217.4,205.3,255.8L205.3,255.8z
	"/>
<path class="st0" d="M176.3,345.6l-2-2.3c10.4-9,21.2-31.9,21.2-54.6c0-6.4,0.7-12.8,2.1-19l2.9,0.7c-1.3,6-2,12.2-2,18.4
	C198.5,309.8,188.7,334.8,176.3,345.6z"/>
<path class="st0" d="M383.5,351.9h-3l0.5-63.2c0-15.8-3.7-31.3-10.8-45.3l2.7-1.4c7.4,14.5,11.2,30.5,11.1,46.7L383.5,351.9z"/>
<path class="st0" d="M362.9,231.1c-29.1-41.5-84.6-54.7-129.3-30.9l-1.4-2.6c46.1-24.5,103.2-10.9,133.2,31.8L362.9,231.1z"/>
<path class="st0" d="M168.5,326.2l-2.5-1.6c0.1-0.2,11.6-17.9,11.6-35.9c0.1-33.1,15.9-64.2,42.7-83.6l1.8,2.4
	c-26,18.9-41.4,49.1-41.4,81.2C180.5,307.5,169,325.5,168.5,326.2z"/>
<path class="st0" d="M256.3,401.2l-2.3-1.9c5-6,9.4-12.6,13.1-19.6l2.7,1.4C266,388.3,261.5,395,256.3,401.2z"/>
<path class="st0" d="M275.9,372l-2.8-1c9.6-26.5,7.9-52.9,6.8-70.3c-0.3-4.7-0.6-8.8-0.6-12.1h3c0,3.2,0.2,7.2,0.5,11.9
	C284,318.2,285.7,344.9,275.9,372z"/>
<path class="st0" d="M445,195.3h-3v-2h3V195.3z M436,195.3h-3v-2h3V195.3z M427,195.3h-3v-2h3V195.3z M418,195.3h-3v-2h3V195.3z
	 M409,195.3h-3v-2h3V195.3z M400,195.3h-3v-2h3V195.3z M391,195.3h-3v-2h3V195.3z M382,195.3h-3v-2h3V195.3z M373,195.3h-3v-2h3
	V195.3z M364,195.3h-3v-2h3V195.3z"/>
<path class="st0" d="M422.1,254h-2v-3h2V254z M422.1,245h-2v-3h2V245z M422.1,236h-2v-3h2V236z M422.1,227h-2v-3h2V227z M422.1,218
	h-2v-3h2V218z M422.1,209h-2v-3h2V209z M422.1,200h-2v-3h2V200z M422.1,191h-2v-3h2V191z M422.1,182h-2v-3h2V182z M422.1,173h-2v-3
	h2V173z M422.1,164h-2v-3h2V164z M422.1,155h-2v-3h2V155z M422.1,146h-2v-3h2V146z"/>
<path class="st0" d="M193.3,378.3h-3v-2h3V378.3z M184.3,378.3h-3v-2h3V378.3z M175.3,378.3h-3v-2h3V378.3z M166.3,378.3h-3v-2h3
	V378.3z M157.3,378.3h-3v-2h3V378.3z M148.3,378.3h-3v-2h3V378.3z M139.3,378.3h-3v-2h3V378.3z"/>
<path class="st0" d="M159.2,261.5h-2v-3h2V261.5z M159.2,252.5h-2v-3h2V252.5z M159.2,243.5h-2v-3h2V243.5z M159.2,234.5h-2v-3h2
	V234.5z M159.2,225.5h-2v-3h2V225.5z M159.2,216.5h-2v-3h2V216.5z M159.2,207.5h-2v-3h2V207.5z M159.2,198.5h-2v-3h2V198.5z
	 M159.2,189.5h-2v-3h2V189.5z M159.2,180.5h-2v-3h2V180.5z M159.2,171.5h-2v-3h2V171.5z"/>
</svg>
