<?xml version="1.0" encoding="utf-8"?>
<!-- Generator: Adobe Illustrator 24.3.0, SVG Export Plug-In . SVG Version: 6.00 Build 0)  -->
<svg version="1.1" id="Laag_1" xmlns="http://www.w3.org/2000/svg" xmlns:xlink="http://www.w3.org/1999/xlink" x="0px" y="0px"
	 viewBox="0 0 566.9 566.9" style="enable-background:new 0 0 566.9 566.9;" xml:space="preserve">
<style type="text/css">
	.st0{fill:#6B6B7F;}
	.st1{fill:#FF5429;}
</style>
<path class="st0" d="M291.4,169.5c-1.5,0.9-3.5,0.3-4.3-1.2s-0.3-3.5,1.2-4.3c1.5-0.9,3.5-0.4,4.3,1.2
	C293.4,166.7,292.9,168.7,291.4,169.5z"/>
<path class="st0" d="M430.6,246.2c0,1.8-1.4,3.2-3.2,3.2s-3.2-1.4-3.2-3.2c0-1.8,1.4-3.2,3.2-3.2l0,0
	C429.1,243.1,430.6,244.5,430.6,246.2z"/>
<path class="st0" d="M416.7,203.1c-1.5,0.9-3.5,0.3-4.3-1.2c-0.9-1.5-0.3-3.5,1.2-4.3c1.5-0.9,3.4-0.3,4.3,1.2
	C418.7,200.3,418.2,202.2,416.7,203.1C416.7,203.1,416.7,203.1,416.7,203.1z"/>
<path class="st0" d="M384.3,168.4c-0.9,1.5-2.8,2-4.3,1.1c-1.5-0.9-2-2.8-1.1-4.3c0.9-1.5,2.8-2,4.3-1.2
	C384.6,164.9,385.1,166.8,384.3,168.4C384.3,168.3,384.3,168.4,384.3,168.4z"/>
<path class="st0" d="M335.6,157.7c-1.8,0-3.2-1.4-3.2-3.2c0-1.8,1.4-3.2,3.2-3.2c1.8,0,3.2,1.4,3.2,3.2v0
	C338.8,156.2,337.4,157.7,335.6,157.7z"/>
<path class="st0" d="M338.8,154.5c0,1.8-1.4,3.2-3.2,3.2s-3.2-1.4-3.2-3.2c0-1.8,1.4-3.2,3.2-3.2l0,0
	C337.4,151.3,338.8,152.7,338.8,154.5z"/>
<path class="st0" d="M379.9,322.9c1.5-0.9,3.5-0.3,4.3,1.2c0.9,1.5,0.3,3.5-1.2,4.3c-1.5,0.9-3.5,0.4-4.3-1.2
	C377.9,325.8,378.4,323.8,379.9,322.9z"/>
<path class="st0" d="M408.1,292.1c0.9-1.5,2.8-2,4.3-1.2c0.7,0.4,1.3,1.1,1.5,1.9c0.2,0.8,0.1,1.7-0.3,2.4c-0.6,1-1.6,1.6-2.8,1.6
	c-0.6,0-1.1-0.1-1.6-0.4c-0.7-0.4-1.3-1.1-1.5-1.9C407.6,293.8,407.7,292.9,408.1,292.1z"/>
<path class="st0" d="M408.1,292.1c0.9-1.5,2.8-2,4.3-1.2c0.7,0.4,1.3,1.1,1.5,1.9c0.2,0.8,0.1,1.7-0.3,2.4c-0.6,1-1.6,1.6-2.8,1.6
	c-0.6,0-1.1-0.1-1.6-0.4c-0.7-0.4-1.3-1.1-1.5-1.9C407.6,293.8,407.7,292.9,408.1,292.1z"/>
<path class="st0" d="M427.4,243.1c1.8,0,3.2,1.4,3.2,3.2c0,1.8-1.4,3.2-3.2,3.2c-1.8,0-3.2-1.4-3.2-3.2v0
	C424.2,244.5,425.6,243.1,427.4,243.1z"/>
<polygon class="st0" points="396.4,269.5 333.8,248.8 346.8,196.8 349.7,197.5 337.4,246.8 397.4,266.7 "/>
<path class="st0" d="M263.4,197.9c-0.2-0.8-0.7-1.5-1.4-1.9c-0.2-0.1-0.4-0.2-0.6-0.2l2.1,3.5C263.6,198.8,263.6,198.3,263.4,197.9z
	"/>
<path class="st0" d="M461.8,247.8c0-68.9-55.9-124.8-124.8-124.8c-34.8,0-68,14.5-91.6,40l-5.1-8.5c-2.3-3.9-6.5-6.3-11-6.3h-0.1
	c-4.5,0-8.6,2.3-10.9,6.1L68.6,399c-3.7,6-1.8,14,4.3,17.7c2,1.2,4.4,1.9,6.7,1.9h295.2c7.1,0,12.8-5.8,12.8-12.9
	c0-2.3-0.6-4.5-1.8-6.5l-18-30.4C423,354.6,461.7,304.8,461.8,247.8z M383.2,400.7c2.8,4.7,1.2,10.7-3.4,13.5
	c-1.5,0.9-3.3,1.4-5,1.4H79.5c-5.4,0-9.8-4.4-9.9-9.8c0-1.8,0.5-3.6,1.5-5.2l149.8-244.7c1.8-2.9,5-4.7,8.4-4.7h0.1
	c3.5,0,6.6,1.8,8.4,4.8l5.5,9.3l1.6,2.7l16.5,27.7c0.2,0.1,0.4,0.1,0.6,0.2c1.2,0.7,1.8,2,1.5,3.3l99.6,167.5l1.6,2.7L383.2,400.7z
	 M366.2,366.1L247,165.6c45.4-49.7,122.4-53.1,172.1-7.8s53.1,122.4,7.8,172.1C410.6,347.7,389.5,360.3,366.2,366.1z"/>
<path class="st0" d="M367,401.4H86.9L229,169.3L367,401.4z M92.2,398.4h269.5L229,175.1L92.2,398.4z"/>
<path class="st0" d="M228.5,386c-8.5,0-15.5-6.9-15.5-15.5c0-8.5,6.9-15.5,15.5-15.5c8.5,0,15.5,6.9,15.5,15.5c0,0,0,0,0,0
	C244,379.1,237.1,386,228.5,386z M228.5,358.1c-6.9,0-12.5,5.6-12.5,12.5c0,6.9,5.6,12.5,12.5,12.5c6.9,0,12.5-5.6,12.5-12.5
	C241,363.7,235.4,358.1,228.5,358.1L228.5,358.1z"/>
<polygon class="st1" points="499.7,351.8 489.3,364.3 478.7,351.6 487.7,351.7 487.7,246.2 490.7,246.2 490.7,351.7 "/>
<path class="st0" d="M215.6,161.7h-3v-2h3V161.7z M206.6,161.7h-3v-2h3V161.7z M197.6,161.7h-3v-2h3V161.7z M188.6,161.7h-3v-2h3
	V161.7z M179.6,161.7h-3v-2h3V161.7z M170.6,161.7h-3v-2h3V161.7z M161.6,161.7h-3v-2h3V161.7z M152.6,161.7h-3v-2h3V161.7z
	 M143.6,161.7h-3v-2h3V161.7z M134.6,161.7h-3v-2h3V161.7z M125.6,161.7h-3v-2h3V161.7z M116.6,161.7h-3v-2h3V161.7z M107.6,161.7
	h-3v-2h3V161.7z M98.6,161.7h-3v-2h3V161.7z M89.6,161.7h-3v-2h3V161.7z"/>
<path class="st0" d="M120.6,310.5h-2v-3h2V310.5z M120.6,301.5h-2v-3h2V301.5z M120.6,292.5h-2v-3h2V292.5z M120.6,283.5h-2v-3h2
	V283.5z M120.6,274.5h-2v-3h2V274.5z M120.6,265.5h-2v-3h2V265.5z M120.6,256.5h-2v-3h2V256.5z M120.6,247.5h-2v-3h2V247.5z
	 M120.6,238.5h-2v-3h2V238.5z M120.6,229.5h-2v-3h2V229.5z M120.6,220.5h-2v-3h2V220.5z M120.6,211.5h-2v-3h2V211.5z M120.6,202.5
	h-2v-3h2V202.5z M120.6,193.5h-2v-3h2V193.5z M120.6,184.5h-2v-3h2V184.5z M120.6,175.5h-2v-3h2V175.5z M120.6,166.5h-2v-3h2V166.5z
	 M120.6,157.5h-2v-3h2V157.5z M120.6,148.5h-2v-3h2V148.5z M120.6,139.5h-2v-3h2V139.5z M120.6,130.5h-2v-3h2V130.5z"/>
<path class="st0" d="M448.8,389.6h-3v-2h3V389.6z M439.8,389.6h-3v-2h3V389.6z M430.8,389.6h-3v-2h3V389.6z M421.8,389.6h-3v-2h3
	V389.6z M412.8,389.6h-3v-2h3V389.6z M403.8,389.6h-3v-2h3V389.6z M394.8,389.6h-3v-2h3V389.6z M385.8,389.6h-3v-2h3V389.6z"/>
<path class="st0" d="M238,348.9h-18.9L211.9,229h33.2L238,348.9z M222,345.9h13.2L242,232h-26.9L222,345.9z"/>
</svg>
