<?xml version="1.0" encoding="utf-8"?>
<!-- Generator: Adobe Illustrator 24.3.0, SVG Export Plug-In . SVG Version: 6.00 Build 0)  -->
<svg version="1.1" id="Laag_1" xmlns="http://www.w3.org/2000/svg" xmlns:xlink="http://www.w3.org/1999/xlink" x="0px" y="0px"
	 viewBox="0 0 566.9 566.9" style="enable-background:new 0 0 566.9 566.9;" xml:space="preserve">
<style type="text/css">
	.st0{fill:#6B6B7F;}
	.st1{fill:#FF5429;}
</style>
<polygon class="st0" points="440.5,245.2 437.5,245.2 437.5,169.2 361.5,169.2 361.5,166.2 440.5,166.2 "/>
<polygon class="st0" points="136.3,245.2 133.3,245.2 133.3,166.2 212.2,166.2 212.2,169.2 136.3,169.2 "/>
<polygon class="st0" points="440.5,393.8 361.5,393.8 361.5,390.8 437.5,390.8 437.5,314.8 440.5,314.8 "/>
<polygon class="st0" points="212.2,393.8 133.3,393.8 133.3,314.8 136.3,314.8 136.3,390.8 212.2,390.8 "/>
<path class="st0" d="M283.5,245.4c-7,0-12.7-5.7-12.7-12.7s5.7-12.7,12.7-12.7c7,0,12.7,5.7,12.7,12.7
	C296.1,239.7,290.4,245.4,283.5,245.4z M283.5,223c-5.3,0-9.7,4.3-9.7,9.7s4.3,9.7,9.7,9.7c5.3,0,9.7-4.3,9.7-9.7
	C293.1,227.4,288.8,223,283.5,223C283.5,223,283.5,223,283.5,223L283.5,223z"/>
<path class="st0" d="M283.5,349.9c-7,0-12.7-5.7-12.7-12.7c0-7,5.7-12.7,12.7-12.7c7,0,12.7,5.7,12.7,12.7c0,0,0,0,0,0
	C296.1,344.2,290.4,349.9,283.5,349.9z M283.5,327.5c-5.3,0-9.7,4.3-9.7,9.7c0,5.3,4.3,9.7,9.7,9.7c5.3,0,9.7-4.3,9.7-9.7
	c0,0,0,0,0,0C293.1,331.9,288.8,327.5,283.5,327.5z"/>
<path class="st0" d="M246.5,260.7c-7,0-12.7-5.7-12.6-12.7c0-7,5.7-12.7,12.7-12.6s12.7,5.7,12.6,12.7c0,3.3-1.3,6.6-3.7,8.9
	C253.1,259.4,249.9,260.7,246.5,260.7z M246.5,238.3c-5.3,0-9.7,4.3-9.7,9.7s4.3,9.7,9.7,9.7s9.7-4.3,9.7-9.7c0-2.6-1-5-2.8-6.8
	C251.5,239.4,249.1,238.3,246.5,238.3z"/>
<path class="st0" d="M320.4,334.6c-7,0-12.7-5.7-12.6-12.7c0-7,5.7-12.7,12.7-12.6c7,0,12.7,5.7,12.6,12.7c0,3.3-1.3,6.6-3.7,8.9
	C327,333.2,323.8,334.6,320.4,334.6z M320.4,312.2c-5.3,0-9.7,4.3-9.6,9.7c0,5.3,4.3,9.7,9.7,9.6c5.3,0,9.7-4.3,9.6-9.7
	c0-2.6-1-5-2.8-6.8C325.4,313.2,323,312.2,320.4,312.2L320.4,312.2z"/>
<path class="st0" d="M231.2,297.6c-7,0-12.7-5.7-12.7-12.7c0-7,5.7-12.7,12.7-12.7s12.7,5.7,12.7,12.7c0,0,0,0,0,0
	C243.8,292,238.2,297.6,231.2,297.6z M231.2,275.3c-5.3,0-9.7,4.3-9.7,9.7c0,5.3,4.3,9.7,9.7,9.7s9.7-4.3,9.7-9.7
	C240.9,279.6,236.5,275.3,231.2,275.3z"/>
<path class="st0" d="M335.7,297.6c-7,0-12.7-5.7-12.7-12.7s5.7-12.7,12.7-12.7s12.7,5.7,12.7,12.7c0,0,0,0,0,0
	C348.3,292,342.7,297.6,335.7,297.6z M335.7,275.3c-5.3,0-9.7,4.3-9.7,9.7s4.3,9.7,9.7,9.7c5.3,0,9.7-4.3,9.7-9.7
	C345.4,279.6,341,275.3,335.7,275.3z"/>
<path class="st0" d="M246.5,334.6c-7,0-12.7-5.7-12.6-12.7s5.7-12.7,12.7-12.6c7,0,12.7,5.7,12.6,12.7c0,3.3-1.3,6.6-3.7,8.9
	C253.1,333.2,249.9,334.6,246.5,334.6z M246.5,312.2c-5.3,0-9.7,4.3-9.7,9.7c0,5.3,4.3,9.7,9.7,9.7c5.3,0,9.7-4.3,9.7-9.7
	c0-2.6-1-5-2.8-6.8C251.5,313.3,249.1,312.2,246.5,312.2L246.5,312.2z"/>
<path class="st1" d="M320.4,260.7c-7,0-12.7-5.6-12.7-12.6c0-3.4,1.3-6.6,3.7-9l0,0c4.9-4.9,13-4.9,17.9,0c4.9,4.9,4.9,13,0,17.9
	C327,259.3,323.7,260.7,320.4,260.7z M320.4,238.3c-2.6,0-5,1-6.8,2.8l0,0c-3.8,3.8-3.8,9.9,0,13.7c3.8,3.8,9.9,3.8,13.7,0
	s3.8-9.9,0-13.7C325.4,239.4,323,238.3,320.4,238.3z"/>
<path class="st0" d="M282.8,366.2c-45.5,0-82.4-36.9-82.4-82.4s36.9-82.4,82.4-82.4s82.4,36.9,82.4,82.4c0,0,0,0,0,0
	C365.1,329.3,328.3,366.1,282.8,366.2z M282.8,204.4c-43.8,0-79.4,35.5-79.4,79.4s35.5,79.4,79.4,79.4s79.4-35.5,79.4-79.4
	C362.1,240,326.6,204.5,282.8,204.4L282.8,204.4z"/>
<path class="st0" d="M110.6,437h-2v-3h2V437z M110.6,428h-2v-3h2V428z M110.6,419h-2v-3h2V419z M110.6,410h-2v-3h2V410z M110.6,401
	h-2v-3h2V401z"/>
<path class="st0" d="M466.3,395h-2v-3h2V395z M466.3,386h-2v-3h2V386z M466.3,377h-2v-3h2V377z M466.3,368h-2v-3h2V368z M466.3,359
	h-2v-3h2V359z M466.3,350h-2v-3h2V350z M466.3,341h-2v-3h2V341z M466.3,332h-2v-3h2V332z M466.3,323h-2v-3h2V323z M466.3,314h-2v-3
	h2V314z M466.3,305h-2v-3h2V305z M466.3,296h-2v-3h2V296z M466.3,287h-2v-3h2V287z M466.3,278h-2v-3h2V278z M466.3,269h-2v-3h2V269z
	 M466.3,260h-2v-3h2V260z M466.3,251h-2v-3h2V251z M466.3,242h-2v-3h2V242z M466.3,233h-2v-3h2V233z M466.3,224h-2v-3h2V224z
	 M466.3,215h-2v-3h2V215z M466.3,206h-2v-3h2V206z M466.3,197h-2v-3h2V197z M466.3,188h-2v-3h2V188z M466.3,179h-2v-3h2V179z
	 M466.3,170h-2v-3h2V170z M466.3,161h-2v-3h2V161z M466.3,152h-2v-3h2V152z"/>
<path class="st0" d="M94.1,423.3v-2h3v2H94.1z M103.1,423.2v-2h3v2H103.1z M112.1,423.2v-2h3v2H112.1z M121.1,423.1v-2h3v2H121.1z
	 M130.1,423v-2h3v2H130.1z M286.1,423c-0.8,0-1.8-0.1-3-0.1l0.1-2c1.2,0,2.2,0.1,3,0.1L286.1,423z M139.1,422.9v-2h3v2H139.1z
	 M148.1,422.9v-2h3v2H148.1z M157.1,422.8v-2h3v2H157.1z M166.1,422.7v-2h3v2H166.1z M277.2,422.7l-3,0v-2l3,0V422.7z M175.2,422.7
	v-2h3v2H175.2z M184.2,422.7v-2h3v2H184.2z M193.2,422.6v-2h3v2H193.2z M268.2,422.6h-3v-2h3V422.6z M202.2,422.6v-1v-1h3v2H202.2z
	 M211.2,422.6v-2h3v2H211.2z M259.2,422.6h-3v-2h3V422.6z M220.2,422.6v-2h3v2H220.2z M250.2,422.6h-3v-2h3V422.6z M229.2,422.6v-2
	h3v2H229.2z M241.2,422.6h-3v-2h3V422.6z"/>
<path class="st0" d="M342.6,220.3v-2h3v2H342.6z M351.6,220.2v-2h3v2H351.6z M360.6,220.1v-2h3v2H360.6z M369.6,220v-2h3v2H369.6z
	 M378.6,219.9v-2h3v2H378.6z M489.6,219.8l-3-0.1l0.1-2l3,0.1L489.6,219.8z M387.6,219.8v-2h3v2H387.6z M396.6,219.7v-2h3v2H396.6z
	 M405.6,219.7v-2h3v2H405.6z M414.6,219.6v-2h3v2H414.6z M480.6,219.6l-3-0.1v-2l3,0.1V219.6z M423.6,219.5v-2h3v2H423.6z
	 M432.6,219.5v-2h3v2H432.6z M471.6,219.5h-3v-2h3V219.5z M441.6,219.5v-2h3v2H441.6z M462.6,219.5h-3v-2h3V219.5z M450.6,219.5v-2
	h3v2H450.6z"/>
</svg>
