<?xml version="1.0" encoding="utf-8"?>
<!-- Generator: Adobe Illustrator 24.3.0, SVG Export Plug-In . SVG Version: 6.00 Build 0)  -->
<svg version="1.1" id="Laag_1" xmlns="http://www.w3.org/2000/svg" xmlns:xlink="http://www.w3.org/1999/xlink" x="0px" y="0px"
	 viewBox="0 0 566.9 566.9" style="enable-background:new 0 0 566.9 566.9;" xml:space="preserve">
<style type="text/css">
	.st0{fill:#6B6B7F;}
	.st1{fill:#FF5429;}
</style>
<path class="st0" d="M430.8,440.2v3h2v-3H430.8z M430.8,431.2v3h2v-3H430.8z M430.8,422.2v3h2v-3H430.8z M430.8,170.2v3h2v-3H430.8z
	 M430.8,161.2v3h2v-3H430.8z M430.8,152.2v3h2v-3H430.8z M430.8,143.2v3h2v-3H430.8z"/>
<path class="st1" d="M218.2,365.5h-0.9l-0.4-0.2l-0.2,0.2h-4.1V179.9c0-0.8-0.7-1.5-1.5-1.5s-1.5,0.7-1.5,1.5v185.6h-1.4l-4.3,4.3
	l-0.7,0.8l0.2,0.5v17.7h10l0.5,0.2l5-5v-16.8c0-0.3-0.1-0.7-0.3-0.9L218.2,365.5z M213.7,368.5l-0.9,0.9h-0.3
	c0.1-0.1,0.1-0.3,0.1-0.5v-0.5H213.7z M209.3,368.5h0.2v0.5c0,0.2,0,0.3,0.1,0.5h-1.2L209.3,368.5z M206.3,372.4h5.6v13.4h-5.6
	V372.4z M215.8,382.7l-0.9,0.9v-12.1l0.9-0.9V382.7z"/>
<path class="st1" d="M365.4,377.2h-97.9c-6.4,0-11.6-5.2-11.6-11.6v-21.5c0-8.1-6.5-14.6-14.6-14.6s-14.6,6.5-14.6,14.6v21.4h-1.5
	l-4.3,4.3l-0.7,0.8l0.2,0.5v17.7h10l0.5,0.2l5-5v-16.8c0-0.3-0.1-0.7-0.3-0.9l-0.3-0.7h-0.9l-0.4-0.2l-0.2,0.2h-4.1v-21.4
	c0-6.4,5.2-11.6,11.6-11.6s11.6,5.2,11.6,11.6l0,0v21.5c0,8,6.5,14.6,14.6,14.6h97.9c0.8,0,1.5-0.7,1.5-1.5S366.3,377.2,365.4,377.2
	L365.4,377.2z M226.6,368.5h0.2v0.5c0,0.1,0,0.3,0.1,0.4h-1.2L226.6,368.5z M223.6,372.4h5.6v13.4h-5.6V372.4z M233.1,382.7
	l-0.9,0.9v-12.1l0.9-0.9V382.7z M231,368.5l-0.9,0.9h-0.3c0-0.1,0.1-0.3,0.1-0.4v-0.5H231z"/>
<path class="st0" d="M252.5,218.1h-27.6v-27.6h27.6L252.5,218.1z M227.9,215.1h21.6v-21.6h-21.6L227.9,215.1z"/>
<path class="st0" d="M252.5,261.2h-27.6v-27.6h27.6L252.5,261.2z M227.9,258.2h21.6v-21.6h-21.6L227.9,258.2z"/>
<path class="st0" d="M252.5,304.3h-27.6v-27.6h27.6L252.5,304.3z M227.9,301.3h21.6v-21.6h-21.6L227.9,301.3z"/>
<path class="st0" d="M278.7,210.6c-3.5,0-6.3-2.8-6.3-6.3c0-3.5,2.8-6.3,6.3-6.3c3.5,0,6.3,2.8,6.3,6.3
	C285,207.8,282.1,210.6,278.7,210.6z M278.7,201c-1.8,0-3.3,1.5-3.3,3.3c0,1.8,1.5,3.3,3.3,3.3s3.3-1.5,3.3-3.3
	C282,202.5,280.5,201,278.7,201L278.7,201z"/>
<path class="st0" d="M278.7,227.7c-3.5,0-6.3-2.8-6.3-6.3c0-3.5,2.8-6.3,6.3-6.3c3.5,0,6.3,2.8,6.3,6.3c0,0,0,0,0,0
	C285,224.8,282.1,227.7,278.7,227.7z M278.7,218.1c-1.8,0-3.3,1.5-3.3,3.3c0,1.8,1.5,3.3,3.3,3.3s3.3-1.5,3.3-3.3c0,0,0,0,0,0
	C282,219.6,280.5,218.1,278.7,218.1z"/>
<path class="st0" d="M296.9,210.6c-3.5,0-6.3-2.8-6.3-6.3c0-3.5,2.8-6.3,6.3-6.3c3.5,0,6.3,2.8,6.3,6.3
	C303.2,207.8,300.4,210.6,296.9,210.6C296.9,210.6,296.9,210.6,296.9,210.6z M296.9,201c-1.8,0-3.3,1.5-3.3,3.3s1.5,3.3,3.3,3.3
	c1.8,0,3.3-1.5,3.3-3.3C300.2,202.5,298.7,201,296.9,201C296.9,201,296.9,201,296.9,201L296.9,201z"/>
<path class="st0" d="M296.9,227.7c-3.5,0-6.3-2.8-6.3-6.3s2.8-6.3,6.3-6.3c3.5,0,6.3,2.8,6.3,6.3c0,0,0,0,0,0
	C303.2,224.8,300.4,227.7,296.9,227.7z M296.9,218.1c-1.8,0-3.3,1.5-3.3,3.3s1.5,3.3,3.3,3.3c1.8,0,3.3-1.5,3.3-3.3c0,0,0,0,0,0
	C300.2,219.6,298.7,218.1,296.9,218.1z"/>
<path class="st0" d="M278.7,243.1c-3.5,0-6.3-2.8-6.3-6.3c0-3.5,2.8-6.3,6.3-6.3c3.5,0,6.3,2.8,6.3,6.3
	C285,240.2,282.1,243.1,278.7,243.1z M278.7,233.5c-1.8,0-3.3,1.5-3.3,3.3c0,1.8,1.5,3.3,3.3,3.3s3.3-1.5,3.3-3.3
	S280.5,233.5,278.7,233.5L278.7,233.5z"/>
<path class="st0" d="M296.9,243.1c-3.5,0-6.3-2.8-6.3-6.3c0-3.5,2.8-6.3,6.3-6.3c3.5,0,6.3,2.8,6.3,6.3
	C303.2,240.2,300.4,243.1,296.9,243.1C296.9,243.1,296.9,243.1,296.9,243.1z M296.9,233.5c-1.8,0-3.3,1.5-3.3,3.3s1.5,3.3,3.3,3.3
	c1.8,0,3.3-1.5,3.3-3.3C300.2,235,298.7,233.5,296.9,233.5C296.9,233.5,296.9,233.5,296.9,233.5z"/>
<path class="st0" d="M281,304.1c2.5,0,4.5-2,4.5-4.5s-2-4.5-4.5-4.5s-4.5,2-4.5,4.5C276.5,302.1,278.5,304.1,281,304.1z M281,298.1
	c0.8,0,1.5,0.7,1.5,1.5s-0.7,1.5-1.5,1.5s-1.5-0.7-1.5-1.5S280.2,298.1,281,298.1z"/>
<path class="st0" d="M300,295.1c-2.5,0-4.5,2-4.5,4.5s2,4.5,4.5,4.5s4.5-2,4.5-4.5C304.5,297.1,302.5,295.1,300,295.1z M300,301.1
	c-0.8,0-1.5-0.7-1.5-1.5s0.7-1.5,1.5-1.5s1.5,0.7,1.5,1.5S300.9,301.1,300,301.1z"/>
<path class="st0" d="M319.1,295.1c-2.5,0-4.5,2-4.5,4.5s2,4.5,4.5,4.5s4.5-2,4.5-4.5C323.6,297.1,321.6,295.1,319.1,295.1z
	 M319.1,301.1c-0.8,0-1.5-0.7-1.5-1.5s0.7-1.5,1.5-1.5s1.5,0.7,1.5,1.5S319.9,301.1,319.1,301.1z"/>
<path class="st0" d="M338.1,295.1c-2.5,0-4.5,2-4.5,4.5s2,4.5,4.5,4.5s4.5-2,4.5-4.5C342.6,297.1,340.6,295.1,338.1,295.1z
	 M338.1,301.1c-0.8,0-1.5-0.7-1.5-1.5s0.7-1.5,1.5-1.5s1.5,0.7,1.5,1.5S338.9,301.1,338.1,301.1z"/>
<path class="st0" d="M357.1,295.1c-2.5,0-4.5,2-4.5,4.5s2,4.5,4.5,4.5s4.5-2,4.5-4.5C361.6,297.1,359.6,295.1,357.1,295.1z
	 M357.1,301.1c-0.8,0-1.5-0.7-1.5-1.5s0.7-1.5,1.5-1.5s1.5,0.7,1.5,1.5S357.9,301.1,357.1,301.1z"/>
<path class="st0" d="M405.3,178.4v-34.9c0-0.7-0.4-1.4-1-1.7l0,0c-0.3-0.6-1-1-1.7-1H227.9l-37.6,37.6h-88.2v240h353.3V178.4H405.3z
	 M189.4,415.3h-84.3V181.4h84.3V415.3z M229.1,143.8h171.1l-34.6,34.6H194.6L229.1,143.8z M402.3,146v32.4h-32.4l11.7-11.7
	L402.3,146z M282.5,286.7v-18.5l31.6-16.6l-15.6,21.8v13.3H282.5z M289.5,289.7v52h-16v-52H289.5z M292.5,289.7h16v52h-16V289.7z
	 M301.6,286.7v-12.4l16.4-22.9l-0.4,35.3H301.6z M311.5,289.7h16v52h-16.1L311.5,289.7z M320.6,286.7L321,252l16.1,22.4v12.4
	L320.6,286.7z M330.6,289.7h16v52h-16V289.7z M340.1,286.7v-13.3L324.7,252l30.9,16.2v18.5L340.1,286.7z M349.6,289.7h15.1v52h-15.2
	L349.6,289.7z M358.6,286.7v-20.3L321,246.7v-30.3h43.7v70.3H358.6L358.6,286.7z M192.8,181.4h5.8v225.7l-5.8,5.8V181.4z
	 M364.8,415.3H194.6l6.1-6.1h164.1L364.8,415.3z M201.6,406.2V181.4h163.2v32.1H318v32.8l-38.5,20.2v20.3h-9.1v58h94.3v61.4
	L201.6,406.2z M452.4,415.3h-84.7v-70.5l0,0v-58.1l0,0V181.4h84.6L452.4,415.3z"/>
<path class="st0" d="M148.4,175h-2v-3h2V175z M148.4,166h-2v-3h2V166z M148.4,157h-2v-3h2V157z M148.4,148h-2v-3h2V148z M148.4,139
	h-2v-3h2V139z M148.4,130h-2v-3h2V130z M148.4,121h-2v-3h2V121z M148.4,112h-2v-3h2V112z M148.4,103h-2v-3h2V103z M148.4,94h-2v-0.8
	h2V94z"/>
<path class="st0" d="M279.8,125.2h-3v-2h3V125.2z M270.8,125.2h-3v-2h3V125.2z M261.8,125.2h-3v-2h3V125.2z M252.8,125.2h-3v-2h3
	V125.2z M243.8,125.2h-3v-2h3V125.2z M234.8,125.2h-3v-2h3V125.2z M225.8,125.2h-3v-2h3V125.2z M216.8,125.2h-3v-2h3V125.2z
	 M207.8,125.2h-3v-2h3V125.2z M198.8,125.2h-3v-2h3V125.2z M189.8,125.2h-3v-2h3V125.2z M180.8,125.2h-3v-2h3V125.2z M171.8,125.2
	h-3v-2h3V125.2z M162.8,125.2h-3v-2h3V125.2z M153.8,125.2h-3v-2h3V125.2z M144.8,125.2h-3v-2h3V125.2z M135.8,125.2h-3v-2h3V125.2z
	 M126.8,125.2h-3v-2h3V125.2z M117.8,125.2h-3v-2h3V125.2z M108.8,125.2h-3v-2h3V125.2z"/>
</svg>
