<?xml version="1.0" encoding="utf-8"?>
<!-- Generator: Adobe Illustrator 24.3.0, SVG Export Plug-In . SVG Version: 6.00 Build 0)  -->
<svg version="1.1" id="Laag_1" xmlns="http://www.w3.org/2000/svg" xmlns:xlink="http://www.w3.org/1999/xlink" x="0px" y="0px"
	 viewBox="0 0 566.9 566.9" style="enable-background:new 0 0 566.9 566.9;" xml:space="preserve">
<style type="text/css">
	.st0{fill:#6B6B7F;}
	.st1{fill:#FF5429;}
</style>
<g>
	<g>
		<path class="st0" d="M462.2,295.6v2h2.6v-2H462.2z M453.2,295.6v2h3v-2H453.2z M444.2,295.6v2h3v-2H444.2z M435.2,295.6v2h3v-2
			H435.2z M426.2,295.6v2h3v-2H426.2z M138.2,295.6v2h3v-2H138.2z M129.2,295.6v2h3v-2H129.2z M120.2,295.6v2h3v-2H120.2z
			 M111.2,295.6v2h3v-2H111.2z M102.2,295.6v2h3v-2H102.2z"/>
	</g>
	<path class="st0" d="M420.5,221.3v-11.8c0-6.1-13.8-11.2-41-15c-25.7-3.6-59.8-5.6-96.1-5.6s-70.4,2-96.1,5.6
		c-27.2,3.8-41,8.9-41,15v13.3l0,0v174.3c0,6.1,13.8,11.2,41,15c25.7,3.6,59.8,5.6,96.1,5.6s70.4-2,96.1-5.6c27.2-3.9,41-8.9,41-15
		V221.3L420.5,221.3z M403.6,202.2c10,2.7,14,5.4,14,7.3c0,0.5-0.5,2.5-6.9,5.1c-2-0.8-4.4-1.5-7-2.2v-10.2H403.6z M417.5,214.3v3.8
		c-0.9-0.7-1.9-1.3-3.2-1.9C415.7,215.5,416.7,214.9,417.5,214.3z M386.6,198.6c5.5,0.9,10.1,1.9,14,2.8v10.2c-4-1-8.7-1.9-14-2.8
		V198.6z M369.7,196.2c3.3,0.4,6.4,0.8,9.4,1.2c1.6,0.2,3.1,0.4,4.5,0.7v10.3c-1.3-0.2-2.7-0.4-4.1-0.6c-3.2-0.4-6.4-0.9-9.8-1.3
		V196.2z M352.7,194.5c4.8,0.4,9.5,0.9,14,1.4v10.3c-4.5-0.5-9.1-0.9-14-1.4V194.5z M335.7,193.3c4.8,0.3,9.4,0.6,14,1v10.3
		c-4.5-0.4-9.2-0.7-14-1V193.3z M318.8,192.5c4.7,0.2,9.4,0.4,14,0.6v10.3c-4.6-0.3-9.2-0.5-14-0.6V192.5z M301.8,192
		c4.7,0.1,9.4,0.2,14,0.4v10.3c-4.6-0.2-9.2-0.3-14-0.4V192z M284.9,191.9c4.7,0,9.4,0,14,0.1v10.3c-4.6-0.1-9.3-0.1-14-0.1V191.9z
		 M267.9,192c4.6-0.1,9.3-0.1,14-0.1v10.3c-4.7,0-9.4,0-14,0.1V192z M251,192.4c4.6-0.2,9.2-0.3,14-0.4v10.3
		c-4.7,0.1-9.4,0.2-14,0.4V192.4z M234,193.2c4.6-0.3,9.2-0.5,14-0.6v10.3c-4.7,0.2-9.4,0.4-14,0.6V193.2z M217,194.3
		c4.5-0.4,9.2-0.7,14-1v10.3c-4.8,0.3-9.4,0.6-14,1V194.3z M200.1,195.9c4.5-0.5,9.1-1,14-1.4v10.3c-4.8,0.4-9.5,0.9-14,1.4V195.9z
		 M183.1,198.1c1.5-0.2,3-0.5,4.5-0.7c3-0.4,6.2-0.8,9.4-1.2v10.3c-3.4,0.4-6.7,0.8-9.8,1.3c-1.4,0.2-2.8,0.4-4.1,0.6L183.1,198.1
		L183.1,198.1z M166.2,201.4c3.9-0.9,8.5-1.9,14-2.8v10.2c-5.3,0.9-9.9,1.8-14,2.8V201.4z M163.2,202.2v10.2c-2.7,0.7-5,1.5-7,2.2
		c-4.9-1.9-6.9-3.7-6.9-5.1C149.2,207.6,153.2,204.9,163.2,202.2z M163.2,220v10.2c-7.6-2.1-11.7-4.1-13.2-5.8
		c-0.5-0.5-0.7-1-0.7-1.5s0.2-1,0.7-1.5c1-1.1,3-2.3,6.2-3.6C158.2,218.5,160.5,219.3,163.2,220z M149.2,214.2
		c0.9,0.7,2,1.3,3.2,1.9c-1.3,0.6-2.3,1.3-3.2,1.9V214.2z M366.7,410.7c-23.7,2.6-52.7,4.1-83.3,4.1c-36.2,0-70.2-2-95.7-5.6
		c-28.4-4-38.4-9-38.4-12.1v-99.5v-2v-68c5.4,4,18.1,7.5,38,10.3c25.7,3.6,59.8,5.6,96.1,5.6c30.5,0,59.5-1.4,83.3-4V410.7z
		 M166.2,230.9v-10.2c4,1,8.7,1.9,14,2.8v10.2C174.7,232.8,170.1,231.9,166.2,230.9z M183.1,234.2V224c1.3,0.2,2.7,0.4,4.1,0.6
		c3.2,0.4,6.4,0.9,9.8,1.3v10.3c-3.3-0.4-6.4-0.8-9.4-1.2C186.1,234.7,184.6,234.4,183.1,234.2z M200.1,236.4v-10.3
		c4.5,0.5,9.1,0.9,14,1.4v10.3C209.2,237.4,204.6,236.9,200.1,236.4z M217,238v-10.3c4.5,0.4,9.2,0.7,14,1V239
		C226.2,238.7,221.6,238.4,217,238z M234,239.2v-10.3c4.6,0.3,9.2,0.5,14,0.6v10.3C243.2,239.6,238.6,239.4,234,239.2z M251,239.9
		v-10.3c4.6,0.2,9.2,0.3,14,0.4v10.3C260.2,240.2,255.5,240.1,251,239.9z M267.9,240.4v-10.3c4.6,0.1,9.3,0.1,14,0.1v10.3
		C277.2,240.5,272.5,240.4,267.9,240.4z M284.9,240.5v-10.3c4.8,0,9.4,0,14-0.1v10.3C294.2,240.4,289.6,240.5,284.9,240.5z
		 M301.8,240.3V230c4.8-0.1,9.4-0.2,14-0.4v10.3C311.2,240.1,306.5,240.2,301.8,240.3z M318.8,239.8v-10.4c4.7-0.2,9.4-0.5,14-0.8
		v10.5C328.2,239.4,323.5,239.6,318.8,239.8z M335.7,239v-10.6c4.7-0.3,9.3-0.7,14-1.2V238C345.2,238.4,340.5,238.7,335.7,239z
		 M366.7,236.4c-4.5,0.5-9.1,1-14,1.4V227c4.6-0.5,9.3-1,14-1.6V236.4z M283.4,227.2c-36.2,0-70.2-2-95.7-5.6
		c-12.1-1.7-20.8-3.6-26.9-5.4c6.1-1.8,14.8-3.7,26.9-5.4c25.6-3.6,59.5-5.6,95.7-5.6s70.1,2,95.7,5.6c12.1,1.7,20.8,3.6,26.9,5.4
		c-3.6,1.1-8.3,2.2-14.4,3.4l-1.2,0.2v13.3c-3.4,0.6-7.1,1.2-11.3,1.8c-3,0.4-6.2,0.8-9.4,1.2v-14.2l-1.7,0.2
		C340.8,225.7,315.5,227.2,283.4,227.2z M407.2,218.9v10.2c-3.6,1.1-8.1,2.3-13.9,3.4v-10.2C399.1,221.2,403.6,220,407.2,218.9z
		 M390.4,394.5l-20.7,1.6v-10.6l20.7-1.6V394.5z M390.4,244.5l-20.7,2v-7.4c3.4-0.4,6.7-0.8,9.8-1.3c3.9-0.6,7.5-1.1,10.8-1.7v8.4
		H390.4z M390.4,247.5v10.6l-20.7,1.6v-10.2L390.4,247.5z M390.4,380.9l-20.7,1.6v-10.6l20.7-1.6V380.9z M390.4,367.3l-20.7,1.6
		v-10.6l20.7-1.6V367.3z M390.4,353.6l-20.7,1.6v-10.6l20.7-1.6V353.6z M390.4,340l-20.7,1.6V331l20.7-1.6V340z M390.4,326.3
		l-20.7,1.6v-10.6l20.7-1.6V326.3z M390.4,312.7l-20.7,1.6v-10.6l20.7-1.6V312.7z M390.4,299.1l-20.7,1.6V290l20.7-1.6V299.1z
		 M390.4,285.4l-20.7,1.6v-10.6l20.7-1.6V285.4z M390.4,271.8l-20.7,1.6v-10.6l20.7-1.6V271.8z M379.1,409.1c-3,0.4-6.2,0.8-9.4,1.2
		v-11.2l20.7-1.6v9.8C387,408,383.2,408.6,379.1,409.1z M417.5,397.1c0,2.5-6.6,6.2-24.2,9.7V235.6c12.1-2.3,20.1-5,24.2-8V397.1z
		 M416.8,224.3c-1,1.1-3.1,2.4-6.6,3.7v-10.1c0.1-0.1,0.3-0.1,0.4-0.2c3.2,1.3,5.2,2.5,6.2,3.6c0.5,0.5,0.7,1,0.7,1.5l0,0l0,0l0,0
		C417.5,223.3,417.3,223.8,416.8,224.3z"/>
	<g>
		<path class="st0" d="M451.6,347.3h-2v-3h2V347.3z M451.6,338.3h-2v-3h2V338.3z M451.6,329.3h-2v-3h2V329.3z M451.6,320.3h-2v-3h2
			V320.3z M451.6,311.3h-2v-3h2V311.3z M451.6,302.3h-2v-3h2V302.3z M451.6,293.3h-2v-3h2V293.3z M451.6,284.3h-2v-3h2V284.3z
			 M451.6,275.3h-2v-3h2V275.3z"/>
	</g>
	<g>
		<path class="st0" d="M209.6,188.6h-2V186h2V188.6z M209.6,180h-2v-3h2V180z M209.6,171h-2v-3h2V171z M209.6,162h-2v-3h2V162z
			 M209.6,153h-2v-3h2V153z"/>
	</g>
	<g>
		<g>
			<path class="st1" d="M267.9,362.9c-13.1,0-20.9-8.3-20.9-16.4c0-5.4,2.1-8.8,3.7-11.5c1.3-2.2,2.3-3.9,2.2-6.1
				c-0.1-1.3-0.4-2.3-0.9-2.7c-0.5-0.3-1.1-0.2-1.4-0.1c-0.7,0.2-1.5-0.1-1.8-0.8c-0.4-0.6-0.2-1.4,0.3-1.9c1.9-1.8,4.7-3.1,7.7-2.8
				c-1.2-4.8-0.1-10.6,3.1-14.1c2-2.2,6.6-5.5,14.7-2.2c0.7,0.3,1.2,1,1.2,1.8s-0.6,1.5-1.3,1.7c-3.1,0.9-3,2.4-2.9,3.6
				c0,0.2,0,0.3,0,0.5c0,0.7,0.7,2.6,2.8,5.1c0.3,0.3,0.7,0.8,1.2,1.4c3.6,3.9,12.2,13,12.2,25.4c0,8-4.6,12.6-8.5,15.1
				C274.9,361.9,270,362.9,267.9,362.9z M253.9,324c1.2,0.9,1.9,2.6,2,4.8c0.2,3.1-1.2,5.4-2.6,7.8c-1.6,2.7-3.3,5.4-3.3,10
				c0,8.3,9.3,13.4,17.9,13.4c2.2,0,16.8-3,16.8-16c0-11.2-8-19.7-11.4-23.4c-0.6-0.6-1.1-1.1-1.4-1.5c-2.2-2.6-3.5-5.2-3.5-7
				c0-0.1,0-0.2,0-0.3c-0.1-1.1-0.2-3.6,2.3-5.3c-3.6-0.8-6.6-0.1-8.7,2.3c-3,3.3-3.7,9.5-1.6,13.5c0.3,0.6,0.2,1.4-0.3,1.9
				s-1.3,0.6-1.9,0.2C256.7,323.5,255.2,323.6,253.9,324z"/>
		</g>
		<g>
			<path class="st1" d="M267.9,362.9c-4.3,0-7.5-1.2-9.7-3.6c-3.1-3.5-2.8-8.3-2.7-9.7c0.3-2.7,2.6-6.5,5.4-9
				c1.3-1.1,5.2-5.1,3.8-10.1c-0.2-0.6,0-1.3,0.5-1.7c0.5-0.4,1.2-0.5,1.8-0.2c2.9,1.5,5,4.2,5.9,7.8c0.9,3.3,0.6,6.8-0.7,8.8
				c-0.3,0.4-0.5,0.8-0.7,1.1c0.5-0.1,1.1-0.3,1.6-0.6c1-0.5,1.7-1.2,1.8-1.9c0.1-0.6,0.5-1.1,1-1.3c0.5-0.2,1.1-0.2,1.6,0.2
				c2.2,1.6,2.4,7.8,1,12C276.8,359.9,273,362.9,267.9,362.9z M268,333c-0.2,5-3.8,8.6-5.1,9.8c-2.5,2.2-4.3,5.4-4.4,7.1
				c-0.1,1.1-0.3,4.8,1.9,7.4c1.6,1.8,4.1,2.6,7.5,2.6s5.9-1.7,7.3-5c1.2-2.9,1.4-6,1.1-8c-0.5,0.5-1.1,0.9-1.9,1.3
				c-1.8,0.9-4.5,1.5-6.3,0.5l0,0c-0.5-0.2-0.8-0.7-0.9-1.2s0.1-1.1,0.5-1.4c0.1-0.1,0.7-0.7,2-2.7c0.7-1,1-3.6,0.3-6.4
				C269.8,336,269.2,334.4,268,333z"/>
		</g>
		<g>
			<path class="st1" d="M267.1,375.3c-24.6,0-44.5-20-44.5-44.5s20-44.5,44.5-44.5s44.5,20,44.5,44.5S291.7,375.3,267.1,375.3z
				 M267.1,289.2c-22.9,0-41.5,18.6-41.5,41.5s18.6,41.5,41.5,41.5s41.5-18.6,41.5-41.5S290,289.2,267.1,289.2z"/>
		</g>
	</g>
</g>
</svg>
