<?xml version="1.0" encoding="utf-8"?>
<!-- Generator: Adobe Illustrator 24.3.0, SVG Export Plug-In . SVG Version: 6.00 Build 0)  -->
<svg version="1.1" id="Laag_1" xmlns="http://www.w3.org/2000/svg" xmlns:xlink="http://www.w3.org/1999/xlink" x="0px" y="0px"
	 viewBox="0 0 566.9 566.9" style="enable-background:new 0 0 566.9 566.9;" xml:space="preserve">
<style type="text/css">
	.st0{fill:#FFFFFF;}
	.st1{fill:#6B6B7F;}
	.st2{fill:#FF5429;}
</style>
<path class="st0" d="M273.7,250.1v6.8l-2.4-2.1l-1.1-1.3c-0.4-0.4-0.7-0.9-1-1.4c-0.2-0.5-0.4-1-0.4-1.5c0-0.5,0.1-1,0.4-1.5
	c0.4-0.7,0.8-1.3,1.4-1.8l2,1.8L273.7,250.1z"/>
<path class="st1" d="M254.3,301.4c-0.5,0-11.9-0.2-11.9-12.3h-3c0,12.1-12.3,12.3-12.9,12.3s-11.9-0.2-11.9-12.3h-3
	c0,12.1-12.4,12.3-12.9,12.3v3c0.3,0,7.3,0,11.9-4.7c1-1,1.8-2.1,2.4-3.4c3.7,8,13.3,8.1,13.4,8.1c0.3,0,7.3,0,11.9-4.7
	c1-1,1.8-2.1,2.4-3.4c3.7,8,13.3,8.1,13.4,8.1c0.3,0,7.3,0,11.9-4.7c1-1,1.8-2.1,2.4-3.4c3.7,8,13.3,8.1,13.5,8.1
	c0.3,0,7.3,0,11.9-4.7c1-1,1.8-2.1,2.4-3.4c3.7,8,13.3,8.1,13.5,8.1v-3c-0.5,0-11.9-0.2-11.9-12.3h-3c0,12.1-12.3,12.3-12.9,12.3
	s-11.9-0.2-11.9-12.3h-3C267.2,301.2,254.9,301.4,254.3,301.4z"/>
<path class="st1" d="M443.1,250.6c0-21.1-16.5-40.9-46.5-55.7c-29.6-14.6-69-22.7-110.8-22.7s-81.2,8-110.8,22.7
	c-29.2,14.4-45.6,33.6-46.4,54.1V249v88c0,21.1,16.5,40.9,46.5,55.7c29.6,14.6,69,22.7,110.8,22.7s81.2-8,110.8-22.7
	c30-14.8,46.5-34.6,46.5-55.7l-0.1-83.5C443,252.5,443.1,251.5,443.1,250.6z M285.8,175.2c84.1,0,152.8,33.1,154.2,74
	c-0.6-1.6-1.3-3.1-2.1-4.6l0,0l-0.4-0.6c-0.3-0.5-0.6-1-0.9-1.6l-0.2-0.4V242c-0.6-1-1.3-2.1-2-3.1l-0.2-0.3
	c-0.2-0.2-0.3-0.4-0.5-0.7c-0.5-0.6-0.9-1.2-1.4-1.9l0-0.1l0,0c-0.3-0.4-0.5-0.7-0.8-1l-0.3-0.3l0-0.1l-0.4-0.5l-0.5-0.7
	c-0.1-0.1-0.2-0.2-0.3-0.3l-0.6-0.7l-0.1-0.1c-0.2-0.2-0.4-0.4-0.6-0.6l-0.1-0.1c0-0.1-0.1-0.1-0.1-0.2l-0.3-0.3l-0.1-0.1l-0.5-0.5
	c-0.4-0.4-0.9-0.9-1.3-1.4c-0.2-0.2-0.3-0.3-0.5-0.5c-1-0.9-1.9-1.8-3-2.7l-0.1-0.1l-1.6-1.4c0,0-0.1-0.1-0.1-0.1l-0.3-0.3
	c-2.2-1.8-4.5-3.6-7-5.3l0,0l0,0c-6.9-4.7-14.2-8.8-21.9-12.2c-0.8-0.4-1.6-0.7-2.4-1l-0.8-0.4c-11.7-4.9-23.9-8.8-36.3-11.6
	l-0.9-0.2c-1.2-0.3-2.5-0.6-3.8-0.8c-0.7-0.1-1.4-0.3-2-0.4c-1.3-0.3-2.6-0.5-4-0.8l-1.5-0.3L339,191c-1.6-0.3-3.1-0.6-4.7-0.8
	l-0.6-0.1l-2-0.3c-1.7-0.3-3.4-0.5-5.1-0.7l-2.8-0.4l-0.6-0.1l-2.5-0.3h0l-2.6-0.3c-0.7-0.1-1.4-0.1-2.1-0.2l-2-0.2
	c-0.8-0.1-1.6-0.1-2.5-0.2l-2.2-0.2l-1.3-0.1h-0.2h-0.5c-1-0.1-2-0.1-3-0.2l-2.7-0.1l-1.7-0.1c-1,0-1.9-0.1-2.9-0.1l-2-0.1h-0.1H294
	h-1c-2.3-0.1-4.7-0.1-7-0.1s-4.6,0-6.8,0.1H278h-0.9h-0.1l-2,0.1l-2.9,0.1l-1.6,0.1l-2.7,0.1c-1,0.1-2,0.1-3,0.2h-0.5h-0.6l-0.9,0.1
	l-2.2,0.2c-0.8,0.1-1.6,0.1-2.5,0.2l-2,0.2l-2.2,0.2c-0.9,0.1-1.8,0.2-2.7,0.3H251l-1.9,0.2l-0.8,0.1H248h-0.4l-1.4,0.2l-1.4,0.2
	h-0.3c-1.7,0.2-3.4,0.5-5,0.7c-0.4,0.1-0.8,0.1-1.2,0.2l-1,0.2l-2.5,0.4l-3,0.5l-1.4,0.3l-2.6,0.5l-1,0.2l-2.4,0.5l-0.7,0.2
	c-1.5,0.3-3,0.6-4.4,1l-1.5,0.4c-13,3-25.6,7.3-37.8,12.6c-7.6,3.4-14.9,7.5-21.8,12.1l-0.1,0.1l-0.2,0.1c-1.9,1.3-3.7,2.7-5.4,4
	l-0.1,0.1h-0.1l-0.9,0.7l0,0l-0.3,0.2l-0.2,0.2c-2.7,2.3-5.3,4.7-7.8,7.3v0.1l-1.3,1.3l0,0c-0.1,0.1-0.1,0.2-0.2,0.3l-0.1,0.1
	l-0.4,0.5c-2.6,3-4.8,6.2-6.8,9.6l-0.1,0.2c-1.1,1.9-2,3.8-2.8,5.9C133,208.3,201.6,175.2,285.8,175.2z M306.3,237.2
	c3.2-0.6,6.2-2.1,8.6-4.3c1-1,1.8-2.1,2.4-3.4c3.7,8,13.3,8.1,13.5,8.1c0.3,0,7.3-0.1,11.9-4.7c1-1,1.8-2.1,2.4-3.4
	c3.7,8,13.3,8.1,13.5,8.1c0.3,0,7.2-0.1,11.9-4.7c1-1,1.8-2.1,2.4-3.4c3.7,8,13.3,8.1,13.5,8.1v-3c-0.5,0-11.9-0.2-11.9-12.3h-3
	c0,12.1-12.3,12.3-12.9,12.3s-11.9-0.2-11.9-12.3h-3c0,12.1-12.3,12.3-12.9,12.3s-11.9-0.2-11.9-12.3h-3c0,11.5-11.2,12.2-12.7,12.3
	c-2.3-1.6-4.7-2.9-7.4-3.8c-3.2-1.1-6.6-1.7-9.9-1.7c-11.2,0-20.3,4.8-20.3,10.8c0.1,1.7,0.7,3.3,1.8,4.5l0.1,0.1l1,0.8
	c-1.6,1.3-2.5,3.2-2.6,5.3c0,0,0,0.1,0,0.1c0,0.1,0,0.1,0,0.2v13.4c0,6,8.8,10.6,20,10.6c1.2,0,2.4,0,3.5-0.2l52,46.1
	c-1.1,0.2-2.3,0.4-3.4,0.6l-1.1,0.2c-1.6,0.3-3.2,0.5-4.8,0.8l-0.9,0.1l-0.4,0c-1.8,0.3-3.7,0.5-5.5,0.8l-0.5,0.1
	c-2,0.2-3.9,0.5-5.9,0.7l-0.6,0.1c-2,0.2-4,0.4-6,0.6H312c-1.9,0.2-3.9,0.3-5.8,0.4l-1.2,0.1c-1.8,0.1-3.5,0.2-5.3,0.3l-1.3,0
	c-1.5,0.1-3.1,0.1-4.7,0.1l-1.9,0c-1.9,0-3.9,0.1-5.8,0.1h-0.2c-9.5,0-18.9-0.5-28.1-1.3c-19.8-1.7-39.3-5.6-58.2-11.7
	c-3.8-1.2-7.4-2.6-11-4c-1.7-0.7-3.3-1.4-4.9-2.1c-18-7.8-32.1-17.6-41-28.5c-2.9-3.5-5.4-7.4-7.3-11.5c0,0,0-0.1,0-0.1
	c-0.2-0.5-0.4-1-0.6-1.5s-0.4-0.9-0.5-1.4s-0.3-0.9-0.4-1.3l-0.2-0.6c-0.2-0.6-0.4-1.3-0.6-1.9c0-0.1-0.1-0.3-0.1-0.4
	c-0.2-0.7-0.3-1.4-0.5-2.1c0-0.2,0.1-0.5,0.1-0.7s0.1-0.6,0.2-0.9s0.1-0.6,0.2-0.9c0.2-0.7,0.4-1.5,0.6-2.2c0-0.1,0.1-0.3,0.1-0.4
	c0.2-0.7,0.5-1.3,0.7-2c0.1-0.3,0.2-0.5,0.3-0.8c0.3-0.7,0.6-1.3,0.9-2s0.5-1.1,0.8-1.6c0.1-0.1,0.1-0.2,0.2-0.3
	c0.5-1,1.1-1.9,1.6-2.8c0.1-0.2,0.3-0.5,0.4-0.7c0.2-0.4,0.5-0.8,0.8-1.2l0.1-0.1l0.1-0.1c0.2-0.4,0.5-0.7,0.8-1.1s0.4-0.6,0.7-0.9
	l0.6-0.8l0.2-0.3c0.4-0.5,0.9-1.1,1.3-1.6l0.1-0.2c0.4-0.4,0.7-0.9,1.1-1.3l0.1-0.1l0.2-0.2c8.4-9.3,20.8-17.8,36.5-25
	c17.6-8,38.5-13.8,61.1-17l1.6-0.2c2-0.3,4-0.5,6-0.8h0.2h0.2c2.1-0.2,4.2-0.5,6.3-0.7h0.5h0.5c4.3-0.4,8.7-0.7,13.1-0.9l1.6-0.1
	c4.4-0.2,8.9-0.3,13.4-0.3h0.4c4.5,0,9,0.1,13.4,0.3l1.6,0.1c4.4,0.2,8.7,0.5,13,0.9l0.5,0.1l0.6,0.1c2.1,0.2,4.1,0.4,6.2,0.6h0.2
	h0.3c2,0.2,4,0.5,5.9,0.8l1.7,0.2c22.5,3.3,43.4,9,61,17c18.3,8.3,32.1,18.5,40.4,29.7l0.5,0.7c1.7,2.4,3.3,5,4.6,7.6
	c0,0.1,0.1,0.2,0.1,0.3c0.2,0.4,0.4,0.9,0.6,1.3c0.1,0.1,0.1,0.3,0.2,0.4v0.1c0.2,0.4,0.3,0.7,0.4,1.1c0.3,0.7,0.5,1.4,0.8,2.1
	c0.4,1.1,0.7,2.2,0.9,3.3c0.1,0.5,0.2,0.9,0.3,1.3c0,0.1,0.1,0.2,0.1,0.3c-0.3,1.5-0.7,3-1.2,4.5c0,0,0,0.1,0,0.1c0,0,0,0.1,0,0.1
	c-0.5,1.4-1,2.8-1.6,4.1l-0.1,0.4c-3.7,8.1-10.1,15.8-19,22.9c-6.7,5.2-13.9,9.8-21.5,13.5c-4,2-8.2,3.9-12.7,5.7l-0.4,0.1
	c-1.1,0.4-2.2,0.9-3.3,1.3V301L306.3,237.2z M301.7,270.8l-2.3-2l-18.8-16.7l-3.4-3l-3.9-3.5c3.9-1.8,8.2-2.7,12.6-2.6
	c6.4,0,12.3,1.7,15.2,4.3l0.7,0.7l1.2,1.1l2.9,2.5l69.2,60.2l-28.9,8v-9.5L301.7,270.8z M320.2,291.3v6.9l-21.3-18.9v-6.9
	L320.2,291.3z M270.8,243.5l-1.2-1.1c-0.6-0.7-1-1.6-1.1-2.5c0-2.5,3.5-5.2,8.9-6.7v7.8C275.1,241.4,272.9,242.3,270.8,243.5
	L270.8,243.5z M272.6,249.1l1.1,1v6.8l-2.4-2.1l-1.1-1.3c-0.4-0.4-0.7-0.9-1-1.4c-0.2-0.5-0.4-1-0.4-1.5c0-0.5,0.1-1,0.4-1.5
	c0.4-0.7,0.8-1.3,1.4-1.8L272.6,249.1z M268.8,256.4l0.4,0.4l17,15h-0.3c-8,0-17-3.1-17-7.6L268.8,256.4z M276.7,259.6v-6.9l19.1,17
	v6.9l-2.7-2.4l-2.9-2.6L276.7,259.6z M280.4,240.3v-7.8c1.8-0.3,3.6-0.4,5.4-0.4c5.5,0,11,1.7,15.5,4.8v6.9
	c-3.7-2.4-9.4-3.9-15.5-3.9C284,239.9,282.2,240.1,280.4,240.3L280.4,240.3z M304.3,246.3v-6.9l17,14.8v6.9L304.3,246.3z M345.3,282
	l-21-18.3v-6.9l21,18.3V282z M343.1,406.9c-18.9,3.6-38.1,5.4-57.3,5.4c-85.1,0-154.3-33.8-154.3-75.4v-71l0.1,0.3
	c0.1,0.1,0.1,0.3,0.2,0.4c0.2,0.5,0.4,1,0.6,1.5c7.8,17.1,27.3,32.6,54.8,43.6c12.1,4.7,24.6,8.4,37.4,11
	c20.1,4.1,40.6,6.2,61.2,6.2h0.1h3.2h1.6h0.7h0.8h1l2.9-0.1l2.1-0.1h0.4h0.9l1.1,0h0.2h0.5h0.4l2.2-0.1l1-0.1l2.6-0.2l1.7-0.1
	l2.7-0.2l1.5-0.1l2.4-0.2l1.3-0.1l3.5-0.4l1.5-0.2h0.1c0.8-0.1,1.6-0.2,2.4-0.3l1.6-0.2l0.9-0.1l2.5-0.4l1.3-0.2l1.5-0.2l0.5-0.1
	l3.3-0.5l0.6-0.1l2.3-0.4l0.6-0.1l3.4-0.6L343.1,406.9z M343.1,318.5l-19.9-17.6V294l19.9,17.6L343.1,318.5z M376.6,397.6
	c-8.4,3.1-24.9,7.1-30.4,8.4v-5.2l30.4-7.9V397.6z M376.6,389.9l-30.4,7.9v-5.5l30.4-7.9V389.9z M376.6,381.2l-30.4,7.9v-5.6
	l30.4-7.9V381.2z M376.6,372.6l-30.4,7.9v-5.5l30.4-7.9L376.6,372.6z M376.6,363.9l-30.4,7.9v-5.6l30.4-7.9V363.9z M376.6,355.2
	l-30.4,7.9v-5.5l30.4-7.9V355.2z M376.6,346.6l-30.4,7.9v-5.6l30.4-7.9L376.6,346.6z M376.6,337.9l-30.4,7.9v-5.5l30.4-7.9V337.9z
	 M376.6,329.3l-30.4,7.9v-5.6l30.4-7.9V329.3z M376.6,320.6l-30.4,7.9V323h0.1l2.2-0.5h0.2l0.7-0.1l0.3-0.1c1.3-0.3,2.5-0.6,3.8-0.9
	l1.6-0.4l0.7-0.2l1.4-0.4l0.5-0.1l0.7-0.2l3-0.8l1.8-0.5l1.4-0.4h0.1l1-0.3l0.8-0.2c0.9-0.3,1.8-0.5,2.7-0.8l0.2-0.1h0.1
	c1.1-0.3,2.2-0.7,3.3-1.1c0.9-0.3,1.8-0.6,2.6-0.9l1.3-0.4L376.6,320.6z M376.6,309.2l-28.2-24.6v-6.9l28.2,24.6V309.2z
	 M379.6,396.8v-83.2c1.6-0.6,3.2-1.2,4.8-1.8c21.5-8.6,38.1-19.9,48.1-32.6c2.7-3.4,4.9-7.1,6.8-11l0-0.1c0.2-0.4,0.4-0.8,0.5-1.2
	c0-0.1,0-0.1,0.1-0.2l0.2-0.4l0.1,70.7C440.1,361.2,416.3,382.9,379.6,396.8L379.6,396.8z"/>
<path class="st1" d="M282.3,204.4h-3c0,12.1-12.3,12.3-12.9,12.3s-11.9-0.1-11.9-12.3h-3c0,12.1-12.3,12.3-12.9,12.3
	s-11.9-0.1-11.9-12.3h-3c0,12.1-12.4,12.3-12.9,12.3v3c0.3,0,7.3,0,11.9-4.7c1-1,1.8-2.1,2.4-3.4c3.7,8,13.3,8.1,13.4,8.1
	c0.3,0,7.3,0,11.9-4.7c1-1,1.8-2.1,2.4-3.4c3.7,8,13.3,8.1,13.4,8.1c0.3,0,7.3,0,11.9-4.7c1-1,1.8-2.1,2.4-3.4
	c3.7,8,13.3,8.1,13.5,8.1v-3C293.7,216.6,282.3,216.5,282.3,204.4z"/>
<path class="st2" d="M202.1,243.8h-3c0,12.1-12.3,12.3-12.9,12.3s-11.9-0.2-11.9-12.3h-3c0,12.1-12.4,12.3-12.9,12.3v3
	c0.3,0,7.3-0.1,11.9-4.7c1-1,1.8-2.1,2.4-3.4c3.7,8,13.3,8.1,13.4,8.1c0.3,0,7.3-0.1,11.9-4.7c1-1,1.8-2.1,2.4-3.4
	c3.7,8,13.3,8.1,13.4,8.1v-3C213.5,256.1,202.1,255.9,202.1,243.8z"/>
<path class="st2" d="M410.1,255.1h-3c0,12.1-12.3,12.3-12.9,12.3s-11.9-0.2-11.9-12.3h-3c0,12.1-12.3,12.3-12.9,12.3v3
	c0.3,0,7.3,0,11.9-4.7c1-1,1.8-2.1,2.4-3.4c3.7,8,13.3,8.1,13.5,8.1c0.3,0,7.3,0,11.9-4.7c1-1,1.8-2.1,2.4-3.4
	c3.7,8,13.3,8.1,13.5,8.1v-3C421.5,267.4,410.1,267.2,410.1,255.1z"/>
<path class="st1" d="M446.5,141.7h-3v-2h3V141.7z M437.5,141.7h-3v-2h3V141.7z M428.5,141.7h-3v-2h3V141.7z M419.5,141.7h-3v-2h3
	V141.7z M410.5,141.7h-3v-2h3V141.7z M401.5,141.7h-3v-2h3V141.7z M392.5,141.7h-3v-2h3V141.7z M383.5,141.7h-3v-2h3V141.7z
	 M374.5,141.7h-3v-2h3V141.7z M365.5,141.7h-3v-2h3V141.7z M356.5,141.7h-3v-2h3V141.7z M347.5,141.7h-3v-2h3V141.7z M338.5,141.7
	h-3v-2h3V141.7z M329.5,141.7h-3v-2h3V141.7z M320.5,141.7h-3v-2h3V141.7z M311.5,141.7h-3v-2h3V141.7z M302.5,141.7h-3v-2h3V141.7z
	"/>
<path class="st1" d="M414.7,201.2h-2v-3h2V201.2z M414.7,192.2h-2v-3h2V192.2z M414.7,183.2h-2v-3h2V183.2z M414.7,174.2h-2v-3h2
	V174.2z M414.7,165.2h-2v-3h2V165.2z M414.7,156.2h-2v-3h2V156.2z M414.7,147.2h-2v-3h2V147.2z M414.7,138.2h-2v-3h2V138.2z
	 M414.7,129.2h-2v-3h2V129.2z M414.7,120.2h-2v-3h2V120.2z"/>
<path class="st1" d="M217.3,411.4h-3v-2h3V411.4z M208.3,411.4h-3v-2h3V411.4z M199.3,411.4h-3v-2h3V411.4z M190.3,411.4h-3v-2h3
	V411.4z M181.3,411.4h-3v-2h3V411.4z M172.3,411.4h-3v-2h3V411.4z M163.3,411.4h-3v-2h3V411.4z M154.3,411.4h-3v-2h3V411.4z
	 M145.3,411.4h-3v-2h3V411.4z M136.3,411.4h-3v-2h3V411.4z M127.3,411.4h-3v-2h3V411.4z M118.3,411.4h-3v-2h3V411.4z"/>
</svg>
