<?xml version="1.0" encoding="utf-8"?>
<!-- Generator: Adobe Illustrator 24.3.0, SVG Export Plug-In . SVG Version: 6.00 Build 0)  -->
<svg version="1.1" id="Laag_1" xmlns="http://www.w3.org/2000/svg" xmlns:xlink="http://www.w3.org/1999/xlink" x="0px" y="0px"
	 viewBox="0 0 566.9 566.9" style="enable-background:new 0 0 566.9 566.9;" xml:space="preserve">
<style type="text/css">
	.st0{fill:#6B6B7F;}
	.st1{fill:#FF5429;}
</style>
<path class="st0" d="M236,361.9h-18.3v-7.8c-2.2-0.4-4.4-1-6.6-1.8l-3.9,6.7l-15.8-9.1l3.9-6.7c-1.7-1.5-3.3-3.1-4.8-4.8l-6.7,3.9
	l-9.1-15.8l6.7-3.9c-0.7-2.1-1.3-4.3-1.8-6.5h-7.8v-18.3h7.8c0.4-2.2,1-4.4,1.8-6.5l-6.7-3.9l9.1-15.8l6.7,3.9
	c1.5-1.7,3.1-3.3,4.8-4.8l-3.9-6.7l15.8-9.1l3.9,6.7c2.1-0.7,4.3-1.3,6.6-1.8V252H236v7.8c2.2,0.4,4.4,1,6.5,1.8l3.9-6.7l15.8,9.1
	l-3.9,6.7c1.7,1.5,3.3,3.1,4.8,4.8l6.7-3.9l9.1,15.8l-6.7,3.9c0.7,2.1,1.3,4.3,1.8,6.5h7.8v18.3H274c-0.4,2.2-1,4.4-1.8,6.5l6.7,3.9
	l-9.1,15.8l-6.7-3.9c-1.5,1.7-3.1,3.3-4.8,4.8l3.9,6.7l-15.8,9.1l-3.9-6.7c-2.1,0.7-4.3,1.3-6.5,1.8L236,361.9z M220.7,358.9H233
	v-7.3l1.2-0.2c2.9-0.5,5.7-1.2,8.4-2.2l1.2-0.5l3.6,6.3l10.6-6.1l-3.6-6.3l1-0.8c2.2-1.9,4.3-3.9,6.2-6.2l0.8-1l6.3,3.6l6.1-10.6
	l-6.3-3.6l0.5-1.2c1-2.7,1.8-5.6,2.2-8.4l0.2-1.2h7.3v-12.3h-7.3l-0.2-1.2c-0.5-2.9-1.2-5.7-2.2-8.4l-0.5-1.2l6.3-3.6l-6.1-10.6
	l-6.3,3.6l-0.8-1c-1.9-2.3-3.9-4.3-6.2-6.2l-1-0.8l3.6-6.3l-10.6-6.1l-3.6,6.3l-1.2-0.5c-2.7-1-5.6-1.8-8.4-2.2l-1.2-0.2V255h-12.3
	v7.3l-1.2,0.2c-2.9,0.5-5.7,1.2-8.4,2.2l-1.2,0.5l-3.6-6.3l-10.6,6.1l3.6,6.3l-1,0.8c-2.3,1.9-4.3,3.9-6.2,6.2l-0.8,1l-6.3-3.6
	l-6.1,10.6l6.3,3.6l-0.4,1.2c-1,2.7-1.8,5.6-2.2,8.4l-0.2,1.2h-7.3v12.3h7.3l0.2,1.2c0.5,2.9,1.2,5.7,2.2,8.4l0.4,1.2l-6.3,3.6
	l6.1,10.6l6.3-3.6l0.8,1c1.9,2.2,3.9,4.3,6.2,6.2l1,0.8l-3.6,6.3l10.6,6.1l3.6-6.3l1.2,0.5c2.7,1,5.6,1.8,8.4,2.2l1.2,0.2
	L220.7,358.9z"/>
<path class="st0" d="M226.9,341c-18.8,0-34.1-15.3-34.1-34.1c0-18.8,15.3-34.1,34.1-34.1c18.8,0,34.1,15.3,34.1,34.1c0,0,0,0,0,0
	C261,325.8,245.7,341,226.9,341z M226.9,275.8c-17.2,0-31.1,13.9-31.1,31.1c0,17.2,13.9,31.1,31.1,31.1c17.2,0,31.1-13.9,31.1-31.1
	C258,289.7,244.1,275.8,226.9,275.8L226.9,275.8z"/>
<path class="st0" d="M236,361.9h-18.3v-7.8c-2.2-0.4-4.4-1-6.6-1.8l-3.9,6.7l-15.8-9.1l3.9-6.7c-1.7-1.5-3.3-3.1-4.8-4.8l-6.7,3.9
	l-9.1-15.8l6.7-3.9c-0.7-2.1-1.3-4.3-1.8-6.5h-7.8v-18.3h7.8c0.4-2.2,1-4.4,1.8-6.5l-6.7-3.9l9.1-15.8l6.7,3.9
	c1.5-1.7,3.1-3.3,4.8-4.8l-3.9-6.7l15.8-9.1l3.9,6.7c2.1-0.7,4.3-1.3,6.6-1.8V252H236v7.8c2.2,0.4,4.4,1,6.5,1.8l3.9-6.7l15.8,9.1
	l-3.9,6.7c1.7,1.5,3.3,3.1,4.8,4.8l6.7-3.9l9.1,15.8l-6.7,3.9c0.7,2.1,1.3,4.3,1.8,6.5h7.8v18.3H274c-0.4,2.2-1,4.4-1.8,6.5l6.7,3.9
	l-9.1,15.8l-6.7-3.9c-1.5,1.7-3.1,3.3-4.8,4.8l3.9,6.7l-15.8,9.1l-3.9-6.7c-2.1,0.7-4.3,1.3-6.5,1.8L236,361.9z M220.7,358.9H233
	v-7.3l1.2-0.2c2.9-0.5,5.7-1.2,8.4-2.2l1.2-0.5l3.6,6.3l10.6-6.1l-3.6-6.3l1-0.8c2.2-1.9,4.3-3.9,6.2-6.2l0.8-1l6.3,3.6l6.1-10.6
	l-6.3-3.6l0.5-1.2c1-2.7,1.8-5.6,2.2-8.4l0.2-1.2h7.3v-12.3h-7.3l-0.2-1.2c-0.5-2.9-1.2-5.7-2.2-8.4l-0.5-1.2l6.3-3.6l-6.1-10.6
	l-6.3,3.6l-0.8-1c-1.9-2.3-3.9-4.3-6.2-6.2l-1-0.8l3.6-6.3l-10.6-6.1l-3.6,6.3l-1.2-0.5c-2.7-1-5.6-1.8-8.4-2.2l-1.2-0.2V255h-12.3
	v7.3l-1.2,0.2c-2.9,0.5-5.7,1.2-8.4,2.2l-1.2,0.5l-3.6-6.3l-10.6,6.1l3.6,6.3l-1,0.8c-2.3,1.9-4.3,3.9-6.2,6.2l-0.8,1l-6.3-3.6
	l-6.1,10.6l6.3,3.6l-0.4,1.2c-1,2.7-1.8,5.6-2.2,8.4l-0.2,1.2h-7.3v12.3h7.3l0.2,1.2c0.5,2.9,1.2,5.7,2.2,8.4l0.4,1.2l-6.3,3.6
	l6.1,10.6l6.3-3.6l0.8,1c1.9,2.2,3.9,4.3,6.2,6.2l1,0.8l-3.6,6.3l10.6,6.1l3.6-6.3l1.2,0.5c2.7,1,5.6,1.8,8.4,2.2l1.2,0.2
	L220.7,358.9z"/>
<path class="st0" d="M226.9,341c-18.8,0-34.1-15.3-34.1-34.1c0-18.8,15.3-34.1,34.1-34.1c18.8,0,34.1,15.3,34.1,34.1c0,0,0,0,0,0
	C261,325.8,245.7,341,226.9,341z M226.9,275.8c-17.2,0-31.1,13.9-31.1,31.1c0,17.2,13.9,31.1,31.1,31.1c17.2,0,31.1-13.9,31.1-31.1
	C258,289.7,244.1,275.8,226.9,275.8L226.9,275.8z"/>
<path class="st1" d="M284.6,279l-8.2-2.2l1.6-5.9c-2.1-0.9-4-2-5.8-3.3l-4.3,4.3l-6-6l4.3-4.3c-1.4-1.8-2.5-3.7-3.4-5.8l-5.8,1.6
	l-2.2-8.2l5.8-1.6c-0.1-0.6-0.1-1.3-0.2-1.9c-0.1-1.6,0-3.2,0.1-4.8l-5.9-1.5l2.2-8.2l5.9,1.5c0.9-2,2-4,3.3-5.8l-4.3-4.3l6-6
	l4.3,4.3c1.8-1.4,3.7-2.5,5.8-3.4l-1.6-5.8l8.2-2.2l1.6,5.8c0.6-0.1,1.3-0.1,1.9-0.2c1.6-0.1,3.2,0,4.8,0.1l1.5-5.9l8.2,2.2
	l-1.5,5.9c2.1,0.9,4,2,5.8,3.3l4.3-4.3l6,6l-4.3,4.3c1.4,1.8,2.5,3.7,3.4,5.8l5.8-1.6l2.2,8.2l-5.8,1.6c0.1,0.6,0.1,1.3,0.2,1.9
	c0.1,1.6,0,3.2-0.1,4.8l5.9,1.5l-2.2,8.2l-5.9-1.6c-0.9,2.1-2,4-3.3,5.8l4.3,4.3l-6,6l-4.3-4.3c-1.8,1.4-3.7,2.5-5.8,3.4l1.6,5.8
	l-8.2,2.2l-1.6-5.8c-0.6,0.1-1.3,0.1-1.9,0.2c-1.6,0.1-3.2,0-4.8-0.1L284.6,279z M280.1,274.8l2.4,0.6l1.5-5.5l1.3,0.2
	c1.8,0.3,3.7,0.4,5.5,0.3c1-0.1,1.9-0.2,2.9-0.3l1.3-0.2l1.5,5.5l2.4-0.6l-1.5-5.5l1.3-0.5c2.6-1,5.1-2.4,7.3-4.2l1-0.9l4.1,4
	l1.8-1.8l-4.1-4l0.9-1c1.8-2.2,3.2-4.7,4.2-7.3l0.5-1.3l5.5,1.5l0.6-2.4l-5.5-1.5l0.2-1.3c0.3-1.8,0.4-3.7,0.3-5.5
	c-0.1-1-0.2-1.9-0.3-2.9l-0.2-1.3l5.5-1.5l-0.6-2.4l-5.5,1.5l-0.5-1.3c-1-2.6-2.4-5.1-4.2-7.3l-0.9-1l4-4.1l-1.7-1.8l-4,4.1l-1-0.9
	c-2.2-1.8-4.7-3.2-7.3-4.2l-1.3-0.5l1.5-5.6l-2.4-0.6l-1.5,5.6l-1.3-0.2c-1.8-0.3-3.7-0.4-5.5-0.3c-1,0.1-1.9,0.2-2.9,0.3l-1.3,0.2
	l-1.5-5.5l-2.4,0.6l1.5,5.5l-1.3,0.5c-2.6,1-5.1,2.4-7.3,4.2l-1,0.9l-4.1-4l-1.8,1.8l4.1,4.1l-0.9,1c-1.8,2.2-3.2,4.7-4.2,7.3
	l-0.5,1.3l-5.6-1.4l-0.6,2.4l5.5,1.5l-0.2,1.3c-0.3,1.8-0.4,3.7-0.3,5.6c0.1,1,0.2,1.9,0.3,2.9l0.2,1.3l-5.5,1.5l0.6,2.4l5.5-1.5
	l0.5,1.3c1,2.6,2.4,5.1,4.2,7.3l0.9,1l-4,4.1l1.8,1.8l4-4.1l1.1,0.9c2.2,1.8,4.7,3.2,7.3,4.2l1.3,0.5L280.1,274.8z"/>
<path class="st1" d="M289.4,263.7c-10.7,0-19.4-8.7-19.4-19.4s8.7-19.4,19.4-19.4s19.4,8.7,19.4,19.4v0
	C308.8,255,300.1,263.6,289.4,263.7z M289.4,227.9c-9.1,0-16.4,7.3-16.4,16.4c0,9.1,7.3,16.4,16.4,16.4c9.1,0,16.4-7.3,16.4-16.4
	c0,0,0,0,0,0C305.8,235.2,298.4,227.9,289.4,227.9z"/>
<path class="st0" d="M393.3,272.2v-74.7c0-7.1-5.8-12.8-12.8-12.8H132.5c-7.1,0-12.8,5.7-12.8,12.8V372c0,7.1,5.8,12.8,12.8,12.8
	h247.9c7.1,0,12.8-5.8,12.8-12.8v-49.7h32.1v-50.1H393.3z M390.3,372c0,5.4-4.4,9.8-9.8,9.8H132.5c-5.4,0-9.8-4.4-9.8-9.8V197.5
	c0-5.4,4.4-9.8,9.8-9.8h247.9c5.4,0,9.8,4.4,9.8,9.8v74.7h-32.1v50.1h32.1V372z M422.3,319.3h-61.2v-44.1h61.2V319.3z"/>
<path class="st0" d="M174.4,179.9h-2v-3h2V179.9z M174.4,170.9h-2v-3h2V170.9z M174.4,161.9h-2v-3h2V161.9z M174.4,152.9h-2v-3h2
	V152.9z M174.4,143.9h-2v-3h2V143.9z M174.4,134.9h-2v-3h2V134.9z M174.4,125.9h-2v-3h2V125.9z M174.4,116.9h-2v-3h2V116.9z
	 M174.4,107.9h-2v-3h2V107.9z M174.4,98.9h-2v-3h2V98.9z"/>
<path class="st0" d="M435.8,355.4h-3v-2h3V355.4z M426.8,355.4h-3v-2h3V355.4z M417.8,355.4h-3v-2h3V355.4z M408.8,355.4h-3v-2h3
	V355.4z M399.8,355.4h-3v-2h3V355.4z"/>
<path class="st0" d="M359.5,156.6h-3v-2h3V156.6z M350.5,156.6h-3v-2h3V156.6z M341.5,156.6h-3v-2h3V156.6z M332.5,156.6h-3v-2h3
	V156.6z M323.5,156.6h-3v-2h3V156.6z M314.5,156.6h-3v-2h3V156.6z M305.5,156.6h-3v-2h3V156.6z M296.5,156.6h-3v-2h3V156.6z
	 M287.5,156.6h-3v-2h3V156.6z M278.5,156.6h-3v-2h3V156.6z M269.5,156.6h-3v-2h3V156.6z M260.5,156.6h-3v-2h3V156.6z M251.5,156.6
	h-3v-2h3V156.6z M242.5,156.6h-3v-2h3V156.6z M233.5,156.6h-3v-2h3V156.6z M224.5,156.6h-3v-2h3V156.6z M215.5,156.6h-3v-2h3V156.6z
	 M206.5,156.6h-3v-2h3V156.6z M197.5,156.6h-3v-2h3V156.6z M188.5,156.6h-3v-2h3V156.6z M179.5,156.6h-3v-2h3V156.6z M170.5,156.6
	h-3v-2h3V156.6z M161.5,156.6h-3v-2h3V156.6z M152.5,156.6h-3v-2h3V156.6z M143.5,156.6h-3v-2h3V156.6z M134.5,156.6h-3v-2h3V156.6z
	 M125.5,156.6h-3v-2h3V156.6z"/>
<polygon class="st0" points="451.4,315.3 451.4,211.3 448.4,211.3 448.4,315.3 436.1,315.2 450,331.7 463.6,315.4 "/>
<path class="st1" d="M289.4,256.3c-6.6,0-12-5.4-12-12c0-4.3,2.3-8.2,6-10.4l1.5,2.6c-4.4,2.4-6,7.8-3.6,12.2
	c2.4,4.4,7.8,6,12.2,3.6c0.2-0.1,0.3-0.2,0.4-0.3l1.5,2.6C293.6,255.7,291.5,256.3,289.4,256.3z"/>
</svg>
