<?xml version="1.0" encoding="utf-8"?>
<!-- Generator: Adobe Illustrator 24.3.0, SVG Export Plug-In . SVG Version: 6.00 Build 0)  -->
<svg version="1.1" id="Laag_1" xmlns="http://www.w3.org/2000/svg" xmlns:xlink="http://www.w3.org/1999/xlink" x="0px" y="0px"
	 viewBox="0 0 566.9 566.9" style="enable-background:new 0 0 566.9 566.9;" xml:space="preserve">
<style type="text/css">
	.st0{fill:#6B6B7F;}
	.st1{fill:#FF5429;}
</style>
<path class="st0" d="M432.1,188.9v-3.4l-0.9-0.4c-3.6-1.4-7.4-2.3-11.2-2.9v-4c0-0.9-0.5-1.8-1.4-2.2
	c-33.6-17.5-124.3,9.7-134.5,12.9l-0.2,0.1c-17.8-5.4-35.9-9.9-54.1-13.4c-39.3-7.5-66.6-7.2-81.2,0.7l-0.8,0.4v5.5
	c-3.8,0.6-7.6,1.6-11.2,2.9l-0.9,0.4v3.4h-11.7v207.2h320V188.9H432.1z M429.1,187.5v201.1c-13.8-4.6-40.9-5.4-80.6-2.4
	c-16.8,1.3-32.9,3-44.8,4.4c30.6-8,89.6-20.8,114-7.5l2.2,1.2V185.2C423.1,185.7,426.2,186.5,429.1,187.5L429.1,187.5z M342.4,177.7
	c35.3-6.4,61.1-6.1,74.6,0.7v200.9c-14.2-6.5-38.8-6.7-73-0.7c-19.8,3.6-39.3,8.2-58.6,14V191.7c3-0.4,8.9-2.8,8.9-2.8
	c2.7-0.8,5.9-1.6,9.5-2.6C314.2,183.6,327.9,180.3,342.4,177.7z M150.8,178.4c24.7-12.6,82.6-0.1,113,7.9c3.6,1,6.9,1.8,9.6,2.6
	c0,0,5.9,2.4,8.9,2.8v200.9c-9.9-3-62.2-18.3-101.3-18.3c-11.8,0-22.5,1.4-30.3,5L150.8,178.4L150.8,178.4z M138.6,187.5
	c3-1,6-1.8,9.1-2.3v199.1l2.2-1.2c7.6-4.2,18.7-5.8,31.1-5.8c27.4,0,61.8,7.8,82.8,13.3c-21.5-2.6-56.5-6.1-85.5-6.1
	c-16.3,0-30.7,1.1-39.8,4.1V187.5L138.6,187.5z M126.9,393.2V191.9h8.7V393l2.1-0.8c22.4-9,87.5-3.1,122.7,1L126.9,393.2z
	 M440.9,393.2H307.5c35.1-4.1,100.2-10,122.6-1l2.1,0.8V192h8.7L440.9,393.2z"/>
<path class="st0" d="M405.6,337.2l-0.8,2.9c-45.6-12.2-100.2,11.9-100.7,12.2l-1.2-2.7C303.4,349.3,358.9,324.6,405.6,337.2z"/>
<path class="st0" d="M405.6,312.5l-0.8,2.9c-45.6-12.2-100.2,11.9-100.7,12.2l-1.2-2.7C303.4,324.6,358.9,300,405.6,312.5z"/>
<path class="st0" d="M405.6,287.8l-0.8,2.9c-45.6-12.2-100.2,11.9-100.7,12.2l-1.2-2.7C303.4,299.9,358.9,275.3,405.6,287.8z"/>
<path class="st0" d="M405.6,263.1l-0.8,2.9c-45.6-12.2-100.2,12-100.7,12.2l-1.2-2.7C303.4,275.2,358.9,250.6,405.6,263.1z"/>
<path class="st0" d="M405.6,238.5l-0.8,2.9c-45.6-12.2-100.2,11.9-100.7,12.2l-1.2-2.7C303.4,250.6,358.9,225.9,405.6,238.5z"/>
<path class="st0" d="M405.6,213.8l-0.8,2.9c-45.6-12.2-100.2,11.9-100.7,12.2l-1.2-2.7C303.4,225.9,358.9,201.3,405.6,213.8z"/>
<path class="st0" d="M380.8,168.4h-2v-3h2V168.4z M380.8,159.4h-2v-3h2V159.4z M380.8,150.4h-2v-3h2V150.4z M380.8,141.4h-2v-3h2
	V141.4z M380.8,132.4h-2v-3h2V132.4z M380.8,123.4h-2v-3h2V123.4z M380.8,114.4h-2v-3h2V114.4z"/>
<path class="st0" d="M394.8,136.4h-3v-2h3V136.4z M385.8,136.4h-3v-2h3V136.4z M376.8,136.4h-3v-2h3V136.4z M367.8,136.4h-3v-2h3
	V136.4z M358.8,136.4h-3v-2h3V136.4z M349.8,136.4h-3v-2h3V136.4z M340.8,136.4h-3v-2h3V136.4z M331.8,136.4h-3v-2h3V136.4z
	 M322.8,136.4h-3v-2h3V136.4z M313.8,136.4h-3v-2h3V136.4z M304.8,136.4h-3v-2h3V136.4z M295.8,136.4h-3v-2h3V136.4z M286.8,136.4
	h-3v-2h3V136.4z M277.8,136.4h-3v-2h3V136.4z M268.8,136.4h-3v-2h3V136.4z M259.8,136.4h-3v-2h3V136.4z M250.8,136.4h-3v-2h3V136.4z
	"/>
<path class="st0" d="M167.8,429.9h-2v-3h2V429.9z M167.8,420.9h-2v-3h2V420.9z M167.8,411.9h-2v-3h2V411.9z M167.8,402.9h-2v-3h2
	V402.9z"/>
<path class="st0" d="M118,329.4h-3v-2h3V329.4z M109,329.4h-3v-2h3V329.4z M100,329.4h-3v-2h3V329.4z M91,329.4h-3v-2h3V329.4z
	 M82,329.4h-3v-2h3V329.4z"/>
<g id="samotics-mark-orange_1_">
	<g id="Layer_2_2_">
		<g id="Layer_1-2_1_">
			<rect x="218.8" y="218.1" class="st1" width="41.7" height="20.9"/>
			<rect x="177.1" y="322.4" class="st1" width="41.7" height="20.9"/>
			<path class="st1" d="M260.5,322.4v-7.7c0-13.5-9.1-25.3-22.1-28.8l-39.3-10.5c-13-3.5-22.1-15.3-22.1-28.8V239h41.7v83.5H260.5z"
				/>
		</g>
	</g>
</g>
</svg>
