<?xml version="1.0" encoding="utf-8"?>
<!-- Generator: Adobe Illustrator 24.3.0, SVG Export Plug-In . SVG Version: 6.00 Build 0)  -->
<svg version="1.1" id="Laag_1" xmlns="http://www.w3.org/2000/svg" xmlns:xlink="http://www.w3.org/1999/xlink" x="0px" y="0px"
	 viewBox="0 0 566.9 566.9" style="enable-background:new 0 0 566.9 566.9;" xml:space="preserve">
<style type="text/css">
	.st0{fill:#FF5429;}
	.st1{fill:#FFFFFF;}
	.st2{fill:#6B6B7F;}
</style>
<path class="st0" d="M216.2,381.8l-15.2-42.3h-3.2l15.5,43.4c2.7,7.6,1.7,16-2.7,22.8c-4.1,6.4-10.9,10.5-18.5,11
	c-1.2,0.1-2.4,0.1-3.6,0c-7.6-0.5-14.4-4.6-18.5-11c-4.4-6.7-5.4-15.1-2.7-22.7l15.5-43.4h-3.2l-15.2,42.4c-3,8.5-1.9,17.9,3,25.4
	c4.6,7.2,12.3,11.7,20.8,12.3c0.7,0,1.3,0.1,2,0.1s1.3,0,2-0.1c8.5-0.6,16.2-5.1,20.8-12.3C218.1,399.7,219.2,390.3,216.2,381.8z"/>
<path class="st0" d="M190,410.1c-10,0-18.2-8.1-18.2-18.1h3c0,8.4,6.8,15.1,15.2,15.1V410.1z"/>
<rect x="151.7" y="314.7" class="st1" width="77.3" height="21.8"/>
<path class="st2" d="M404.1,200.6h-6.9c-7.8,0-14.1,6.3-14.1,14.1v5.8h-14.6V219h-2v1.5h-64v-7c0-4.3-3.5-7.8-7.8-7.8h-1.1v-16
	l20,1.5h0.9c6.6,0.2,12.2-5,12.4-11.6c0.2-6.6-5-12.2-11.6-12.4c-0.6,0-1.2,0-1.7,0.1l-22.7,1.8c-5.6-9.5-17.9-12.7-27.4-7.1
	c-2.9,1.7-5.4,4.2-7.1,7.1l-22.8-1.8c-6.6-0.7-12.5,4-13.2,10.6c-0.7,6.6,4,12.5,10.6,13.2c0.6,0.1,1.2,0.1,1.7,0.1
	c0.3,0,0.6,0,0.9,0l19.9-1.5v16h-1.1c-4.3,0-7.8,3.5-7.8,7.8v7h-12.4c-40.4,0.1-73.1,32.8-73.1,73.1v18.1h-10.6v27.8h83.3v-27.8
	h-10.4v-18.1c0-5.9,4.8-10.7,10.7-10.7h12.4v14.7h57.8v-14.7h80.6v7c0,7.8,6.3,14.1,14,14.2c0,0,0,0,0,0h6.9
	c7.8,0,14.1-6.3,14.1-14.1v-75.2C418.2,206.9,411.9,200.6,404.1,200.6C404.1,200.6,404.1,200.6,404.1,200.6z M229.1,314.7v21.8
	h-77.3v-21.8H229.1z M244.7,279.8h-12.4c-7.6,0-13.7,6.2-13.7,13.7v18.1h-56.4v-18.1c0-38.7,31.4-70.1,70.1-70.1h12.4V279.8z
	 M292.3,172.1l21.6-1.7c4.9-0.5,9.4,3.1,9.9,8.1c0.5,4.9-3.1,9.4-8.1,9.9c-0.6,0.1-1.2,0.1-1.8,0l-20.4-1.6l-1.2-0.1
	c0.3-0.6,0.5-1.2,0.6-1.9C294.1,180.6,293.9,176.1,292.3,172.1z M258.1,172.3c0.5-1,1-2,1.7-2.9c5.5-7.6,16.1-9.4,23.7-3.9
	c1.5,1.1,2.8,2.4,3.9,3.9c0.7,0.9,1.2,1.9,1.7,2.9c1,2.2,1.5,4.6,1.5,7.1c0,0.6,0,1.2-0.1,1.8c-0.1,1.3-0.4,2.6-0.9,3.8
	c0.3,0.5,0.5,1,0.6,1.5l-1.2-0.1c-0.5,1-1,2-1.7,2.9c-5.5,7.6-16.1,9.4-23.7,3.9c-1.5-1.1-2.9-2.4-3.9-3.9c-0.7-0.9-1.2-1.9-1.7-2.9
	c-0.2-0.5-0.4-0.9-0.6-1.4c-0.4-1.2-0.7-2.5-0.9-3.8c-0.1-0.6-0.1-1.2-0.1-1.8C256.6,176.9,257.1,174.5,258.1,172.3L258.1,172.3z
	 M256.6,189.5v0.4c5.8,9.4,18.1,12.3,27.5,6.5c2.7-1.6,4.9-3.9,6.5-6.5v-0.4h0.2l-0.2,0.4v25.5c0,4.3-3.5,7.9-7.9,7.9h-18.3
	c-4.3,0-7.8-3.5-7.9-7.9v-25.5c-0.1-0.1-0.1-0.2-0.2-0.3L256.6,189.5z M233.4,188.3c-4.9,0.6-9.4-2.9-10-7.9s2.9-9.4,7.9-10
	c0.5-0.1,0.9-0.1,1.4-0.1h0.7l21.6,1.7c-1.6,4.1-1.8,8.5-0.6,12.7c0.2,0.6,0.4,1.3,0.6,1.9l-1.2,0.1L233.4,188.3z M299.5,294.6
	h-51.8v-81c0-2.6,2.1-4.8,4.8-4.8h1.1v6.7c0,6,4.9,10.9,10.9,10.9h18.3c6,0,10.8-4.9,10.9-10.9v-6.7h1.1c2.6,0,4.8,2.1,4.8,4.8
	L299.5,294.6z M383.1,279.8h-80.6v-56.4h80.6L383.1,279.8z M415.2,289.8c0,6.1-4.9,11.1-11,11.2c0,0,0,0-0.1,0h-6.9
	c-6.1,0-11.1-5-11.1-11.1v-75.2c0-6.1,5-11.1,11.1-11.1h6.9c6.1,0,11.1,5,11.1,11.1V289.8z"/>
<path class="st1" d="M290.7,179.4c0,0.6,0,1.2-0.1,1.8c-0.1,1.3-0.4,2.6-0.9,3.8c-0.2,0.5-0.4,1-0.6,1.4c-0.5,1-1,2-1.7,2.9
	c-5.5,7.6-16.1,9.4-23.7,3.9c-1.5-1.1-2.9-2.4-3.9-3.9c-0.7-0.9-1.2-1.9-1.7-2.9c-0.2-0.5-0.4-0.9-0.6-1.4c-0.4-1.2-0.7-2.5-0.9-3.8
	c-0.1-0.6-0.1-1.2-0.1-1.8c0-2.4,0.5-4.8,1.5-7.1c0.5-1,1-2,1.7-2.9c5.5-7.6,16.1-9.4,23.7-3.9c1.5,1.1,2.8,2.4,3.9,3.9
	c0.7,0.9,1.2,1.9,1.7,2.9C290.1,174.5,290.7,176.9,290.7,179.4z"/>
<path class="st2" d="M256.4,189.6c0.1,0.1,0.1,0.2,0.2,0.3v-0.4L256.4,189.6z M256.4,189.6c0.1,0.1,0.1,0.2,0.2,0.3v-0.4
	L256.4,189.6z M290.7,189.6v0.4l0.2-0.4L290.7,189.6z M292.9,184.8c-0.2,0.6-0.4,1.3-0.6,1.9l1.2,0.1
	C293.4,186.1,293.2,185.4,292.9,184.8L292.9,184.8z M256.4,189.6c0.1,0.1,0.1,0.2,0.2,0.3v-0.4L256.4,189.6z M256.4,189.6
	c0.1,0.1,0.1,0.2,0.2,0.3v-0.4L256.4,189.6z M254.4,184.8c-0.3,0.6-0.4,1.3-0.6,2l1.2-0.1C254.8,186.1,254.5,185.4,254.4,184.8
	L254.4,184.8z"/>
<path class="st2" d="M256.4,189.6c0.1,0.1,0.1,0.2,0.2,0.3v-0.4L256.4,189.6z M289.7,185c-0.2,0.5-0.4,1-0.6,1.4l1.2,0.1
	C290.2,186,290,185.5,289.7,185z M290.7,189.6v0.4l0.2-0.4L290.7,189.6z"/>
<path class="st1" d="M290.7,189.9v25.5c0,4.3-3.5,7.9-7.9,7.9h-18.3c-4.3,0-7.8-3.5-7.9-7.9v-25.5c5.8,9.4,18.1,12.3,27.5,6.5
	C286.8,194.8,289,192.5,290.7,189.9L290.7,189.9z"/>
<path class="st2" d="M366.6,111v3h2v-3H366.6z M366.6,120v3h2v-3H366.6z M366.6,129v3h2v-3H366.6z M366.6,138v3h2v-3H366.6z
	 M366.6,147v3h2v-3H366.6z M366.6,156v3h2v-3H366.6z M366.6,165v3h2v-3H366.6z M366.6,174v3h2v-3H366.6z M366.6,183v3h2v-3H366.6z
	 M366.6,192v3h2v-3H366.6z M366.6,201v3h2v-3H366.6z M366.6,210v3h2v-3H366.6z"/>
<path class="st2" d="M418.6,127h-3v-2h3V127z M409.6,127h-3v-2h3V127z M400.6,127h-3v-2h3V127z M391.6,127h-3v-2h3V127z M382.6,127
	h-3v-2h3V127z M373.6,127h-3v-2h3V127z M364.6,127h-3v-2h3V127z M355.6,127h-3v-2h3V127z M346.6,127h-3v-2h3V127z M337.6,127h-3v-2
	h3V127z"/>
<path class="st2" d="M309.4,375.7h-3v-2h3V375.7z M300.4,375.7h-3v-2h3V375.7z M291.4,375.7h-3v-2h3V375.7z M282.4,375.7h-3v-2h3
	V375.7z M273.4,375.7h-3v-2h3V375.7z M264.4,375.7h-3v-2h3V375.7z M255.4,375.7h-3v-2h3V375.7z M246.4,375.7h-3v-2h3V375.7z
	 M237.4,375.7h-3v-2h3V375.7z M228.4,375.7h-3v-2h3V375.7z M219.4,375.7h-3v-2h3V375.7z"/>
</svg>
