<?xml version="1.0" encoding="utf-8"?>
<!-- Generator: Adobe Illustrator 24.3.0, SVG Export Plug-In . SVG Version: 6.00 Build 0)  -->
<svg version="1.1" id="Laag_1" xmlns="http://www.w3.org/2000/svg" xmlns:xlink="http://www.w3.org/1999/xlink" x="0px" y="0px"
	 viewBox="0 0 566.9 566.9" style="enable-background:new 0 0 566.9 566.9;" xml:space="preserve">
<style type="text/css">
	.st0{fill:#FF5429;}
	.st1{fill:#6B6B7F;}
</style>
<path class="st0" d="M192.4,417.9c-4.2-1.3-8.2-2.9-12.1-4.8c-15.2-7.5-43.5,2.6-53.7,9.9l-1.7-2.5c11-7.8,40.3-18.2,56.8-10.1
	c3.5,1.7,7,3.2,10.7,4.3L192.4,417.9z"/>
<path class="st0" d="M334.4,417.3c-12.1,1-24.6-0.1-34.3-3.7c-17.3-6.5-39.4-5.6-57.6,2.2c-10.7,4.6-22.4,6.4-34.1,5.3l0.1-3
	c11.2,1.1,22.5-0.7,32.8-5.1c18.9-8.1,41.8-9,59.9-2.3c9.4,3.5,21.6,4.6,33.2,3.6L334.4,417.3z"/>
<path class="st0" d="M424.4,411.2l-1.3,2.7c-9.5-4.7-45.4-13.3-58.6-5.3c-4.3,2.5-9,4.5-13.9,5.8l0.1-3.1c4.3-1.2,8.4-3,12.2-5.2
	c8.2-5,22.6-4.1,33.1-2.5C408.2,405.5,419.8,408.9,424.4,411.2z"/>
<rect x="148.9" y="378.3" class="st1" width="3" height="2"/>
<rect x="238.9" y="378.3" class="st1" width="3" height="2"/>
<rect x="211.9" y="378.3" class="st1" width="3" height="2"/>
<rect x="139.9" y="378.3" class="st1" width="3" height="2"/>
<rect x="220.9" y="378.3" class="st1" width="3" height="2"/>
<rect x="247.9" y="378.3" class="st1" width="3" height="2"/>
<rect x="175.9" y="378.3" class="st1" width="3" height="2"/>
<rect x="166.9" y="378.3" class="st1" width="3" height="2"/>
<rect x="157.9" y="378.3" class="st1" width="3" height="2"/>
<rect x="184.9" y="378.3" class="st1" width="3" height="2"/>
<rect x="229.9" y="378.3" class="st1" width="3" height="2"/>
<rect x="274.9" y="378.3" class="st1" width="3" height="2"/>
<rect x="265.9" y="378.3" class="st1" width="3" height="2"/>
<rect x="256.9" y="378.3" class="st1" width="3" height="2"/>
<rect x="353.2" y="195.1" class="st1" width="3" height="2"/>
<rect x="362.2" y="195.1" class="st1" width="3" height="2"/>
<rect x="236.2" y="195.1" class="st1" width="3" height="2"/>
<rect x="335.2" y="195.1" class="st1" width="3" height="2"/>
<rect x="371.2" y="195.1" class="st1" width="3" height="2"/>
<rect x="380.2" y="195.1" class="st1" width="3" height="2"/>
<rect x="407.2" y="195.1" class="st1" width="3" height="2"/>
<rect x="416.2" y="195.1" class="st1" width="3" height="2"/>
<rect x="389.2" y="195.1" class="st1" width="3" height="2"/>
<rect x="398.2" y="195.1" class="st1" width="3" height="2"/>
<rect x="344.2" y="195.1" class="st1" width="3" height="2"/>
<rect x="254.2" y="195.1" class="st1" width="3" height="2"/>
<rect x="245.2" y="195.1" class="st1" width="3" height="2"/>
<rect x="326.2" y="195.1" class="st1" width="3" height="2"/>
<rect x="209.2" y="195.1" class="st1" width="3" height="2"/>
<rect x="218.2" y="195.1" class="st1" width="3" height="2"/>
<rect x="317.2" y="195.1" class="st1" width="3" height="2"/>
<rect x="227.2" y="195.1" class="st1" width="3" height="2"/>
<path class="st1" d="M448.2,243.2c-2.8-3.6-8-4.3-11.7-1.5c0,0,0,0,0,0c-0.2,0.2-0.4,0.3-0.6,0.5l-80,52.7h-10.5
	c-7.1,0-12.8,5.7-12.8,12.8V333h-6.8l-9.5-125.2v-28.9h12.1v-18.1h-83.6v18.1h14.5v28.9L249.8,333h-4.3v-37.4
	c0-7.1-5.8-12.8-12.8-12.8h-52.6c-7.1,0-12.8,5.8-12.8,12.8V333h-10v27.4h33.6l1.4,54.6l0.1,3.2l0.5,19.1H208l0.4-15.9l0.1-3l1.5-58
	h123l1.4,54.2l0.1,3l0.5,19.7H350l0.6-22.6l0.1-3.1l1.3-51.2h33.6V333h-12.2v-12.9l61.5-55l4.7,46.2c0.1,1,0.9,1.7,1.9,1.7l0,0
	c1,0,1.8-0.7,1.9-1.7l6.3-61.6c0-0.1,0-0.3,0.1-0.4C450.1,247.2,449.5,245,448.2,243.2z M170.2,295.6c0-5.4,4.4-9.8,9.8-9.8h52.6
	c5.4,0,9.8,4.4,9.8,9.8v37.2h-72.2L170.2,295.6z M444.4,252.7l-0.1,0.1c-2.4,1.6-5.7,0.8-7.3-1.6c-0.4-0.6-0.6-1.2-0.7-1.9l-0.1-0.9
	c0-0.3,0-0.5,0-0.8c0.2-1.2,0.7-2.3,1.6-3.1l0.2-0.1c2.4-1.6,5.7-1,7.3,1.4C446.7,248.1,446.3,251,444.4,252.7L444.4,252.7z
	 M437,255.2c1,0.7,2.1,1.1,3.2,1.3l0,0l-2.9,2.5L437,255.2z M433.3,247.5L433.3,247.5c-0.1,0.8,0,1.6,0.1,2.4l0.5,5.4l-13.3,0.5l0,0
	L433.3,247.5z M414.2,279.7l3.3-18.6l7.1,9.3L414.2,279.7L414.2,279.7z M414.8,259.8l-3.4,19.1l-8.6-11.2l0,0L414.8,259.8z
	 M400.2,269.3L400.2,269.3l8.5,11l-19.8-3.5l0,0L400.2,269.3z M382.9,303.3l-11.5-15l11.9-7.9L382.9,303.3z M385.9,305l0.4-23.1
	l10.4,13.5L385.9,305L385.9,305z M368.9,290L368.9,290l11.4,14.9l0,0l-8-2.4c-2-4.3-6.2-7.2-10.9-7.5L368.9,290z M335.6,307.8
	c0-5.4,4.4-9.8,9.8-9.8h15.2c2.8,0,5.4,1.2,7.3,3.2l0,0c1,1.1,1.7,2.3,2.1,3.7c0.3,0.9,0.4,1.9,0.4,2.8v25h-10v-21.4h-14.8v21.5
	h-10.1L335.6,307.8z M348.7,332.7v-18.4h8.8v18.3L348.7,332.7z M291.5,318l29.2-13l2,27L291.5,318z M317.3,332.8h-59.1l29.6-13.2
	L317.3,332.8z M315,304.2l-27.2,12.1l-27.2-12.1H315z M260.3,301.2l27.7-13.1l27.4,13.1H260.3z M291.6,286.4l26.8-12.6l2,26.4
	L291.6,286.4z M313.9,272.6l-25.8,12.2l-25.4-12.2H313.9z M260.1,269.6l26.9-13.4l25.6,13.4L260.1,269.6z M290.4,254.5l25.6-12.7
	l2,27.2L290.4,254.5z M310.8,241L287,252.8L264.4,241H310.8z M264.1,238l23.7-13.3l23.7,13.3H264.1z M290.9,223l22.7-12.7l2,26.5
	L290.9,223z M287.8,221.3l-21.3-11.9h42.6L287.8,221.3z M284.7,223L260,236.8l2-26.5L284.7,223z M259.7,241.9l24.1,12.6l-26,12.9
	L259.7,241.9z M257.3,273.3l27.3,13.1l-29.3,13.8L257.3,273.3z M254.9,304.9l29.2,13l-31.3,14L254.9,304.9z M247.8,175.9v-12.1h77.6
	v12.1L247.8,175.9L247.8,175.9z M313.4,178.9v27.5h-51.1v-27.5L313.4,178.9z M382.6,357.4H349l-1.4,55l-0.1,3.1l-0.5,18.8h-9.3
	l-0.4-17l-0.1-3l-1.5-56.9H207l-1.6,60.7l-0.1,3l-0.3,13.2h-9.3l-0.4-15.2l-0.1-3.1l-1.5-58.5h-33.6V336h222.4L382.6,357.4z
	 M373.5,316.2v-8.4c0-0.6,0-1.3-0.1-1.9l8.7,2.6L373.5,316.2z M399,293.4L399,293.4l-10.5-13.6l21.5,3.8l0,0L399,293.4z M427,268.4
	L427,268.4l-7.3-9.5l14.7-0.6l0.3,3.2L427,268.4z M441.6,300.5l-3.8-37.8l8.3-7.4l0.1-0.1h0L441.6,300.5z"/>
<path class="st1" d="M179.4,321h14.8v-24.4h-14.8V321z M182.4,299.7h8.8V318h-8.8V299.7z"/>
<path class="st1" d="M199,321.4h14.8v-24.3H199V321.4z M202,300.1h8.8v18.3H202V300.1z"/>
<path class="st1" d="M218.6,321.8h14.8v-24.3h-14.8V321.8z M221.6,300.5h8.8v18.3h-8.8V300.5z"/>
<rect x="394.3" y="190.4" class="st1" width="2" height="3"/>
<rect x="394.3" y="181.4" class="st1" width="2" height="3"/>
<rect x="394.3" y="172.4" class="st1" width="2" height="3"/>
<rect x="394.3" y="235.4" class="st1" width="2" height="3"/>
<rect x="394.3" y="226.4" class="st1" width="2" height="3"/>
<rect x="394.3" y="208.4" class="st1" width="2" height="3"/>
<rect x="394.3" y="199.4" class="st1" width="2" height="3"/>
<rect x="394.3" y="217.4" class="st1" width="2" height="3"/>
</svg>
