<?xml version="1.0" encoding="utf-8"?>
<!-- Generator: Adobe Illustrator 24.3.0, SVG Export Plug-In . SVG Version: 6.00 Build 0)  -->
<svg version="1.1" id="Layer_1" xmlns="http://www.w3.org/2000/svg" xmlns:xlink="http://www.w3.org/1999/xlink" x="0px" y="0px"
	 viewBox="0 0 566.9 566.9" style="enable-background:new 0 0 566.9 566.9;" xml:space="preserve">
<style type="text/css">
	.st0{fill:#FF5429;}
	.st1{fill:#6B6B7F;}
</style>
<g id="Laag_4">
	<path class="st0" d="M150.3,242.4c-3.2,0-6.3-1.3-8.6-3.5l-23.8-23.3c-2.2-2.1-2.3-5.7-0.1-7.9c0.4-0.4,0.8-0.7,1.3-1
		c2.8-1.6,6.2-1.6,9-0.1l24.3,12.9l34.8-9.3l-25.4-28.4c-2.1-2.3-1.9-5.9,0.4-7.9c0.7-0.6,1.5-1.1,2.4-1.3l3.8-0.9
		c3-0.7,6.2-0.4,8.9,1.1l49.2,26.4l57.6-12.4c2.3-0.5,4.8-0.2,6.9,0.8l1,0.5c5.3,2.6,7.5,9,5,14.3c-1.4,2.9-4,5-7.1,5.7L153.3,242
		C152.3,242.2,151.3,242.4,150.3,242.4z M123.7,208.5c-1.1,0-2.2,0.3-3.2,0.8c-0.7,0.4-1.2,1.1-1.3,1.9c-0.1,0.8,0.2,1.6,0.8,2.2
		l23.8,23.3c2.3,2.3,5.6,3.2,8.8,2.4l136.8-33.9c4.1-1,6.7-5.2,5.6-9.4c-0.6-2.2-2.1-4.1-4.1-5.1l-1-0.5c-1.6-0.7-3.3-1-5-0.6
		l-58.7,12.7l-0.5-0.3l-49.7-26.7c-2.1-1.1-4.5-1.4-6.8-0.9l-3.8,0.9c-1.4,0.4-2.3,1.8-1.9,3.2c0.1,0.4,0.3,0.8,0.6,1.1l28.6,32
		L152,222.7l-25.4-13.5C125.7,208.7,124.7,208.5,123.7,208.5z"/>
	<path class="st0" d="M240,261.8c-2.1,0-4.1-0.8-5.6-2.3l-26.3-26.3l34.9-8.6l4.7,28.1c0.7,4.3-2.2,8.4-6.5,9.1
		C240.8,261.7,240.4,261.8,240,261.8L240,261.8z M214,234.8l22.6,22.5c1.9,1.9,5,1.9,6.9,0c1.1-1.1,1.6-2.7,1.4-4.2l-4.2-24.9
		L214,234.8z"/>
	<rect x="131.3" y="343.8" class="st1" width="2" height="3"/>
	<rect x="131.3" y="271.8" class="st1" width="2" height="3"/>
	<rect x="131.3" y="334.8" class="st1" width="2" height="3"/>
	<rect x="131.3" y="244.8" class="st1" width="2" height="3"/>
	<rect x="131.3" y="280.8" class="st1" width="2" height="3"/>
	<rect x="131.3" y="253.8" class="st1" width="2" height="3"/>
	<rect x="131.3" y="262.8" class="st1" width="2" height="3"/>
	<rect x="131.3" y="235.8" class="st1" width="2" height="3"/>
	<rect x="131.3" y="298.8" class="st1" width="2" height="3"/>
	<rect x="131.3" y="325.8" class="st1" width="2" height="3"/>
	<rect x="131.3" y="307.8" class="st1" width="2" height="3"/>
	<rect x="131.3" y="316.8" class="st1" width="2" height="3"/>
	<rect x="131.3" y="289.8" class="st1" width="2" height="3"/>
	<rect x="131.3" y="193.4" class="st1" width="2" height="3"/>
	<rect x="131.3" y="202.4" class="st1" width="2" height="3"/>
	<rect x="131.3" y="184.4" class="st1" width="2" height="3"/>
	<rect x="131.3" y="166.4" class="st1" width="2" height="3"/>
	<rect x="131.3" y="175.4" class="st1" width="2" height="3"/>
	<rect x="437.1" y="322.2" class="st1" width="3" height="2"/>
	<rect x="455.1" y="322.2" class="st1" width="3" height="2"/>
	<rect x="446.1" y="322.2" class="st1" width="3" height="2"/>
	<rect x="464.1" y="322.2" class="st1" width="3" height="2"/>
	<rect x="419.1" y="322.2" class="st1" width="3" height="2"/>
	<rect x="428.1" y="322.2" class="st1" width="3" height="2"/>
	<rect x="410.1" y="322.2" class="st1" width="3" height="2"/>
	<rect x="401.1" y="322.2" class="st1" width="3" height="2"/>
	<rect x="451.2" y="245.5" class="st1" width="2" height="3"/>
	<rect x="451.2" y="263.5" class="st1" width="2" height="3"/>
	<rect x="451.2" y="281.5" class="st1" width="2" height="3"/>
	<rect x="451.2" y="272.5" class="st1" width="2" height="3"/>
	<rect x="451.2" y="290.5" class="st1" width="2" height="3"/>
	<rect x="451.2" y="299.5" class="st1" width="2" height="3"/>
	<rect x="451.2" y="254.5" class="st1" width="2" height="3"/>
	<rect x="451.2" y="209.5" class="st1" width="2" height="3"/>
	<rect x="451.2" y="218.5" class="st1" width="2" height="3"/>
	<rect x="451.2" y="308.5" class="st1" width="2" height="3"/>
	<rect x="451.2" y="236.5" class="st1" width="2" height="3"/>
	<rect x="451.2" y="227.5" class="st1" width="2" height="3"/>
	<rect x="451.2" y="317.5" class="st1" width="2" height="3"/>
	<rect x="451.2" y="335.5" class="st1" width="2" height="3"/>
	<rect x="451.2" y="326.5" class="st1" width="2" height="3"/>
	<path class="st1" d="M399.5,276.2h10.4l18.8-11.6c0.5-0.3,0.8-0.9,0.7-1.4h0.2v-30.4l0.2-0.3l-0.4-0.8l-19.2-24h-32.3V200h10.6v-14
		h-24.4v14h10.8v7.7h-32.3l-19.1,23.8l-0.1,0.2c-0.1,0.3-0.2,0.6-0.2,0.9l0,0v30.6l0,0L323,264l19.9,12.3h10.4v74H114.5v79h338.3
		v-79h-53.3V276.2z M367.1,188.9h18.4v8h-18.4V188.9z M426.7,254.7h-31.5v-20.6h31.5V254.7z M392.1,254.7h-31.5v-20.6h31.5V254.7z
		 M357.6,254.7h-31.5v-20.6h31.5V254.7z M326.2,257.7h31.5v4h-31.5V257.7z M360.6,257.7h31.5v4h-31.5V257.7z M395.1,257.7h31.5v4
		h-31.5V257.7z M344,210.7h64.7l16.3,20.4h-97.4L344,210.7z M343.7,273.2l-13.8-8.5h93l-13.9,8.5L343.7,273.2L343.7,273.2z
		 M396.5,276.2v73.6h-40.2v-73.6L396.5,276.2z M238.9,426.2v-24.9h20.5v24.9h3v-24.9h20.5v24.9L238.9,426.2z M449.8,426.2H285.9
		v-27.9h-50v27.9H117.5v-73h332.3L449.8,426.2z"/>
	<path class="st1" d="M160.1,398.3h-34.7v16.3h34.7V398.3z M157.1,411.6h-28.7v-10.3h28.7V411.6z"/>
	<path class="st1" d="M172.4,414.6h34.7v-16.3h-34.7V414.6z M175.4,401.3h28.7v10.3h-28.7V401.3z"/>
	<path class="st1" d="M313.2,414.6H348v-16.3h-34.8V414.6z M316.2,401.3H345v10.3h-28.8V401.3z"/>
	<path class="st1" d="M394.9,398.3h-34.7v16.3h34.7V398.3z M391.9,411.6h-28.7v-10.3h28.7V411.6z"/>
	<path class="st1" d="M441.9,398.3h-34.7v16.3h34.7V398.3z M438.9,411.6h-28.7v-10.3h28.7V411.6z"/>
	<path class="st1" d="M394.9,364.9h-34.7v16.3h34.7V364.9z M391.9,378.2h-28.7v-10.3h28.7V378.2z"/>
	<path class="st1" d="M441.9,364.9h-34.7v16.3h34.7V364.9z M438.9,378.2h-28.7v-10.3h28.7V378.2z"/>
	<path class="st1" d="M348,364.9H125.4v21.3H348V364.9z M196.4,367.9h39.3v15.3h-39.3L196.4,367.9z M193.4,383.2h-39.3v-15.3h39.2
		L193.4,383.2z M238.7,367.9h39.3v15.3h-39.3L238.7,367.9z M280.9,367.9h39.3v15.3h-39.3L280.9,367.9z M128.4,367.9h22.8v15.3h-22.8
		L128.4,367.9z M345,383.2h-21.8v-15.3H345V383.2z"/>
</g>
</svg>
