<?xml version="1.0" encoding="utf-8"?>
<!-- Generator: Adobe Illustrator 24.3.0, SVG Export Plug-In . SVG Version: 6.00 Build 0)  -->
<svg version="1.1" id="Laag_1" xmlns="http://www.w3.org/2000/svg" xmlns:xlink="http://www.w3.org/1999/xlink" x="0px" y="0px"
	 viewBox="0 0 566.9 566.9" style="enable-background:new 0 0 566.9 566.9;" xml:space="preserve">
<style type="text/css">
	.st0{fill:#6B6B7F;}
	.st1{fill:#FF5429;}
</style>
<path class="st0" d="M370.5,167.9l-0.2-3l-162.9,10.4c-12.2,0.8-22.6-8.4-23.4-20.6c-0.7-11.3,7.2-21.3,18.4-23.2l168.3-30l-0.5-3
	l-168.3,30c-13.6,2.3-22.8,15.1-20.6,28.8c0.5,3.2,1.7,6.3,3.4,9h-0.2V184h-6l-7.8,34.2h6.8L174,231l4.8,25.2l12.4-0.3l-3.5-20.7
	l9-16.9H214l8.9,16.9l-3.5,20.7l12.4,0.3l4.8-25.2l-3.6-12.7h6.2l-5.4-34.2h-5.5V177L370.5,167.9z M184.4,234.7l3.1,18.3l-6.4,0.1
	l-4.1-22l3.4-12.3l12.2,0.3L184.4,234.7z M229.2,253.1l-6.4-0.1l3.1-18.3l-8.2-15.6l12.2-0.3l3.4,12.3L229.2,253.1z M235.7,215.3
	h-61.2l6.4-28.2h50.4L235.7,215.3z M225.3,184.1h-37.8v-13.9c4.7,5.2,11.5,8.2,18.6,8.2c0.5,0,1,0,1.6-0.1l17.7-1.1L225.3,184.1z"/>
<path class="st0" d="M198.7,153c0,6,4.9,10.9,10.9,10.9c6,0,10.9-4.9,10.9-10.9c0-6-4.9-10.9-10.9-10.9
	C203.5,142.1,198.7,147,198.7,153z M217.5,153c0,4.4-3.5,7.9-7.9,7.9c-4.4,0-7.9-3.5-7.9-7.9c0-4.4,3.5-7.9,7.9-7.9
	C213.9,145.1,217.5,148.6,217.5,153z"/>
<path class="st0" d="M190.9,242.4L190.9,242.4C190.9,242.4,190.9,242.4,190.9,242.4z"/>
<path class="st0" d="M190.5,243.6l0.3-1.2C190.7,242.8,190.6,243.2,190.5,243.6z M219.2,242.4l0.3,1.3
	C219.5,243.2,219.4,242.8,219.2,242.4L219.2,242.4z"/>
<path class="st1" d="M219.5,243.6l-0.3-1.3l0,0c-1.5-3.1-7.9-4.8-14.1-4.8s-12.6,1.6-14.1,4.8c0,0,0,0,0,0.1l0,0l-0.3,1.2l-1.8,6.8
	l0.1,0.3c0.4,1.7,0.8,3.4,1.4,5.1l0.6,1.6l1.5-0.8c1-0.5,2-1.1,3-1.7c0.5,1,1,2,1.6,3l0.9,1.5l1.4-1c0.9-0.7,1.8-1.5,2.6-2.2
	c0.7,0.9,1.4,1.8,2.1,2.7l1.1,1.3l1.1-1.3c0.8-0.9,1.4-1.8,2.1-2.7c0.8,0.8,1.7,1.5,2.6,2.2l1.4,1l0.9-1.5c0.6-1,1.1-2,1.6-3
	c1,0.6,2,1.2,3,1.7l1.5,0.8l0.6-1.6c0.6-1.7,1.1-3.4,1.4-5.1l0.1-0.3L219.5,243.6z M195.2,242.3c6.3-2.4,13.3-2.4,19.6,0
	c1.1,0.6,1.7,1.1,1.7,1.5s-0.6,0.9-1.7,1.5c-6.3,2.4-13.3,2.4-19.6,0c-1.1-0.6-1.7-1.1-1.7-1.5S194.1,242.9,195.2,242.3L195.2,242.3
	z M217.5,253.1c-0.9-0.5-1.8-1.1-2.6-1.7l-1.6-1.1l-0.7,1.8c-0.4,0.9-0.8,1.9-1.3,2.8c-0.8-0.7-1.5-1.4-2.2-2.1l-1.3-1.4l-1,1.6
	c-0.5,0.8-1.1,1.7-1.8,2.5c-0.6-0.8-1.2-1.6-1.8-2.5l-1-1.6l-1.3,1.4c-0.7,0.7-1.4,1.4-2.2,2.1c-0.5-0.9-0.9-1.8-1.3-2.8l-0.7-1.8
	l-1.6,1.1c-0.8,0.6-1.7,1.1-2.6,1.7c-0.3-0.9-0.5-1.8-0.7-2.7l0.8-3.1c2.7,1.9,7.5,2.8,12.3,2.8s9.6-1,12.3-2.8l0.8,3.1
	C218,251.3,217.7,252.2,217.5,253.1L217.5,253.1z"/>
<path class="st0" d="M446,352.3c-4.5-4.5-10.6-7.1-17-7.1h-50.6v-7.4c0-7-1.4-14-4.1-20.5c-4-9.6-6.6-19.7-7.7-30l0.7,0.4l0.6-1.6
	c0.6-1.7,1.1-3.4,1.5-5.1l0.1-0.4l-1.8-6.8c0-0.4-0.1-0.8-0.3-1.2l0,0l0,0c-1.5-3.1-7.9-4.8-14.1-4.8s-12.6,1.6-14.1,4.8l0,0l0,0
	c-0.2,0.4-0.3,0.8-0.3,1.2l-1.8,6.8l0.1,0.4c0.4,1.7,0.8,3.4,1.5,5.1l0.6,1.6l0.7-0.4c-1.1,10.3-3.7,20.4-7.7,30
	c-2.7,6.5-4.1,13.5-4.1,20.5v7.4h-23.6v-7.4c0-7-1.4-14-4.1-20.5c-4-9.6-6.6-19.7-7.7-30l0.7,0.4l0.6-1.6c0.6-1.7,1.1-3.4,1.5-5.1
	l0.1-0.4l-1.8-6.8c0-0.4-0.1-0.8-0.3-1.2l0,0l0,0c-1.5-3.1-7.9-4.8-14.1-4.8s-12.6,1.6-14.1,4.8l0,0l0,0c-0.2,0.4-0.3,0.8-0.3,1.2
	l-1.8,6.8l0.1,0.4c0.4,1.7,0.9,3.4,1.5,5.1l0.6,1.6l0.7-0.4c-1.1,10.3-3.7,20.4-7.7,30c-2.7,6.5-4.1,13.5-4.1,20.5v7.4h-23.6v-7.4
	c0-7-1.4-14-4.1-20.5c-3.7-8.9-8.1-22.5-8.1-37.3v-1.5h-0.1c-0.8-3.5-10.1-3.7-13.1-3.7s-12.2,0.3-13,3.7H192v1.4
	c0,14.7-4.4,28.4-8.1,37.3c-2.7,6.5-4.1,13.5-4.1,20.5v7.4h-12h-1.4c-9.2,0.3-24.5,0.7-35.2,15.2l-6.3,8.9l0,0l-19.5,27.2l0,0
	c-0.1,0.1-0.2,0.2-0.2,0.4c-0.2,0.3-0.4,0.6-0.6,0.9s-0.3,0.5-0.5,0.7s-0.3,0.4-0.4,0.6c-0.2,0.4-0.5,0.9-0.7,1.3l-0.2,0.5
	c-0.2,0.5-0.5,1-0.7,1.6c-0.1,0.1-0.1,0.3-0.2,0.5c-0.1,0.3-0.2,0.6-0.3,0.9l-0.2,0.7c-0.1,0.4-0.2,0.8-0.3,1.2s-0.1,0.6-0.2,0.9
	s-0.1,0.5-0.1,0.7c-0.1,0.5-0.1,1-0.2,1.5c0,0.2,0,0.4,0,0.5c0,0.5-0.1,1-0.1,1.5v0.1c0,13.3,10.8,24.1,24.1,24.1c0,0,0,0,0,0H405
	c9.9,0,18.8-6,22.4-15.2l21-36.3v-0.1c2.1-3.4,4.2-7.4,4.7-12.2c0.1-0.7,0.1-1.4,0.1-2.2C453.2,362.9,450.6,356.8,446,352.3z
	 M343.4,272.6c3.1-1.3,6.4-1.9,9.8-1.8c4.7,0,8,0.9,9.8,1.8c1.1,0.6,1.7,1.1,1.7,1.5s-0.6,0.9-1.7,1.5c-1.8,0.9-5.1,1.8-9.8,1.8
	c-3.4,0.1-6.7-0.5-9.8-1.8c-1.1-0.6-1.7-1.1-1.7-1.5S342.2,273.2,343.4,272.6z M340,280.6v-0.1l0.5-2l0.2-1c0.5,0.4,1.1,0.7,1.7,1
	c6.9,2.5,14.4,2.5,21.3,0c0.6-0.3,1.2-0.6,1.7-1l0.2,1l0.5,2v0.1l0,0c0,0.1,0,0.1,0,0.2c-0.2,0.8-0.4,1.7-0.7,2.5
	c-0.8-0.5-1.6-1-2.3-1.5l-0.3-0.2l-0.2-0.2l-1.2-0.9l-0.1-0.1v0.1l-0.4,0.9l-0.3,0.8c-0.4,0.9-0.8,1.9-1.3,2.8
	c-0.8-0.7-1.5-1.4-2.2-2.1l-1.3-1.4l-1,1.6c-0.5,0.8-1.1,1.7-1.8,2.5c-0.6-0.8-1.2-1.6-1.8-2.5l-1-1.6L349,283
	c-0.7,0.7-1.4,1.4-2.2,2.1c-0.5-0.9-0.9-1.8-1.3-2.8l-0.3-0.8l-0.3-0.9v-0.1l-0.1,0.1l-1.2,0.9l-0.2,0.2l-0.3,0.2
	c-0.7,0.5-1.5,1-2.3,1.5c-0.2-0.8-0.5-1.7-0.7-2.5C340,280.8,340,280.7,340,280.6L340,280.6z M334.7,318.4
	c4.4-10.5,7.2-21.6,8.1-32.9c0.2-0.1,0.5-0.3,0.7-0.4c0.5,1,1,2,1.6,3l0.9,1.5l1.3-1.1c0.9-0.7,1.8-1.5,2.6-2.2
	c0.7,0.9,1.4,1.8,2.1,2.7l1.1,1.3l1.1-1.3c0.7-0.9,1.5-1.8,2.1-2.7c0.8,0.8,1.7,1.5,2.6,2.2l1.4,1.1l0.9-1.5c0.6-1,1.1-2,1.6-3
	c0.2,0.1,0.4,0.3,0.7,0.4c0.9,11.3,3.7,22.4,8.1,32.9c2.4,5.8,3.7,12,3.8,18.2c-3.2,1.1-13.6,4.3-23.9,4.3c-7.1,0-14.1-1.4-20.6-4.1
	C331,330.5,332.3,324.3,334.7,318.4L334.7,318.4z M330.9,348.2V340c6.6,2.6,13.5,3.9,20.6,3.9c10,0,19.8-2.8,23.9-4.1v18.8
	c-3.2,1.1-13.6,4.3-23.9,4.3c-7.1,0-14.1-1.4-20.6-4.2V348.2z M330.9,361.9c6.6,2.6,13.5,3.9,20.6,3.9c10,0,19.8-2.8,23.9-4.1v8.1
	c-0.5,0.7-4,4.4-22.2,4.4s-21.7-3.7-22.2-4.4V361.9z M327.9,370.5c0.2,1.1,2.6,6.8,25.2,6.8s25-5.6,25.2-6.8v-0.2v-22.1h20.5
	L376.5,387H308l19.9-34.4v17.6L327.9,370.5z M269.2,272.6c6.3-2.4,13.3-2.4,19.6,0c1.1,0.6,1.7,1.1,1.7,1.5s-0.6,0.9-1.7,1.5
	c-6.3,2.4-13.3,2.4-19.6,0c-1.1-0.6-1.7-1.1-1.7-1.5S268.1,273.2,269.2,272.6L269.2,272.6z M265.9,280.5l0.5-2l0.2-0.9
	c0.5,0.4,1.1,0.7,1.7,0.9c6.9,2.5,14.4,2.5,21.3,0c0.6-0.3,1.2-0.6,1.7-0.9l0.2,0.9l0.5,2l0,0.2c0,0.1,0,0.1,0,0.2
	c-0.2,0.8-0.4,1.7-0.7,2.5c-0.8-0.5-1.6-1-2.3-1.5l-0.3-0.2l-0.2-0.2l-1.3-0.9l-0.4,0.9l-0.3,0.8c-0.4,0.9-0.8,1.9-1.3,2.8
	c-0.8-0.7-1.5-1.4-2.2-2.1l-1.3-1.4l-1,1.6c-0.5,0.8-1.1,1.7-1.8,2.5c-0.6-0.8-1.2-1.6-1.8-2.5l-1-1.6L275,283
	c-0.7,0.7-1.4,1.4-2.2,2.1c-0.5-0.9-0.9-1.8-1.3-2.8l-0.3-0.8l-0.4-0.9l-1.3,0.9l-0.2,0.2l-0.3,0.2c-0.7,0.5-1.5,1-2.3,1.5
	c-0.2-0.8-0.5-1.7-0.7-2.5c0-0.1,0-0.1,0-0.2L265.9,280.5z M260.6,318.4c4.4-10.5,7.2-21.6,8.1-32.9c0.2-0.1,0.5-0.3,0.7-0.4
	c0.5,1,1,2,1.6,3l0.9,1.5l1.4-1.1c0.9-0.7,1.8-1.5,2.6-2.2c0.7,0.9,1.4,1.8,2.1,2.7l1.1,1.3l1.1-1.3c0.8-0.9,1.5-1.8,2.1-2.7
	c0.8,0.8,1.7,1.5,2.6,2.2l1.4,1.1l0.9-1.5c0.6-1,1.1-2,1.6-3c0.2,0.1,0.5,0.3,0.7,0.4c0.9,11.3,3.7,22.4,8.1,32.9
	c2.4,5.8,3.7,12,3.8,18.2c-3.2,1.1-13.6,4.2-23.9,4.2c-7.1,0-14-1.4-20.6-4.1C256.9,330.5,258.3,324.3,260.6,318.4L260.6,318.4z
	 M256.8,351v-11c6.6,2.6,13.5,3.9,20.6,3.9c10,0,19.8-2.8,23.9-4.1v18.8c-3.2,1.1-13.6,4.3-23.9,4.3c-7.1,0-14.1-1.4-20.6-4.2V351z
	 M256.8,361.9c6.6,2.6,13.5,3.9,20.6,3.9c10,0,19.8-2.8,23.9-4.1v8.1c-0.5,0.7-4,4.4-22.2,4.4s-21.7-3.7-22.2-4.4L256.8,361.9z
	 M253.8,370.5c0.2,1.1,2.6,6.8,25.2,6.8s24.9-5.6,25.2-6.8v-0.2v-22.1H327L304.5,387H236l17.8-30.8v14L253.8,370.5z M197.2,278.5
	c5.1-1,10.4-1,15.5,0c0.6,0.1,1.2,0.3,1.7,0.5c-3.1,0.9-6.3,1.4-9.5,1.2c-3.2,0.1-6.4-0.3-9.4-1.2
	C196.1,278.8,196.7,278.7,197.2,278.5L197.2,278.5z M186.6,318.5c3.6-8.7,7.9-22,8.3-36.5c3.2,1.2,8.1,1.3,10.1,1.3
	s6.9-0.1,10.1-1.3c0.4,14.5,4.6,27.8,8.3,36.5c2.4,5.8,3.7,12,3.8,18.2c-3.2,1.1-13.6,4.2-23.9,4.2c-7.1,0-14.1-1.4-20.6-4.2
	C182.9,330.5,184.2,324.3,186.6,318.5z M182.8,355.8V340c6.6,2.6,13.5,3.9,20.6,3.9c10,0,19.8-2.8,23.9-4.1v18.8
	c-3.2,1.1-13.6,4.3-23.9,4.3c-6.6,0-13.1-1.3-19.3-3.6c-0.5-0.2-1-0.4-1.3-0.5V355.8z M182.8,362c6.6,2.6,13.5,3.9,20.6,3.9
	c10,0,19.8-2.8,23.9-4.1v8.1c-0.5,0.7-4,4.4-22.2,4.4s-21.7-3.7-22.2-4.4V362z M179.8,370.6c0.2,1.1,2.6,6.8,25.2,6.8
	s24.9-5.6,25.2-6.8v-0.2v-22.2h23.6v2L232.6,387h-67.7l15-21.6v4.8L179.8,370.6z M133.6,362.3c9.8-13.3,24.2-13.7,32.9-14h1.4h12
	v11.9L161.2,387h-36.6c-0.4,0-0.9,0-1.3,0H123l-1,0.1h-0.2l-0.4,0l-0.7,0.1l-0.3,0l-0.4,0.1l-0.4,0.1l-0.5,0.1l-0.5,0.1l-0.2,0
	l-0.7,0.2l-0.6,0.2l-0.8,0.2l-0.5,0.2l-0.8,0.3l-0.5,0.2l-0.5,0.2L133.6,362.3z M426,411.7c0,0.5,0,0.9-0.1,1.4
	c-0.2,2-0.6,4-1.4,5.9c-3.1,8.1-11,13.5-19.7,13.4H124.6c-11.7,0-21.1-9.5-21.1-21.1c0-0.7,0-1.4,0.1-2c0-0.1,0-0.3,0-0.4
	c0.1-0.5,0.1-1.1,0.2-1.6c0-0.1,0.1-0.2,0.1-0.4c0.1-0.6,0.3-1.2,0.4-1.8v-0.1c0.6-1.9,1.5-3.7,2.6-5.4l0.2-0.2
	c3.1-4.5,7.7-7.6,13-8.7l0.3,0c0.6-0.1,1.2-0.2,1.8-0.3h0.4c0.6,0,1.2-0.1,1.8-0.1h280.6c5.6,0,11,2.2,15,6.2
	c0.3,0.3,0.5,0.6,0.8,0.9c3.5,3.8,5.4,8.8,5.4,14C426,411.3,426,411.5,426,411.7z M450,371.2c-0.4,4.2-2.3,7.8-4.2,10.8l-16.8,29
	l0,0c0-0.4,0-0.8,0-1.2v-0.1c0-0.4,0-0.7-0.1-1.1v-0.2c0-0.1,0-0.3,0-0.4c0-6.7-2.6-9.8-6.9-14c-1.1-1.1-2.3-2.1-3.5-2.9
	c-4-2.7-8.7-4.2-13.6-4.2h-25l22.4-38.8H429c11.7,0,21.1,9.5,21.1,21.1c0,0,0,0,0,0C450.1,370,450.1,370.6,450,371.2z"/>
<path class="st0" d="M127.1,399.2c-6.5,0-11.7,5.2-11.7,11.7s5.2,11.7,11.7,11.7c6.5,0,11.7-5.2,11.7-11.7l0,0
	C138.8,404.5,133.6,399.2,127.1,399.2z M127.1,419.6c-4.8,0-8.7-3.9-8.7-8.7c0-4.8,3.9-8.7,8.7-8.7c4.8,0,8.7,3.9,8.7,8.7
	c0,0,0,0,0,0C135.8,415.7,131.9,419.6,127.1,419.6z"/>
<path class="st0" d="M195.8,399.2c-6.5,0-11.7,5.2-11.7,11.7c0,6.5,5.2,11.7,11.7,11.7c6.5,0,11.7-5.2,11.7-11.7l0,0
	C207.5,404.5,202.2,399.2,195.8,399.2z M195.8,419.6c-4.8,0-8.7-3.9-8.7-8.7c0-4.8,3.9-8.7,8.7-8.7c4.8,0,8.7,3.9,8.7,8.7
	c0,0,0,0,0,0C204.5,415.7,200.6,419.6,195.8,419.6z"/>
<path class="st0" d="M264.4,399.2c-6.5,0-11.7,5.2-11.7,11.7s5.2,11.7,11.7,11.7c6.5,0,11.7-5.2,11.7-11.7c0,0,0,0,0,0
	C276.1,404.5,270.8,399.2,264.4,399.2z M264.4,419.6c-4.8,0-8.7-3.9-8.7-8.7s3.9-8.7,8.7-8.7s8.7,3.9,8.7,8.7c0,0,0,0,0,0
	C273.1,415.7,269.2,419.6,264.4,419.6z"/>
<path class="st0" d="M333,399.2c-6.5,0-11.7,5.2-11.7,11.7c0,6.5,5.2,11.7,11.7,11.7c6.5,0,11.7-5.2,11.7-11.7c0,0,0,0,0,0
	C344.7,404.5,339.5,399.2,333,399.2z M333,419.6c-4.8,0-8.7-3.9-8.7-8.7s3.9-8.7,8.7-8.7s8.7,3.9,8.7,8.7c0,0,0,0,0,0
	C341.7,415.7,337.8,419.6,333,419.6z"/>
<path class="st0" d="M401.6,399.2c-6.5,0-11.7,5.2-11.7,11.7c0,6.5,5.2,11.7,11.7,11.7c6.5,0,11.7-5.2,11.7-11.7c0,0,0,0,0,0
	C413.3,404.5,408.1,399.2,401.6,399.2z M401.6,419.6c-4.8,0-8.7-3.9-8.7-8.7s3.9-8.7,8.7-8.7s8.7,3.9,8.7,8.7c0,0,0,0,0,0
	C410.3,415.7,406.4,419.6,401.6,419.6z"/>
<path class="st0" d="M412.9,342.7h-2v-3h2V342.7z M412.9,333.7h-2v-3h2V333.7z M412.9,324.7h-2v-3h2V324.7z M412.9,315.7h-2v-3h2
	V315.7z M412.9,306.7h-2v-3h2V306.7z M412.9,297.7h-2v-3h2V297.7z M412.9,288.7h-2v-3h2V288.7z M412.9,279.7h-2v-3h2V279.7z
	 M412.9,270.7h-2v-3h2V270.7z M412.9,261.7h-2v-3h2V261.7z M412.9,252.7h-2v-3h2V252.7z M412.9,243.7h-2v-3h2V243.7z M412.9,234.7
	h-2v-3h2V234.7z M412.9,225.7h-2v-3h2V225.7z M412.9,216.7h-2v-3h2V216.7z"/>
<path class="st0" d="M435.2,230.1h-2.7v-2h2.7V230.1z M426.5,230.1h-3v-2h3V230.1z M417.5,230.1h-3v-2h3V230.1z M408.5,230.1h-3v-2
	h3V230.1z M399.5,230.1h-3v-2h3V230.1z M390.5,230.1h-3v-2h3V230.1z M381.5,230.1h-3v-2h3V230.1z M372.5,230.1h-3v-2h3V230.1z
	 M363.5,230.1h-3v-2h3V230.1z"/>
<path class="st0" d="M151,302h-2v-3h2V302z M151,293h-2v-3h2V293z M151,284h-2v-3h2V284z M151,275h-2v-3h2V275z M151,266h-2v-3h2
	V266z M151,257h-2v-3h2V257z M151,248h-2v-3h2V248z M151,239h-2v-3h2V239z M151,230h-2v-3h2V230z M151,221h-2v-3h2V221z M151,212h-2
	v-3h2V212z M151,203h-2v-3h2V203z M151,194h-2v-3h2V194z M151,185h-2v-3h2V185z M151,176h-2v-3h2V176z M151,167h-2v-3h2V167z
	 M151,158h-2v-3h2V158z M151,149h-2v-3h2V149z M151,140h-2v-3h2V140z M151,131h-2v-3h2V131z"/>
</svg>
