<?xml version="1.0" encoding="utf-8"?>
<!-- Generator: Adobe Illustrator 24.3.0, SVG Export Plug-In . SVG Version: 6.00 Build 0)  -->
<svg version="1.1" id="Laag_1" xmlns="http://www.w3.org/2000/svg" xmlns:xlink="http://www.w3.org/1999/xlink" x="0px" y="0px"
	 viewBox="0 0 566.9 566.9" style="enable-background:new 0 0 566.9 566.9;" xml:space="preserve">
<style type="text/css">
	.st0{fill:#FF5429;}
	.st1{fill:#6B6B7F;}
</style>
<path class="st0" d="M318.2,231.1l-75.5-9.9c-0.1,1-0.4,2-0.7,2.9l82,10.8v-0.6C321.9,233.4,320,232.4,318.2,231.1z M318.2,231.1
	l-75.5-9.9c-0.1,1-0.4,2-0.7,2.9l82,10.8v-0.6C321.9,233.4,320,232.4,318.2,231.1z M240.9,210.8c0.5,0.9,0.9,1.8,1.2,2.8l71.2-22.4
	c1.6-1.8,3.4-3.5,5.4-4.8L240.9,210.8z M327,235.2L327,235.2L327,235.2L327,235.2z"/>
<path class="st1" d="M230.7,217.1c-0.7-2.3-2.8-3.8-5.2-3.8c-3,0-5.5,2.5-5.5,5.5s2.5,5.5,5.5,5.5c1.6,0,3-0.7,4.1-1.8l0,0
	c0.7-0.8,1.2-1.8,1.3-2.9c0-0.3,0.1-0.5,0.1-0.8C230.9,218.3,230.9,217.7,230.7,217.1z M227.9,219.2c-0.2,1.2-1.2,2.1-2.4,2.1
	c-0.5,0-1.1-0.2-1.5-0.5c-1.1-0.8-1.3-2.4-0.5-3.5c0.1-0.2,0.3-0.3,0.5-0.5c0.4-0.3,1-0.5,1.5-0.5c1.1,0,2,0.7,2.4,1.7
	c0.1,0.2,0.1,0.5,0.1,0.8C228,218.9,227.9,219.1,227.9,219.2L227.9,219.2z"/>
<path class="st1" d="M424.9,248.1h-2v-3h2V248.1z M424.9,239.1h-2v-3h2V239.1z M424.9,230.1h-2v-3h2V230.1z M424.9,221.1h-2v-3h2
	V221.1z M424.9,212.1h-2v-3h2V212.1z M424.9,203.1h-2v-3h2V203.1z M424.9,194.1h-2v-3h2V194.1z M424.9,185.1h-2v-3h2V185.1z
	 M424.9,176.1h-2v-3h2V176.1z M424.9,167.1h-2v-3h2V167.1z M424.9,158.1h-2v-3h2V158.1z M424.9,149.1h-2v-3h2V149.1z"/>
<path class="st1" d="M136.7,246.9h-2v-3h2V246.9z M136.7,237.9h-2v-3h2V237.9z M136.7,228.9h-2v-3h2V228.9z M136.7,219.9h-2v-3h2
	V219.9z M136.7,210.9h-2v-3h2V210.9z M136.7,201.9h-2v-3h2V201.9z M136.7,192.9h-2v-3h2V192.9z M136.7,183.9h-2v-3h2V183.9z"/>
<path class="st1" d="M438.6,207.2h-3v-2h3V207.2z M429.6,207.2h-3v-2h3V207.2z M420.6,207.2h-3v-2h3V207.2z M411.6,207.2h-3v-2h3
	V207.2z M402.6,207.2h-3v-2h3V207.2z M393.6,207.2h-3v-2h3V207.2z M384.6,207.2h-3v-2h3V207.2z M375.6,207.2h-3v-2h3V207.2z
	 M366.6,207.2h-3v-2h3V207.2z"/>
<path class="st1" d="M453.3,250.6h-80V241h-29.2v-6.8c14-5.5,20.9-21.4,15.4-35.4s-21.4-20.9-35.4-15.4c-1.9,0.8-3.7,1.7-5.4,2.9
	c-2,1.4-3.8,3-5.4,4.8c-9.8,11.5-8.4,28.7,3,38.5c0.6,0.5,1.2,1,1.9,1.5c1.8,1.3,3.7,2.4,5.8,3.2v6.8h-89.4l-1.3-6.7l0,0
	c8.6-4.3,12-14.7,7.7-23.3c-4.3-8.6-14.7-12-23.3-7.7s-12,14.7-7.7,23.3c1.7,3.3,4.4,6.1,7.7,7.7l-1.3,6.7h-18.3v9.6H168V232
	c4.4-5.2,4.4-12.8,0-18v-21.3h-21v21c-4.7,5.3-4.7,13.2,0,18.5v18.4h-30.8c-13.3,0-21.3,36.3-21.3,71.4s8,71.4,21.3,71.4h63v5
	c-4.4,0-8,3.6-8,8v1.5h38.7v-1.5c0-4.4-3.6-8-8-8v-5h167.3v5c-4.4,0-8,3.6-8,8v1.5h38.7v-1.5c0-4.4-3.6-8-8-8v-5h61.1
	c13.3,0,21.3-36.3,21.3-71.4S466.7,250.6,453.3,250.6z M309.7,208.9c0-13.4,10.9-24.3,24.3-24.3c0.5,0,1,0,1.5,0
	c13.4,0.7,23.7,12.2,23,25.6c-0.5,9.1-6,17.2-14.3,20.9v-19.9c0-5-3.6-9.2-8.6-9.9c-1-0.2-2-0.2-3,0c-4.9,0.7-8.6,5-8.6,9.9V231
	C315.3,227.1,309.7,218.4,309.7,208.9z M327,211.1c0-3.3,2.3-6.2,5.6-6.9c0.5-0.1,1-0.2,1.4-0.2c0.5,0,1,0.1,1.5,0.2
	c3.2,0.7,5.6,3.6,5.6,6.9V241H327V211.1z M211.1,218.8c0-7.9,6.4-14.4,14.4-14.4c7.9,0,14.4,6.4,14.4,14.4c0,5.1-2.7,9.9-7.2,12.4
	c-0.9,0.5-1.8,0.9-2.8,1.2c-2.8,0.9-5.9,0.9-8.8,0c-1-0.3-1.9-0.7-2.8-1.2C213.9,228.7,211.1,223.9,211.1,218.8L211.1,218.8z
	 M231.5,241h-12l1.1-5.6c3.2,1,6.7,1,9.9,0L231.5,241z M201.1,253.6V244h169.2v15.4H201.1V253.6z M150,195.7h15v15.6
	c-1.8-1.2-3.9-1.9-6.1-2.2V203h-3v6.2c-2.1,0.2-4.1,0.9-5.9,2.1V195.7z M146.5,223c0-5.5,4-10.1,9.5-10.9v10.4h3v-10.4
	c4.4,0.6,8,3.8,9.1,8.2c0.4,1.7,0.4,3.6,0,5.3c-1.5,5.9-7.4,9.4-13.3,7.9c-3.7-0.9-6.6-3.7-7.7-7.2
	C146.7,225.2,146.5,224.1,146.5,223z M165.1,234.7v15.6h-15v-15.5C154.6,237.6,160.5,237.6,165.1,234.7L165.1,234.7z M125.2,390.4
	h-9c-8.8,0-18.2-27.5-18.2-68.4s9.5-68.4,18.3-68.4h9L125.2,390.4z M206.9,404.9h-32.3c0.6-2.1,2.6-3.5,4.7-3.5h22.8
	C204.3,401.4,206.2,402.8,206.9,404.9z M182.3,398.4v-26.2h16.8v26.2H182.3z M396.9,404.9h-32.3c0.6-2.1,2.6-3.5,4.7-3.5h22.8
	C394.4,401.4,396.3,402.8,396.9,404.9z M372.4,398.4v-26.2h16.8v26.2H372.4z M441.6,390.4h-49.4v-21.2h-22.8v21.2H202.1v-21.2h-22.8
	v21.2h-51.1V253.6h69.9v8.8h175.2v-8.8h68.2L441.6,390.4z M453.3,390.4h-8.8V253.6h8.8c8.8,0,18.3,27.5,18.3,68.4
	S462.2,390.4,453.3,390.4L453.3,390.4z"/>
<rect x="164.4" y="405.4" class="st1" width="3" height="2"/>
<rect x="119.4" y="405.4" class="st1" width="3" height="2"/>
<rect x="110.4" y="405.4" class="st1" width="3" height="2"/>
<rect x="101.4" y="405.4" class="st1" width="3" height="2"/>
<rect x="128.4" y="405.4" class="st1" width="3" height="2"/>
<rect x="137.4" y="405.4" class="st1" width="3" height="2"/>
<rect x="155.4" y="405.4" class="st1" width="3" height="2"/>
<rect x="146.4" y="405.4" class="st1" width="3" height="2"/>
</svg>
