<?xml version="1.0" encoding="utf-8"?>
<!-- Generator: Adobe Illustrator 24.3.0, SVG Export Plug-In . SVG Version: 6.00 Build 0)  -->
<svg version="1.1" id="Laag_1" xmlns="http://www.w3.org/2000/svg" xmlns:xlink="http://www.w3.org/1999/xlink" x="0px" y="0px"
	 viewBox="0 0 566.9 566.9" style="enable-background:new 0 0 566.9 566.9;" xml:space="preserve">
<style type="text/css">
	.st0{fill:#6B6B7F;}
	.st1{fill:#FFFFFF;}
	.st2{fill:#FF5429;}
</style>
<g>
	<g>
		<path class="st0" d="M429.8,394.7H183.6V148.5h246.2V394.7z M186.6,391.7h240.2V151.5H186.6V391.7z"/>
	</g>
	<g>
		<path class="st0" d="M306.7,368.6c-53.5,0-97-43.5-97-97s43.5-97,97-97s97,43.5,97,97C403.6,325.1,360.1,368.6,306.7,368.6z
			 M306.7,177.6c-51.8,0-94,42.2-94,94s42.2,94,94,94s94-42.2,94-94C400.6,219.8,358.5,177.6,306.7,177.6z"/>
	</g>
	<g>
		<path class="st0" d="M306.7,378.1c-58.7,0-106.5-47.8-106.5-106.5S248,165.1,306.7,165.1s106.5,47.8,106.5,106.5
			S365.4,378.1,306.7,378.1z M306.7,168.1c-57.1,0-103.5,46.4-103.5,103.5s46.4,103.5,103.5,103.5s103.5-46.4,103.5-103.5
			S363.8,168.1,306.7,168.1z"/>
	</g>
	<g>
		<path class="st0" d="M179.7,192.3h-3v-2h3V192.3z M170.7,192.3h-3v-2h3V192.3z M161.7,192.3h-3v-2h3V192.3z M152.7,192.3h-3v-2h3
			V192.3z M143.7,192.3h-3v-2h3V192.3z M134.7,192.3h-3v-2h3V192.3z M125.7,192.3h-3v-2h3V192.3z M116.7,192.3h-3v-2h3V192.3z
			 M107.7,192.3h-3v-2h3V192.3z M98.7,192.3h-3v-2h3V192.3z"/>
	</g>
	<g>
		<path class="st0" d="M129.6,251.6h-2v-3h2V251.6z M129.6,242.6h-2v-3h2V242.6z M129.6,233.6h-2v-3h2V233.6z M129.6,224.6h-2v-3h2
			V224.6z M129.6,215.6h-2v-3h2V215.6z M129.6,206.6h-2v-3h2V206.6z M129.6,197.6h-2v-3h2V197.6z M129.6,188.6h-2v-3h2V188.6z
			 M129.6,179.6h-2v-3h2V179.6z M129.6,170.6h-2v-3h2V170.6z M129.6,161.6h-2v-3h2V161.6z M129.6,152.6h-2v-3h2V152.6z M129.6,143.6
			h-2v-3h2V143.6z M129.6,134.6h-2v-3h2V134.6z M129.6,125.6h-2v-3h2V125.6z"/>
	</g>
	<g>
		<path class="st0" d="M471.3,359.9h-3v-2h3V359.9z M462.3,359.9h-3v-2h3V359.9z M453.3,359.9h-3v-2h3V359.9z M444.3,359.9h-3v-2h3
			V359.9z M435.3,359.9h-3v-2h3V359.9z"/>
	</g>
	<g>
		<path class="st0" d="M403.1,445.2h-2v-3h2V445.2z M403.1,436.2h-2v-3h2V436.2z M403.1,427.2h-2v-3h2V427.2z M403.1,418.2h-2v-3h2
			V418.2z M403.1,409.2h-2v-3h2V409.2z M403.1,400.2h-2v-3h2V400.2z"/>
	</g>
	<g>
		<path class="st1" d="M296.3,285.9v66.7c0,1.6,1.3,2.8,2.8,2.8h10.3l12.9-47.6l-6.5-22h-19.5V285.9z"/>
		<path class="st0" d="M310.6,357h-11.4c-2.4,0-4.3-1.9-4.3-4.3v-68.2H317l6.9,23.4L310.6,357z M297.8,287.4v65.2
			c0,0.7,0.6,1.3,1.3,1.3h9.1l12.5-46.1l-6-20.5h-16.9V287.4z"/>
	</g>
	<g>
		<path class="st1" d="M299.4,255.5l-54.9-37.9c-1.3-0.9-3.1-0.6-3.9,0.7l-5.8,8.5l31.9,37.6l21.7,7.1L299.4,255.5z"/>
		<path class="st0" d="M288.9,273.4l-23.2-7.6L232.8,227l6.5-9.4c1.4-2,4.1-2.5,6-1.1l56.1,38.7L288.9,273.4z M267.4,263.2l20.3,6.7
			l9.6-13.9l-53.7-37c-0.6-0.4-1.4-0.3-1.9,0.3l-5.2,7.5L267.4,263.2z"/>
	</g>
	<g>
		<path class="st1" d="M325.2,271.6l53.7-39.6c1.3-0.9,1.5-2.7,0.6-4l-6.1-8.3l-45.9,17.9l-13.8,18.2L325.2,271.6z"/>
		<path class="st0" d="M324.9,273.7l-13.1-17.8l14.8-19.5l0.4-0.2l47-18.3l6.8,9.2c1.4,1.9,1,4.6-0.9,6.1L324.9,273.7z M315.5,255.9
			l10,13.6l52.5-38.7c0.6-0.4,0.7-1.3,0.3-1.9l-5.4-7.4l-44.5,17.3L315.5,255.9z"/>
	</g>
	<g>
		<rect x="304" y="274.5" class="st2" width="5.4" height="23.1"/>
	</g>
	<g>
		
			<rect x="291.2" y="251.5" transform="matrix(0.5636 -0.8261 0.8261 0.5636 -89.044 357.6055)" class="st2" width="5.4" height="23.1"/>
	</g>
	<g>
		
			<rect x="306.2" y="260.4" transform="matrix(0.8261 -0.5636 0.5636 0.8261 -93.0037 224.85)" class="st2" width="23.1" height="5.4"/>
	</g>
	<g>
		<circle class="st1" cx="306.7" cy="271.6" r="8.5"/>
		<path class="st0" d="M306.7,281.7c-5.5,0-10-4.5-10-10s4.5-10,10-10s10,4.5,10,10S312.2,281.7,306.7,281.7z M306.7,264.6
			c-3.9,0-7,3.2-7,7s3.2,7,7,7c3.9,0,7-3.2,7-7S310.6,264.6,306.7,264.6z"/>
	</g>
</g>
</svg>
