<?xml version="1.0" encoding="utf-8"?>
<!-- Generator: Adobe Illustrator 24.3.0, SVG Export Plug-In . SVG Version: 6.00 Build 0)  -->
<svg version="1.1" id="Laag_1" xmlns="http://www.w3.org/2000/svg" xmlns:xlink="http://www.w3.org/1999/xlink" x="0px" y="0px"
	 viewBox="0 0 566.9 566.9" style="enable-background:new 0 0 566.9 566.9;" xml:space="preserve">
<style type="text/css">
	.st0{fill:#6B6B7F;}
	.st1{fill:#FF5429;}
</style>
<path class="st0" d="M133.7,315.2h-2v-3h2V315.2z M133.7,306.2h-2v-3h2V306.2z M133.7,297.2h-2v-3h2V297.2z M133.7,288.2h-2v-3h2
	V288.2z M133.7,279.2h-2v-3h2V279.2z M133.7,270.2h-2v-3h2V270.2z M133.7,261.2h-2v-3h2V261.2z M133.7,252.2h-2v-3h2V252.2z
	 M133.7,243.2h-2v-3h2V243.2z M133.7,234.2h-2v-3h2V234.2z M133.7,225.2h-2v-3h2V225.2z M133.7,216.2h-2v-3h2V216.2z M133.7,207.2
	h-2v-3h2V207.2z M133.7,198.2h-2v-3h2V198.2z M133.7,189.2h-2v-3h2V189.2z M133.7,180.2h-2v-3h2V180.2z M133.7,171.2h-2v-3h2V171.2z
	"/>
<path class="st0" d="M210.6,193h-3v-2h3V193z M201.6,193h-3v-2h3V193z M192.6,193h-3v-2h3V193z M183.6,193h-3v-2h3V193z M174.6,193
	h-3v-2h3V193z M165.6,193h-3v-2h3V193z M156.6,193h-3v-2h3V193z M147.6,193h-3v-2h3V193z M138.6,193h-3v-2h3V193z M129.6,193h-3v-2
	h3V193z M120.6,193h-3v-2h3V193z M111.6,193h-3v-2h3V193z"/>
<path class="st0" d="M445.2,417.9h-3v-2h3V417.9z M436.2,417.9h-3v-2h3V417.9z M427.2,417.9h-3v-2h3V417.9z M418.2,417.9h-3v-2h3
	V417.9z M409.2,417.9h-3v-2h3V417.9z M400.2,417.9h-3v-2h3V417.9z M391.2,417.9h-3v-2h3V417.9z M382.2,417.9h-3v-2h3V417.9z
	 M373.2,417.9h-3v-2h3V417.9z M364.2,417.9h-3v-2h3V417.9z M355.2,417.9h-3v-2h3V417.9z M346.2,417.9h-3v-2h3V417.9z M337.2,417.9
	h-3v-2h3V417.9z"/>
<path class="st0" d="M406.6,158.8L406.6,158.8c0.2-0.8,0.1-1.5-0.5-2.1l-5.6-5.7c1.2-2,2-4.3,2.2-6.7l0.1-2.6l-2.3,1.1
	c-0.1,0-5.4,2.5-11.2-3l-0.3-0.3l-24.4-24.4c-0.2-0.2-0.4-0.4-0.7-0.4l-0.2-0.2l-0.8,0.1l-87.5,14.7c-11,1.8-23.6-8-23.7-8.1
	l-2.2-1.7l-0.2,2.8c-0.3,3.8-0.3,7.6,0,11.4l-6.9,1.2c-0.7,0.1-1.3,0.6-1.5,1.3c0,0.1-0.1,0.2-0.1,0.3h-0.5v23.7l-10.9,15.1
	l10.9,1.3v17l3,0.5V192l4.7,3l7.8,1.4l-12.5-8V184l25.3,14.7l8.7,1.6l-34-19.8V177l7,0.8l27.9,19v3.8l3,0.6v-3.7l122.4-10.6v5.6
	l-110.9,10.8l7.1,1.3c1.4,0.2,2.9,0.4,4.2,0.6l99.6-9.7v5.1l-56.5,5.1c0.1,0.6,0.2,1.6,0.4,3l56.1-5v4.2l-55.9,4.2
	c0,0.4,0,0.9,0,1.3s0,1.1,0,1.7c0,0.2,0,0.4,0,0.7s0,0.4,0,0.7l6.9,1.3l-8.5,7.4c-1,3.4-2.9,6.4-5.5,8.8l15.7-13.9v5.6L303,271.5
	v-4.7l-1,0.9l-2-0.3v5.6l-138-26.4l0,0v-3.3l-1.9-0.3c-0.4-0.1-0.8-0.3-1.1-0.6l-1.1,174.4l144,25.1l57.5-50.5v-10.6l47.7-7.3
	L406.6,158.8z M403.6,176.3l-122.4,11.5v-1.5L403.6,172L403.6,176.3z M403.6,168.9l-122.4,14.4v-4.2l52.3-8.1l44-6.8l1.1-0.2h0.1
	l24.8-3.8L403.6,168.9z M402.6,157.4l-9.6,1.5c2.2-1.4,4.2-3.2,5.8-5.2L402.6,157.4z M249.6,136.7c0.3,2.6,0.8,5.1,1.5,7.6l-6.3-6.8
	L249.6,136.7z M243.3,150.6l2.3,2.3l-2.3,3.2V150.6z M244.9,174.1l-1.6-0.2l-3-0.4l-5.5-0.6l5.5-7.6l2.7-3.7l0.3-0.5l1.4-2l3-4.2
	l10.3,10.4l11.5,11.6l-3.4-0.4l-5.6-0.6l-9.2-1.1L244.9,174.1z M278.2,193.1l-21.5-14.6l8.2,1l13.3,10.8L278.2,193.1z M278.2,186.4
	l-7.7-6.2l2.5,0.3l5.2,5.2V186.4z M278.2,181.4l-0.4-0.4l-30.4-30.5l-4-4.1v-6l12.8,13.9c0,0,0,0,0,0.1l22,24.1L278.2,181.4z
	 M280.3,176.1l-21.9-23.8l0,0c-3.6-3.9-5.1-10.2-5.8-16.1c-0.1-1-0.2-2-0.3-3c-0.2-2.7-0.2-5.3-0.1-8c3.7,2.5,7.8,4.5,12.1,5.9
	c3.7,1.2,7.6,1.6,11.5,1.1h0.2l86.7-14.5l24.2,24l0.2,0.2c2.3,2.4,5.4,4,8.7,4.4c1.1,0.1,2.3,0.1,3.4-0.1c-0.3,0.8-0.6,1.6-1,2.4
	c-0.5,0.9-1,1.8-1.6,2.6c-2.8,3.7-8.2,7.9-18.4,9.7L280.3,176.1z M281.2,194.3v-3.4l122.4-11.5v4.4L281.2,194.3z M161.6,306
	l15.4,1.5l13.6,8.3l-29-2.9L161.6,306z M184,308.3l94.2,9.5l-11.2,5.8l-4.9,2.5l-12.8,6.6l-4.6,2.4l-9.2,4.7l-13.3-8.1l-6.6-4
	l-12.2-7.4l-5.9-3.6L184,308.3z M161.6,316l35,3.5l11.4,7l-46.4-7L161.6,316z M161.5,333.1l0.1-10.5l53.1,7.9l14.6,8.9L161.5,333.1
	L161.5,333.1z M161.1,385.8l10.9,1.9l0.8,5.3l-11.8-2L161.1,385.8z M161.1,394.1l12.3,2.1l1.2,8.1l-13.6-1.9L161.1,394.1z
	 M300,438.5l-139-24.2v-3.4L300,433V438.5z M300,429.9l-139-22.1v-2.4l139,19.2V429.9z M175.2,388.4l64.2,11.3l-22.1,1.1l-13.7,0.7
	l-26.2,1.3l-0.9-6l-0.5-3.1L175.2,388.4z M300,421.6l-117-16.1l34.2-1.7l82.8,14.4V421.6z M300,415.1l-69.2-12l22-1.1l0,0l47.2,8.4
	V415.1z M300,407.4l-33.7-6h0.1l-12.8-2.2l-0.8-0.1l-2-0.4l-89.8-15.9v-3.9L300,398.7V407.4z M300,395.7l-138.8-19.8l0.1-8.6
	L300,387.4V395.7z M300,384.4l-138.7-20.1v-6.6l138.7,17L300,384.4z M300,371.6l-138.7-17v-2.1l138.7,11L300,371.6z M300,360.5
	l-138.7-11v-5.9l138.6,11L300,360.5z M300,351.6l-138.6-11v-4.5l73.6,6.8l0,0l0.4,0.2l0.4-0.2l0,0l64.3,5.9V351.6z M300,345.9
	l-59.3-5.5l9.1-4.7l50.2,7.5V345.9z M300,340.2l-45.6-6.8l13.2-6.8l32.4,3.2V340.2z M300,326.8l-27.5-2.8l11.2-5.7l16.4,1.6
	L300,326.8z M300,316.9l-11.5-1.1L171.1,304l-9.5-1l0.1-13.6L300,314V316.9z M300,310.9l-138.3-24.5v-3.9L300,302.3V310.9z
	 M300,299.2l-138.2-19.7l0,0v-2.9L300,291V299.2z M300,288l-138.2-14.4l0,0l0.1-12.2L300,282V288z M300,279l-138.1-20.7l0.1-8.6
	l138,26.4V279z M303,354.2l6.7-3.5l9.7,0.5l-16.4,8.4V354.2z M315,348l34.8-18l-1,6l-0.6,3.7l-0.8,5l-0.6,3.9l-0.2,1l-1.4-0.1
	l-5.5-0.3l-9-0.5l-6-0.3L315,348z M303,363l22.4-11.6l9.6,0.6l-32,18.7V363z M303,374.1l37.5-21.9l4.6,0.2l-42,30.7L303,374.1z
	 M356.5,390.1L303,437v-13l53.5-44.4V390.1z M356.5,375.6L303,420.1v-2.5l53.5-44.9V375.6z M356.5,368.7L303,413.7v-3.8l53.5-43
	V368.7z M356.5,363L303,406v-7.9l53.5-39.8V363z M356.5,354.6L303,394.4v-7.6l53.5-39V354.6z M356.5,344.1l-6.8,5l0.4-2.5l6.4-3.7
	V344.1z M356.5,339.4l-5.8,3.4l0.8-4.8l5-2.6L356.5,339.4z M356.5,332l-4.4,2.2l1-6l3.4-1.7L356.5,332z M356.5,323.1l-2.8,1.4
	l-50,25.8l-0.8,0.4v-2.3l53.5-27.4L356.5,323.1z M356.5,317.6L303,345.1v-2.3l53.5-33.9V317.6z M356.5,305.3L303,339.2v-9.9
	l53.5-28.5V305.3z M356.5,297.4L303,326v-6.5l53.5-31.8V297.4z M356.5,284.1L303,316v-2.5l53.5-38.9V284.1z M356.5,270.8l-53.5,39
	v-8l53.5-35.4V270.8z M356.5,262.8L303,298.2v-7.8l53.5-39V262.8z M356.5,247.7l-53.5,39v-5.3l53.5-41.8V247.7z M356.5,235.8
	L303,277.6v-2.1l53.5-46.1V235.8z M404.1,365.8l-44.7,4.5v-3.9l44.7-2.1L404.1,365.8z M404.1,361.2l-44.7,2.1v-4.8l44.6-0.5
	L404.1,361.2z M359.5,355.5v-4.2h44.6v3.7L359.5,355.5z M404.1,348.3h-44.6v-5.7l15.4-0.9l14.3,4.9l5.1-6l9.7-0.5L404.1,348.3z
	 M367.4,339.1l-7.9,0.4v-3.1L367.4,339.1z M365.1,335.2l31.9-2.3l-4.1,4.8l-2.7,3.2l-2,2.3l-5.5-1.9l-7.6-2.6L365.1,335.2z
	 M404.1,337.1l-7,0.4l4.1-4.8l2.9-0.2V337.1z M404.1,329.4L404.1,329.4l-44.6,3.2v-2.2l44.5-4.4L404.1,329.4z M404.1,323l-44.5,4.4
	v-3.5l44.5-6.3L404.1,323z M404.1,314.6l-44.5,6.3v-5.6l44.4-4.4L404.1,314.6z M404.1,307.8l-44.5,4.4v-7.1l44.5-2L404.1,307.8z
	 M404.1,300.2l-44.5,2v-4l44.5-0.5L404.1,300.2z M359.6,295.2v-3.5H404v3L359.6,295.2z M359.6,288.7v-1.4l44.4-2.5v3.9H359.6z
	 M404,281.8l-44.4,2.5v-3.9l44.4-3.2L404,281.8z M359.6,277.3v-2.2l44.4-4.3v3.4L359.6,277.3z M404,267.7l-44.5,4.3v-3.5l44.4-6.2
	L404,267.7z M404,259.3l-44.4,6.2V260l14.4-1.4l4.3,3.3l1.4-3.9l24.3-2.4L404,259.3z M362.4,249.7l8.1,6.1l-10.8,1.1v-7.1
	L362.4,249.7z M359.6,243.9v-12l26.8-1.5l-1.1,2.9l-1.1,3l-1.3,3.3l-1.1,3l-1.2,3.3l-1.1,3l-2.2,6.2l-0.6,1.8l-2-1.5l-7.7-5.8
	l-3.7-2.8L359.6,243.9z M404,252.5l-23.2,2.3l2.2-6l21-1L404,252.5z M404,244.8l-19.9,0.9l1.2-3.2l18.7-0.2L404,244.8z M404,239.3
	l-17.6,0.2l1.2-3.2H404V239.3z M404,233.3h-15.5l1.1-3.1l14.2-0.8l0,0L404,233.3z M390.9,227.2l-31.2,1.7V225l44.3-3.2v4.6
	L390.9,227.2z M403.9,218.8l-44.4,3.2v-3.4l44.2-1.2L403.9,218.8z M358.7,215.6c-0.3-0.3-0.7-0.6-1.1-0.7l-3.1-0.6l49.4-3.7v3.6
	L358.7,215.6z M359.7,377.9v-4.6l44.7-4.5v2.2L359.7,377.9z"/>
<path class="st1" d="M347.8,211.9c0-1.3-0.1-2.4-0.2-3.4c-0.1-1.4-0.3-2.4-0.4-3c0-0.2-0.1-0.4-0.1-0.5l-0.3-1.8l-1.7,0.6
	c-0.1,0.1-13.3,4.9-41,1.1c-1.4-0.2-2.8-0.4-4.2-0.6l-7.1-1.3l-11.6-2.1l-3-0.6l-0.9-0.2l-8.7-1.6l-12.9-2.4L248,195l-4.7-0.9
	l-3-0.5l-21.3-3.9l-59.8,49.9c-0.6,0.5-0.8,1.3-0.6,2c0.1,0.3,0.2,0.6,0.4,0.8c0.3,0.3,0.7,0.5,1.1,0.6l1.9,0.3l138,24.1l2,0.3
	l1-0.9l0,0l37.7-33.1c2.6-2.4,4.5-5.4,5.5-8.8c0.9-2.8,1.4-5.7,1.5-8.7c0-0.2,0-0.5,0-0.7s0-0.4,0-0.7c0-0.6,0-1.1,0-1.7
	S347.8,212.3,347.8,211.9z M338.8,231.5l-37.7,33l-138.2-24l57-47.5l79.5,14.5c25.8,4.1,40.2,1.2,45-0.1
	C345,211.9,345.9,225.2,338.8,231.5L338.8,231.5z"/>
</svg>
