<?xml version="1.0" encoding="utf-8"?>
<!-- Generator: Adobe Illustrator 24.3.0, SVG Export Plug-In . SVG Version: 6.00 Build 0)  -->
<svg version="1.1" id="Laag_1" xmlns="http://www.w3.org/2000/svg" xmlns:xlink="http://www.w3.org/1999/xlink" x="0px" y="0px"
	 viewBox="0 0 566.9 566.9" style="enable-background:new 0 0 566.9 566.9;" xml:space="preserve">
<style type="text/css">
	.st0{fill:#6B6B7F;}
	.st1{fill:#FF5429;}
</style>
<path class="st0" d="M465.9,291.4v2h2.6v-2H465.9z M456.9,291.4v2h3v-2H456.9z M447.9,291.4v2h3v-2H447.9z M438.9,291.4v2h3v-2
	H438.9z M429.9,291.4v2h3v-2H429.9z M141.9,291.4v2h3v-2H141.9z M132.9,291.4v2h3v-2H132.9z M123.9,291.4v2h3v-2H123.9z
	 M114.9,291.4v2h3v-2H114.9z M105.9,291.4v2h3v-2H105.9z"/>
<path class="st0" d="M424.2,217.2v-11.8c0-6.1-13.8-11.2-41-15c-25.7-3.6-59.8-5.6-96.1-5.6s-70.4,2-96.1,5.6
	c-27.2,3.8-41,8.9-41,15v13.3l0,0v174.3c0,6.1,13.8,11.2,41,15c25.7,3.6,59.8,5.6,96.1,5.6s70.4-2,96.1-5.6c27.2-3.9,41-8.9,41-15
	V217.2z M407.2,198c10,2.7,14,5.4,14,7.3c0,0.5-0.5,2.5-6.9,5.1c-2-0.8-4.4-1.5-7-2.2L407.2,198z M421.2,210.2v3.8
	c-1-0.7-2.1-1.4-3.2-1.9C419.1,211.6,420.2,210.9,421.2,210.2L421.2,210.2z M390.3,194.4c5.5,0.9,10.1,1.9,14,2.8v10.2
	c-4.1-1-8.7-1.9-14-2.8V194.4z M373.3,192.1c3.2,0.4,6.4,0.8,9.4,1.2c1.6,0.2,3.1,0.4,4.5,0.7v10.2l-4.1-0.6
	c-3.2-0.4-6.5-0.9-9.9-1.3V192.1z M356.3,190.4c4.8,0.4,9.5,0.9,14,1.4V202c-4.5-0.5-9.1-0.9-14-1.4V190.4z M339.3,189.1
	c4.8,0.3,9.4,0.6,14,1v10.3c-4.5-0.4-9.2-0.7-14-1V189.1z M322.4,188.3c4.7,0.2,9.4,0.4,14,0.6v10.3c-4.6-0.2-9.2-0.5-14-0.6V188.3z
	 M305.4,187.8c4.7,0.1,9.4,0.2,14,0.4v10.3c-4.6-0.1-9.3-0.3-14-0.4V187.8z M288.4,187.7c4.7,0,9.4,0,14,0.1v10.3
	c-4.6-0.1-9.3-0.1-14-0.1V187.7z M271.4,187.8c4.6-0.1,9.3-0.1,14-0.1V198c-4.7,0-9.4,0-14,0.1V187.8z M254.4,188.2
	c4.6-0.2,9.2-0.3,14-0.4v10.3c-4.7,0.1-9.4,0.2-14,0.4V188.2z M237.4,189c4.6-0.3,9.2-0.5,14-0.6v10.3c-4.7,0.2-9.4,0.4-14,0.6V189z
	 M220.5,190.1c4.5-0.4,9.2-0.7,13.9-1v10.3c-4.8,0.3-9.4,0.6-13.9,1V190.1z M203.5,191.7c4.5-0.5,9.1-1,14-1.4v10.3
	c-4.8,0.4-9.5,0.9-14,1.4V191.7z M186.8,194c1.4-0.2,3-0.4,4.5-0.7c3-0.4,6.2-0.8,9.4-1.2v10.3c-3.4,0.4-6.7,0.8-9.8,1.3l-4.1,0.6
	V194z M169.8,197.3c3.9-1,8.5-1.9,14-2.8v10.2c-5.3,0.9-9.9,1.8-14,2.8V197.3z M166.8,198.1v10.2c-2.7,0.7-5,1.5-7.1,2.2
	c-4.9-1.9-6.9-3.7-6.9-5.1C152.9,203.5,156.9,200.8,166.8,198.1L166.8,198.1z M166.8,215.9V226c-7.6-2.1-11.7-4.1-13.2-5.8
	c-0.8-0.7-0.9-1.9-0.3-2.7c0.1-0.1,0.2-0.2,0.3-0.3c1-1.1,3-2.3,6.2-3.6C161.8,214.4,164.2,215.1,166.8,215.9L166.8,215.9z
	 M152.8,210.1c1,0.7,2.1,1.4,3.3,1.9c-1.1,0.5-2.2,1.2-3.2,1.9L152.8,210.1z M370.3,406.5c-23.7,2.6-52.7,4-83.3,4
	c-36.2,0-70.2-2-95.7-5.6c-28.4-4-38.4-9-38.4-12.1V223.4c5.4,4.1,18.1,7.5,38,10.3c25.7,3.6,59.8,5.6,96.1,5.6
	c30.5,0,59.5-1.4,83.3-4L370.3,406.5z M169.8,226.8v-10.2c4,1,8.7,1.9,14,2.8v10.2C178.3,228.7,173.7,227.7,169.8,226.8z
	 M186.8,230.1v-10.2l4.1,0.6c3.2,0.4,6.4,0.9,9.9,1.3V232c-3.2-0.4-6.4-0.8-9.4-1.2C189.8,230.5,188.2,230.3,186.8,230.1
	L186.8,230.1z M203.8,232.3V222c4.5,0.5,9.1,0.9,14,1.4v10.3C212.9,233.2,208.2,232.8,203.8,232.3L203.8,232.3z M220.8,233.9v-10.3
	c4.5,0.4,9.2,0.7,13.9,1v10.3C229.9,234.6,225.2,234.3,220.8,233.9L220.8,233.9z M237.7,235v-10.2c4.6,0.3,9.2,0.5,14,0.6v10.3
	C246.9,235.5,242.2,235.3,237.7,235z M254.7,235.8v-10.3c4.6,0.2,9.2,0.3,14,0.4v10.3C263.9,236.1,259.2,235.9,254.7,235.8
	L254.7,235.8z M271.7,236.2v-10.3c4.6,0.1,9.3,0.1,14,0.1v10.3C280.8,236.3,276.2,236.3,271.7,236.2L271.7,236.2z M288.6,236.3
	v-10.3c4.8,0,9.4-0.1,14-0.1v10.3C297.9,236.3,293.2,236.3,288.6,236.3L288.6,236.3z M305.6,236.1v-10.3c4.8-0.1,9.4-0.2,14-0.4
	v10.4c-4.7,0.1-9.4,0.3-14.1,0.4L305.6,236.1z M322.6,235.6v-10.3c4.7-0.2,9.4-0.5,14-0.8V235c-4.7,0.3-9.4,0.5-14.1,0.7
	L322.6,235.6z M339.6,234.8v-10.5c4.7-0.3,9.3-0.7,14-1.2v10.8c-4.7,0.4-9.4,0.7-14.2,1L339.6,234.8z M370.5,232.3
	c-4.5,0.5-9.1,1-14,1.4v-10.8c4.6-0.5,9.3-1,14-1.6V232.3z M287,223.1c-36.2,0-70.1-2-95.7-5.6c-9.1-1.1-18.1-3-26.9-5.4
	c6.1-1.8,14.8-3.7,26.9-5.4c25.6-3.6,59.6-5.6,95.7-5.6s70.1,2,95.7,5.6c9.1,1.1,18.1,2.9,27,5.4c-4.7,1.4-9.6,2.5-14.4,3.4
	l-1.2,0.2v13.3c-3.4,0.6-7.1,1.2-11.3,1.8c-3,0.4-6.2,0.8-9.4,1.2v-14.1l-1.7,0.2C344.4,221.6,319.1,223.1,287,223.1z M410.9,214.8
	v10.2c-4.5,1.4-9.2,2.6-13.9,3.4v-10.2C401.7,217.3,406.3,216.1,410.9,214.8L410.9,214.8z M394,390.4l-20.7,1.6v-10.6l20.7-1.6
	L394,390.4z M394,240.4l-20.7,2V235c3.4-0.4,6.7-0.8,9.9-1.3c3.9-0.6,7.5-1.1,10.8-1.7V240.4z M394,243.4V254l-20.7,1.6v-10.2
	L394,243.4z M394,376.8l-20.7,1.6v-10.6l20.7-1.6V376.8z M394,363.1l-20.7,1.6v-10.6l20.7-1.6V363.1z M394,349.5l-20.7,1.6v-10.6
	l20.7-1.6V349.5z M394,335.8l-20.7,1.6v-10.6l20.7-1.6V335.8z M394,322.2l-20.7,1.6v-10.6l20.7-1.6V322.2z M394,308.6l-20.7,1.6
	v-10.6l20.7-1.6V308.6z M394,294.9l-20.7,1.6v-10.6l20.7-1.6V294.9z M394,281.3l-20.7,1.6v-10.6l20.7-1.6V281.3z M394,267.6
	l-20.7,1.6v-10.6L394,257V267.6z M382.8,405c-3,0.4-6.2,0.8-9.4,1.2V395l20.7-1.6v9.8C390.6,403.8,386.9,404.4,382.8,405z
	 M421.2,392.9c0,2.5-6.6,6.2-24.2,9.7V231.4c12.1-2.3,20.1-5,24.2-8V392.9z M420.5,220.2c-1,1.1-3.1,2.4-6.6,3.7v-10.1l0.4-0.1
	c3.2,1.3,5.2,2.5,6.2,3.6c0.4,0.4,0.7,0.9,0.7,1.5l0,0C421.1,219.2,420.9,219.8,420.5,220.2z"/>
<path class="st1" d="M270.1,354.2c-0.4,0-0.8,0-1.2,0c-5.1-0.4-9.8-3.1-12.6-7.4c-3-4.5-3.6-10.2-1.8-15.3l11.4-31.9
	c0.8-2.3,3.4-3.5,5.7-2.7c1.3,0.4,2.2,1.4,2.7,2.7l11.4,31.8c1.8,5.1,1.1,10.8-1.8,15.3c-2.8,4.3-7.4,7.1-12.6,7.4
	C270.9,354.2,270.5,354.2,270.1,354.2z M270.1,299.6c-0.6,0-1.2,0.4-1.4,1l-11.4,31.9c-1.5,4.2-0.9,8.9,1.5,12.6
	c2.3,3.5,6.1,5.8,10.3,6.1c0.7,0,1.3,0,2,0c4.2-0.3,8-2.6,10.3-6.1c2.4-3.8,3-8.4,1.5-12.6l-11.4-31.8
	C271.3,300,270.7,299.6,270.1,299.6z"/>
<path class="st1" d="M269.8,348.7c-6.2,0-11.2-5-11.2-11.2h3c0,4.5,3.7,8.2,8.2,8.2V348.7z"/>
<path class="st0" d="M455.2,343.2h-2v-3h2V343.2z M455.2,334.2h-2v-3h2V334.2z M455.2,325.2h-2v-3h2V325.2z M455.2,316.2h-2v-3h2
	V316.2z M455.2,307.2h-2v-3h2V307.2z M455.2,298.2h-2v-3h2V298.2z M455.2,289.2h-2v-3h2V289.2z M455.2,280.2h-2v-3h2V280.2z
	 M455.2,271.2h-2v-3h2V271.2z"/>
<path class="st0" d="M213.3,184.4h-2v-2.6h2V184.4z M213.3,175.9h-2v-3h2V175.9z M213.3,166.9h-2v-3h2V166.9z M213.3,157.9h-2v-3h2
	V157.9z M213.3,148.9h-2v-3h2V148.9z"/>
<path class="st1" d="M270.8,371.2c-24.6,0-44.6-19.9-44.6-44.5c0-24.6,19.9-44.6,44.5-44.6c24.6,0,44.6,19.9,44.6,44.5c0,0,0,0,0,0
	C315.3,351.2,295.4,371.1,270.8,371.2z M270.8,285.1c-22.9,0-41.6,18.6-41.6,41.5c0,22.9,18.6,41.6,41.5,41.6
	c22.9,0,41.6-18.6,41.6-41.5v0C312.3,303.7,293.7,285.1,270.8,285.1z"/>
</svg>
