<?xml version="1.0" encoding="utf-8"?>
<!-- Generator: Adobe Illustrator 24.3.0, SVG Export Plug-In . SVG Version: 6.00 Build 0)  -->
<svg version="1.1" id="Laag_1" xmlns="http://www.w3.org/2000/svg" xmlns:xlink="http://www.w3.org/1999/xlink" x="0px" y="0px"
	 viewBox="0 0 566.9 566.9" style="enable-background:new 0 0 566.9 566.9;" xml:space="preserve">
<style type="text/css">
	.st0{fill:#6B6B7F;}
	.st1{fill:none;}
	.st2{fill:#FF5429;}
</style>
<path class="st0" d="M110.1,273.9v2h3v-2H110.1z M119.1,273.9v2h3v-2H119.1z M128.1,273.9v2h3v-2H128.1z M137.1,273.9v2h3v-2H137.1z
	 M146.1,273.9v2h3v-2H146.1z M155.1,273.9v2h3v-2H155.1z M164.1,273.9v2h3v-2H164.1z M173.1,273.9v2h3v-2H173.1z M257,275.9h0.1
	v-0.5L257,275.9z M418.3,273.9c0.2,0.7,0.4,1.3,0.6,2h0.2v-2H418.3z M425.1,273.9v2h3v-2H425.1z M434.1,273.9v2h3v-2H434.1z
	 M443.1,273.9v2h3v-2H443.1z M452.1,273.9v2h3v-2H452.1z"/>
<path class="st1" d="M418.9,275.9c-0.2-0.7-0.4-1.3-0.6-2c-8.4-26.9-30-47.6-57.2-55l-1.1-0.3v-13.8h-41v13.8l-1.1,0.3
	c-21.7,5.9-40,20.3-50.8,40l7.5,15l0.5,1l15.2,30.3c21.1,7.3,36,9,68.1-7.3c28.2-14.4,57.8,3.8,58.1,4l-1.6,2.5
	c-0.3-0.2-28.5-17.5-55.2-3.9c-18.5,9.4-31.5,13-43.1,13c-8.3,0-15.9-1.8-24.4-4.6l35.8,71.5c3.8,0.5,7.6,0.8,11.5,0.8
	c45.6,0,82.6-36.9,82.6-82.5C422.1,291,421,283.3,418.9,275.9L418.9,275.9z M369.5,266.9c-5.9,0-10.7-4.8-10.7-10.7
	c0-5.9,4.8-10.7,10.7-10.7c5.9,0,10.7,4.8,10.7,10.7c0,0,0,0,0,0C380.2,262.1,375.4,266.9,369.5,266.9z"/>
<path class="st0" d="M395.6,230.9h-2v-3h2V230.9z M395.6,221.9h-2v-3h2V221.9z M395.6,212.9h-2v-3h2V212.9z M395.6,203.9h-2v-3h2
	V203.9z M395.6,194.9h-2v-3h2V194.9z M395.6,185.9h-2v-3h2V185.9z M395.6,176.9h-2v-3h2V176.9z M395.6,167.9h-2v-3h2V167.9z
	 M395.6,158.9h-2v-3h2V158.9z M395.6,149.9h-2v-3h2V149.9z M395.6,140.9h-2v-3h2V140.9z M395.6,131.9h-2v-3h2V131.9z M395.6,122.9
	h-2v-3h2V122.9z"/>
<path class="st2" d="M416.5,301.9l-1.6,2.5c-0.3-0.2-28.5-17.5-55.2-3.9c-18.5,9.4-31.5,13-43.1,13c-8.3,0-15.9-1.8-24.4-4.6
	l-1.9-3.8c21.1,7.3,36,9,68.1-7.3C386.6,283.5,416.2,301.7,416.5,301.9z"/>
<path class="st0" d="M369.5,245.5c-5.9,0-10.7,4.8-10.7,10.7s4.8,10.7,10.7,10.7s10.7-4.8,10.7-10.7c0,0,0,0,0,0
	C380.2,250.3,375.4,245.5,369.5,245.5z M369.5,263.9c-4.2,0-7.7-3.4-7.7-7.7c0-4.2,3.4-7.7,7.7-7.7c4.2,0,7.7,3.4,7.7,7.7
	c0,0,0,0,0,0C377.2,260.4,373.7,263.9,369.5,263.9z"/>
<path class="st0" d="M359,159.2c-9.5,0-17.3-7.8-17.3-17.3c0-9.5,7.8-17.3,17.3-17.3c9.5,0,17.3,7.8,17.3,17.3c0,0,0,0,0,0
	C376.3,151.5,368.5,159.3,359,159.2z M359,127.7c-7.9,0-14.3,6.4-14.3,14.3c0,7.9,6.4,14.3,14.3,14.3c7.9,0,14.2-6.4,14.3-14.3
	C373.3,134.1,366.9,127.7,359,127.7C359,127.7,359,127.7,359,127.7z"/>
<path class="st0" d="M363,216.3v-11.8h3v-17h-25.9c2.3-4.9,0.2-10.7-4.7-13c-4.9-2.3-10.7-0.2-13,4.7c-0.6,1.3-0.9,2.7-0.9,4.1
	c-0.1,1.4,0.2,2.8,0.7,4.1h-9.7v17h3.5v11.8c-21.3,6.1-39.4,20.2-50.5,39.4l-15.8-31.5v-14.4h4.6v-19.2h-51.4v19.2h4.4v14.4
	l-24.9,49.7h-0.1v0.3l-56.8,113.3c-3.2,6.3-0.6,14.1,5.7,17.2c1.8,0.9,3.7,1.4,5.7,1.4h183.3c7.1,0,12.8-5.8,12.8-12.8
	c0-2-0.5-4-1.4-5.8l-1.9-3.7c3.3,0.4,6.6,0.6,9.8,0.6c47.3,0,85.7-38.3,85.7-85.6C425.2,260.4,399.8,226.8,363,216.3L363,216.3z
	 M331.2,176.6c3.7,0,6.8,3,6.8,6.8c0,1.5-0.5,3-1.4,4.1h-10.8c-1-1-1.3-2.2-1.3-4.1C324.5,179.6,327.5,176.6,331.2,176.6
	L331.2,176.6z M315.5,201.5v-11H363v11H315.5z M205.8,206.7v-13.2h45.4v13.2L205.8,206.7z M328.4,398.3c-1.8,2.9-5,4.7-8.4,4.7
	H136.8c-5.4,0-9.8-4.4-9.8-9.9c0-1.5,0.4-3,1-4.4l56.6-112.9l0.5-1l25.1-50v-15.1h36.5v15.1l17.1,34l1.7,3.3l6.7,13.4l0.1,0.2
	l14,27.9l2,3.9l36.2,72.2l1.7,3.3l2.8,5.5C330.4,391.8,330.2,395.4,328.4,398.3z M339.5,381.3c-3.8,0-7.7-0.3-11.5-0.8L292.2,309
	l-1.9-3.8l-15.2-30.3l-0.5-1l-7.5-15c10.8-19.7,29.1-34.1,50.8-40l1.1-0.3v-13.7h41v13.8l1.1,0.3c27.2,7.4,48.7,28.1,57.2,55
	c0.2,0.7,0.4,1.3,0.6,2c12.6,43.8-12.7,89.6-56.5,102.2C355,380.2,347.3,381.3,339.5,381.3L339.5,381.3z"/>
<path class="st0" d="M206.6,282c-6.1,0-11.1,5-11.1,11.1c0,6.1,5,11.1,11.1,11.1c6.1,0,11.1-5,11.1-11.1c0,0,0,0,0,0
	C217.6,287,212.7,282,206.6,282z M206.6,301.2c-4.5,0-8.1-3.6-8.1-8.1c0-4.5,3.6-8.1,8.1-8.1c4.5,0,8.1,3.6,8.1,8.1c0,0,0,0,0,0
	C214.6,297.5,211,301.1,206.6,301.2L206.6,301.2z"/>
<path class="st0" d="M230.9,239c-4.8,0-8.6,3.9-8.6,8.6s3.9,8.6,8.6,8.6s8.6-3.9,8.6-8.6C239.5,242.9,235.6,239,230.9,239z
	 M230.9,253.2c-3.1,0-5.6-2.5-5.6-5.6s2.5-5.6,5.6-5.6s5.6,2.5,5.6,5.6C236.5,250.7,234,253.2,230.9,253.2L230.9,253.2z"/>
<path class="st0" d="M206.6,174.9c-7.9,0-14.3-6.4-14.3-14.3s6.4-14.3,14.3-14.3c7.9,0,14.3,6.4,14.3,14.3
	C220.8,168.5,214.4,174.9,206.6,174.9z M206.6,149.3c-6.2,0-11.3,5.1-11.3,11.3s5.1,11.3,11.3,11.3s11.3-5.1,11.3-11.3
	C217.8,154.3,212.8,149.3,206.6,149.3L206.6,149.3z"/>
<path class="st0" d="M135.1,290.5h-2v-3h2V290.5z M135.1,281.5h-2v-3h2V281.5z M135.1,272.5h-2v-3h2V272.5z M135.1,263.5h-2v-3h2
	V263.5z M135.1,254.5h-2v-3h2V254.5z M135.1,245.5h-2v-3h2V245.5z M135.1,236.5h-2v-3h2V236.5z M135.1,227.5h-2v-3h2V227.5z
	 M135.1,218.5h-2v-3h2V218.5z"/>
<path class="st2" d="M295.6,332.8c-7.3,2.2-14.8,3.9-22.4,5c-2.1,0.3-4.1,0.5-6.1,0.7c-1.1,0.1-2.2,0.2-3.3,0.3
	c-2.5,0.2-5,0.3-7.3,0.3c-9.5,0-17.6-1.5-24.2-4.4c-24.1-10.7-44.8-9.6-69.1,3.5l-1.4-2.6c25.2-13.6,46.7-14.7,71.8-3.6
	c8.5,3.8,19,4.5,28.8,3.9c1.1-0.1,2.2-0.1,3.2-0.2c9.9-0.9,19.6-2.8,29.1-5.7L295.6,332.8z"/>
</svg>
