<?xml version="1.0" encoding="utf-8"?>
<!-- Generator: Adobe Illustrator 24.3.0, SVG Export Plug-In . SVG Version: 6.00 Build 0)  -->
<svg version="1.1" id="Laag_1" xmlns="http://www.w3.org/2000/svg" xmlns:xlink="http://www.w3.org/1999/xlink" x="0px" y="0px"
	 viewBox="0 0 566.9 566.9" style="enable-background:new 0 0 566.9 566.9;" xml:space="preserve">
<style type="text/css">
	.st0{fill:#4A4A49;}
	.st1{fill:none;}
	.st2{fill:#FF5429;}
	.st3{fill:#6B6B7F;}
</style>
<path class="st0" d="M426.1,374.2c0,0.5-0.1,1.1-0.1,1.6L426.1,374.2L426.1,374.2z M406.4,319.7l-0.1,0.1L406.4,319.7L406.4,319.7z
	 M408,316.8c0.4,0.5,0.8,1,1.2,1.5l0,0L408,316.8z"/>
<path class="st1" d="M313,411.1l-7.7-21.4h-6.5l-4.1,11.3l0,0l-1.7,5l0,0l-1.9,5.2c-1.3,3.6-0.8,7.6,1.3,10.8c1.9,3,5.2,5,8.8,5.2
	c0.2,0,0.4,0,0.7,0c0.4,0,0.7,0,1,0c3.6-0.2,6.8-2.2,8.8-5.2C313.8,418.8,314.3,414.8,313,411.1z M301.9,425.4h-0.5
	c-1.1,0-2.3-0.3-3.3-0.7c-3.7-1.5-6.2-5.2-6.2-9.2h3c0,1.8,0.7,3.6,2,4.8l0,0c1,1,2.3,1.7,3.6,2c0.4,0.1,0.9,0.1,1.3,0.1
	L301.9,425.4z"/>
<path class="st2" d="M314.2,423.6c-2.4,3.8-6.6,6.2-11.1,6.5h-0.4c-0.2,0-0.4,0-0.6,0s-0.5,0-0.7,0H301c-1.6-0.1-3.2-0.5-4.7-1.1
	c-1.9-0.8-3.5-2-4.9-3.5c-0.5-0.6-1-1.2-1.5-1.9c-2.6-4-3.2-9-1.6-13.5l3.3-9.2l1.8-4.9l2.2-6.2h3.2l-4,11.3l0,0l-1.7,5l0,0
	l-1.9,5.2c-1.3,3.6-0.8,7.6,1.3,10.8c1.9,3,5.2,5,8.8,5.2c0.2,0,0.4,0,0.7,0c0.4,0,0.7,0,1,0c3.6-0.2,6.8-2.2,8.8-5.2
	c2.1-3.2,2.6-7.2,1.3-10.9l-7.7-21.4h3.2l7.3,20.4C317.4,414.6,316.8,419.6,314.2,423.6z"/>
<path class="st2" d="M301.8,422.4v3h-0.5c-1.1,0-2.3-0.3-3.3-0.7c-3.7-1.5-6.2-5.2-6.2-9.2h3c0,1.8,0.7,3.6,2,4.8l0,0
	c1,1,2.3,1.7,3.6,2C301,422.4,301.4,422.4,301.8,422.4z"/>
<path class="st0" d="M290.5,389.7h-7.2h0h8.4l0,0H290.5z M290.5,389.7h-10.2l0,0h11.4l0,0H290.5z M290.5,389.7h-7.2h0h8.4l0,0H290.5
	z"/>
<path class="st1" d="M356.4,328.5v37.1h-24.7v-37.1c0-0.1,0-0.2,0-0.3c0.1-1.4,0.8-2.6,1.9-3.5c0.4,1.2,0.9,2.4,1.7,3.5
	c0.9,1.2,2.1,2.2,3.4,3c3.3,1.9,7.4,1.9,10.8,0c2.5-1.4,4.3-3.7,5.1-6.5c1.1,0.8,1.8,2.1,1.9,3.5
	C356.4,328.2,356.4,328.4,356.4,328.5z"/>
<path class="st1" d="M352,317.5v4.2c0,0.7-0.1,1.3-0.3,2c-0.5,1.8-1.6,3.4-3.1,4.4c-2.7,1.9-6.3,1.9-9,0c-1.5-1.1-2.6-2.6-3.1-4.4
	c-0.2-0.7-0.3-1.3-0.3-2v-4.2c0-0.6,0.1-1.1,0.2-1.7c4.2,4.2,11.1,4.3,15.3,0c0,0,0,0,0,0C351.9,316.3,352,316.9,352,317.5z"/>
<path class="st1" d="M352,308.1c0,0.6-0.1,1.1-0.2,1.7c-0.1,0.4-0.2,0.7-0.3,1.1c-0.3,0.7-0.6,1.3-1,1.9c-0.3,0.4-0.5,0.7-0.8,1
	c-3,3-7.9,3-10.9,0c-0.3-0.3-0.6-0.6-0.8-1c-0.4-0.6-0.8-1.2-1-1.9c-0.1-0.4-0.3-0.7-0.3-1.1c-0.9-4.3,1.8-8.4,6-9.4
	c0.5-0.1,1.1-0.2,1.6-0.2c3.3,0,6.2,2,7.4,5.1C351.8,306.2,352,307.2,352,308.1z"/>
<path class="st3" d="M425.6,359.5c-1.2-10.7-4.5-21.1-9.6-30.5c-2-3.7-4.3-7.2-6.8-10.6c-0.4-0.5-0.8-1-1.2-1.5l-0.5-0.6l-0.2-0.3
	c-16.1-20.1-40.5-31.7-66.3-31.7c-2.8,0-5.5,0.1-8.3,0.4c-2-3.5-3-7.4-3-11.4h-0.1l0.2-0.8l-59.2-39.4v-37h56.2
	c0.6,11.7,8.9,21.8,24.1,29.3c17,8.4,41.9,13.4,73.8,14.8l0.1-3c-59.5-2.5-95-18.4-95-42.6h-0.1l0.2-0.8l-59.6-39.6
	c-0.2-0.1-0.4-0.2-0.6-0.2c-0.3-0.1-0.5-0.2-0.8-0.2h-58.5c-0.5,0.1-1.1,0.3-1.6,0.6l-58.5,38.9c-0.5,0.3-0.7,0.8-0.7,1.4l0,0
	c0,14.2-12.9,26.2-36.4,33.6l0.9,2.9c7.9-2.4,15.5-5.9,22.4-10.4v0.1h2v-1.5c8.7-6.6,13.6-14.4,14.1-23.1h56v37l-29.2,19.4l-0.3-0.2
	l-0.4,0.7l-28.3,18.8c-0.5,0.3-0.7,0.8-0.7,1.4l0,0c0,14.2-12.9,26.2-36.4,33.6l0.9,2.9c7.9-2.4,15.5-5.9,22.4-10.4v2.5h2v-3h-1.2
	c9.5-6.7,14.8-14.9,15.3-24h56v37.6l-10.3,38l-0.8,3l-9.9,36.3l-0.8,3L176,432h107.1c34.5,32,88.4,29.9,120.4-4.6
	c12.8-13.8,20.6-31.4,22.3-50.2c0-0.5,0.1-0.9,0.1-1.4s0.1-1.1,0.1-1.6c0.1-1.6,0.1-3.2,0.1-4.7C426.2,366.1,426,362.8,425.6,359.5z
	 M323.3,193.1h-49.2l24.6-16.3L323.3,193.1z M270.6,158.1L296,175l-25.4,16.8L270.6,158.1z M323.3,271.8h-49.2l24.6-16.4
	L323.3,271.8z M270.6,236.8l25.4,16.8l-25.4,16.9L270.6,236.8z M270.6,274.8h56.2c0.2,3.6,1.1,7,2.7,10.2
	c-22.8,3.1-43.4,15.3-57.1,33.9l-1.8-6.5V274.8z M270.2,322.1c-3.7,5.5-6.7,11.4-9,17.5l-18.5-10.4l25.6-14.4L270.2,322.1z
	 M239.6,407.4l-42.1-14.7H259c0.7,2.4,1.5,4.8,2.4,7.1L239.6,407.4z M262.5,402.6c2.4,5.6,5.3,10.9,8.8,15.9l-27.2-9.5L262.5,402.6z
	 M195.9,389.7l43.7-18.8l16.6,7.1c0.4,3.9,1.1,7.8,2,11.7L195.9,389.7z M255.9,374.7l-12.5-5.4l12.6-5.4c-0.1,1.9-0.2,3.8-0.2,5.6
	C255.8,371.2,255.8,372.9,255.9,374.7L255.9,374.7z M239.6,367.7l-33-14.2h50.7c-0.4,2.3-0.8,4.6-1,7L239.6,367.7z M257.9,350.4
	h-52.9l34.5-19.5l20.5,11.6C259.3,345.1,258.5,347.7,257.9,350.4L257.9,350.4z M264.2,196.2l-24.6,16.4L215,196.1L264.2,196.2z
	 M215,193.2l24.6-16.4l24.6,16.4H215z M267.6,197.5v33.7l-25.3-16.9L267.6,197.5z M264.2,232.5H215l24.6-16.4L264.2,232.5z
	 M267.6,236.8v33.7l-25.3-16.9L267.6,236.8z M264.2,235.5l-24.6,16.3L215,235.4L264.2,235.5z M264.2,271.8H215l24.6-16.4
	L264.2,271.8z M267.6,276.1v33.7l-25.3-16.9L267.6,276.1z M264.2,274.8l-24.6,16.4L215,274.8L264.2,274.8z M264.2,311.1H215
	l24.6-16.4L264.2,311.1z M263.4,314.1l-23.8,13.4l-23.8-13.4L263.4,314.1z M267.7,191.9L242.3,175l25.3-16.9L267.7,191.9z
	 M264.2,156.9l-24.6,16.4L215,156.8L264.2,156.9z M211.5,158.2l25.3,16.8l-25.4,16.9L211.5,158.2z M211.5,197.5l25.4,16.9
	l-25.4,16.9V197.5z M211.5,236.8l25.4,16.9l-25.4,16.9V236.8z M211.5,276.1l25.4,16.9l-25.4,16.9V276.1z M155.9,193.2l24.5-16.3
	l24.6,16.2L155.9,193.2z M183.1,175l25.4-16.9v33.7L183.1,175z M155.9,271.7l23.6-15.7l25.3,15.7H155.9z M182.2,254.2l26.4-17.5
	v33.8L182.2,254.2z M211,314.8l25.6,14.4l-34.8,19.6L211,314.8z M200.3,354l35.5,15.3l-44.9,19.4L200.3,354z M189.7,393.2L235,409
	l-54.9,19.2L189.7,393.2z M186.8,429l52.8-18.4l34.9,12.2l0,0c1.7,2.2,3.6,4.2,5.5,6.2H186.8z M341,451.7c-19.6,0-38.5-7-53.4-19.7
	c-1.1-1-2.2-2-3.3-3c-1.4-1.4-2.8-2.8-4.2-4.3c-1.3-1.5-2.6-3-3.8-4.5c-4.5-5.7-8.2-12-11-18.6c-0.4-0.9-0.8-1.9-1.1-2.8
	c-0.8-2-1.5-4-2.1-6.1c-0.3-1-0.6-2-0.8-3c-0.9-3.4-1.5-6.8-1.9-10.3c-0.1-1.1-0.3-2.3-0.3-3.4c-0.2-2.1-0.3-4.3-0.3-6.5
	c0-2.4,0.1-4.7,0.3-7c0.1-1.1,0.2-2.3,0.4-3.4l0,0c0.3-1.9,0.6-3.8,0.9-5.7c0.2-1,0.4-2,0.7-3c0.5-2.2,1.1-4.3,1.8-6.4
	c0.3-1,0.6-1.9,1-2.9c1.9-5.3,4.4-10.3,7.4-15.1c0.7-1.1,1.4-2.2,2.2-3.3c13.4-19.3,34.4-32,57.7-34.8l0,0c0.3,0,0.6-0.1,0.9-0.1
	l0,0c3-0.3,5.9-0.5,8.9-0.5c24.6-0.1,48,10.9,63.5,30l-0.5,0.4c-0.1,0.1-0.2,0.1-0.3,0.2c-0.4,0.3-0.8,0.6-1.1,1
	c-0.1,0.1-0.2,0.2-0.3,0.3l0,0c-0.3,0.3-0.6,0.6-0.8,0.9l-0.4,0.5c-0.2,0.2-0.3,0.4-0.5,0.7s-0.3,0.5-0.4,0.7
	c-0.1,0.1-0.1,0.2-0.2,0.4l-0.3,0.6c-0.2,0.4-0.4,0.8-0.5,1.3c0,0.1,0,0.2-0.1,0.3l-0.1,0.2c-0.1,0.2-0.1,0.3-0.1,0.5l-0.1,0.3
	c0,0.2-0.1,0.5-0.1,0.8c0,0.2-0.1,0.4-0.1,0.6c0,0.1,0,0.3,0,0.4s0,0.5,0,0.8v0h-39.3c-0.1-2.9-1.8-5.5-4.5-6.7v-4
	c0-1.1-0.2-2.3-0.5-3.4l9.8,0.8h0.5c3.8,0.1,6.8-2.9,6.9-6.7c0.1-3.8-2.9-6.8-6.7-6.9c-0.2,0-0.5,0-0.7,0l-11,0.9
	c-3.3-5-10-6.5-15-3.2c-1.3,0.8-2.4,1.9-3.2,3.2l-11-0.8c-3.7-0.3-7,2.5-7.3,6.3c-0.2,2.1,0.6,4.1,2.1,5.5c1.3,1.2,2.9,1.8,4.6,1.8
	h0.5l9.8-0.8c-0.4,1.1-0.5,2.2-0.5,3.4v4c-2.6,1.2-4.3,3.8-4.5,6.7h-5.5c-20.8,0-37.6,16.9-37.7,37.7v8.4h-5.3v15.5h11.4l0,0h32.2
	v-15.6h-5.2v-8.4c0-2.6,2.1-4.7,4.7-4.7h5.5v7.4h30.7v-7.4h39.2v3.2c0,7.1,5.7,12.8,12.8,12.8h11.4
	C418.8,419.4,383.4,451.6,341,451.7z M398.7,331.1v27h-39.2v-27H398.7z M350.4,312.8c-0.3,0.4-0.5,0.7-0.8,1c-3,3-7.9,3-10.9,0
	c-0.3-0.3-0.6-0.6-0.8-1c-0.4-0.6-0.8-1.2-1-1.9c-0.1-0.4-0.3-0.7-0.3-1.1c-0.9-4.3,1.8-8.4,6-9.4c0.5-0.1,1.1-0.2,1.6-0.2
	c3.3,0,6.2,2,7.4,5.1c0.3,0.9,0.5,1.8,0.5,2.8c0,0.6-0.1,1.1-0.2,1.7c-0.1,0.4-0.2,0.7-0.3,1.1C351.2,311.6,350.8,312.2,350.4,312.8
	z M336.4,315.8c4.2,4.2,11.1,4.3,15.3,0c0,0,0,0,0,0c0.1,0.6,0.2,1.1,0.2,1.7v4.2c0,0.7-0.1,1.3-0.3,2c-0.5,1.8-1.6,3.4-3.1,4.4
	c-2.7,1.9-6.3,1.9-9,0c-1.5-1.1-2.6-2.6-3.1-4.4c-0.2-0.7-0.3-1.3-0.3-2v-4.2C336.2,316.9,336.3,316.3,336.4,315.8L336.4,315.8z
	 M338.7,331.1c3.3,1.9,7.4,1.9,10.8,0c2.5-1.4,4.3-3.7,5.1-6.5c1.1,0.8,1.8,2.1,1.9,3.5c0,0.1,0,0.2,0,0.3v37.1h-24.7v-37.1
	c0-0.1,0-0.2,0-0.3c0.1-1.4,0.8-2.6,1.9-3.5c0.4,1.2,0.9,2.4,1.7,3.5C336.2,329.3,337.4,330.4,338.7,331.1L338.7,331.1z
	 M354.5,305.1l10-0.8c2.1-0.2,3.9,1.4,4.1,3.4c0.2,2.1-1.4,3.9-3.4,4.1c-0.2,0-0.5,0-0.7,0l-10-0.8
	C355.1,309.2,355.1,307.1,354.5,305.1L354.5,305.1z M333.6,311.1l-9.9,0.8c-2.1,0.2-3.9-1.4-4.1-3.5c-0.1-1.1,0.4-2.3,1.2-3.1
	c0.7-0.6,1.6-1,2.6-1h0.3l9.9,0.8C333.1,307.1,333.1,309.1,333.6,311.1L333.6,311.1z M315.6,365.8v8.4h-27v-8.4
	c0-19.1,15.5-34.7,34.7-34.7h5.5v27h-5.5C319,358.1,315.6,361.6,315.6,365.8z M320.8,377.2v9.5h-37.6v-9.5L320.8,377.2z
	 M423.1,374.2h-11.6c-5.4,0-9.8-4.4-9.8-9.8v-36.3c0-0.2,0-0.5,0-0.7c0-0.2,0-0.4,0.1-0.6c0-0.2,0.1-0.4,0.1-0.6
	c0-0.2,0.1-0.3,0.1-0.5c0-0.2,0.1-0.4,0.2-0.6c0.1-0.2,0.1-0.4,0.2-0.5c0.1-0.2,0.1-0.3,0.2-0.5c0.1-0.1,0.1-0.3,0.2-0.4
	c0.1-0.2,0.2-0.4,0.4-0.7c0.1-0.1,0.1-0.2,0.2-0.3c0.1-0.1,0.2-0.3,0.3-0.4c0.2-0.3,0.4-0.6,0.7-0.8l0,0c0.1-0.1,0.2-0.2,0.3-0.3
	c0.1-0.1,0.2-0.2,0.3-0.3c0.1-0.1,0.3-0.3,0.4-0.4c0.1-0.1,0.3-0.2,0.4-0.3c0.2-0.1,0.3-0.2,0.5-0.3l0.1-0.1l0,0
	c2.6,3.4,4.9,6.9,6.9,10.7c5,9.1,8.1,19.1,9.3,29.5c0.4,3.2,0.6,6.5,0.6,9.7C423.2,371,423.2,372.6,423.1,374.2L423.1,374.2z"/>
<path class="st0" d="M425.9,377.2L425.9,377.2l0.1-1.4C426,376.3,425.9,376.7,425.9,377.2z M407.3,315.9L407.3,315.9l0.2,0.3
	L407.3,315.9z"/>
<polygon class="st0" points="283.9,386.7 283.2,386.7 283.2,386.4 "/>
<path class="st0" d="M291.7,389.7L291.7,389.7h-11.4l0,0H291.7z"/>
<path class="st0" d="M331.1,287.8L331.1,287.8L331.1,287.8z"/>
<rect x="326.8" y="162.7" class="st0" width="3" height="2"/>
<rect x="317.8" y="162.7" class="st0" width="3" height="2"/>
<rect x="425.8" y="162.7" class="st0" width="3" height="2"/>
<rect x="416.8" y="162.7" class="st0" width="3" height="2"/>
<rect x="290.8" y="162.7" class="st0" width="3" height="2"/>
<rect x="299.8" y="162.7" class="st0" width="3" height="2"/>
<rect x="308.8" y="162.7" class="st0" width="3" height="2"/>
<rect x="407.8" y="162.7" class="st0" width="3" height="2"/>
<rect x="335.8" y="162.7" class="st0" width="3" height="2"/>
<rect x="371.8" y="162.7" class="st0" width="3" height="2"/>
<rect x="380.8" y="162.7" class="st0" width="3" height="2"/>
<rect x="398.8" y="162.7" class="st0" width="3" height="2"/>
<rect x="389.8" y="162.7" class="st0" width="3" height="2"/>
<rect x="362.8" y="162.7" class="st0" width="3" height="2"/>
<rect x="353.8" y="162.7" class="st0" width="3" height="2"/>
<rect x="344.8" y="162.7" class="st0" width="3" height="2"/>
<rect x="136.5" y="208.8" class="st0" width="2" height="3"/>
<rect x="136.5" y="199.8" class="st0" width="2" height="3"/>
<rect x="136.5" y="190.8" class="st0" width="2" height="3"/>
<rect x="136.5" y="181.8" class="st0" width="2" height="3"/>
<rect x="136.5" y="361.8" class="st0" width="2" height="3"/>
<rect x="136.5" y="172.8" class="st0" width="2" height="3"/>
<rect x="136.5" y="307.8" class="st0" width="2" height="3"/>
<rect x="136.5" y="244.8" class="st0" width="2" height="3"/>
<rect x="136.5" y="235.8" class="st0" width="2" height="3"/>
<rect x="136.5" y="226.8" class="st0" width="2" height="3"/>
<rect x="136.5" y="289.8" class="st0" width="2" height="3"/>
<rect x="136.5" y="262.8" class="st0" width="2" height="3"/>
<rect x="136.5" y="280.8" class="st0" width="2" height="3"/>
<rect x="136.5" y="271.8" class="st0" width="2" height="3"/>
<rect x="136.5" y="334.8" class="st0" width="2" height="3"/>
<rect x="136.5" y="253.8" class="st0" width="2" height="3"/>
<rect x="136.5" y="352.8" class="st0" width="2" height="3"/>
<rect x="136.5" y="343.8" class="st0" width="2" height="3"/>
<rect x="136.5" y="325.8" class="st0" width="2" height="3"/>
<rect x="136.5" y="316.8" class="st0" width="2" height="3"/>
<rect x="131.6" y="339.6" class="st0" width="3" height="2"/>
<rect x="185.6" y="339.6" class="st0" width="3" height="2"/>
<rect x="194.6" y="339.6" class="st0" width="3" height="2"/>
<rect x="176.6" y="339.6" class="st0" width="3" height="2"/>
<rect x="113.6" y="339.6" class="st0" width="3" height="2"/>
<rect x="140.6" y="339.6" class="st0" width="3" height="2"/>
<rect x="167.6" y="339.6" class="st0" width="3" height="2"/>
<rect x="122.6" y="339.6" class="st0" width="3" height="2"/>
<rect x="158.6" y="339.6" class="st0" width="3" height="2"/>
<rect x="149.6" y="339.6" class="st0" width="3" height="2"/>
</svg>
