<?xml version="1.0" encoding="utf-8"?>
<!-- Generator: Adobe Illustrator 24.3.0, SVG Export Plug-In . SVG Version: 6.00 Build 0)  -->
<svg version="1.1" id="Laag_1" xmlns="http://www.w3.org/2000/svg" xmlns:xlink="http://www.w3.org/1999/xlink" x="0px" y="0px"
	 viewBox="0 0 566.9 566.9" style="enable-background:new 0 0 566.9 566.9;" xml:space="preserve">
<style type="text/css">
	.st0{fill:#FF5429;}
	.st1{fill:#6B6B7F;}
</style>
<rect x="155.4" y="246.3" class="st0" width="159.7" height="3"/>
<rect x="155.4" y="278.9" class="st0" width="159.7" height="3"/>
<rect x="155.4" y="311.5" class="st0" width="159.7" height="3"/>
<rect x="155.4" y="344.1" class="st0" width="159.7" height="3"/>
<path class="st1" d="M432,393.7V209h-15.7v-15c4.3-0.8,7.2-5,6.3-9.3c-0.7-3.7-3.9-6.4-7.7-6.5h-29.3c-4.4,0-7.9,3.6-7.9,8
	c0,4,3,7.3,6.9,7.8V209h-12.9v-12.9H346v15h-11.5v18.1H346v17h-27.9v-14.7c0-7.1-5.8-12.8-12.8-12.8H135.6
	c-7.1,0-12.8,5.8-12.8,12.8v130.3c0,7.1,5.8,12.8,12.8,12.8h169.7c7.1,0,12.8-5.8,12.8-12.8v-14.7H346v17h-11.5v18.1H346V398h25.7
	v-4.3h12.9v14.9c-4.3,0.8-7.2,5-6.3,9.4c0.7,3.6,3.7,6.2,7.3,6.5H415c4.4-0.2,7.8-4,7.6-8.4c-0.2-3.6-2.7-6.6-6.3-7.4v-15L432,393.7
	z M125.7,361.8V231.6c0-5.4,4.4-9.8,9.8-9.8h16.9v150h-16.9C130.1,371.7,125.7,367.3,125.7,361.8
	C125.7,361.8,125.7,361.8,125.7,361.8z M315.1,361.8c0,5.4-4.4,9.8-9.8,9.8H155.4v-150h149.8c5.4,0,9.8,4.4,9.8,9.8V361.8z
	 M346,344.1h-27.9v-94.8H346V344.1z M380.7,186.2c0-2.7,2.3-5,5-4.9H415c2.7-0.4,5.3,1.5,5.6,4.3s-1.5,5.3-4.3,5.6
	c-0.4,0.1-0.9,0.1-1.3,0h-29.3C382.9,191.1,380.7,188.9,380.7,186.2z M387.6,194.2h25.7V209h-25.7V194.2z M337.5,226.3v-12.2h8.5
	v12.1L337.5,226.3z M337.5,379.3v-12.2h8.5v12.1L337.5,379.3z M368.7,395H349V199.1h19.7L368.7,395L368.7,395z M371.7,390.7V212H429
	v178.7L371.7,390.7L371.7,390.7z M420,416.5c0,2.8-2.2,5-5,5h-29.3c-2.7,0.4-5.3-1.5-5.6-4.3s1.5-5.3,4.3-5.6c0.4-0.1,0.9-0.1,1.3,0
	H415C417.7,411.6,420,413.8,420,416.5z M413.4,408.5h-25.7v-14.8h25.7V408.5z"/>
<path class="st1" d="M371.1,187.2h-3v-2h3V187.2z M362.1,187.2h-3v-2h3V187.2z M353.1,187.2h-3v-2h3V187.2z M344.1,187.2h-3v-2h3
	V187.2z M335.1,187.2h-3v-2h3V187.2z M326.1,187.2h-3v-2h3V187.2z M317.1,187.2h-3v-2h3V187.2z M308.1,187.2h-3v-2h3V187.2z
	 M299.1,187.2h-3v-2h3V187.2z M290.1,187.2h-3v-2h3V187.2z M281.1,187.2h-3v-2h3V187.2z M272.1,187.2h-3v-2h3V187.2z M263.1,187.2
	h-3v-2h3V187.2z M254.1,187.2h-3v-2h3V187.2z M245.1,187.2h-3v-2h3V187.2z M236.1,187.2h-3v-2h3V187.2z"/>
<path class="st1" d="M166.1,416.7h-2v-3h2V416.7z M166.1,407.7h-2v-3h2V407.7z M166.1,398.7h-2v-3h2V398.7z M166.1,389.7h-2v-3h2
	V389.7z M166.1,380.7h-2v-3h2V380.7z"/>
<path class="st1" d="M168.1,215.3h-2v-3h2V215.3z M168.1,206.3h-2v-3h2V206.3z M168.1,197.3h-2v-3h2V197.3z M168.1,188.3h-2v-3h2
	V188.3z M168.1,179.3h-2v-3h2V179.3z M168.1,170.3h-2v-3h2V170.3z M168.1,161.3h-2v-3h2V161.3z"/>
<path class="st1" d="M242.8,402.7h-3v-2h3V402.7z M233.8,402.7h-3v-2h3V402.7z M224.8,402.7h-3v-2h3V402.7z M215.8,402.7h-3v-2h3
	V402.7z M206.8,402.7h-3v-2h3V402.7z M197.8,402.7h-3v-2h3V402.7z M188.8,402.7h-3v-2h3V402.7z M179.8,402.7h-3v-2h3V402.7z
	 M170.8,402.7h-3v-2h3V402.7z M161.8,402.7h-3v-2h3V402.7z M152.8,402.7h-3v-2h3V402.7z M143.8,402.7h-3v-2h3V402.7z M134.8,402.7
	h-3v-2h3V402.7z M125.8,402.7h-3v-2h3V402.7z M116.8,402.7h-3v-2h3V402.7z M107.8,402.7h-3v-2h3V402.7z M98.8,402.7h-3v-2h3V402.7z
	 M89.8,402.7h-3v-2h3V402.7z M80.8,402.7h-3v-2h3V402.7z"/>
</svg>
