<?xml version="1.0" encoding="utf-8"?>
<!-- Generator: Adobe Illustrator 24.3.0, SVG Export Plug-In . SVG Version: 6.00 Build 0)  -->
<svg version="1.1" id="Laag_1" xmlns="http://www.w3.org/2000/svg" xmlns:xlink="http://www.w3.org/1999/xlink" x="0px" y="0px"
	 viewBox="0 0 566.9 566.9" style="enable-background:new 0 0 566.9 566.9;" xml:space="preserve">
<style type="text/css">
	.st0{fill:#6B6B7F;}
	.st1{fill:none;}
	.st2{fill:#FF5429;}
</style>
<path class="st0" d="M115.7,396.5v2h3v-2H115.7z M124.7,396.5v2h3v-2H124.7z M133.7,396.5v2h3v-2H133.7z M142.7,396.5v2h3v-2H142.7z
	 M151.7,396.5v2h3v-2H151.7z M160.7,396.5v2h3v-2H160.7z M169.7,396.5v2h3v-2H169.7z M178.7,396.5v2h3v-2H178.7z M187.7,396.5v2h3
	v-2H187.7z M196.7,396.5v2h3v-2H196.7z M205.7,396.5v2h3v-2H205.7z M214.7,396.5v2h3v-2H214.7z M223.7,396.5v2h3v-2H223.7z
	 M232.7,396.5v2h3v-2H232.7z M241.7,396.5v2h3v-2H241.7z M250.7,396.5v2h3v-2H250.7z M259.7,396.5v2h3v-2H259.7z M268.7,396.5v2h3
	v-2H268.7z M277.7,396.5v2h3v-2H277.7z M286.7,396.5v2h3v-2H286.7z M295.7,396.5v2h3v-2H295.7z M304.7,396.5v2h3v-2H304.7z
	 M313.7,396.5v2h3v-2H313.7z M322.7,396.5v2h3v-2H322.7z M331.8,396.5h-0.2v2h0.5C332,397.8,331.9,397.2,331.8,396.5z M376.7,396.5
	v2h3v-2H376.7z M385.7,396.5v2h3v-2H385.7z M394.7,396.5v2h2.2v-2H394.7z"/>
<path class="st1" d="M466.7,328.6c0,8.6-7,15.6-15.6,15.6c-4.7,0-9.1-2.1-12.1-5.8c-0.6-0.8-1.2-1.6-1.6-2.5
	c-1.2-2.2-1.8-4.7-1.8-7.3c0-0.7,0-1.4,0.1-2.1c0.1-1,0.4-2,0.7-2.9c1.8-5.3,6.3-9.3,11.8-10.3c1-0.2,2-0.3,3-0.3
	C459.8,313,466.7,320,466.7,328.6z"/>
<path class="st1" d="M348.9,301c0,0.7,0,1.4-0.1,2.1c-0.1,1-0.4,2-0.7,2.9c-1.7,4.9-5.6,8.6-10.5,10c-1,0.3-2,0.5-3,0.5
	c-0.4,0-0.9,0.1-1.3,0.1c-8,0-14.8-6.1-15.5-14.1c-0.1-1-0.1-2,0-3c0.8-7.5,6.7-13.4,14.2-14c0.4,0,0.9-0.1,1.3-0.1
	c4.5,0,8.8,1.9,11.7,5.2c0.7,0.8,1.3,1.6,1.8,2.4C348.2,295.5,348.9,298.2,348.9,301z"/>
<path class="st1" d="M366,394.8c0,8.6-7,15.6-15.6,15.6c-8.6,0-15.6-7-15.6-15.6c0-0.9,0.1-1.7,0.2-2.5c0.2-1,0.4-2,0.8-2.9
	c0.5-1.4,1.2-2.7,2.1-3.9c0.6-0.8,1.3-1.6,2-2.2c1.8-1.6,3.9-2.8,6.2-3.4c1-0.3,2-0.5,3-0.5c0.4,0,0.9-0.1,1.3-0.1
	c1.7,0,3.5,0.3,5.1,0.9c1,0.3,1.9,0.7,2.7,1.3c1.7,1,3.1,2.2,4.3,3.7c0.6,0.8,1.2,1.6,1.6,2.5C365.4,389.7,366,392.2,366,394.8z"/>
<path class="st1" d="M439.1,235.5c0,6.4-3.9,12.1-9.8,14.5c-0.9,0.4-1.9,0.7-2.9,0.9c-1,0.2-2,0.3-3,0.3c-1.7,0-3.5-0.3-5.1-0.9
	c-1-0.3-1.9-0.7-2.7-1.2c-1.4-0.8-2.7-1.9-3.8-3.2c-0.7-0.8-1.3-1.6-1.8-2.4c-1.4-2.4-2.2-5.1-2.1-7.9c0-2.9,0.8-5.7,2.3-8.1
	c0.5-0.9,1.1-1.7,1.8-2.4c5.8-6.4,15.7-6.8,22-1C437.3,227,439.1,231.2,439.1,235.5z"/>
<path class="st1" d="M350.4,168.7c0,2.9-0.8,5.7-2.3,8.1c-0.5,0.9-1.1,1.7-1.8,2.4c-2.6,2.9-6.3,4.7-10.2,5c-0.4,0-0.9,0.1-1.3,0.1
	c-2.5,0-5.1-0.6-7.3-1.8c-0.9-0.5-1.7-1-2.5-1.6c-3.7-2.9-5.8-7.4-5.8-12.1v-0.1c0-8.6,7-15.6,15.6-15.6
	C343.4,153.1,350.4,160.1,350.4,168.7L350.4,168.7z"/>
<path class="st2" d="M349.1,291.3c-0.5-0.9-1.1-1.7-1.8-2.4c-3.1-3.7-7.6-6-12.4-6.4c-0.6,0-1.1-0.1-1.7-0.1s-0.9,0-1.3,0
	c-9.2,0.6-16.5,7.9-17.3,17.1c0,0.5-0.1,1-0.1,1.5s0,1,0.1,1.5c0.8,9.7,8.8,17.1,18.5,17.1c0.6,0,1.2,0,1.9-0.1c1-0.1,2-0.3,3-0.5
	c7.2-1.9,12.5-7.9,13.6-15.2c0.1-0.9,0.2-1.8,0.2-2.8C351.9,297.5,350.9,294.2,349.1,291.3z M348.7,303c-0.1,1-0.4,2-0.7,2.9
	c-1.7,4.9-5.6,8.6-10.5,10c-1,0.3-2,0.5-3,0.5c-0.4,0-0.9,0.1-1.3,0.1c-8,0-14.8-6.1-15.5-14.1c-0.1-1-0.1-2,0-3
	c0.8-7.5,6.7-13.4,14.2-14c0.4,0,0.9-0.1,1.3-0.1c4.5,0,8.8,1.9,11.7,5.3c0.7,0.8,1.3,1.6,1.8,2.4c1.4,2.4,2.2,5.1,2.1,7.9
	C348.9,301.6,348.8,302.3,348.7,303z"/>
<path class="st1" d="M263.2,301c0,0.5,0,1-0.1,1.5c-0.3,2.9-1.3,5.6-3.1,7.9c-0.6,0.8-1.3,1.6-2,2.2c-6.4,5.8-16.3,5.3-22-1.1
	c-1.4-1.6-2.5-3.5-3.2-5.5c-0.5-1.6-0.8-3.3-0.8-5c0-2.2,0.5-4.4,1.4-6.4c0.4-0.9,0.9-1.8,1.5-2.6c2.5-3.6,6.4-6,10.8-6.5
	c0.7-0.1,1.3-0.1,2-0.1c2.5,0,5.1,0.6,7.3,1.8c0.9,0.5,1.7,1,2.5,1.7c3.3,2.6,5.3,6.5,5.7,10.6C263.1,300,263.2,300.5,263.2,301z"/>
<path class="st1" d="M131.3,332.3c0,0.9-0.1,1.7-0.2,2.5c-1.4,8.5-9.4,14.3-18,12.9s-14.3-9.4-12.9-18c1.2-7.5,7.8-13.1,15.4-13.1
	c0.4,0,0.8,0,1.1,0l0,0c1,0.1,2,0.2,3,0.5l0,0c1.2,0.3,2.4,0.8,3.5,1.4c0.9,0.5,1.7,1.1,2.5,1.7c2.2,1.8,3.8,4.2,4.8,6.9
	c0.3,0.9,0.6,1.9,0.7,2.9C131.3,330.8,131.3,331.6,131.3,332.3z"/>
<path class="st1" d="M147.8,235.5c0,2.2-0.5,4.4-1.4,6.4c-0.4,0.9-0.9,1.8-1.5,2.6c-2.9,4.2-7.7,6.6-12.8,6.6c-0.4,0-0.8,0-1.1-0.1
	c-1-0.1-2-0.2-3-0.5c-8.3-2.3-13.2-10.9-10.9-19.2c2.3-8.3,10.9-13.2,19.2-10.9c3.3,0.9,6.2,2.8,8.2,5.5c0.6,0.8,1.2,1.6,1.6,2.5
	C147.2,230.7,147.8,233.1,147.8,235.5z"/>
<path class="st0" d="M451.1,310c-1.3,0-2.6,0.1-3.8,0.4l-17.1-57.5c9.6-3.7,14.3-14.5,10.6-24.1s-14.5-14.3-24.1-10.6
	c-2.8,1.1-5.2,2.8-7.2,5l-59.1-44.5c1.9-3,2.9-6.5,2.9-10c0-10.3-8.3-18.6-18.6-18.6c-10.3,0-18.6,8.3-18.6,18.6c0,0.1,0,0.2,0,0.4
	l-78,7.9c-1.9-10.1-11.6-16.8-21.7-14.9c-8.8,1.6-15.2,9.3-15.2,18.3c0,3,0.7,5.9,2.1,8.6l-56.3,35.5c-6.2-8.2-17.8-9.9-26-3.7
	c-8.2,6.2-9.9,17.8-3.7,26c2.5,3.4,6.2,5.8,10.3,6.9l-10.3,60.2c-0.5-0.1-1.1-0.1-1.6-0.1c-10.3,0-18.6,8.3-18.6,18.6
	s8.3,18.6,18.6,18.6c7.9,0,14.9-5,17.5-12.4l198.8,52.9c-0.2,1.1-0.3,2.2-0.3,3.3c0,0.6,0,1.1,0.1,1.7c0.1,0.7,0.2,1.3,0.3,2
	c2.1,10.1,11.9,16.6,22,14.5c7.3-1.5,13-7.2,14.5-14.5h2.1v-2h-1.8c0-0.6,0.1-1.1,0.1-1.7c0-3.1-0.8-6.2-2.3-8.9l69.8-45.8
	c6.3,8.1,18,9.6,26.1,3.3s9.6-18,3.3-26.1C462.3,312.6,456.9,310,451.1,310L451.1,310z M444.4,311.3c-5.2,2-9.3,6.3-11,11.7
	l-43.7-10.2l27.4-59.7c2,0.7,4.2,1.1,6.4,1.1c1.3,0,2.6-0.1,3.9-0.4L444.4,311.3z M385.5,314.8l-28.7,62.5c-2-0.7-4.2-1.1-6.4-1.1
	c-0.6,0-1.2,0-1.9,0.1L338.1,319c-1,0.3-2,0.5-3,0.5l10.5,57.3c-2.9,0.8-5.6,2.3-7.9,4.4l-75.4-68.8c2.2-2.9,3.5-6.3,3.8-9.9h48.6
	c0-0.5-0.1-1-0.1-1.5s0-1,0.1-1.5h-48.6c-0.4-5.2-3-10-7.1-13.2l52.5-79.6l21.3,5.8l-0.8,69.9c0.4,0,0.9,0,1.3,0s1.1,0,1.7,0.1
	l0.8-69.1l69.4,18.8c-0.2,1.1-0.3,2.3-0.3,3.4c0,3.4,0.9,6.8,2.7,9.7l-60.2,43.7c0.7,0.8,1.3,1.6,1.8,2.4l60.2-43.7
	c1.4,1.7,3.1,3.1,5,4.1L386.8,312l-35.1-8.2c-0.1,1-0.4,2-0.7,2.9L385.5,314.8z M242,283.2c-4,1.3-7.4,3.8-9.8,7.3l-62-35.1
	l40.4-58.9c2.8,1.6,6,2.5,9.2,2.5c0.9,0,1.8-0.1,2.7-0.2L242,283.2z M225.6,198.1c5.5-1.8,9.9-6,11.9-11.4l71.1,19.3l-52,78.8
	c-3.5-2-7.6-2.7-11.6-2.1L225.6,198.1z M233.4,294.6c0.4-0.9,0.9-1.8,1.4-2.6c2.5-3.6,6.4-6,10.8-6.5c0.7-0.1,1.3-0.1,2-0.1
	c2.5,0,5.1,0.6,7.3,1.8c0.9,0.5,1.7,1,2.5,1.7c3.3,2.6,5.3,6.5,5.7,10.6c0,0.5,0.1,1,0.1,1.5c0,0.5,0,1-0.1,1.5
	c-0.3,2.9-1.3,5.6-3.1,7.9c-0.6,0.8-1.3,1.6-2,2.2c-6.4,5.8-16.3,5.3-22-1.1c-1.4-1.6-2.5-3.4-3.2-5.4c-0.5-1.6-0.8-3.3-0.8-5
	C232,298.8,232.4,296.6,233.4,294.6L233.4,294.6z M313.3,204.1l12.6-19.1c2.2,1.2,4.7,2,7.2,2.2l-0.3,22.1L313.3,204.1z
	 M408.1,232.9c0.3-2,1-3.8,2.1-5.5c0.5-0.9,1.1-1.7,1.8-2.4c5.8-6.4,15.7-6.8,22-1s6.8,15.7,1,22c-1.6,1.7-3.5,3-5.6,3.9
	c-0.9,0.4-1.9,0.7-2.9,0.9c-1,0.2-2,0.3-3,0.3c-1.7,0-3.5-0.3-5.1-0.9c-1-0.3-1.9-0.7-2.7-1.2c-1.4-0.8-2.7-1.9-3.8-3.2
	c-0.7-0.8-1.3-1.6-1.8-2.4c-1.4-2.4-2.2-5.1-2.1-7.9C407.9,234.7,408,233.8,408.1,232.9L408.1,232.9z M407.8,225.6
	c-0.7,1.1-1.3,2.4-1.8,3.6l-70.2-19l0.3-22.9c4.9-0.3,9.4-2.6,12.6-6.2L407.8,225.6z M319.2,168.7c0-8.6,7-15.6,15.6-15.6
	c8.6,0,15.6,7,15.6,15.6c0,2.9-0.8,5.7-2.3,8.2c-0.5,0.9-1.1,1.7-1.8,2.4c-2.6,2.9-6.3,4.7-10.2,5c-0.4,0-0.9,0.1-1.3,0.1
	c-2.5,0-5.1-0.6-7.3-1.8c-0.9-0.5-1.7-1-2.5-1.6C321.4,177.9,319.2,173.5,319.2,168.7L319.2,168.7z M316.5,172.1
	c0.8,4.5,3.3,8.5,6.8,11.3l-13.1,19.9l-72-19.5c0.2-1.1,0.3-2.3,0.3-3.4c0-0.1,0-0.2,0-0.4L316.5,172.1z M219.9,164.8
	c7.4,0,13.8,5.3,15.3,12.6c0.2,1,0.3,2,0.3,3v0.1c0,0.9-0.1,1.7-0.2,2.6c-0.2,1-0.4,2-0.8,2.9c-1.7,4.4-5.2,7.8-9.7,9.3
	c-0.9,0.3-1.9,0.5-2.9,0.7c-0.7,0.1-1.3,0.1-2,0.1c-2.6,0-5.2-0.7-7.6-2c-0.9-0.5-1.7-1.1-2.5-1.7c-6.6-5.5-7.5-15.4-1.9-22
	C210.9,166.8,215.3,164.7,219.9,164.8L219.9,164.8z M205,191.5c0.9,1.2,2,2.3,3.2,3.3l-40.6,59.1l-18.6-10.5
	c2.4-5.2,2.3-11.3-0.4-16.5L205,191.5z M116.6,235.5c0-8.6,7-15.6,15.6-15.6c4.8,0,9.4,2.3,12.4,6.1c0.6,0.8,1.2,1.6,1.6,2.5
	c2.1,4.2,2.2,9.1,0.3,13.4c-0.4,0.9-0.9,1.8-1.5,2.6c-2.9,4.2-7.7,6.6-12.8,6.6c-0.4,0-0.8,0-1.1-0.1c-1-0.1-2-0.2-3-0.5
	C121.3,248.7,116.6,242.6,116.6,235.5L116.6,235.5z M130.6,254c0.5,0.1,1.1,0.1,1.6,0.1c6.1,0,11.9-3,15.4-8.1l18.4,10.4l-41,59.8
	c-1.5-0.8-3-1.5-4.7-1.9L130.6,254z M131.1,334.8c-1.4,8.5-9.4,14.3-18,12.9s-14.3-9.4-12.9-18c1.2-7.5,7.8-13.1,15.4-13.1
	c0.4,0,0.8,0,1.1,0l0,0c1,0.1,2,0.2,3,0.5l0,0c1.2,0.3,2.4,0.8,3.5,1.4c0.9,0.5,1.7,1.1,2.5,1.7c2.2,1.8,3.8,4.2,4.8,6.9
	c0.3,0.9,0.6,1.9,0.7,2.9c0.1,0.7,0.2,1.4,0.1,2.1C131.3,333.1,131.2,334,131.1,334.8L131.1,334.8z M127.4,317.8l41.2-60l62.1,35.3
	c-1.2,2.5-1.7,5.2-1.7,7.9c0,0.9,0.1,1.9,0.2,2.8l-95.8,22.7C132.3,323.1,130.2,320.1,127.4,317.8L127.4,317.8z M134,335.6
	c0.4-2,0.4-4.1,0.1-6.1l95.8-22.7c3.2,9.8,13.7,15.1,23.4,12c2.6-0.8,5-2.2,6.9-4.1l75.4,68.8c-1.2,1.6-2.2,3.3-2.8,5.1L134,335.6z
	 M350.4,410.4c-8.6,0-15.6-7-15.6-15.6c0-0.9,0.1-1.7,0.2-2.5c0.2-1,0.4-2,0.8-2.9c0.5-1.4,1.2-2.7,2.1-3.9c0.6-0.8,1.3-1.6,2-2.2
	c1.8-1.6,3.9-2.8,6.2-3.4c1-0.3,2-0.5,3-0.5c0.4,0,0.9-0.1,1.3-0.1c1.7,0,3.5,0.3,5.1,0.9c1,0.3,1.9,0.7,2.7,1.3
	c1.7,1,3.1,2.2,4.3,3.7c0.6,0.8,1.2,1.6,1.6,2.5c1.2,2.2,1.8,4.7,1.8,7.3C366,403.4,359,410.4,350.4,410.4L350.4,410.4z M365,383.3
	c-1.5-1.9-3.4-3.6-5.6-4.8l29-63.1l44.2,10.4c-0.1,0.9-0.2,1.8-0.2,2.8c0,3.1,0.8,6.2,2.3,8.9L365,383.3z M451.1,344.2
	c-4.7,0-9.1-2.2-12.1-5.8c-0.6-0.8-1.2-1.6-1.6-2.5c-1.2-2.2-1.8-4.7-1.8-7.3c0-0.7,0-1.4,0.1-2.1c0.1-1,0.4-2,0.7-2.9
	c1.8-5.3,6.3-9.3,11.8-10.3c1-0.2,2-0.3,3-0.3c8.6,0,15.6,7,15.6,15.6c0,8.6-7,15.6-15.6,15.6L451.1,344.2z"/>
<path class="st1" d="M235.5,180.3L235.5,180.3c0,0.9-0.1,1.8-0.2,2.7c-0.2,1-0.4,2-0.8,2.9c-1.7,4.4-5.2,7.8-9.7,9.3
	c-0.9,0.3-1.9,0.5-2.9,0.7c-0.7,0.1-1.3,0.1-2,0.1c-2.6,0-5.2-0.7-7.6-2c-0.9-0.5-1.7-1.1-2.5-1.7c-6.6-5.5-7.5-15.4-1.9-22
	s15.4-7.5,22-1.9C233.5,171.3,235.5,175.7,235.5,180.3L235.5,180.3z"/>
<path class="st0" d="M458.7,128.9h-3v-2h3V128.9z M449.7,128.9h-3v-2h3V128.9z M440.7,128.9h-3v-2h3V128.9z M431.7,128.9h-3v-2h3
	V128.9z M422.7,128.9h-3v-2h3V128.9z M413.7,128.9h-3v-2h3V128.9z M404.7,128.9h-3v-2h3V128.9z M395.7,128.9h-3v-2h3V128.9z
	 M386.7,128.9h-3v-2h3V128.9z M377.7,128.9h-3v-2h3V128.9z M368.7,128.9h-3v-2h3V128.9z M359.7,128.9h-3v-2h3V128.9z M350.7,128.9
	h-3v-2h3V128.9z M341.7,128.9h-3v-2h3V128.9z M332.7,128.9h-3v-2h3V128.9z M323.7,128.9h-3v-2h3V128.9z M314.7,128.9h-3v-2h3V128.9z
	 M305.7,128.9h-3v-2h3V128.9z M296.7,128.9h-3v-2h3V128.9z M287.7,128.9h-3v-2h3V128.9z M278.7,128.9h-3v-2h3V128.9z M269.7,128.9
	h-3v-2h3V128.9z"/>
<path class="st0" d="M407.4,214.8h-2v-3h2V214.8z M407.4,205.8h-2v-3h2V205.8z M407.4,196.8h-2v-3h2V196.8z M407.4,187.8h-2v-3h2
	V187.8z M407.4,178.8h-2v-3h2V178.8z M407.4,169.8h-2v-3h2V169.8z M407.4,160.8h-2v-3h2V160.8z M407.4,151.8h-2v-3h2V151.8z
	 M407.4,142.8h-2v-3h2V142.8z M407.4,133.8h-2v-3h2V133.8z M407.4,124.8h-2v-3h2V124.8z M407.4,115.8h-2v-3h2V115.8z M407.4,106.8
	h-2v-3h2V106.8z"/>
</svg>
