<svg xmlns="http://www.w3.org/2000/svg" viewBox="0 0 960 340" fill="none">
  <defs>
    <style>
      .label { font-family: 'IBM Plex Sans', -apple-system, BlinkMacSystemFont, sans-serif; font-size: 13px; font-weight: 600; fill: #FFFFFF; }
      .sublabel { font-family: 'IBM Plex Sans', -apple-system, BlinkMacSystemFont, sans-serif; font-size: 11px; font-weight: 400; fill: #B0B0C8; }
      .step-num { font-family: 'JetBrains Mono', monospace; font-size: 11px; font-weight: 700; fill: #FF5429; }
    </style>
  </defs>

  <!-- ==================== STEP 1: SIGNAL CAPTURE (icon-17) ==================== -->
  <rect x="16" y="16" width="196" height="200" rx="8" fill="#2A2A42" stroke="#3D3D5C" stroke-width="1.5"/>
  <g transform="translate(38, 24) scale(0.27)">
    <!-- icon-17: MCC / electrical cabinet -->
    <rect x="155.4" y="246.3" fill="#FF5429" width="159.7" height="3"/>
    <rect x="155.4" y="278.9" fill="#FF5429" width="159.7" height="3"/>
    <rect x="155.4" y="311.5" fill="#FF5429" width="159.7" height="3"/>
    <rect x="155.4" y="344.1" fill="#FF5429" width="159.7" height="3"/>
    <path fill="#B0B0C8" d="M432,393.7V209h-15.7v-15c4.3-0.8,7.2-5,6.3-9.3c-0.7-3.7-3.9-6.4-7.7-6.5h-29.3c-4.4,0-7.9,3.6-7.9,8 c0,4,3,7.3,6.9,7.8V209h-12.9v-12.9H346v15h-11.5v18.1H346v17h-27.9v-14.7c0-7.1-5.8-12.8-12.8-12.8H135.6 c-7.1,0-12.8,5.8-12.8,12.8v130.3c0,7.1,5.8,12.8,12.8,12.8h169.7c7.1,0,12.8-5.8,12.8-12.8v-14.7H346v17h-11.5v18.1H346V398h25.7 v-4.3h12.9v14.9c-4.3,0.8-7.2,5-6.3,9.4c0.7,3.6,3.7,6.2,7.3,6.5H415c4.4-0.2,7.8-4,7.6-8.4c-0.2-3.6-2.7-6.6-6.3-7.4v-15L432,393.7 z M125.7,361.8V231.6c0-5.4,4.4-9.8,9.8-9.8h16.9v150h-16.9C130.1,371.7,125.7,367.3,125.7,361.8 C125.7,361.8,125.7,361.8,125.7,361.8z M315.1,361.8c0,5.4-4.4,9.8-9.8,9.8H155.4v-150h149.8c5.4,0,9.8,4.4,9.8,9.8V361.8z M346,344.1h-27.9v-94.8H346V344.1z M380.7,186.2c0-2.7,2.3-5,5-4.9H415c2.7-0.4,5.3,1.5,5.6,4.3s-1.5,5.3-4.3,5.6 c-0.4,0.1-0.9,0.1-1.3,0h-29.3C382.9,191.1,380.7,188.9,380.7,186.2z M387.6,194.2h25.7V209h-25.7V194.2z M337.5,226.3v-12.2h8.5 v12.1L337.5,226.3z M337.5,379.3v-12.2h8.5v12.1L337.5,379.3z M368.7,395H349V199.1h19.7L368.7,395L368.7,395z M371.7,390.7V212H429 v178.7L371.7,390.7L371.7,390.7z M420,416.5c0,2.8-2.2,5-5,5h-29.3c-2.7,0.4-5.3-1.5-5.6-4.3s1.5-5.3,4.3-5.6c0.4-0.1,0.9-0.1,1.3,0 H415C417.7,411.6,420,413.8,420,416.5z M413.4,408.5h-25.7v-14.8h25.7V408.5z"/>
  </g>
  <!-- Step 1 labels -->
  <text x="114" y="238" text-anchor="middle" class="step-num">01</text>
  <text x="114" y="254" text-anchor="middle" class="label">Signal Capture</text>
  <text x="114" y="270" text-anchor="middle" class="sublabel">Current clamps at the MCC</text>
  <text x="114" y="284" text-anchor="middle" class="sublabel">No sensors on the machine</text>

  <!-- ==================== ARROW 1 ==================== -->
  <line x1="220" y1="116" x2="256" y2="116" stroke="#FF5429" stroke-width="1.5" opacity="0.5"/>
  <polygon points="254,111 264,116 254,121" fill="#FF5429" opacity="0.5"/>

  <!-- ==================== STEP 2: PATTERN ANALYSIS (icon-12) ==================== -->
  <rect x="268" y="16" width="196" height="200" rx="8" fill="#2A2A42" stroke="#3D3D5C" stroke-width="1.5"/>
  <g transform="translate(290, 24) scale(0.27)">
    <!-- icon-12: waveform chart -->
    <path fill="#B0B0C8" d="M202.5,325.5c-23.2,0-30.9-13.4-38.2-26.3c-7.6-13.3-14.8-25.9-38.3-25.9v-3c25.3,0,33.2,13.9,40.9,27.4 c7.2,12.7,14.1,24.8,35.6,24.8V325.5z"/>
    <path fill="#B0B0C8" d="M202.5,325.5v-3c23.5,0,30.7-12.6,38.3-25.9c7.4-12.9,15-26.3,38.2-26.3v3c-21.5,0-28.4,12-35.6,24.8 C235.7,311.5,227.8,325.5,202.5,325.5z"/>
    <path fill="#B0B0C8" d="M355.5,325.5c-23.2,0-30.9-13.4-38.2-26.3c-7.6-13.3-14.8-25.9-38.3-25.9v-3c25.3,0,33.2,13.9,40.9,27.4 c7.2,12.7,14.1,24.8,35.6,24.8L355.5,325.5z"/>
    <path fill="#B0B0C8" d="M355.5,325.5v-3c23.5,0,30.7-12.6,38.3-25.9c7.4-12.9,15-26.3,38.2-26.3v3c-21.5,0-28.4,12-35.6,24.8 C388.8,311.5,380.8,325.5,355.5,325.5z"/>
    <path fill="#B0B0C8" d="M457.3,281.4c-6.5-5.5-14.5-8.1-25.2-8.1v-3c11.4,0,20.2,2.9,27.2,8.8L457.3,281.4z"/>
    <polygon fill="#B0B0C8" points="387.1,386.4 339.1,386.4 313.1,210.2 270.3,210.2 244.2,386.4 196.2,386.4 170.1,210.2 126,210.2 126,207.2 172.7,207.2 198.8,383.4 241.6,383.4 267.7,207.2 315.7,207.2 341.7,383.4 384.5,383.4 410.6,207.2 457.3,207.2 457.3,210.2 413.2,210.2"/>
    <path fill="#FF5429" d="M126,325.5v-3c23.5,0,30.7-12.6,38.3-25.9c7.4-12.9,15-26.3,38.2-26.3v3c-21.5,0-28.4,12-35.6,24.8 C159.2,311.5,151.3,325.5,126,325.5z"/>
    <path fill="#FF5429" d="M279,325.5c-23.2,0-30.9-13.4-38.2-26.3c-7.6-13.3-14.8-25.9-38.3-25.9v-3c25.3,0,33.2,13.9,40.9,27.4 c7.2,12.7,14.1,24.8,35.6,24.8V325.5z"/>
    <path fill="#FF5429" d="M279,325.5v-3c23.5,0,30.7-12.6,38.3-25.9c7.4-12.9,15-26.3,38.2-26.3v3c-21.5,0-28.4,12-35.6,24.8 C312.2,311.5,304.3,325.5,279,325.5z"/>
    <path fill="#FF5429" d="M432,325.5c-23.2,0-30.9-13.4-38.2-26.3c-7.6-13.3-14.8-25.9-38.3-25.9v-3c25.3,0,33.2,13.9,40.9,27.4 c7.3,12.7,14.1,24.8,35.6,24.8V325.5z"/>
    <path fill="#FF5429" d="M432,325.5v-3c10.8,0,18.8-2.6,25.2-8.1l1.9,2.3C452.3,322.6,443.4,325.5,432,325.5z"/>
    <polygon fill="#B0B0C8" points="457.8,388.5 124,388.5 124,185.6 127,185.6 127,385.5 457.8,385.5"/>
  </g>
  <!-- Step 2 labels -->
  <text x="366" y="238" text-anchor="middle" class="step-num">02</text>
  <text x="366" y="254" text-anchor="middle" class="label">Pattern Analysis</text>
  <text x="366" y="270" text-anchor="middle" class="sublabel">Spectral decomposition of</text>
  <text x="366" y="284" text-anchor="middle" class="sublabel">current + voltage signatures</text>

  <!-- ==================== ARROW 2 ==================== -->
  <line x1="472" y1="116" x2="508" y2="116" stroke="#FF5429" stroke-width="1.5" opacity="0.5"/>
  <polygon points="506,111 516,116 506,121" fill="#FF5429" opacity="0.5"/>

  <!-- ==================== STEP 3: AI CLASSIFICATION (icon-02) ==================== -->
  <rect x="520" y="16" width="196" height="200" rx="8" fill="#2A2A42" stroke="#3D3D5C" stroke-width="1.5"/>
  <g transform="translate(542, 24) scale(0.27)">
    <!-- icon-02: network of connected nodes -->
    <polygon fill="#B0B0C8" points="440.5,245.2 437.5,245.2 437.5,169.2 361.5,169.2 361.5,166.2 440.5,166.2"/>
    <polygon fill="#B0B0C8" points="136.3,245.2 133.3,245.2 133.3,166.2 212.2,166.2 212.2,169.2 136.3,169.2"/>
    <polygon fill="#B0B0C8" points="440.5,393.8 361.5,393.8 361.5,390.8 437.5,390.8 437.5,314.8 440.5,314.8"/>
    <polygon fill="#B0B0C8" points="212.2,393.8 133.3,393.8 133.3,314.8 136.3,314.8 136.3,390.8 212.2,390.8"/>
    <path fill="#B0B0C8" d="M283.5,245.4c-7,0-12.7-5.7-12.7-12.7s5.7-12.7,12.7-12.7c7,0,12.7,5.7,12.7,12.7 C296.1,239.7,290.4,245.4,283.5,245.4z M283.5,223c-5.3,0-9.7,4.3-9.7,9.7s4.3,9.7,9.7,9.7c5.3,0,9.7-4.3,9.7-9.7 C293.1,227.4,288.8,223,283.5,223C283.5,223,283.5,223,283.5,223L283.5,223z"/>
    <path fill="#B0B0C8" d="M283.5,349.9c-7,0-12.7-5.7-12.7-12.7c0-7,5.7-12.7,12.7-12.7c7,0,12.7,5.7,12.7,12.7c0,0,0,0,0,0 C296.1,344.2,290.4,349.9,283.5,349.9z M283.5,327.5c-5.3,0-9.7,4.3-9.7,9.7c0,5.3,4.3,9.7,9.7,9.7c5.3,0,9.7-4.3,9.7-9.7 c0,0,0,0,0,0C293.1,331.9,288.8,327.5,283.5,327.5z"/>
    <path fill="#B0B0C8" d="M246.5,260.7c-7,0-12.7-5.7-12.6-12.7c0-7,5.7-12.7,12.7-12.6s12.7,5.7,12.6,12.7c0,3.3-1.3,6.6-3.7,8.9 C253.1,259.4,249.9,260.7,246.5,260.7z M246.5,238.3c-5.3,0-9.7,4.3-9.7,9.7s4.3,9.7,9.7,9.7s9.7-4.3,9.7-9.7c0-2.6-1-5-2.8-6.8 C251.5,239.4,249.1,238.3,246.5,238.3z"/>
    <path fill="#FF5429" d="M320.4,260.7c-7,0-12.7-5.6-12.7-12.6c0-3.4,1.3-6.6,3.7-9l0,0c4.9-4.9,13-4.9,17.9,0c4.9,4.9,4.9,13,0,17.9 C327,259.3,323.7,260.7,320.4,260.7z M320.4,238.3c-2.6,0-5,1-6.8,2.8l0,0c-3.8,3.8-3.8,9.9,0,13.7c3.8,3.8,9.9,3.8,13.7,0 s3.8-9.9,0-13.7C325.4,239.4,323,238.3,320.4,238.3z"/>
    <path fill="#B0B0C8" d="M320.4,334.6c-7,0-12.7-5.7-12.6-12.7c0-7,5.7-12.7,12.7-12.6c7,0,12.7,5.7,12.6,12.7c0,3.3-1.3,6.6-3.7,8.9 C327,333.2,323.8,334.6,320.4,334.6z M320.4,312.2c-5.3,0-9.7,4.3-9.6,9.7c0,5.3,4.3,9.7,9.7,9.6c5.3,0,9.7-4.3,9.6-9.7 c0-2.6-1-5-2.8-6.8C325.4,313.2,323,312.2,320.4,312.2L320.4,312.2z"/>
    <path fill="#B0B0C8" d="M231.2,297.6c-7,0-12.7-5.7-12.7-12.7c0-7,5.7-12.7,12.7-12.7s12.7,5.7,12.7,12.7c0,0,0,0,0,0 C243.8,292,238.2,297.6,231.2,297.6z M231.2,275.3c-5.3,0-9.7,4.3-9.7,9.7c0,5.3,4.3,9.7,9.7,9.7s9.7-4.3,9.7-9.7 C240.9,279.6,236.5,275.3,231.2,275.3z"/>
    <path fill="#B0B0C8" d="M335.7,297.6c-7,0-12.7-5.7-12.7-12.7s5.7-12.7,12.7-12.7s12.7,5.7,12.7,12.7c0,0,0,0,0,0 C348.3,292,342.7,297.6,335.7,297.6z M335.7,275.3c-5.3,0-9.7,4.3-9.7,9.7s4.3,9.7,9.7,9.7c5.3,0,9.7-4.3,9.7-9.7 C345.4,279.6,341,275.3,335.7,275.3z"/>
    <path fill="#B0B0C8" d="M246.5,334.6c-7,0-12.7-5.7-12.6-12.7s5.7-12.7,12.7-12.6c7,0,12.7,5.7,12.6,12.7c0,3.3-1.3,6.6-3.7,8.9 C253.1,333.2,249.9,334.6,246.5,334.6z M246.5,312.2c-5.3,0-9.7,4.3-9.7,9.7c0,5.3,4.3,9.7,9.7,9.7c5.3,0,9.7-4.3,9.7-9.7 c0-2.6-1-5-2.8-6.8C251.5,313.3,249.1,312.2,246.5,312.2L246.5,312.2z"/>
    <path fill="#B0B0C8" d="M282.8,366.2c-45.5,0-82.4-36.9-82.4-82.4s36.9-82.4,82.4-82.4s82.4,36.9,82.4,82.4c0,0,0,0,0,0 C365.1,329.3,328.3,366.1,282.8,366.2z M282.8,204.4c-43.8,0-79.4,35.5-79.4,79.4s35.5,79.4,79.4,79.4s79.4-35.5,79.4-79.4 C362.1,240,326.6,204.5,282.8,204.4L282.8,204.4z"/>
  </g>
  <!-- Step 3 labels -->
  <text x="618" y="238" text-anchor="middle" class="step-num">03</text>
  <text x="618" y="254" text-anchor="middle" class="label">AI Classification</text>
  <text x="618" y="270" text-anchor="middle" class="sublabel">Fault type + severity scored</text>
  <text x="618" y="284" text-anchor="middle" class="sublabel">by trained ML models</text>

  <!-- ==================== ARROW 3 ==================== -->
  <line x1="724" y1="116" x2="760" y2="116" stroke="#FF5429" stroke-width="1.5" opacity="0.5"/>
  <polygon points="758,111 768,116 758,121" fill="#FF5429" opacity="0.5"/>

  <!-- ==================== STEP 4: MAINTENANCE ALERT (icon-13) ==================== -->
  <rect x="772" y="16" width="172" height="200" rx="8" fill="#2A2A42" stroke="#FF5429" stroke-width="1.5" opacity="0.7"/>
  <g transform="translate(784, 20) scale(0.27)">
    <!-- icon-13: magnifying glass with detection chart -->
    <path fill="#B0B0C8" d="M376.7,347.1c21-31.4,12.6-73.9-18.8-94.9c-4-2.7-8.2-4.9-12.7-6.7c0.1-1.7,0.1-3.5,0.1-5.4 c0-51.2-36.3-95.2-86.6-105l-1.8-0.3v13.5l1.2,0.2c20.9,4,39.7,15.3,53,31.9c13.5,17,20.8,38.1,20.7,59.8c0,0.5,0,1,0,1.4 c-37.2-6.7-72.7,18.1-79.4,55.2c-2.1,11.8-1.1,23.9,2.9,35.1c-50.7,9.3-99.3-24.2-108.7-74.9c-1-5.6-1.5-11.2-1.5-16.9 c0-45.6,30.2-83.3,73.6-91.7l1.2-0.2l0.1-13.5l-1.8,0.3c-58,10.9-96.3,66.7-85.4,124.7s66.7,96.3,124.7,85.4 c1.3-0.2,2.5-0.5,3.8-0.8c19.6,32.3,61.7,42.6,94,23c0.9-0.5,1.8-1.1,2.7-1.7l70.9,70.9l18.7-18.8L376.7,347.1z M313.5,178.5 c-13.5-16.8-32.4-28.3-53.5-32.7v-7.4c48,10.2,82.3,52.6,82.4,101.6c0,1.5,0,2.9-0.1,4.3l-0.3-0.1c-1.1-0.4-2.2-0.7-3.3-1l-0.6-0.2 c-0.9-0.3-1.9-0.5-2.8-0.7l-0.5-0.1c0-0.7,0-1.3,0-2C334.9,217.8,327.4,196.1,313.5,178.5z M238.5,344 c-57.4,0.1-104-46.3-104.1-103.7c-0.1-49.2,34.4-91.8,82.6-101.9v7.4c-21.1,4.3-40,15.9-53.5,32.7c-13.9,17.5-21.4,39.3-21.3,61.7 c0,53.2,43.2,96.3,96.4,96.3c6,0,12-0.6,17.9-1.7c0.1,0.2,0.1,0.3,0.2,0.5c0.4,0.9,0.8,1.8,1.1,2.6l0.3,0.6c0.5,1,1,2,1.5,3 c0,0.1,0.1,0.2,0.1,0.2C252.8,343.2,245.7,344,238.5,344z M358.3,362l-1,0.7c-29.7,20.7-70.5,13.3-91.1-16.3c-1-1.4-1.9-2.9-2.8-4.4 c-1.8-3-3.3-6.2-4.6-9.5c-13-33.7,3.8-71.6,37.5-84.6c11.7-4.5,24.4-5.6,36.7-3c0.9,0.2,1.7,0.4,2.6,0.6 c11.6,2.9,22.1,8.8,30.5,17.2c22.5,22.4,25.6,57.7,7.4,83.7l-0.7,1l70.5,70.6l-14.5,14.5L358.3,362z"/>
    <path fill="#B0B0C8" d="M341.6,263.2c-25.3-12.1-55.6-1.4-67.6,23.9c-6.2,13-6.6,28.1-1,41.4c1.4,3.4,3.1,6.5,5.2,9.5 c1.7,2.4,3.6,4.7,5.7,6.8c1.2,1.2,2.4,2.3,3.7,3.4c18.7,15.3,45.5,15.3,64.2,0c1.3-1.1,2.5-2.2,3.7-3.4l0,0 c19.8-19.8,19.8-52,0-71.8C351.5,269,346.8,265.7,341.6,263.2z M353.6,342.7L353.6,342.7c-1.1,1.1-2.3,2.2-3.5,3.2 c-17.6,14.4-42.9,14.4-60.4,0c-1.2-1-2.4-2.1-3.5-3.2c-2-2-3.8-4.1-5.4-6.4c-2-2.8-3.6-5.8-4.9-8.9c-10.1-24.3,1.4-52.3,25.7-62.4 c5.8-2.4,12-3.7,18.2-3.7c3.7,0,7.4,0.4,11,1.3c8.7,2,16.6,6.4,22.9,12.7C372.2,293.9,372.2,324.1,353.6,342.7z"/>
    <polygon fill="#FF5429" points="322.8,312.5 307.7,302.8 279.1,318.4 280.5,321.1 307.5,306.2 322.9,316.1 349.5,296.5 358,302.2 359.7,299.7 349.4,292.9"/>
    <path fill="#B0B0C8" d="M246.8,117.7h-14.1v95.6h14.1V117.7z M243.8,210.3h-8.1v-89.6h8.1V210.3z"/>
  </g>
  <!-- Step 4 labels -->
  <text x="858" y="238" text-anchor="middle" class="step-num">04</text>
  <text x="858" y="254" text-anchor="middle" class="label">Maintenance Alert</text>
  <text x="858" y="270" text-anchor="middle" class="sublabel">Confirmed fault pushed to</text>
  <text x="858" y="284" text-anchor="middle" class="sublabel">your maintenance system</text>

  <!-- ==================== BOTTOM STRIP ==================== -->
  <line x1="40" y1="310" x2="920" y2="310" stroke="#3D3D5C" stroke-width="0.5" opacity="0.3"/>
  <text x="480" y="330" text-anchor="middle" class="sublabel" font-size="10" fill="#6B6B7F">From electrical cabinet to maintenance action — no sensors on the machine</text>
</svg>