<svg xmlns="http://www.w3.org/2000/svg" viewBox="0 0 1120 340" fill="none">
  <defs>
    <style>
      .label { font-family: 'IBM Plex Sans', -apple-system, BlinkMacSystemFont, sans-serif; font-size: 13px; font-weight: 600; fill: #1F1F33; }
      .sublabel { font-family: 'IBM Plex Sans', -apple-system, BlinkMacSystemFont, sans-serif; font-size: 10.5px; font-weight: 400; fill: #6B6B7F; }
      .step-num { font-family: 'JetBrains Mono', monospace; font-size: 11px; font-weight: 700; fill: #FF5429; }
    </style>
  </defs>

  <!-- ==================== STEP 1: SIGNAL CAPTURE (icon-47) ==================== -->
  <rect x="16" y="16" width="180" height="196" rx="8" fill="#FFFFFF" stroke="#E5E7EB" stroke-width="1.5"/>
  <rect x="16" y="16" width="180" height="4" rx="2" fill="#1F1F33"/>
  <g transform="translate(30, 24) scale(0.265)">
    <path fill="#FF5429" d="M218.2,365.5h-0.9l-0.4-0.2l-0.2,0.2h-4.1V179.9c0-0.8-0.7-1.5-1.5-1.5s-1.5,0.7-1.5,1.5v185.6h-1.4l-4.3,4.3 l-0.7,0.8l0.2,0.5v17.7h10l0.5,0.2l5-5v-16.8c0-0.3-0.1-0.7-0.3-0.9L218.2,365.5z M213.7,368.5l-0.9,0.9h-0.3 c0.1-0.1,0.1-0.3,0.1-0.5v-0.5H213.7z M209.3,368.5h0.2v0.5c0,0.2,0,0.3,0.1,0.5h-1.2L209.3,368.5z M206.3,372.4h5.6v13.4h-5.6 V372.4z M215.8,382.7l-0.9,0.9v-12.1l0.9-0.9V382.7z"/>
    <path fill="#FF5429" d="M365.4,377.2h-97.9c-6.4,0-11.6-5.2-11.6-11.6v-21.5c0-8.1-6.5-14.6-14.6-14.6s-14.6,6.5-14.6,14.6v21.4h-1.5 l-4.3,4.3l-0.7,0.8l0.2,0.5v17.7h10l0.5,0.2l5-5v-16.8c0-0.3-0.1-0.7-0.3-0.9l-0.3-0.7h-0.9l-0.4-0.2l-0.2,0.2h-4.1v-21.4 c0-6.4,5.2-11.6,11.6-11.6s11.6,5.2,11.6,11.6l0,0v21.5c0,8,6.5,14.6,14.6,14.6h97.9c0.8,0,1.5-0.7,1.5-1.5S366.3,377.2,365.4,377.2 L365.4,377.2z M226.6,368.5h0.2v0.5c0,0.1,0,0.3,0.1,0.4h-1.2L226.6,368.5z M223.6,372.4h5.6v13.4h-5.6V372.4z M233.1,382.7 l-0.9,0.9v-12.1l0.9-0.9V382.7z M231,368.5l-0.9,0.9h-0.3c0-0.1,0.1-0.3,0.1-0.4v-0.5H231z"/>
    <path fill="#6B6B7F" d="M252.5,218.1h-27.6v-27.6h27.6L252.5,218.1z M227.9,215.1h21.6v-21.6h-21.6L227.9,215.1z"/>
    <path fill="#6B6B7F" d="M252.5,261.2h-27.6v-27.6h27.6L252.5,261.2z M227.9,258.2h21.6v-21.6h-21.6L227.9,258.2z"/>
    <path fill="#6B6B7F" d="M252.5,304.3h-27.6v-27.6h27.6L252.5,304.3z M227.9,301.3h21.6v-21.6h-21.6L227.9,301.3z"/>
    <path fill="#6B6B7F" d="M278.7,210.6c-3.5,0-6.3-2.8-6.3-6.3c0-3.5,2.8-6.3,6.3-6.3c3.5,0,6.3,2.8,6.3,6.3 C285,207.8,282.1,210.6,278.7,210.6z M278.7,201c-1.8,0-3.3,1.5-3.3,3.3c0,1.8,1.5,3.3,3.3,3.3s3.3-1.5,3.3-3.3 C282,202.5,280.5,201,278.7,201L278.7,201z"/>
    <path fill="#6B6B7F" d="M278.7,227.7c-3.5,0-6.3-2.8-6.3-6.3c0-3.5,2.8-6.3,6.3-6.3c3.5,0,6.3,2.8,6.3,6.3c0,0,0,0,0,0 C285,224.8,282.1,227.7,278.7,227.7z M278.7,218.1c-1.8,0-3.3,1.5-3.3,3.3c0,1.8,1.5,3.3,3.3,3.3s3.3-1.5,3.3-3.3c0,0,0,0,0,0 C282,219.6,280.5,218.1,278.7,218.1z"/>
    <path fill="#6B6B7F" d="M296.9,210.6c-3.5,0-6.3-2.8-6.3-6.3c0-3.5,2.8-6.3,6.3-6.3c3.5,0,6.3,2.8,6.3,6.3 C303.2,207.8,300.4,210.6,296.9,210.6z M296.9,201c-1.8,0-3.3,1.5-3.3,3.3s1.5,3.3,3.3,3.3 c1.8,0,3.3-1.5,3.3-3.3C300.2,202.5,298.7,201,296.9,201L296.9,201z"/>
    <path fill="#6B6B7F" d="M296.9,227.7c-3.5,0-6.3-2.8-6.3-6.3s2.8-6.3,6.3-6.3c3.5,0,6.3,2.8,6.3,6.3c0,0,0,0,0,0 C303.2,224.8,300.4,227.7,296.9,227.7z M296.9,218.1c-1.8,0-3.3,1.5-3.3,3.3s1.5,3.3,3.3,3.3c1.8,0,3.3-1.5,3.3-3.3c0,0,0,0,0,0 C300.2,219.6,298.7,218.1,296.9,218.1z"/>
    <path fill="#6B6B7F" d="M278.7,243.1c-3.5,0-6.3-2.8-6.3-6.3c0-3.5,2.8-6.3,6.3-6.3c3.5,0,6.3,2.8,6.3,6.3 C285,240.2,282.1,243.1,278.7,243.1z M278.7,233.5c-1.8,0-3.3,1.5-3.3,3.3c0,1.8,1.5,3.3,3.3,3.3s3.3-1.5,3.3-3.3 S280.5,233.5,278.7,233.5L278.7,233.5z"/>
    <path fill="#6B6B7F" d="M296.9,243.1c-3.5,0-6.3-2.8-6.3-6.3c0-3.5,2.8-6.3,6.3-6.3c3.5,0,6.3,2.8,6.3,6.3 C303.2,240.2,300.4,243.1,296.9,243.1z M296.9,233.5c-1.8,0-3.3,1.5-3.3,3.3s1.5,3.3,3.3,3.3 c1.8,0,3.3-1.5,3.3-3.3C300.2,235,298.7,233.5,296.9,233.5z"/>
    <path fill="#6B6B7F" d="M281,304.1c2.5,0,4.5-2,4.5-4.5s-2-4.5-4.5-4.5s-4.5,2-4.5,4.5C276.5,302.1,278.5,304.1,281,304.1z M281,298.1 c0.8,0,1.5,0.7,1.5,1.5s-0.7,1.5-1.5,1.5s-1.5-0.7-1.5-1.5S280.2,298.1,281,298.1z"/>
    <path fill="#6B6B7F" d="M300,295.1c-2.5,0-4.5,2-4.5,4.5s2,4.5,4.5,4.5s4.5-2,4.5-4.5C304.5,297.1,302.5,295.1,300,295.1z M300,301.1 c-0.8,0-1.5-0.7-1.5-1.5s0.7-1.5,1.5-1.5s1.5,0.7,1.5,1.5S300.9,301.1,300,301.1z"/>
    <path fill="#6B6B7F" d="M319.1,295.1c-2.5,0-4.5,2-4.5,4.5s2,4.5,4.5,4.5s4.5-2,4.5-4.5C323.6,297.1,321.6,295.1,319.1,295.1z M319.1,301.1c-0.8,0-1.5-0.7-1.5-1.5s0.7-1.5,1.5-1.5s1.5,0.7,1.5,1.5S319.9,301.1,319.1,301.1z"/>
    <path fill="#6B6B7F" d="M338.1,295.1c-2.5,0-4.5,2-4.5,4.5s2,4.5,4.5,4.5s4.5-2,4.5-4.5C342.6,297.1,340.6,295.1,338.1,295.1z M338.1,301.1c-0.8,0-1.5-0.7-1.5-1.5s0.7-1.5,1.5-1.5s1.5,0.7,1.5,1.5S338.9,301.1,338.1,301.1z"/>
    <path fill="#6B6B7F" d="M357.1,295.1c-2.5,0-4.5,2-4.5,4.5s2,4.5,4.5,4.5s4.5-2,4.5-4.5C361.6,297.1,359.6,295.1,357.1,295.1z M357.1,301.1c-0.8,0-1.5-0.7-1.5-1.5s0.7-1.5,1.5-1.5s1.5,0.7,1.5,1.5S357.9,301.1,357.1,301.1z"/>
    <path fill="#6B6B7F" d="M405.3,178.4v-34.9c0-0.7-0.4-1.4-1-1.7l0,0c-0.3-0.6-1-1-1.7-1H227.9l-37.6,37.6h-88.2v240h353.3V178.4H405.3z M189.4,415.3h-84.3V181.4h84.3V415.3z M229.1,143.8h171.1l-34.6,34.6H194.6L229.1,143.8z M402.3,146v32.4h-32.4l11.7-11.7 L402.3,146z M282.5,286.7v-18.5l31.6-16.6l-15.6,21.8v13.3H282.5z M289.5,289.7v52h-16v-52H289.5z M292.5,289.7h16v52h-16V289.7z M301.6,286.7v-12.4l16.4-22.9l-0.4,35.3H301.6z M311.5,289.7h16v52h-16.1L311.5,289.7z M320.6,286.7L321,252l16.1,22.4v12.4 L320.6,286.7z M330.6,289.7h16v52h-16V289.7z M340.1,286.7v-13.3L324.7,252l30.9,16.2v18.5L340.1,286.7z M349.6,289.7h15.1v52h-15.2 L349.6,289.7z M358.6,286.7v-20.3L321,246.7v-30.3h43.7v70.3H358.6L358.6,286.7z M192.8,181.4h5.8v225.7l-5.8,5.8V181.4z M364.8,415.3H194.6l6.1-6.1h164.1L364.8,415.3z M201.6,406.2V181.4h163.2v32.1H318v32.8l-38.5,20.2v20.3h-9.1v58h94.3v61.4 L201.6,406.2z M452.4,415.3h-84.7v-70.5l0,0v-58.1l0,0V181.4h84.6L452.4,415.3z"/>
  </g>
  <text x="106" y="234" text-anchor="middle" class="step-num">01</text>
  <text x="106" y="250" text-anchor="middle" class="label">Signal Capture</text>
  <text x="106" y="265" text-anchor="middle" class="sublabel">Current clamps at the MCC</text>
  <text x="106" y="279" text-anchor="middle" class="sublabel">No sensors on the machine</text>

  <!-- ARROW 1→2 -->
  <line x1="204" y1="114" x2="232" y2="114" stroke="#FF5429" stroke-width="1.5" opacity="0.5"/>
  <polygon points="230,109 240,114 230,119" fill="#FF5429" opacity="0.5"/>

  <!-- ==================== STEP 2: PATTERN ANALYSIS (icon-12) ==================== -->
  <rect x="244" y="16" width="180" height="196" rx="8" fill="#FFFFFF" stroke="#E5E7EB" stroke-width="1.5"/>
  <rect x="244" y="16" width="180" height="4" rx="2" fill="#1F1F33"/>
  <g transform="translate(258, 24) scale(0.265)">
    <path fill="#6B6B7F" d="M202.5,325.5c-23.2,0-30.9-13.4-38.2-26.3c-7.6-13.3-14.8-25.9-38.3-25.9v-3c25.3,0,33.2,13.9,40.9,27.4 c7.2,12.7,14.1,24.8,35.6,24.8V325.5z"/>
    <path fill="#6B6B7F" d="M202.5,325.5v-3c23.5,0,30.7-12.6,38.3-25.9c7.4-12.9,15-26.3,38.2-26.3v3c-21.5,0-28.4,12-35.6,24.8 C235.7,311.5,227.8,325.5,202.5,325.5z"/>
    <path fill="#6B6B7F" d="M355.5,325.5c-23.2,0-30.9-13.4-38.2-26.3c-7.6-13.3-14.8-25.9-38.3-25.9v-3c25.3,0,33.2,13.9,40.9,27.4 c7.2,12.7,14.1,24.8,35.6,24.8L355.5,325.5z"/>
    <path fill="#6B6B7F" d="M355.5,325.5v-3c23.5,0,30.7-12.6,38.3-25.9c7.4-12.9,15-26.3,38.2-26.3v3c-21.5,0-28.4,12-35.6,24.8 C388.8,311.5,380.8,325.5,355.5,325.5z"/>
    <path fill="#6B6B7F" d="M457.3,281.4c-6.5-5.5-14.5-8.1-25.2-8.1v-3c11.4,0,20.2,2.9,27.2,8.8L457.3,281.4z"/>
    <polygon fill="#6B6B7F" points="387.1,386.4 339.1,386.4 313.1,210.2 270.3,210.2 244.2,386.4 196.2,386.4 170.1,210.2 126,210.2 126,207.2 172.7,207.2 198.8,383.4 241.6,383.4 267.7,207.2 315.7,207.2 341.7,383.4 384.5,383.4 410.6,207.2 457.3,207.2 457.3,210.2 413.2,210.2"/>
    <path fill="#FF5429" d="M126,325.5v-3c23.5,0,30.7-12.6,38.3-25.9c7.4-12.9,15-26.3,38.2-26.3v3c-21.5,0-28.4,12-35.6,24.8 C159.2,311.5,151.3,325.5,126,325.5z"/>
    <path fill="#FF5429" d="M279,325.5c-23.2,0-30.9-13.4-38.2-26.3c-7.6-13.3-14.8-25.9-38.3-25.9v-3c25.3,0,33.2,13.9,40.9,27.4 c7.2,12.7,14.1,24.8,35.6,24.8V325.5z"/>
    <path fill="#FF5429" d="M279,325.5v-3c23.5,0,30.7-12.6,38.3-25.9c7.4-12.9,15-26.3,38.2-26.3v3c-21.5,0-28.4,12-35.6,24.8 C312.2,311.5,304.3,325.5,279,325.5z"/>
    <path fill="#FF5429" d="M432,325.5c-23.2,0-30.9-13.4-38.2-26.3c-7.6-13.3-14.8-25.9-38.3-25.9v-3c25.3,0,33.2,13.9,40.9,27.4 c7.3,12.7,14.1,24.8,35.6,24.8V325.5z"/>
    <path fill="#FF5429" d="M432,325.5v-3c10.8,0,18.8-2.6,25.2-8.1l1.9,2.3C452.3,322.6,443.4,325.5,432,325.5z"/>
    <polygon fill="#6B6B7F" points="457.8,388.5 124,388.5 124,185.6 127,185.6 127,385.5 457.8,385.5"/>
  </g>
  <text x="334" y="234" text-anchor="middle" class="step-num">02</text>
  <text x="334" y="250" text-anchor="middle" class="label">Pattern Analysis</text>
  <text x="334" y="265" text-anchor="middle" class="sublabel">Spectral decomposition of</text>
  <text x="334" y="279" text-anchor="middle" class="sublabel">current + voltage signatures</text>

  <!-- ARROW 2→3 -->
  <line x1="432" y1="114" x2="460" y2="114" stroke="#FF5429" stroke-width="1.5" opacity="0.5"/>
  <polygon points="458,109 468,114 458,119" fill="#FF5429" opacity="0.5"/>

  <!-- ==================== STEP 3: AI CLASSIFICATION (icon-02) ==================== -->
  <rect x="472" y="16" width="180" height="196" rx="8" fill="#FFFFFF" stroke="#E5E7EB" stroke-width="1.5"/>
  <rect x="472" y="16" width="180" height="4" rx="2" fill="#1F1F33"/>
  <g transform="translate(486, 24) scale(0.265)">
    <polygon fill="#6B6B7F" points="440.5,245.2 437.5,245.2 437.5,169.2 361.5,169.2 361.5,166.2 440.5,166.2"/>
    <polygon fill="#6B6B7F" points="136.3,245.2 133.3,245.2 133.3,166.2 212.2,166.2 212.2,169.2 136.3,169.2"/>
    <polygon fill="#6B6B7F" points="440.5,393.8 361.5,393.8 361.5,390.8 437.5,390.8 437.5,314.8 440.5,314.8"/>
    <polygon fill="#6B6B7F" points="212.2,393.8 133.3,393.8 133.3,314.8 136.3,314.8 136.3,390.8 212.2,390.8"/>
    <path fill="#6B6B7F" d="M283.5,245.4c-7,0-12.7-5.7-12.7-12.7s5.7-12.7,12.7-12.7c7,0,12.7,5.7,12.7,12.7 C296.1,239.7,290.4,245.4,283.5,245.4z M283.5,223c-5.3,0-9.7,4.3-9.7,9.7s4.3,9.7,9.7,9.7c5.3,0,9.7-4.3,9.7-9.7 C293.1,227.4,288.8,223,283.5,223L283.5,223z"/>
    <path fill="#6B6B7F" d="M283.5,349.9c-7,0-12.7-5.7-12.7-12.7c0-7,5.7-12.7,12.7-12.7c7,0,12.7,5.7,12.7,12.7c0,0,0,0,0,0 C296.1,344.2,290.4,349.9,283.5,349.9z M283.5,327.5c-5.3,0-9.7,4.3-9.7,9.7c0,5.3,4.3,9.7,9.7,9.7c5.3,0,9.7-4.3,9.7-9.7 C293.1,331.9,288.8,327.5,283.5,327.5z"/>
    <path fill="#6B6B7F" d="M246.5,260.7c-7,0-12.7-5.7-12.6-12.7c0-7,5.7-12.7,12.7-12.6s12.7,5.7,12.6,12.7c0,3.3-1.3,6.6-3.7,8.9 C253.1,259.4,249.9,260.7,246.5,260.7z M246.5,238.3c-5.3,0-9.7,4.3-9.7,9.7s4.3,9.7,9.7,9.7s9.7-4.3,9.7-9.7c0-2.6-1-5-2.8-6.8 C251.5,239.4,249.1,238.3,246.5,238.3z"/>
    <path fill="#FF5429" d="M320.4,260.7c-7,0-12.7-5.6-12.7-12.6c0-3.4,1.3-6.6,3.7-9l0,0c4.9-4.9,13-4.9,17.9,0c4.9,4.9,4.9,13,0,17.9 C327,259.3,323.7,260.7,320.4,260.7z M320.4,238.3c-2.6,0-5,1-6.8,2.8l0,0c-3.8,3.8-3.8,9.9,0,13.7c3.8,3.8,9.9,3.8,13.7,0 s3.8-9.9,0-13.7C325.4,239.4,323,238.3,320.4,238.3z"/>
    <path fill="#6B6B7F" d="M320.4,334.6c-7,0-12.7-5.7-12.6-12.7c0-7,5.7-12.7,12.7-12.6c7,0,12.7,5.7,12.6,12.7c0,3.3-1.3,6.6-3.7,8.9 C327,333.2,323.8,334.6,320.4,334.6z M320.4,312.2c-5.3,0-9.7,4.3-9.6,9.7c0,5.3,4.3,9.7,9.7,9.6c5.3,0,9.7-4.3,9.6-9.7 c0-2.6-1-5-2.8-6.8C325.4,313.2,323,312.2,320.4,312.2L320.4,312.2z"/>
    <path fill="#6B6B7F" d="M231.2,297.6c-7,0-12.7-5.7-12.7-12.7c0-7,5.7-12.7,12.7-12.7s12.7,5.7,12.7,12.7c0,0,0,0,0,0 C243.8,292,238.2,297.6,231.2,297.6z M231.2,275.3c-5.3,0-9.7,4.3-9.7,9.7c0,5.3,4.3,9.7,9.7,9.7s9.7-4.3,9.7-9.7 C240.9,279.6,236.5,275.3,231.2,275.3z"/>
    <path fill="#6B6B7F" d="M335.7,297.6c-7,0-12.7-5.7-12.7-12.7s5.7-12.7,12.7-12.7s12.7,5.7,12.7,12.7c0,0,0,0,0,0 C348.3,292,342.7,297.6,335.7,297.6z M335.7,275.3c-5.3,0-9.7,4.3-9.7,9.7s4.3,9.7,9.7,9.7c5.3,0,9.7-4.3,9.7-9.7 C345.4,279.6,341,275.3,335.7,275.3z"/>
    <path fill="#6B6B7F" d="M246.5,334.6c-7,0-12.7-5.7-12.6-12.7s5.7-12.7,12.7-12.6c7,0,12.7,5.7,12.6,12.7c0,3.3-1.3,6.6-3.7,8.9 C253.1,333.2,249.9,334.6,246.5,334.6z M246.5,312.2c-5.3,0-9.7,4.3-9.7,9.7c0,5.3,4.3,9.7,9.7,9.7c5.3,0,9.7-4.3,9.7-9.7 c0-2.6-1-5-2.8-6.8C251.5,313.3,249.1,312.2,246.5,312.2L246.5,312.2z"/>
    <path fill="#6B6B7F" d="M282.8,366.2c-45.5,0-82.4-36.9-82.4-82.4s36.9-82.4,82.4-82.4s82.4,36.9,82.4,82.4c0,0,0,0,0,0 C365.1,329.3,328.3,366.1,282.8,366.2z M282.8,204.4c-43.8,0-79.4,35.5-79.4,79.4s35.5,79.4,79.4,79.4s79.4-35.5,79.4-79.4 C362.1,240,326.6,204.5,282.8,204.4L282.8,204.4z"/>
  </g>
  <text x="562" y="234" text-anchor="middle" class="step-num">03</text>
  <text x="562" y="250" text-anchor="middle" class="label">AI Classification</text>
  <text x="562" y="265" text-anchor="middle" class="sublabel">Fault type + severity scored</text>
  <text x="562" y="279" text-anchor="middle" class="sublabel">by trained ML models</text>

  <!-- ARROW 3→4 -->
  <line x1="660" y1="114" x2="688" y2="114" stroke="#FF5429" stroke-width="1.5" opacity="0.5"/>
  <polygon points="686,109 696,114 686,119" fill="#FF5429" opacity="0.5"/>

  <!-- ==================== STEP 4: EXPERT MONITORING (icon-22 — only st0 + st2 paths) ==================== -->
  <rect x="700" y="16" width="180" height="196" rx="8" fill="#FFFFFF" stroke="#E5E7EB" stroke-width="1.5"/>
  <rect x="700" y="16" width="180" height="4" rx="2" fill="#1F1F33"/>
  <g transform="translate(714, 24) scale(0.265)">
    <!-- icon-22: ONLY the visible paths (st0=gray outline, st2=orange node) -->
    <path fill="#6B6B7F" d="M451.1,310c-1.3,0-2.6,0.1-3.8,0.4l-17.1-57.5c9.6-3.7,14.3-14.5,10.6-24.1s-14.5-14.3-24.1-10.6 c-2.8,1.1-5.2,2.8-7.2,5l-59.1-44.5c1.9-3,2.9-6.5,2.9-10c0-10.3-8.3-18.6-18.6-18.6c-10.3,0-18.6,8.3-18.6,18.6c0,0.1,0,0.2,0,0.4 l-78,7.9c-1.9-10.1-11.6-16.8-21.7-14.9c-8.8,1.6-15.2,9.3-15.2,18.3c0,3,0.7,5.9,2.1,8.6l-56.3,35.5c-6.2-8.2-17.8-9.9-26-3.7 c-8.2,6.2-9.9,17.8-3.7,26c2.5,3.4,6.2,5.8,10.3,6.9l-10.3,60.2c-0.5-0.1-1.1-0.1-1.6-0.1c-10.3,0-18.6,8.3-18.6,18.6 s8.3,18.6,18.6,18.6c7.9,0,14.9-5,17.5-12.4l198.8,52.9c-0.2,1.1-0.3,2.2-0.3,3.3c0,0.6,0,1.1,0.1,1.7c0.1,0.7,0.2,1.3,0.3,2 c2.1,10.1,11.9,16.6,22,14.5c7.3-1.5,13-7.2,14.5-14.5h2.1v-2h-1.8c0-0.6,0.1-1.1,0.1-1.7c0-3.1-0.8-6.2-2.3-8.9l69.8-45.8 c6.3,8.1,18,9.6,26.1,3.3s9.6-18,3.3-26.1C462.3,312.6,456.9,310,451.1,310L451.1,310z M444.4,311.3c-5.2,2-9.3,6.3-11,11.7 l-43.7-10.2l27.4-59.7c2,0.7,4.2,1.1,6.4,1.1c1.3,0,2.6-0.1,3.9-0.4L444.4,311.3z M385.5,314.8l-28.7,62.5c-2-0.7-4.2-1.1-6.4-1.1 c-0.6,0-1.2,0-1.9,0.1L338.1,319c-1,0.3-2,0.5-3,0.5l10.5,57.3c-2.9,0.8-5.6,2.3-7.9,4.4l-75.4-68.8c2.2-2.9,3.5-6.3,3.8-9.9h48.6 c0-0.5-0.1-1-0.1-1.5s0-1,0.1-1.5h-48.6c-0.4-5.2-3-10-7.1-13.2l52.5-79.6l21.3,5.8l-0.8,69.9c0.4,0,0.9,0,1.3,0s1.1,0,1.7,0.1 l0.8-69.1l69.4,18.8c-0.2,1.1-0.3,2.3-0.3,3.4c0,3.4,0.9,6.8,2.7,9.7l-60.2,43.7c0.7,0.8,1.3,1.6,1.8,2.4l60.2-43.7 c1.4,1.7,3.1,3.1,5,4.1L386.8,312l-35.1-8.2c-0.1,1-0.4,2-0.7,2.9L385.5,314.8z M242,283.2c-4,1.3-7.4,3.8-9.8,7.3l-62-35.1 l40.4-58.9c2.8,1.6,6,2.5,9.2,2.5c0.9,0,1.8-0.1,2.7-0.2L242,283.2z M225.6,198.1c5.5-1.8,9.9-6,11.9-11.4l71.1,19.3l-52,78.8 c-3.5-2-7.6-2.7-11.6-2.1L225.6,198.1z M233.4,294.6c0.4-0.9,0.9-1.8,1.4-2.6c2.5-3.6,6.4-6,10.8-6.5c0.7-0.1,1.3-0.1,2-0.1 c2.5,0,5.1,0.6,7.3,1.8c0.9,0.5,1.7,1,2.5,1.7c3.3,2.6,5.3,6.5,5.7,10.6c0,0.5,0.1,1,0.1,1.5c0,0.5,0,1-0.1,1.5 c-0.3,2.9-1.3,5.6-3.1,7.9c-0.6,0.8-1.3,1.6-2,2.2c-6.4,5.8-16.3,5.3-22-1.1c-1.4-1.6-2.5-3.4-3.2-5.4c-0.5-1.6-0.8-3.3-0.8-5 C232,298.8,232.4,296.6,233.4,294.6L233.4,294.6z M313.3,204.1l12.6-19.1c2.2,1.2,4.7,2,7.2,2.2l-0.3,22.1L313.3,204.1z M408.1,232.9c0.3-2,1-3.8,2.1-5.5c0.5-0.9,1.1-1.7,1.8-2.4c5.8-6.4,15.7-6.8,22-1s6.8,15.7,1,22c-1.6,1.7-3.5,3-5.6,3.9 c-0.9,0.4-1.9,0.7-2.9,0.9c-1,0.2-2,0.3-3,0.3c-1.7,0-3.5-0.3-5.1-0.9c-1-0.3-1.9-0.7-2.7-1.2c-1.4-0.8-2.7-1.9-3.8-3.2 c-0.7-0.8-1.3-1.6-1.8-2.4c-1.4-2.4-2.2-5.1-2.1-7.9C407.9,234.7,408,233.8,408.1,232.9L408.1,232.9z M407.8,225.6 c-0.7,1.1-1.3,2.4-1.8,3.6l-70.2-19l0.3-22.9c4.9-0.3,9.4-2.6,12.6-6.2L407.8,225.6z M319.2,168.7c0-8.6,7-15.6,15.6-15.6 c8.6,0,15.6,7,15.6,15.6c0,2.9-0.8,5.7-2.3,8.2c-0.5,0.9-1.1,1.7-1.8,2.4c-2.6,2.9-6.3,4.7-10.2,5c-0.4,0-0.9,0.1-1.3,0.1 c-2.5,0-5.1-0.6-7.3-1.8c-0.9-0.5-1.7-1-2.5-1.6C321.4,177.9,319.2,173.5,319.2,168.7L319.2,168.7z M316.5,172.1 c0.8,4.5,3.3,8.5,6.8,11.3l-13.1,19.9l-72-19.5c0.2-1.1,0.3-2.3,0.3-3.4c0-0.1,0-0.2,0-0.4L316.5,172.1z M219.9,164.8 c7.4,0,13.8,5.3,15.3,12.6c0.2,1,0.3,2,0.3,3v0.1c0,0.9-0.1,1.7-0.2,2.6c-0.2,1-0.4,2-0.8,2.9c-1.7,4.4-5.2,7.8-9.7,9.3 c-0.9,0.3-1.9,0.5-2.9,0.7c-0.7,0.1-1.3,0.1-2,0.1c-2.6,0-5.2-0.7-7.6-2c-0.9-0.5-1.7-1.1-2.5-1.7c-6.6-5.5-7.5-15.4-1.9-22 C210.9,166.8,215.3,164.7,219.9,164.8L219.9,164.8z M205,191.5c0.9,1.2,2,2.3,3.2,3.3l-40.6,59.1l-18.6-10.5 c2.4-5.2,2.3-11.3-0.4-16.5L205,191.5z M116.6,235.5c0-8.6,7-15.6,15.6-15.6c4.8,0,9.4,2.3,12.4,6.1c0.6,0.8,1.2,1.6,1.6,2.5 c2.1,4.2,2.2,9.1,0.3,13.4c-0.4,0.9-0.9,1.8-1.5,2.6c-2.9,4.2-7.7,6.6-12.8,6.6c-0.4,0-0.8,0-1.1-0.1c-1-0.1-2-0.2-3-0.5 C121.3,248.7,116.6,242.6,116.6,235.5L116.6,235.5z M130.6,254c0.5,0.1,1.1,0.1,1.6,0.1c6.1,0,11.9-3,15.4-8.1l18.4,10.4l-41,59.8 c-1.5-0.8-3-1.5-4.7-1.9L130.6,254z M131.1,334.8c-1.4,8.5-9.4,14.3-18,12.9s-14.3-9.4-12.9-18c1.2-7.5,7.8-13.1,15.4-13.1 c0.4,0,0.8,0,1.1,0l0,0c1,0.1,2,0.2,3,0.5l0,0c1.2,0.3,2.4,0.8,3.5,1.4c0.9,0.5,1.7,1.1,2.5,1.7c2.2,1.8,3.8,4.2,4.8,6.9 c0.3,0.9,0.6,1.9,0.7,2.9c0.1,0.7,0.2,1.4,0.1,2.1C131.3,333.1,131.2,334,131.1,334.8L131.1,334.8z M127.4,317.8l41.2-60l62.1,35.3 c-1.2,2.5-1.7,5.2-1.7,7.9c0,0.9,0.1,1.9,0.2,2.8l-95.8,22.7C132.3,323.1,130.2,320.1,127.4,317.8L127.4,317.8z M134,335.6 c0.4-2,0.4-4.1,0.1-6.1l95.8-22.7c3.2,9.8,13.7,15.1,23.4,12c2.6-0.8,5-2.2,6.9-4.1l75.4,68.8c-1.2,1.6-2.2,3.3-2.8,5.1L134,335.6z M350.4,410.4c-8.6,0-15.6-7-15.6-15.6c0-0.9,0.1-1.7,0.2-2.5c0.2-1,0.4-2,0.8-2.9c0.5-1.4,1.2-2.7,2.1-3.9c0.6-0.8,1.3-1.6,2-2.2 c1.8-1.6,3.9-2.8,6.2-3.4c1-0.3,2-0.5,3-0.5c0.4,0,0.9-0.1,1.3-0.1c1.7,0,3.5,0.3,5.1,0.9c1,0.3,1.9,0.7,2.7,1.3 c1.7,1,3.1,2.2,4.3,3.7c0.6,0.8,1.2,1.6,1.6,2.5c1.2,2.2,1.8,4.7,1.8,7.3C366,403.4,359,410.4,350.4,410.4L350.4,410.4z M365,383.3 c-1.5-1.9-3.4-3.6-5.6-4.8l29-63.1l44.2,10.4c-0.1,0.9-0.2,1.8-0.2,2.8c0,3.1,0.8,6.2,2.3,8.9L365,383.3z M451.1,344.2 c-4.7,0-9.1-2.2-12.1-5.8c-0.6-0.8-1.2-1.6-1.6-2.5c-1.2-2.2-1.8-4.7-1.8-7.3c0-0.7,0-1.4,0.1-2.1c0.1-1,0.4-2,0.7-2.9 c1.8-5.3,6.3-9.3,11.8-10.3c1-0.2,2-0.3,3-0.3c8.6,0,15.6,7,15.6,15.6c0,8.6-7,15.6-15.6,15.6L451.1,344.2z"/>
    <!-- Orange highlighted central node -->
    <path fill="#FF5429" d="M349.1,291.3c-0.5-0.9-1.1-1.7-1.8-2.4c-3.1-3.7-7.6-6-12.4-6.4c-0.6,0-1.1-0.1-1.7-0.1s-0.9,0-1.3,0 c-9.2,0.6-16.5,7.9-17.3,17.1c0,0.5-0.1,1-0.1,1.5s0,1,0.1,1.5c0.8,9.7,8.8,17.1,18.5,17.1c0.6,0,1.2,0,1.9-0.1c1-0.1,2-0.3,3-0.5 c7.2-1.9,12.5-7.9,13.6-15.2c0.1-0.9,0.2-1.8,0.2-2.8C351.9,297.5,350.9,294.2,349.1,291.3z M348.7,303c-0.1,1-0.4,2-0.7,2.9 c-1.7,4.9-5.6,8.6-10.5,10c-1,0.3-2,0.5-3,0.5c-0.4,0-0.9,0.1-1.3,0.1c-8,0-14.8-6.1-15.5-14.1c-0.1-1-0.1-2,0-3 c0.8-7.5,6.7-13.4,14.2-14c0.4,0,0.9-0.1,1.3-0.1c4.5,0,8.8,1.9,11.7,5.3c0.7,0.8,1.3,1.6,1.8,2.4c1.4,2.4,2.2,5.1,2.1,7.9 C348.9,301.6,348.8,302.3,348.7,303z"/>
  </g>
  <text x="790" y="234" text-anchor="middle" class="step-num">04</text>
  <text x="790" y="250" text-anchor="middle" class="label">Expert Monitoring</text>
  <text x="790" y="265" text-anchor="middle" class="sublabel">Engineers validate alerts</text>
  <text x="790" y="279" text-anchor="middle" class="sublabel">and confirm fault diagnosis</text>

  <!-- ARROW 4→5 -->
  <line x1="888" y1="114" x2="916" y2="114" stroke="#FF5429" stroke-width="1.5" opacity="0.5"/>
  <polygon points="914,109 924,114 914,119" fill="#FF5429" opacity="0.5"/>

  <!-- ==================== STEP 5: WORK ORDER (icon-06) ==================== -->
  <rect x="928" y="16" width="176" height="196" rx="8" fill="#FFFFFF" stroke="#FF5429" stroke-width="1.5"/>
  <rect x="928" y="16" width="176" height="4" rx="2" fill="#FF5429"/>
  <g transform="translate(940, 20) scale(0.265)">
    <!-- icon-06: person figure with wrench/tool -->
    <path fill="#FF5429" d="M380.8,140.8h-11.6v27.8l-9.8,16.9h-19.1l-9.8-16.9v-27.8H319l-12.4,37.7l21.5,37.5h6.1v57c1,0.9,2,1.7,3,2.6 V213h-7.4l-20-34.8l11.3-34.4h6.4v25.6l11,19.1h22.6l11-19.1v-25.7h6.4l11.3,34.4l-20,34.8h-7.4v95.2c1.1,2,2.1,4.1,3,6.2V216h6.1 l21.6-37.4L380.8,140.8z"/>
    <path fill="#6B6B7F" d="M375.3,368.7l-0.1-1.5c0-1.2,0.1-2.5,0.1-3.8h1.2v-2h-1.2c0-16.2-3.4-32.2-9.9-47.1c-0.9-2.1-1.9-4.2-3-6.2 c-5.5-10.7-12.7-20.5-21.4-29c-1.2-1.2-2.5-2.4-3.8-3.6c-1-0.9-2-1.8-3-2.6c-20-16.9-45.6-27.4-73.6-30.1v-10.4H232v10.5 c-61.4,7.1-109,56.9-113.3,118.6H117v2h1.7c0,0.7-0.1,1.3-0.1,2l-0.3,3.2c-8.3,0.7-16.8,7.4-16.8,17.2c0,8.6,6.9,15.6,15.6,15.7 c1.2,0.2,12.2,1.8,32.5,3.5v1.6h2v-1.5c21.8,1.7,53.7,3.4,95.2,3.4c82.4,0,126-6.6,128.6-7.1c8.6-0.1,15.6-7.1,15.6-15.7 C391,377.7,383.4,369.6,375.3,368.7z M375.3,398.6h-0.2c-0.4,0.1-43.9,7-128.2,7s-128.9-7-129.4-7h-0.2c-7,0-12.7-5.7-12.7-12.7 c0-6.9,6.1-14.3,15.1-14.3h1.4l0.5-6c2.4-61.7,49.3-112.4,110.5-119.7v6.1c-25.1,7.3-55,32.1-55,108.4h3c0-40.9,9-92.1,52-105.3 v32.5h3v-52.2h22.6v52.2h3v-32.4c42.8,13.2,51.8,64.4,51.8,105.2h3c0-76.1-29.7-101-54.8-108.3v-6.3c28.2,2.8,53.9,13.6,73.6,31.1 c1,0.9,2,1.8,3,2.8l1.7,1.6c9.9,9.7,17.8,21.2,23.5,33.8c1.1,2.4,2.1,4.9,3,7.4c5.2,14.3,7.5,29.5,6.8,44.7v0.1l0.2,4.4h1.4 c7,0,14.1,7.2,14.1,14.3C388,392.9,382.3,398.6,375.3,398.6L375.3,398.6z"/>
    <rect x="245.3" y="313.8" fill="#6B6B7F" width="3" height="46.7"/>
    <path fill="#6B6B7F" d="M315.3,380.9c-0.2,0-23.5,4-68.4,4s-68.2-3.9-68.4-4l0.5-3c0.2,0,23.3,3.9,67.9,3.9s67.7-3.9,67.9-3.9 L315.3,380.9z"/>
    <path fill="#6B6B7F" d="M425.8,278.2V169.6l1.3-7.4c1.2-6.7,1-13.6-0.6-20.2l-0.2-0.8l-2.5-0.8h-7.4l-2.8,0.6l-0.2,0.9 c-1.4,6.8-1.6,13.7-0.4,20.5l1.2,7.1v108.6c-5.9,1.3-10.1,6.5-10.1,12.5v84.7c0,7.1,5.8,12.8,12.8,12.8h5.8 c7.1,0,12.8-5.8,12.8-12.8v-84.7C435.8,284.7,431.7,279.5,425.8,278.2z M417.4,170.9h5.4v107h-5.4V170.9z M416.3,143.4l0.4-0.1h6.7 l0.4,0.1c1.3,6,1.5,12.1,0.4,18.2l-1.1,6.3h-5.9l-1-6C415.1,155.8,415.1,149.5,416.3,143.4z M432.8,375.4c0,5.4-4.4,9.8-9.8,9.8 h-5.8c-5.4,0-9.8-4.4-9.8-9.8v-84.7c0-4.8,3.5-9,8.3-9.7l0.5-0.1c0.4,0,0.7-0.1,1.1-0.1h5.8c0.4,0,0.8,0,1.1,0.1 c5,0.6,8.7,4.8,8.7,9.8L432.8,375.4z"/>
  </g>
  <text x="1016" y="234" text-anchor="middle" class="step-num">05</text>
  <text x="1016" y="250" text-anchor="middle" class="label">Work Order</text>
  <text x="1016" y="265" text-anchor="middle" class="sublabel">Confirmed fault converted</text>
  <text x="1016" y="279" text-anchor="middle" class="sublabel">into a maintenance work order</text>

  <!-- ==================== BOTTOM STRIP ==================== -->
  <line x1="40" y1="310" x2="1080" y2="310" stroke="#E5E7EB" stroke-width="0.5" opacity="0.5"/>
  <text x="560" y="330" text-anchor="middle" class="sublabel" font-size="10">From electrical cabinet to work order — no sensors on the machine</text>
</svg>