<?xml version="1.0" encoding="utf-8"?>
<!-- Generator: Adobe Illustrator 18.0.0, SVG Export Plug-In . SVG Version: 6.00 Build 0)  -->
<!DOCTYPE svg PUBLIC "-//W3C//DTD SVG 1.1//EN" "http://www.w3.org/Graphics/SVG/1.1/DTD/svg11.dtd">
<svg version="1.1" id="Layer_1" xmlns="http://www.w3.org/2000/svg" xmlns:xlink="http://www.w3.org/1999/xlink" x="0px" y="0px"
	 viewBox="0 0 193.1 74.3" enable-background="new 0 0 193.1 74.3" xml:space="preserve">
<path fill="#004C6C" d="M88.9,55.3c0.8,0,1.4-0.6,1.4-1.3c0-0.8-0.6-1.3-1.4-1.3c-0.8,0-1.4,0.6-1.4,1.3
	C87.5,54.7,88.1,55.3,88.9,55.3"/>
<path fill="#004C6C" d="M88.9,55.3c0.8,0,1.4-0.6,1.4-1.3c0-0.8-0.6-1.3-1.4-1.3c-0.8,0-1.4,0.6-1.4,1.3
	C87.5,54.7,88.1,55.3,88.9,55.3"/>
<path fill="#004C6C" d="M29.1,66.2c0-4.6-2.8-8-7.4-8c-4.5,0-7.5,3.4-7.5,8c0,4.6,2.8,8,7.4,8C26.1,74.2,29.1,70.8,29.1,66.2
	 M26.4,66.2c0,3.9-1.9,6.3-4.8,6.3c-2.8,0-4.8-2.4-4.8-6.3c0-4,1.9-6.3,4.8-6.3C24.5,59.9,26.4,62.2,26.4,66.2"/>
<path fill="#004C6C" d="M88.9,58.6c-0.7,0-1.3,0.6-1.3,1.3v12.6c0,0.7,0.6,1.3,1.3,1.3c0.7,0,1.3-0.6,1.3-1.3V59.9
	C90.2,59.2,89.6,58.6,88.9,58.6"/>
<path fill="#004C6C" d="M82.5,60.2c-0.7-1.2-2.1-2-3.9-2c-2.3,0-3.9,1.2-5.2,2.7h-0.1v-7.3c0-0.7-0.6-1.3-1.3-1.3
	c-0.7,0-1.3,0.6-1.3,1.3v18.9c0,0.7,0.6,1.3,1.3,1.3c0.7,0,1.3-0.6,1.3-1.3V62.4c1.1-1.2,2.7-2.2,4.3-2.2c1.1,0,2.1,0.4,2.7,1.4
	c0.3,0.6,0.5,1.4,0.5,2.5v8.4c0,0.7,0.6,1.3,1.3,1.3c0.7,0,1.3-0.6,1.3-1.3v-8.7C83.4,62.2,83.1,61.1,82.5,60.2"/>
<path fill="#004C6C" d="M59.9,62.2c0-1.4,1.2-2.1,3.1-2.1c1.4,0,2,0.2,2.9,0.3c0.7,0.2,1-0.3,1.1-0.5c0.1-0.4-0.1-0.9-0.6-1
	c-0.7-0.3-2-0.7-3.8-0.7c-2.9,0-5.2,1.5-5.2,4.2c0,5.2,7.5,3.6,7.5,7.4c0,1.3-0.9,2.6-3.7,2.6c-1.6,0-2.1-0.2-2.8-0.3
	c-0.6-0.2-0.9,0.2-1,0.5c-0.1,0.3-0.1,0.7,0.5,1c0.7,0.3,2.3,0.7,3.8,0.7c3,0,5.9-1.4,5.9-4.7C67.4,64.1,59.9,65.6,59.9,62.2"/>
<path fill="#004C6C" d="M39.6,58.2c-3.6,0-7.4,0.8-7.4,7.1v7.2c0,0.7,0.6,1.3,1.3,1.3s1.3-0.6,1.3-1.3V65c0-1.9,0-3.2,0.4-3.6
	c0.5-0.6,1.8-0.5,4.4-0.5c0.7,0,1.3-0.6,1.3-1.3C41,58.8,40.4,58.2,39.6,58.2"/>
<path fill="#004C6C" d="M101.8,58.2c-3.5,0-7.4,0.8-7.4,7.1v7.2c0,0.7,0.6,1.3,1.3,1.3c0.7,0,1.3-0.6,1.3-1.3V65
	c0-1.9,0-3.2,0.4-3.6c0.6-0.6,1.8-0.5,4.4-0.5c0.7,0,1.3-0.6,1.3-1.3C103.1,58.8,102.5,58.2,101.8,58.2"/>
<path fill="#004C6C" d="M191.8,58.2c-3.5,0-7.4,0.8-7.4,7.1v7.2c0,0.7,0.6,1.3,1.3,1.3c0.7,0,1.3-0.6,1.3-1.3V65
	c0-1.9,0-3.2,0.4-3.6c0.5-0.6,1.8-0.5,4.4-0.5c0.7,0,1.3-0.6,1.3-1.3C193.1,58.8,192.5,58.2,191.8,58.2"/>
<path fill="#004C6C" d="M14.4,52.5c-0.7-0.3-1.5,0-1.8,0.6c-0.2,0.5-4.9,9.8-4.9,9.8H7.6c0,0-4.8-9.4-5-9.8c-0.2-0.4-1-1-1.9-0.5
	c-0.7,0.4-0.8,1.3-0.5,1.9c0.2,0.3,6.1,10.7,6.1,10.7v7.4c0,0.4,0.3,1.3,1.3,1.3c0.9,0,1.3-0.8,1.3-1.3V65c0,0,5.9-10.5,6.1-10.8
	C15.3,53.7,15.1,52.8,14.4,52.5"/>
<path fill="#004C6C" d="M54.2,71.8c-0.5-0.5-5.7-6.1-5.7-6.1v0c0,0,5.3-4.8,5.5-5c0.2-0.2,0.6-1-0.1-1.6c-0.4-0.4-1.1-0.5-1.6,0.1
	c-0.2,0.2-5.8,6.1-5.8,6.1h0V53.6c0-0.7-0.6-1.3-1.3-1.3c-0.7,0-1.3,0.6-1.3,1.3v18.9c0,0.7,0.6,1.3,1.3,1.3c0.7,0,1.3-0.6,1.3-1.3
	v-6.3l0,0c0,0,5.5,6.8,5.9,7.2c0.4,0.5,1.3,0.6,1.8,0.1C54.7,73,54.7,72.2,54.2,71.8"/>
<path fill="#004C6C" d="M113.3,64.9l-6.6,0.4c0-3.7,1.7-5.4,3.8-5.4c2.3,0,3.3,2,3.5,4.3C114,64.7,114,64.9,113.3,64.9 M116.7,65.4
	c0-3.3-1.7-7.3-6-7.3c-4,0-6.6,3.3-6.6,8.3c0,5.4,3.3,7.8,7.5,7.8c2.3,0,3.6-0.6,4.1-0.8c0.5-0.2,0.6-0.6,0.5-1
	c-0.1-0.4-0.5-0.6-1-0.5c-0.6,0.2-1.2,0.4-2.9,0.4c-3.5,0-5.4-1.8-5.5-5.8h8.8C116.6,66.5,116.7,65.9,116.7,65.4"/>
<path fill="#004C6C" d="M178,64.9l-6.6,0.4c0-3.7,1.7-5.4,3.8-5.4c2.3,0,3.3,2,3.5,4.3C178.7,64.7,178.7,64.9,178,64.9 M181.3,65.4
	c0-3.3-1.7-7.3-6-7.3c-4,0-6.6,3.3-6.6,8.3c0,5.4,3.3,7.8,7.5,7.8c2.3,0,3.6-0.6,4.1-0.8c0.5-0.2,0.6-0.6,0.5-1
	c-0.1-0.4-0.5-0.6-1-0.5c-0.6,0.2-1.2,0.4-3,0.4c-3.5,0-5.4-1.8-5.4-5.8h8.8C181.3,66.5,181.3,65.9,181.3,65.4"/>
<path fill="#004C6C" d="M152.2,66.5c-1.4,0-6.1,0.1-6.1,3.4c0,1.5,0.9,2.7,2.4,2.7C152.8,72.6,152.2,71.3,152.2,66.5 M145.3,59.4
	c0.9-0.5,2.2-1.1,4.5-1.1c2.5,0,5.1,2.1,5.1,6.2v3.7c0,4.4-0.2,6.2-7.2,6.2c-2.2,0-4.3-1.2-4.3-4.1c0-3.8,3.4-4.8,8.9-4.9v-0.8
	c0-3.7-2.2-4.2-3-4.2c-1.4,0-2.1,0.1-3.3,0.6C144.8,61.3,144.4,60,145.3,59.4"/>
<path fill="#004C6C" d="M166.8,72.5c-0.1-0.4-0.4-0.5-0.7-0.4c-0.5,0.1-0.8,0.2-1.5,0.2c-1.2,0-2.2-0.4-2.2-2.1v-9.5h3.5
	c0.5,0,1-0.4,1-1c0-0.5-0.4-1-1-1h-3.5v-3c0-0.7-0.6-1.3-1.3-1.3c-0.7,0-1.3,0.6-1.3,1.3v3h-2.5c-0.7,0-0.8,1.3,0,1.4
	c0.5,0.1,2.6,0.5,2.6,0.5v9.8c0,2.9,1.7,3.7,3.9,3.7c1.2,0,2-0.2,2.7-0.5C166.8,73.3,166.9,72.9,166.8,72.5"/>
<path fill="#004C6C" d="M142.4,53.1c-0.6-0.1-1.4,0.1-1.7,1c-0.3,1.1-4.5,15.8-4.5,15.8h-0.1c0,0-3.8-14.5-4.1-15.7
	c-0.3-1.4-2.5-1.5-2.8,0c-0.4,1.6-3.8,15.8-3.8,15.8h-0.1c0,0-4.6-15.6-4.7-15.9c-0.3-0.9-1.1-1.1-1.6-1c-0.9,0.2-1.1,1.2-1,1.6
	c0.3,0.8,5.1,15.3,6,17.9c0.6,1.8,2.4,1.3,2.8,0c0.3-1.3,3.8-15.8,3.8-15.8h0.1c0,0,4.1,15.5,4.2,15.8c0.4,1.3,2.2,1.6,2.7,0
	c0.1-0.3,5.8-17.8,5.9-17.9C143.5,54.3,143.2,53.4,142.4,53.1"/>
<path fill="#004C6C" d="M29.1,66.2c0-4.6-2.8-8-7.4-8c-4.5,0-7.5,3.4-7.5,8c0,4.6,2.8,8,7.4,8C26.1,74.2,29.1,70.8,29.1,66.2
	 M26.4,66.2c0,3.9-1.9,6.3-4.8,6.3c-2.8,0-4.8-2.4-4.8-6.3c0-4,1.9-6.3,4.8-6.3C24.5,59.9,26.4,62.2,26.4,66.2"/>
<path fill="#004C6C" d="M88.9,58.6c-0.7,0-1.3,0.6-1.3,1.3v12.6c0,0.7,0.6,1.3,1.3,1.3c0.7,0,1.3-0.6,1.3-1.3V59.9
	C90.2,59.2,89.6,58.6,88.9,58.6"/>
<path fill="#004C6C" d="M82.5,60.2c-0.7-1.2-2.1-2-3.9-2c-2.3,0-3.9,1.2-5.2,2.7h-0.1v-7.3c0-0.7-0.6-1.3-1.3-1.3
	c-0.7,0-1.3,0.6-1.3,1.3v18.9c0,0.7,0.6,1.3,1.3,1.3c0.7,0,1.3-0.6,1.3-1.3V62.4c1.1-1.2,2.7-2.2,4.3-2.2c1.1,0,2.1,0.4,2.7,1.4
	c0.3,0.6,0.5,1.4,0.5,2.5v8.4c0,0.7,0.6,1.3,1.3,1.3c0.7,0,1.3-0.6,1.3-1.3v-8.7C83.4,62.2,83.1,61.1,82.5,60.2"/>
<path fill="#004C6C" d="M59.9,62.2c0-1.4,1.2-2.1,3.1-2.1c1.4,0,2,0.2,2.9,0.3c0.7,0.2,1-0.3,1.1-0.5c0.1-0.4-0.1-0.9-0.6-1
	c-0.7-0.3-2-0.7-3.8-0.7c-2.9,0-5.2,1.5-5.2,4.2c0,5.2,7.5,3.6,7.5,7.4c0,1.3-0.9,2.6-3.7,2.6c-1.6,0-2.1-0.2-2.8-0.3
	c-0.6-0.2-0.9,0.2-1,0.5c-0.1,0.3-0.1,0.7,0.5,1c0.7,0.3,2.3,0.7,3.8,0.7c3,0,5.9-1.4,5.9-4.7C67.4,64.1,59.9,65.6,59.9,62.2"/>
<path fill="#004C6C" d="M39.6,58.2c-3.6,0-7.4,0.8-7.4,7.1v7.2c0,0.7,0.6,1.3,1.3,1.3s1.3-0.6,1.3-1.3V65c0-1.9,0-3.2,0.4-3.6
	c0.5-0.6,1.8-0.5,4.4-0.5c0.7,0,1.3-0.6,1.3-1.3C41,58.8,40.4,58.2,39.6,58.2"/>
<path fill="#004C6C" d="M101.8,58.2c-3.5,0-7.4,0.8-7.4,7.1v7.2c0,0.7,0.6,1.3,1.3,1.3c0.7,0,1.3-0.6,1.3-1.3V65
	c0-1.9,0-3.2,0.4-3.6c0.6-0.6,1.8-0.5,4.4-0.5c0.7,0,1.3-0.6,1.3-1.3C103.1,58.8,102.5,58.2,101.8,58.2"/>
<path fill="#004C6C" d="M191.8,58.2c-3.5,0-7.4,0.8-7.4,7.1v7.2c0,0.7,0.6,1.3,1.3,1.3c0.7,0,1.3-0.6,1.3-1.3V65
	c0-1.9,0-3.2,0.4-3.6c0.5-0.6,1.8-0.5,4.4-0.5c0.7,0,1.3-0.6,1.3-1.3C193.1,58.8,192.5,58.2,191.8,58.2"/>
<path fill="#004C6C" d="M14.4,52.5c-0.7-0.3-1.5,0-1.8,0.6c-0.2,0.5-4.9,9.8-4.9,9.8H7.6c0,0-4.8-9.4-5-9.8c-0.2-0.4-1-1-1.9-0.5
	c-0.7,0.4-0.8,1.3-0.5,1.9c0.2,0.3,6.1,10.7,6.1,10.7v7.4c0,0.4,0.3,1.3,1.3,1.3c0.9,0,1.3-0.8,1.3-1.3V65c0,0,5.9-10.5,6.1-10.8
	C15.3,53.7,15.1,52.8,14.4,52.5"/>
<path fill="#004C6C" d="M54.2,71.8c-0.5-0.5-5.7-6.1-5.7-6.1v0c0,0,5.3-4.8,5.5-5c0.2-0.2,0.6-1-0.1-1.6c-0.4-0.4-1.1-0.5-1.6,0.1
	c-0.2,0.2-5.8,6.1-5.8,6.1h0V53.6c0-0.7-0.6-1.3-1.3-1.3c-0.7,0-1.3,0.6-1.3,1.3v18.9c0,0.7,0.6,1.3,1.3,1.3c0.7,0,1.3-0.6,1.3-1.3
	v-6.3l0,0c0,0,5.5,6.8,5.9,7.2c0.4,0.5,1.3,0.6,1.8,0.1C54.7,73,54.7,72.2,54.2,71.8"/>
<path fill="#004C6C" d="M113.3,64.9l-6.6,0.4c0-3.7,1.7-5.4,3.8-5.4c2.3,0,3.3,2,3.5,4.3C114,64.7,114,64.9,113.3,64.9 M116.7,65.4
	c0-3.3-1.7-7.3-6-7.3c-4,0-6.6,3.3-6.6,8.3c0,5.4,3.3,7.8,7.5,7.8c2.3,0,3.6-0.6,4.1-0.8c0.5-0.2,0.6-0.6,0.5-1
	c-0.1-0.4-0.5-0.6-1-0.5c-0.6,0.2-1.2,0.4-2.9,0.4c-3.5,0-5.4-1.8-5.5-5.8h8.8C116.6,66.5,116.7,65.9,116.7,65.4"/>
<path fill="#004C6C" d="M178,64.9l-6.6,0.4c0-3.7,1.7-5.4,3.8-5.4c2.3,0,3.3,2,3.5,4.3C178.7,64.7,178.7,64.9,178,64.9 M181.3,65.4
	c0-3.3-1.7-7.3-6-7.3c-4,0-6.6,3.3-6.6,8.3c0,5.4,3.3,7.8,7.5,7.8c2.3,0,3.6-0.6,4.1-0.8c0.5-0.2,0.6-0.6,0.5-1
	c-0.1-0.4-0.5-0.6-1-0.5c-0.6,0.2-1.2,0.4-3,0.4c-3.5,0-5.4-1.8-5.4-5.8h8.8C181.3,66.5,181.3,65.9,181.3,65.4"/>
<path fill="#004C6C" d="M152.2,66.5c-1.4,0-6.1,0.1-6.1,3.4c0,1.5,0.9,2.7,2.4,2.7C152.8,72.6,152.2,71.3,152.2,66.5 M145.3,59.4
	c0.9-0.5,2.2-1.1,4.5-1.1c2.5,0,5.1,2.1,5.1,6.2v3.7c0,4.4-0.2,6.2-7.2,6.2c-2.2,0-4.3-1.2-4.3-4.1c0-3.8,3.4-4.8,8.9-4.9v-0.8
	c0-3.7-2.2-4.2-3-4.2c-1.4,0-2.1,0.1-3.3,0.6C144.8,61.3,144.4,60,145.3,59.4"/>
<path fill="#004C6C" d="M166.8,72.5c-0.1-0.4-0.4-0.5-0.7-0.4c-0.5,0.1-0.8,0.2-1.5,0.2c-1.2,0-2.2-0.4-2.2-2.1v-9.5h3.5
	c0.5,0,1-0.4,1-1c0-0.5-0.4-1-1-1h-3.5v-3c0-0.7-0.6-1.3-1.3-1.3c-0.7,0-1.3,0.6-1.3,1.3v3h-2.5c-0.7,0-0.8,1.3,0,1.4
	c0.5,0.1,2.6,0.5,2.6,0.5v9.8c0,2.9,1.7,3.7,3.9,3.7c1.2,0,2-0.2,2.7-0.5C166.8,73.3,166.9,72.9,166.8,72.5"/>
<path fill="#004C6C" d="M142.4,53.1c-0.6-0.1-1.4,0.1-1.7,1c-0.3,1.1-4.5,15.8-4.5,15.8h-0.1c0,0-3.8-14.5-4.1-15.7
	c-0.3-1.4-2.5-1.5-2.8,0c-0.4,1.6-3.8,15.8-3.8,15.8h-0.1c0,0-4.6-15.6-4.7-15.9c-0.3-0.9-1.1-1.1-1.6-1c-0.9,0.2-1.1,1.2-1,1.6
	c0.3,0.8,5.1,15.3,6,17.9c0.6,1.8,2.4,1.3,2.8,0c0.3-1.3,3.8-15.8,3.8-15.8h0.1c0,0,4.1,15.5,4.2,15.8c0.4,1.3,2.2,1.6,2.7,0
	c0.1-0.3,5.8-17.8,5.9-17.9C143.5,54.3,143.2,53.4,142.4,53.1"/>
<path fill="#A2DCED" d="M188.3,45.6c0,0,4.6,0,4.6-4.6V4.6c0,0,0-4.6-4.6-4.6H4.6C4.6,0,0,0,0,4.6v36.5c0,0,0,4.6,4.6,4.6H188.3z"/>
<path fill="#00B5EF" d="M4.6,45.6h183.7c0,0,4.6,0,4.6-4.6V29.4c-11.8-1.4-35-3.8-50.6-3.8c-26.7,0-71.7-12.9-130.1-12.9
	c-3.2,0-7.3,0.2-12.1,0.6v27.7C0,41.1,0,45.6,4.6,45.6"/>
<path fill="#004C6C" d="M10,27.2c39.6,0,71.3-3,75.1-3c23.2,0,80.7,7.1,107.8,8.5V11.1c-1.1,0-2.2,0-3.4,0
	c-29,0-96.5,12.5-103.9,12.5C74,23.6,39.2,12.8,7.9,12.8c-2.5,0-5.1,0.1-7.9,0.2V27C4,27.1,7.9,27.2,10,27.2"/>
<path fill="#FFFFFF" d="M9.4,36.8c68.8,0,103.1-10.7,130.6-19.4c17.3-5.4,31-9.7,48.3-9.7h4.5v-1h-4.5c-17.5,0-31.3,4.3-48.7,9.8
	C112.2,25.1,78,35.8,9.4,35.8c-0.1,0-4.6,0-9.4,0v1C4.6,36.8,9,36.8,9.4,36.8"/>
<path fill="#FFFFFF" d="M10.6,7.5c7.1,0,21.6,1,38.5,7c0.3,0.1,30,11.6,50.2,14.1c0.7,0.1,49.9,6.8,89.9,7.4h3.6v-0.9l-3.6-0.1
	c-33.9,0.4-89.1-6.9-89.8-7c-20.1-2.5-49.7-14-50-14.1c-17.1-6.1-31.6-7-38.7-7.1H0v0.6H10.6z"/>
</svg>
