<svg xmlns="http://www.w3.org/2000/svg" viewBox="0 0 810.27 160"><defs><style>.cls-1{fill:#fff;}</style></defs><g id="Layer_2" data-name="Layer 2"><g id="Layer_1-2" data-name="Layer 1"><rect class="cls-1" x="53.33" width="53.33" height="26.67"/><rect class="cls-1" y="133.33" width="53.33" height="26.67"/><path class="cls-1" d="M106.67,133.33v-9.81a38.1,38.1,0,0,0-28.24-36.8L28.24,73.28A38.1,38.1,0,0,1,0,36.48V26.67H53.33V133.33Z"/><path class="cls-1" d="M177.13,99.43a20.84,20.84,0,0,0,7.65,15.08q6.9,5.68,18,5.69,9.7,0,15.69-4.17a13.35,13.35,0,0,0,6-11.6A11.09,11.09,0,0,0,221.16,96a21.54,21.54,0,0,0-8.87-4.77,152.92,152.92,0,0,0-15.76-3.49A89.22,89.22,0,0,1,178.87,83a27.76,27.76,0,0,1-12-9q-4.64-6.06-4.63-15.92a28.42,28.42,0,0,1,4.78-16.22,31.49,31.49,0,0,1,13.34-11.06,50.82,50.82,0,0,1,39.94.3,35,35,0,0,1,14.09,11.67,31.77,31.77,0,0,1,5.61,17H222.9a18.94,18.94,0,0,0-7.12-13.19q-6.21-5-15.76-5-9.26,0-14.78,4a13.15,13.15,0,0,0-5.54,11.29A10.65,10.65,0,0,0,183,65a20.73,20.73,0,0,0,8.72,4.54q5.46,1.52,15.61,3.34A87.59,87.59,0,0,1,225,77.76a29.35,29.35,0,0,1,12.12,8.94q4.69,5.91,4.7,15.61a29.46,29.46,0,0,1-5,16.83,33.4,33.4,0,0,1-13.95,11.59,47.51,47.51,0,0,1-20.31,4.17,51,51,0,0,1-22.13-4.55,36.13,36.13,0,0,1-14.93-12.65A33.72,33.72,0,0,1,160,99.13Z"/><path class="cls-1" d="M314.6,62.75q8.49,7.27,8.49,20.77V134H308.84l-1.36-11.06a30.89,30.89,0,0,1-10.38,8.86,31.51,31.51,0,0,1-14.63,3.11q-12.89,0-20.61-6.06t-7.73-16.68q0-12,8.56-18.41t24.78-6.44h19.4v-4.7a12.45,12.45,0,0,0-4.55-10.23q-4.54-3.72-12.58-3.72-7.12,0-11.74,3A12,12,0,0,0,272.47,80H256.4q1.22-11.67,10.3-18.11t23.8-6.44Q306.12,55.48,314.6,62.75Zm-13.56,54q5.68-5.46,5.83-14.55V99.43H286.56q-7.57,0-11.67,3t-4.09,8.71a9.72,9.72,0,0,0,3.86,8q3.87,3,10.54,3Q295.36,122.17,301,116.71Z"/><path class="cls-1" d="M448.17,63.74q8,8.26,8,26.45V134H439.83V90.34q0-10.16-4.09-15.46t-12.13-5.31q-8.49,0-13.41,6T405.27,92v42H388.75V90.34q0-10.31-4.17-15.54t-12.2-5.23a16,16,0,0,0-13.26,6.22q-4.94,6.21-4.93,16.67V134H337.82V56.39h14.25l1.82,10.15q8.33-10.92,22.73-11.06A29,29,0,0,1,391,59a22.86,22.86,0,0,1,9.55,10.61,29.17,29.17,0,0,1,10.76-10.38q6.68-3.72,16.07-3.71Q440.14,55.48,448.17,63.74Z"/><path class="cls-1" d="M468.17,96.37V94c0-24.56,16.85-39.82,40.14-39.82s40.3,15.26,40.3,39.82v2.36c0,24.71-17,39.82-40.3,39.82S468.17,121.08,468.17,96.37Zm64.22-.47V94.48c0-16-9.75-25.81-24.08-25.81-14.17,0-23.92,9.76-23.92,25.81V95.9c0,16.21,9.75,25.81,23.92,25.81S532.39,112.11,532.39,95.9Z"/><path class="cls-1" d="M573,118.41V70.08H551.6V56.39H573V30.73h16.21V56.39h20.62V70.08H589.22v45.49c0,3.15,1.42,4.73,4.41,4.73h16.21V134H588.43C578.83,134,573,128,573,118.41Z"/><path class="cls-1" d="M624,34.82c0-6.61,4.72-11,11.17-11s11.18,4.4,11.18,11-4.88,11-11.18,11S624,41.44,624,34.82Zm3,21.57h16.21V134H627Z"/><path class="cls-1" d="M720.09,127.24q-9.4,7.67-24.1,7.66A40.78,40.78,0,0,1,675.68,130a33.61,33.61,0,0,1-13.57-14A44.34,44.34,0,0,1,657.34,95a42.8,42.8,0,0,1,4.85-20.77A34.19,34.19,0,0,1,675.91,60.4a41.61,41.61,0,0,1,20.54-4.92q14.55,0,23.79,7.65T731.76,84H714.94a19,19,0,0,0-6.67-10.61A19.28,19.28,0,0,0,696,69.42a19.69,19.69,0,0,0-15.84,7.12q-6,7.13-6,18.5t6,18.72a21.33,21.33,0,0,0,28.42,3.18,18.56,18.56,0,0,0,6.52-10.84h16.67Q729.5,119.59,720.09,127.24Z"/><path class="cls-1" d="M758.28,108.37A13.14,13.14,0,0,0,764,118.3q5.24,3.87,13.56,3.87,7.43,0,12.05-2.81t4.63-7.5q0-3.94-2.13-5.91a12.3,12.3,0,0,0-5.68-2.81q-3.55-.83-11-1.74a96.1,96.1,0,0,1-16.75-3.26,23.1,23.1,0,0,1-10.61-6.51q-4-4.47-4-12a21,21,0,0,1,4-12.66,26,26,0,0,1,11.07-8.56,40.14,40.14,0,0,1,16-3q14.7,0,23.87,6.52t9.93,18.34H793a12.15,12.15,0,0,0-5.3-8.71,19.55,19.55,0,0,0-11.82-3.41q-7.12,0-11.52,2.72a8.37,8.37,0,0,0-4.4,7.43,6.25,6.25,0,0,0,2.2,5.23,13,13,0,0,0,5.53,2.43q3.33.67,10.76,1.59a84.84,84.84,0,0,1,16.83,3.26,23.43,23.43,0,0,1,10.91,7q4.1,4.77,4.09,13A20.46,20.46,0,0,1,806,123.46a26.76,26.76,0,0,1-11.67,8.48,44.76,44.76,0,0,1-16.67,3q-15.62,0-25.24-7.05t-9.93-19.48Z"/></g></g></svg>